<?xml version="1.0" encoding="UTF-8"?>
<svg xmlns="http://www.w3.org/2000/svg" fill="none" viewBox="0 0 24 24"><path fill="#1E1E20" fill-rule="evenodd" d="M12 3.9a8.1 8.1 0 1 0 0 16.2 8.1 8.1 0 0 0 0-16.2zM2.1 12c0-5.468 4.432-9.9 9.9-9.9s9.9 4.432 9.9 9.9-4.432 9.9-9.9 9.9-9.9-4.432-9.9-9.9zM12 7.9A4.1 4.1 0 0 0 7.9 12a.9.9 0 0 1-1.8 0 5.9 5.9 0 0 1 9.394-4.754l.359-.371a.9.9 0 1 1 1.294 1.25l-2.908 3.01a2.4 2.4 0 1 1-1.233-1.314l1.221-1.264A4.078 4.078 0 0 0 12 7.9zm4.501 1.741a.9.9 0 0 1 1.129.59c.175.56.27 1.154.27 1.769a.9.9 0 0 1-1.8 0c0-.43-.066-.843-.188-1.23a.9.9 0 0 1 .59-1.129zM12 11.4a.6.6 0 1 0 0 1.2.6.6 0 0 0 0-1.2z" clip-rule="evenodd" style="fill: #990ae3;"/></svg>
