<?xml version="1.0" encoding="UTF-8"?>
<svg xmlns="http://www.w3.org/2000/svg" fill="none" viewBox="0 0 24 24"><path fill="#1E1E20" fill-rule="evenodd" d="M4.6 2.5a.9.9 0 0 1 .9-.9h14a.9.9 0 0 1 .9.9v19a.9.9 0 0 1-.9.9h-14a.9.9 0 0 1-.9-.9v-3.1h-.1a.9.9 0 0 1 0-1.8h.1v-1.7h-.1a.9.9 0 0 1 0-1.8h.1v-2.2h-.1a.9.9 0 0 1 0-1.8h.1V7.4h-.1a.9.9 0 0 1 0-1.8h.1V2.5zm1.8 4.9h.1a.9.9 0 0 0 0-1.8h-.1V3.4h12.2v17.2H6.4v-2.2h.1a.9.9 0 0 0 0-1.8h-.1v-1.7h.1a.9.9 0 0 0 0-1.8h-.1v-2.2h.1a.9.9 0 0 0 0-1.8h-.1V7.4zm6.04 1.5c-.595 0-1.121.504-1.121 1.181 0 .322.121.61.314.82.209.227.495.361.807.361.313 0 .599-.134.807-.36.194-.212.315-.499.315-.82 0-.678-.527-1.182-1.122-1.182zM9.52 10.081c0-1.622 1.283-2.981 2.921-2.981s2.922 1.36 2.922 2.981c0 .287-.04.565-.114.828.11.05.223.108.335.176.416.254.829.65 1.08 1.244.249.59.306 1.299.152 2.125-.172.922-1 1.446-1.798 1.446H9.94c-.857 0-1.748-.613-1.824-1.633-.12-1.608.499-2.603 1.3-3.141.08-.054.16-.102.24-.145a3.035 3.035 0 0 1-.136-.9zm1.185 2.398c-.092.032-.19.078-.284.14-.223.15-.576.494-.513 1.476.01.003.02.005.032.005h5.079a.1.1 0 0 0 .03-.005h.003c.098-.55.033-.877-.047-1.066a.846.846 0 0 0-.357-.406 1.491 1.491 0 0 0-.436-.17 2.874 2.874 0 0 1-3.507.026z" clip-rule="evenodd" style="fill: #990ae3;"/></svg>
