<?xml version="1.0" encoding="UTF-8"?>
<svg xmlns="http://www.w3.org/2000/svg" fill="none" viewBox="0 0 24 24"><path fill="#1E1E20" d="M9.286 3.76a.76.76 0 1 1-1.52 0 .76.76 0 0 1 1.52 0zM16.234 3.76a.76.76 0 1 1-1.52 0 .76.76 0 0 1 1.52 0zM5.053 12.335a.651.651 0 1 1-1.303 0 .651.651 0 0 1 1.303 0zM20.25 12.335a.651.651 0 1 1-1.303 0 .651.651 0 0 1 1.303 0zM10.046 12a.76.76 0 1 1-1.52 0 .76.76 0 0 1 1.52 0zM15.474 12a.76.76 0 1 1-1.52 0 .76.76 0 0 1 1.52 0z" style="fill: #990ae3;"/><path fill="#1E1E20" fill-rule="evenodd" d="M8.526 3.9a.14.14 0 1 0 0-.28.14.14 0 0 0 0 .28zm-1.66-.14a1.66 1.66 0 1 1 2.56 1.395v1.287h5.148V5.155a1.658 1.658 0 0 1 .9-3.055 1.66 1.66 0 0 1 .9 3.055v1.287h1.705c.977 0 1.768.792 1.768 1.769v2.593a1.552 1.552 0 0 1 0 3.063V19.5c0 .977-.791 1.768-1.768 1.768H5.92A1.768 1.768 0 0 1 4.153 19.5v-5.633a1.552 1.552 0 0 1 0-3.063V8.211c0-.977.791-1.769 1.768-1.769h1.705V5.155a1.659 1.659 0 0 1-.76-1.395zm-.913 15.708h12.094V8.242H5.953v11.226zM15.473 3.9a.14.14 0 1 0 0-.28.14.14 0 0 0 0 .28zm-6.187 8.24a.14.14 0 1 0 0-.28.14.14 0 0 0 0 .28zM7.626 12a1.66 1.66 0 1 1 3.32 0 1.66 1.66 0 0 1-3.32 0zm7.088.14a.14.14 0 1 0 0-.28.14.14 0 0 0 0 .28zm-1.66-.14a1.66 1.66 0 1 1 3.32 0 1.66 1.66 0 0 1-3.32 0zm-4.077 3.247l-.339.584-.338.584-.227.389a.9.9 0 0 1 .904-1.557zm0 0h.001-.001zm0 0l.005.003.035.02.16.08c.146.07.364.165.64.261.554.194 1.32.384 2.183.384.864 0 1.63-.19 2.184-.384a6.436 6.436 0 0 0 .799-.342 2.1 2.1 0 0 0 .035-.019l.005-.003h-.001m-6.045 0l-.452.779-.452.778.002.001.003.002.007.004.02.011a4.784 4.784 0 0 0 .298.152 8.488 8.488 0 0 0 3.597.82c1.12 0 2.091-.244 2.778-.484a8.21 8.21 0 0 0 1.05-.452l.067-.036.02-.011.007-.004.003-.002s.002-.001-.451-.779l.453.778a.9.9 0 0 0-.904-1.557" clip-rule="evenodd" style="fill: #990ae3;"/></svg>
