<?xml version="1.0" encoding="UTF-8"?>
<svg xmlns="http://www.w3.org/2000/svg" fill="none" viewBox="0 0 24 24"><path fill="#1E1E20" d="M13.038 7.067l-.247 6.876h-1.566l-.247-6.876a1.03 1.03 0 1 1 2.06 0zM13.25 15.984c0 .649-.586 1.234-1.25 1.234-.649 0-1.25-.585-1.25-1.234 0-.633.601-1.234 1.25-1.234.664 0 1.25.601 1.25 1.234z" style="fill: #990ae3;"/><path fill="#1E1E20" fill-rule="evenodd" d="M22 12c0 5.523-4.477 10-10 10S2 17.523 2 12 6.477 2 12 2s10 4.477 10 10zm-1.75 0a8.25 8.25 0 1 1-16.5 0 8.25 8.25 0 0 1 16.5 0z" clip-rule="evenodd" style="fill: #990ae3;"/></svg>
