<?xml version="1.0" encoding="UTF-8"?>
<svg xmlns="http://www.w3.org/2000/svg" fill="none" viewBox="0 0 24 24"><path fill="#1E1E20" fill-rule="evenodd" d="M15.654 3.87a3.872 3.872 0 0 1 5.484 0 3.913 3.913 0 0 1 0 5.5L10.934 19.636a5.34 5.34 0 0 1-7.588 0l-.002-.002a5.42 5.42 0 0 1 0-7.613l.004-.004 8.016-8.015a.9.9 0 0 1 1.272 1.273l-8.013 8.013a3.62 3.62 0 0 0 0 5.08 3.54 3.54 0 0 0 5.034-.002L19.862 8.102a2.113 2.113 0 0 0 0-2.962 2.072 2.072 0 0 0-2.931 0l-9.396 9.456a.607.607 0 0 0 0 .847c.226.228.6.228.827 0l.002-.002 3-3a.9.9 0 0 1 1.272 1.273L9.638 16.71c-.931.936-2.45.935-3.38 0a2.406 2.406 0 0 1 0-3.385l9.396-9.456z" clip-rule="evenodd" style="fill: #990ae3;"/></svg>
