<?xml version="1.0" encoding="UTF-8"?>
<svg xmlns="http://www.w3.org/2000/svg" fill="none" viewBox="0 0 24 24"><path fill="#1E1E20" fill-rule="evenodd" d="M7.625 4c0-.483.392-.875.875-.875h7c.483 0 .875.392.875.875v2.125H19.5A2.875 2.875 0 0 1 22.375 9v9a2.875 2.875 0 0 1-2.875 2.875h-15A2.875 2.875 0 0 1 1.625 18V9A2.875 2.875 0 0 1 4.5 6.125h3.125V4zm1.75 2.125h5.25v-1.25h-5.25v1.25zm-6 7.522V18c0 .621.504 1.125 1.125 1.125h15c.621 0 1.125-.504 1.125-1.125v-4.353a2.867 2.867 0 0 1-1.125.228h-5.162c-.174.856-.93 1.5-1.838 1.5h-1a1.876 1.876 0 0 1-1.837-1.5H4.5c-.4 0-.78-.081-1.125-.228zm6.288-1.522H4.5A1.125 1.125 0 0 1 3.375 11V9c0-.621.504-1.125 1.125-1.125h15c.621 0 1.125.504 1.125 1.125v2c0 .621-.504 1.125-1.125 1.125h-5.162a1.876 1.876 0 0 0-1.838-1.5h-1c-.907 0-1.664.644-1.837 1.5zm1.837.25a.125.125 0 0 0-.125.125v1c0 .069.056.125.125.125h1a.125.125 0 0 0 .125-.125v-1a.125.125 0 0 0-.125-.125h-1z" clip-rule="evenodd" style="fill: #990ae3;"/></svg>
