<?xml version="1.0" encoding="UTF-8"?>
<svg xmlns="http://www.w3.org/2000/svg" fill="none" viewBox="0 0 24 24"><path fill="#1E1E20" fill-rule="evenodd" d="M8.9 5.506v.968a.914.914 0 0 1 0 .052V8.5a.9.9 0 0 1-1.8 0V7.4H5.826c-.018.136-.037.279-.058.425-.075.527-.179 1.167-.291 1.866l-.01.062c-.235 1.456-.513 3.184-.698 4.846-.186 1.678-.269 3.217-.14 4.312.064.556.174.904.284 1.089a.507.507 0 0 0 .076.1.14.14 0 0 0 .011 0h14.001a.56.56 0 0 0 .08-.109c.114-.2.225-.57.29-1.147.13-1.137.046-2.726-.14-4.434-.185-1.692-.463-3.437-.697-4.866l-.073-.445a128.86 128.86 0 0 1-.27-1.699H16.9v1.1a.9.9 0 0 1-1.8 0V7.4H12a.9.9 0 0 1 0-1.8h3.1v-.105l-.005-.072a3.025 3.025 0 0 0-.377-1.226C14.379 3.599 13.675 2.9 12 2.9s-2.377.7-2.719 1.297a3.024 3.024 0 0 0-.38 1.298l-.001.01zM16 5.5l.9-.001V5.473a2.285 2.285 0 0 0-.01-.197 4.823 4.823 0 0 0-.608-1.973C15.621 2.151 14.325 1.1 12 1.1S8.377 2.15 7.719 3.303a4.823 4.823 0 0 0-.619 2.17V5.5L8 5.5h-.9v.1H5a.9.9 0 0 0-.9.9c0 .176-.036.528-.114 1.07-.073.511-.174 1.137-.288 1.846l-.008.05c-.234 1.45-.52 3.222-.71 4.935-.188 1.697-.293 3.408-.14 4.72.076.646.224 1.29.525 1.797.327.551.87.982 1.635.982h14c.782 0 1.324-.458 1.643-1.015.295-.516.442-1.174.517-1.838.153-1.347.049-3.103-.14-4.832-.19-1.745-.475-3.532-.71-4.962l-.074-.453c-.088-.53-.164-.996-.223-1.382-.08-.52-.113-.813-.113-.918a.9.9 0 0 0-.9-.9h-2.1v-.1H16z" clip-rule="evenodd" style="fill: #990ae3;"/></svg>
