<?xml version="1.0" encoding="UTF-8"?>
<svg xmlns="http://www.w3.org/2000/svg" fill="none" viewBox="0 0 24 24"><path fill="#1E1E20" fill-rule="evenodd" d="M3.999 10.73c.292-.104.62-.227.966-.368.937-.383 1.931-.869 2.704-1.42L5.671 6.944A8.064 8.064 0 0 0 4 10.731zm2.945-5.059L8.942 7.67c.551-.773 1.037-1.767 1.42-2.704.14-.346.264-.673.369-.966A8.063 8.063 0 0 0 6.944 5.67zm5.713-1.745l-.01.03c-.141.433-.35 1.03-.62 1.69-.422 1.034-1.026 2.3-1.799 3.31L12 10.726l5.056-5.056a8.061 8.061 0 0 0-4.399-1.745zm5.672 3.018L13.273 12l1.771 1.772c1.01-.773 2.276-1.377 3.31-1.8.66-.27 1.256-.478 1.69-.62l.03-.01a8.061 8.061 0 0 0-1.745-4.398zM20 13.27c-.293.105-.62.228-.966.37-.937.382-1.931.868-2.704 1.42l1.998 1.997A8.064 8.064 0 0 0 20 13.269zm-2.945 5.06l-1.998-1.998c-.551.773-1.037 1.767-1.42 2.704-.14.346-.264.674-.369.966a8.064 8.064 0 0 0 3.787-1.672zm-5.713 1.745l.01-.03c.141-.434.35-1.03.62-1.69.422-1.034 1.026-2.3 1.799-3.31L12 13.273l-5.056 5.056a8.06 8.06 0 0 0 4.399 1.745zM5.67 17.056L10.727 12l-1.772-1.772c-1.008.773-2.275 1.377-3.31 1.8-.658.27-1.256.478-1.688.62l-.03.01a8.061 8.061 0 0 0 1.744 4.398zM2.1 12c0-5.468 4.432-9.9 9.9-9.9s9.9 4.432 9.9 9.9-4.432 9.9-9.9 9.9-9.9-4.432-9.9-9.9z" clip-rule="evenodd" style="fill: #990ae3;"/></svg>
