<?xml version="1.0" encoding="UTF-8"?>
<svg xmlns="http://www.w3.org/2000/svg" fill="none" viewBox="0 0 24 24"><path fill="#1E1E20" fill-rule="evenodd" d="M3.5 7.9a.1.1 0 0 0-.1.1v8a.1.1 0 0 0 .1.1h15a.1.1 0 0 0 .1-.1v-1.9H21a.1.1 0 0 0 .1-.1v-4a.1.1 0 0 0-.1-.1h-2.4V8a.1.1 0 0 0-.1-.1h-3a.9.9 0 1 1 0-1.8h3c1.05 0 1.9.85 1.9 1.9v.1h.6c1.05 0 1.9.85 1.9 1.9v4a1.9 1.9 0 0 1-1.9 1.9h-.6v.1a1.9 1.9 0 0 1-1.9 1.9h-15A1.9 1.9 0 0 1 1.6 16V8c0-1.05.85-1.9 1.9-1.9H12a.9.9 0 1 1 0 1.8H3.5z" clip-rule="evenodd" style="fill: #990ae3;"/><path fill="#1E1E20" fill-rule="evenodd" d="M6.5 10.4a.1.1 0 0 0-.1.1v3a.1.1 0 0 0 .1.1h5.827l-3.17-3.17a.1.1 0 0 0-.071-.03H6.5zm-1.9.1c0-1.05.85-1.9 1.9-1.9h2.586c.504 0 .987.2 1.343.556l4.707 4.708A.9.9 0 0 1 14.5 15.4h-8a1.9 1.9 0 0 1-1.9-1.9v-3z" clip-rule="evenodd" style="fill: #990ae3;"/></svg>
