<?xml version="1.0" encoding="UTF-8"?>
<svg xmlns="http://www.w3.org/2000/svg" fill="none" viewBox="0 0 24 24"><path fill="#1E1E20" fill-rule="evenodd" d="M7.5 4.4a4.1 4.1 0 0 0-4.1 4.1.9.9 0 0 1-1.8 0 5.9 5.9 0 0 1 5.9-5.9c.98 0 1.937.456 2.719.982a10.813 10.813 0 0 1 1.801 1.55c.662-.716 1.296-1.328 2.018-1.766.859-.52 1.79-.766 2.962-.766a5.9 5.9 0 0 1 4.72 9.44l-.03.042-9.036 9.537a.9.9 0 0 1-1.307 0l-9-9.5A.9.9 0 0 1 3 10.6h3.444l1.251-2.502a.9.9 0 0 1 1.583-.051l2.661 4.562.756-1.511a.9.9 0 0 1 .805-.498H16a.9.9 0 0 1 0 1.8h-1.943l-1.252 2.502a.9.9 0 0 1-1.582.052L8.561 10.39l-.756 1.511A.9.9 0 0 1 7 12.4H5.093L12 19.691l8.31-8.77A4.1 4.1 0 0 0 17 4.4c-.89-.001-1.49.177-2.029.504-.575.349-1.13.894-1.894 1.74-.595.66-1.601.591-2.141-.029a9.192 9.192 0 0 0-1.722-1.54C8.55 4.628 7.953 4.4 7.5 4.4z" clip-rule="evenodd" style="fill: #990ae3;"/></svg>
