<?xml version="1.0" encoding="UTF-8"?>
<svg xmlns="http://www.w3.org/2000/svg" fill="none" viewBox="0 0 24 24"><path fill="#1E1E20" fill-rule="evenodd" d="M7.333 1.56a.9.9 0 0 1 0 1.273 6.6 6.6 0 0 0 0 9.334.9.9 0 0 1-1.273 1.273 8.4 8.4 0 0 1 0-11.88.9.9 0 0 1 1.273 0zm9.334 0a.9.9 0 0 1 1.273 0 8.4 8.4 0 0 1 0 11.88.9.9 0 1 1-1.273-1.273 6.6 6.6 0 0 0 0-9.334.9.9 0 0 1 0-1.273zm-6.86 2.475a.9.9 0 0 1 0 1.273 3.1 3.1 0 0 0 0 4.384.9.9 0 0 1-1.272 1.273 4.9 4.9 0 0 1 0-6.93.9.9 0 0 1 1.273 0zm4.385 0a.9.9 0 0 1 1.273 0 4.9 4.9 0 0 1 0 6.93.9.9 0 1 1-1.273-1.273 3.1 3.1 0 0 0 0-4.384.9.9 0 0 1 0-1.273zM12 6.1a.9.9 0 0 1 .9.9v1a.9.9 0 0 1-1.8 0V7a.9.9 0 0 1 .9-.9zm0 6a.9.9 0 0 1 .9.9v8a.9.9 0 0 1-1.8 0v-8a.9.9 0 0 1 .9-.9z" clip-rule="evenodd" style="fill: #990ae3;"/></svg>
