<?xml version="1.0" encoding="UTF-8"?>
<svg xmlns="http://www.w3.org/2000/svg" fill="none" viewBox="0 0 24 24"><path fill="#1E1E20" fill-rule="evenodd" d="M12.226 1.764a.9.9 0 0 1 1.104-.633l2.896.786a1.9 1.9 0 0 1 1.336 2.331l-2.069 7.627a.9.9 0 0 1-1.737-.472l2.069-7.626a.1.1 0 0 0-.07-.123l-2.896-.785a.9.9 0 0 1-.633-1.105zM6 2.9a.1.1 0 0 0-.1.1v17.5a.1.1 0 0 0 .1.1h9a.1.1 0 0 0 .1-.1V16a.9.9 0 1 1 1.8 0v4.5a1.9 1.9 0 0 1-1.9 1.9H6a1.9 1.9 0 0 1-1.9-1.9V3c0-1.05.85-1.9 1.9-1.9h4a.9.9 0 0 1 0 1.8H6zm15.854 6.815a.9.9 0 0 1-.57 1.139l-2 .667a.9.9 0 1 1-.569-1.708l2-.667a.9.9 0 0 1 1.139.57zm-3.708 4.334a.9.9 0 0 1 1.139-.57l2 .667a.9.9 0 0 1-.57 1.708l-2-.667a.9.9 0 0 1-.569-1.138zM9.1 19a.9.9 0 0 1 .9-.9h1a.9.9 0 0 1 0 1.8h-1a.9.9 0 0 1-.9-.9z" clip-rule="evenodd" style="fill: #990ae3;"/></svg>
