<?xml version="1.0" encoding="UTF-8"?>
<svg xmlns="http://www.w3.org/2000/svg" fill="none" viewBox="0 0 24 24"><path fill="#1E1E20" fill-rule="evenodd" d="M12 1.1a.9.9 0 0 1 .9.9v2a.9.9 0 0 1-1.8 0V2a.9.9 0 0 1 .9-.9zM4.114 4.114a.9.9 0 0 1 1.272 0l1.415 1.414A.9.9 0 1 1 5.528 6.8L4.114 5.386a.9.9 0 0 1 0-1.272zm15.936.25a.9.9 0 0 1 0 1.272l-1.414 1.415a.9.9 0 0 1-1.273-1.273l1.415-1.414a.9.9 0 0 1 1.272 0zM12 7.9a4.1 4.1 0 0 0-2.46 7.38c.246.186.376.437.445.597.078.18.133.376.176.565.085.379.14.835.177 1.294.075.925.085 1.983.08 2.737 0 .078.062.127.116.127h2.907c.054 0 .12-.05.117-.132a42.871 42.871 0 0 1-.017-1.068H12a.9.9 0 1 1 0-1.8h1.592c.019-.267.045-.526.08-.764.05-.34.13-.729.285-1.037.158-.313.408-.488.528-.568l.134-.087.019-.011c.026-.017.036-.025.037-.026A4.1 4.1 0 0 0 12 7.9zm3.35 10.62v.008c-.018.658-.008 1.343.007 1.889a1.925 1.925 0 0 1-1.915 1.983h-2.908a1.923 1.923 0 0 1-1.916-1.939 31.792 31.792 0 0 0-.074-2.58 7.993 7.993 0 0 0-.14-1.045 1.93 1.93 0 0 0-.054-.2 5.9 5.9 0 1 1 7.498-.163 2.089 2.089 0 0 1-.311.22l-.003.003-.016.055c-.022.09-.045.204-.065.346-.042.283-.07.634-.088 1.021-.007.132-.011.267-.015.402zm-7.026-1.948l.005.01a.062.062 0 0 1-.005-.01zM1.1 12a.9.9 0 0 1 .9-.9h2a.9.9 0 1 1 0 1.8H2a.9.9 0 0 1-.9-.9zm18 0a.9.9 0 0 1 .9-.9h2a.9.9 0 0 1 0 1.8h-2a.9.9 0 0 1-.9-.9z" clip-rule="evenodd" style="fill: #990ae3;"/></svg>
