<?xml version="1.0" encoding="UTF-8"?>
<svg xmlns="http://www.w3.org/2000/svg" fill="none" viewBox="0 0 24 24"><path fill="#1E1E20" fill-rule="evenodd" d="M12.5 3.9a8.6 8.6 0 0 0-8.6 8.6c0 1.476.37 2.862 1.024 4.073a.9.9 0 1 1-1.585.854A10.358 10.358 0 0 1 2.1 12.5c0-5.744 4.656-10.4 10.4-10.4 1.739 0 3.466.643 4.956 1.542.77.465 1.495 1.009 2.144 1.591V3.5a.9.9 0 1 1 1.8 0v4a.9.9 0 0 1-1 .895l-4.5-.5a.9.9 0 1 1 .2-1.79l2.019.225a12.417 12.417 0 0 0-1.593-1.147C15.214 4.391 13.81 3.9 12.5 3.9zm9.1 5.72a.9.9 0 0 1 1.07.691c.15.707.23 1.44.23 2.189 0 2.243-.711 4.322-1.92 6.022a.9.9 0 1 1-1.466-1.044A8.557 8.557 0 0 0 21.1 12.5c0-.622-.066-1.228-.19-1.811a.9.9 0 0 1 .69-1.069zm-9 1.38a.9.9 0 0 1 .9-.9h3a.9.9 0 0 1 .9.9v8.6h.1a.9.9 0 0 1 0 1.8h-11a.9.9 0 1 1 0-1.8h.1V16a.9.9 0 0 1 .9-.9h2.1V14a.9.9 0 0 1 .9-.9h2.1V11zm0 3.9h-1.2v4.7h1.2v-4.7zm1.8 4.7h1.2v-7.7h-1.2v7.7zm-4.8 0v-2.7H8.4v2.7h1.2z" clip-rule="evenodd" style="fill: #990ae3;"/></svg>
