<?xml version="1.0" encoding="UTF-8"?>
<svg xmlns="http://www.w3.org/2000/svg" fill="none" viewBox="0 0 24 24"><path fill="#1E1E20" fill-rule="evenodd" d="M11.65 1.252c2.674-.29 5.564.689 7.986 3.112 2.614 2.613 2.259 5.93 1.4 8.372a16.377 16.377 0 0 1-1.48 3.07 16.602 16.602 0 0 1-.656.992V21.5a.9.9 0 0 1-.9.9h-8a.9.9 0 0 1-.9-.9v-1.69a1.1 1.1 0 0 0-.99-1.095l-3.2-.32a.9.9 0 0 1-.81-.895v-2.717a3.646 3.646 0 0 1-.416-.128 2.609 2.609 0 0 1-1.044-.69A2.156 2.156 0 0 1 2.1 12.5a.9.9 0 0 1 .197-.562l1.834-2.292.021-.182c.034-.279.088-.666.167-1.1.155-.84.425-1.965.896-2.804 1.386-2.472 3.766-4.018 6.435-4.308zm-5.753 8.821a.9.9 0 0 1-.194.49L3.96 12.738a.34.34 0 0 0 .024.03.834.834 0 0 0 .331.2A2.183 2.183 0 0 0 5 13.1l.004.001H5.9v3.586l2.389.238A2.9 2.9 0 0 1 10.9 19.81v.79h6.2v-4.1a.9.9 0 0 1 .192-.555L18 16.5l-.708-.555.001-.002.009-.011.012-.016.026-.035a14.78 14.78 0 0 0 .682-1.015c.424-.692.938-1.649 1.316-2.727.767-2.182.912-4.616-.974-6.503-2.078-2.077-4.442-2.82-6.52-2.594-2.084.226-3.954 1.429-5.06 3.398-.316.565-.546 1.44-.694 2.25a16.693 16.693 0 0 0-.191 1.361l-.002.018v.004zM13 5.1a.9.9 0 0 1 .9.9v.204c.411.098.798.26 1.147.476l.317-.316a.9.9 0 1 1 1.272 1.272l-.316.317c.216.35.378.736.476 1.147H17a.9.9 0 0 1 0 1.8h-.204a3.865 3.865 0 0 1-.298.826l.345.345a.9.9 0 1 1-1.272 1.273l-.227-.227a3.884 3.884 0 0 1-1.444.679V14a.9.9 0 0 1-1.8 0v-.204a3.878 3.878 0 0 1-1.324-.592l-.14.14a.9.9 0 1 1-1.272-1.273l.208-.21a3.873 3.873 0 0 1-.368-.961H9a.9.9 0 1 1 0-1.8h.204c.098-.411.26-.798.476-1.147l-.316-.317a.9.9 0 1 1 1.272-1.272l.317.316c.35-.216.736-.378 1.147-.476V6a.9.9 0 0 1 .9-.9zm0 2.8a2.1 2.1 0 1 0 0 4.2 2.1 2.1 0 0 0 0-4.2z" clip-rule="evenodd" style="fill: #990ae3;"/></svg>
