<?xml version="1.0" encoding="UTF-8"?>
<svg xmlns="http://www.w3.org/2000/svg" fill="none" viewBox="0 0 24 24"><path fill="#1E1E20" fill-rule="evenodd" d="M8 1.6a.9.9 0 0 1 .9.9V7a.9.9 0 0 1-1.8 0V5.9H4a.1.1 0 0 0-.1.1v3.105A.91.91 0 0 1 4 9.1h16.1V6a.1.1 0 0 0-.1-.1h-3.1V7a.9.9 0 0 1-1.8 0V5.9h-3.6a.9.9 0 1 1 0-1.8h3.6V2.5a.9.9 0 1 1 1.8 0v1.6H20c1.05 0 1.9.85 1.9 1.9v14a1.9 1.9 0 0 1-1.9 1.9H4A1.9 1.9 0 0 1 2.1 20V6c0-1.05.85-1.9 1.9-1.9h3.1V2.5a.9.9 0 0 1 .9-.9zm12.1 9.3H4a.917.917 0 0 1-.1-.005V20a.1.1 0 0 0 .1.1h16a.1.1 0 0 0 .1-.1v-9.1zM5.6 13.5a.9.9 0 0 1 .9-.9h1a.9.9 0 1 1 0 1.8h-1a.9.9 0 0 1-.9-.9zm5 0a.9.9 0 0 1 .9-.9h1a.9.9 0 0 1 0 1.8h-1a.9.9 0 0 1-.9-.9zm5 0a.9.9 0 0 1 .9-.9h1a.9.9 0 0 1 0 1.8h-1a.9.9 0 0 1-.9-.9zm-10 4a.9.9 0 0 1 .9-.9h1a.9.9 0 1 1 0 1.8h-1a.9.9 0 0 1-.9-.9zm5 0a.9.9 0 0 1 .9-.9h1a.9.9 0 0 1 0 1.8h-1a.9.9 0 0 1-.9-.9zm5 0a.9.9 0 0 1 .9-.9h1a.9.9 0 0 1 0 1.8h-1a.9.9 0 0 1-.9-.9z" clip-rule="evenodd" style="fill: #990ae3;"/></svg>
