<?xml version="1.0" encoding="UTF-8"?>
<svg xmlns="http://www.w3.org/2000/svg" fill="none" viewBox="0 0 24 25"><path fill="#1E1E20" fill-rule="evenodd" d="M9.618 5.9a.1.1 0 0 0-.09.055L8.082 8.85A1.9 1.9 0 0 1 6.382 9.9H3.5a.1.1 0 0 0-.1.1v9a.1.1 0 0 0 .1.1h17a.1.1 0 0 0 .1-.1v-9a.1.1 0 0 0-.1-.1h-2.882a1.9 1.9 0 0 1-1.7-1.05l-1.447-2.895.805-.402-.805.402a.1.1 0 0 0-.089-.055H9.618zm-1.7-.75a1.9 1.9 0 0 1 1.7-1.05h4.764a1.9 1.9 0 0 1 1.7 1.05l1.447 2.895-.805.402.805-.402a.1.1 0 0 0 .089.055H20.5c1.05 0 1.9.85 1.9 1.9v9a1.9 1.9 0 0 1-1.9 1.9h-17A1.9 1.9 0 0 1 1.6 19v-9c0-1.05.85-1.9 1.9-1.9h2.882a.1.1 0 0 0 .09-.055L7.918 5.15zM12 10.4a3.1 3.1 0 1 0 0 6.2 3.1 3.1 0 0 0 0-6.2zm-4.9 3.1a4.9 4.9 0 1 1 9.8 0 4.9 4.9 0 0 1-9.8 0z" clip-rule="evenodd" style="fill: #990ae3;"/></svg>
