<?xml version="1.0" encoding="UTF-8"?>
<svg xmlns="http://www.w3.org/2000/svg" fill="none" viewBox="0 0 24 25"><path fill="#1E1E20" fill-rule="evenodd" d="M11.5 2.875c-2.266 0-4.12 1.861-4.12 4.18 0 1.113.429 2.122 1.127 2.871a4.079 4.079 0 0 0 5.986 0 4.194 4.194 0 0 0 1.127-2.872c0-2.318-1.854-4.179-4.12-4.179zm-5.87 4.18c0-3.266 2.618-5.93 5.87-5.93 3.252 0 5.87 2.664 5.87 5.93a5.95 5.95 0 0 1-.735 2.874c.525.165 1.142.43 1.743.858a.875.875 0 1 1-1.013 1.426 4.615 4.615 0 0 0-1.563-.7 4.81 4.81 0 0 0-.351-.073 5.82 5.82 0 0 1-3.951 1.543 5.82 5.82 0 0 1-3.95-1.543 4.817 4.817 0 0 0-.379.079 4.578 4.578 0 0 0-1.6.74c-.538.4-1.05.988-1.368 1.881-.32.901-.461 2.162-.167 3.925a.056.056 0 0 0 .023.036.114.114 0 0 0 .072.024H10.5a.875.875 0 0 1 0 1.75H4.13c-.87 0-1.668-.61-1.82-1.522-.331-1.983-.198-3.556.244-4.8.445-1.25 1.185-2.114 1.976-2.7a6.226 6.226 0 0 1 1.835-.924 5.951 5.951 0 0 1-.735-2.875zm10.843 8.683a1.219 1.219 0 0 0-1.735 0 1.258 1.258 0 0 0 0 1.767c1.456 1.467 2.289 2.3 2.762 2.77.473-.47 1.306-1.303 2.762-2.77a1.258 1.258 0 0 0 0-1.767 1.219 1.219 0 0 0-1.735 0 8.748 8.748 0 0 0-.334.36l-.027.03-.007.009-.002.002a.876.876 0 0 1-1.314 0l-.002-.002-.007-.008-.027-.03a15.553 15.553 0 0 0-.334-.361zm1.027-1.43a2.969 2.969 0 0 0-4.004.197 3.008 3.008 0 0 0 0 4.232c1.55 1.563 2.398 2.41 2.86 2.867a60.742 60.742 0 0 0 .524.514l.02.02.008.006.003.003.002.002s.001.001.587-.649l-.586.65c.333.3.839.3 1.172 0l-.586-.65.586.65.001-.001.002-.002.003-.003.008-.007.02-.019.082-.078c.078-.076.213-.208.443-.436.46-.457 1.308-1.304 2.86-2.866a3.008 3.008 0 0 0 0-4.233 2.969 2.969 0 0 0-4.005-.197z" clip-rule="evenodd" style="fill: #990ae3;"/></svg>
