<?xml version="1.0" encoding="UTF-8"?>
<svg xmlns="http://www.w3.org/2000/svg" fill="none" viewBox="0 0 24 24"><path fill="#1E1E20" fill-rule="evenodd" d="M2.1 6c0-1.05.85-1.9 1.9-1.9h16c1.05 0 1.9.85 1.9 1.9v12a1.9 1.9 0 0 1-1.9 1.9h-8.692a.9.9 0 1 1 0-1.8H20a.1.1 0 0 0 .1-.1V6a.1.1 0 0 0-.1-.1H4a.1.1 0 0 0-.1.1v4a.9.9 0 1 1-1.8 0V6zm.543 6.226a.9.9 0 0 1 1.131-.583c1.947.622 3.35 1.334 4.332 2.437.988 1.109 1.455 2.502 1.779 4.257a.9.9 0 1 1-1.77.326c-.304-1.645-.694-2.646-1.352-3.385-.664-.745-1.698-1.333-3.537-1.92a.9.9 0 0 1-.583-1.132zm-.534 3.15a.9.9 0 0 1 1.016-.767c1.027.143 1.804.559 2.41 1.232.573.635.955 1.458 1.301 2.326a.9.9 0 1 1-1.672.666c-.338-.847-.624-1.408-.965-1.786-.306-.34-.688-.567-1.324-.656a.9.9 0 0 1-.766-1.016zm.255 2.488a.9.9 0 0 1 1.272 0l.1.1a.9.9 0 0 1-1.272 1.272l-.1-.1a.9.9 0 0 1 0-1.272z" clip-rule="evenodd" style="fill: #990ae3;"/></svg>
