<?xml version="1.0" encoding="UTF-8"?>
<svg xmlns="http://www.w3.org/2000/svg" fill="none" viewBox="0 0 24 24"><path fill="#1E1E20" fill-rule="evenodd" d="M9 4.375c-.621 0-1.125.504-1.125 1.125v5c0 .621.504 1.125 1.125 1.125h1.5a.875.875 0 0 1 0 1.75H9A2.875 2.875 0 0 1 6.125 10.5v-5A2.875 2.875 0 0 1 9 2.625h10.5A2.875 2.875 0 0 1 22.375 5.5v5a2.875 2.875 0 0 1-2.875 2.875h-4.638l-2.243 2.244a.875.875 0 1 1-1.238-1.238l2.5-2.5a.875.875 0 0 1 .619-.256h5c.621 0 1.125-.504 1.125-1.125v-5c0-.621-.504-1.125-1.125-1.125H9zM1.625 11A2.375 2.375 0 0 1 4 8.625a.875.875 0 1 1 0 1.75.625.625 0 0 0-.625.625v5.5c0 .621.504 1.125 1.125 1.125h3c.232 0 .455.092.619.256l2.5 2.5A.875.875 0 1 1 9.38 21.62l-2.243-2.244H4.5A2.875 2.875 0 0 1 1.625 16.5V11zM17.5 14.625c.483 0 .875.392.875.875v1a2.875 2.875 0 0 1-2.875 2.875h-4a.875.875 0 0 1 0-1.75h4c.621 0 1.125-.504 1.125-1.125v-1c0-.483.392-.875.875-.875z" clip-rule="evenodd" style="fill: #990ae3;"/></svg>
