<?xml version="1.0" encoding="UTF-8"?>
<svg xmlns="http://www.w3.org/2000/svg" fill="none" viewBox="0 0 24 24"><path fill="#1E1E20" fill-rule="evenodd" d="M9.6 3.5c0-1.05.85-1.9 1.9-1.9h9c1.05 0 1.9.85 1.9 1.9v4a1.9 1.9 0 0 1-1.9 1.9h-2.586a.1.1 0 0 0-.07.03l-2.708 2.706a.9.9 0 0 1-1.272-1.272l2.707-2.708a1.9 1.9 0 0 1 1.343-.556H20.5a.1.1 0 0 0 .1-.1v-4a.1.1 0 0 0-.1-.1h-9a.1.1 0 0 0-.1.1v4a.1.1 0 0 0 .1.1h1a.9.9 0 1 1 0 1.8h-1a1.9 1.9 0 0 1-1.9-1.9v-4zm-5 7.5a1.4 1.4 0 1 1 2.3 1.072v.528h2.2v-.528a1.4 1.4 0 1 1 1.8 0v.528h.6c1.05 0 1.9.85 1.9 1.9v1.694a.9.9 0 0 1 0 1.612V20.5a1.9 1.9 0 0 1-1.9 1.9h-7a1.9 1.9 0 0 1-1.9-1.9v-2.694a.9.9 0 0 1 0-1.613V14.5c0-1.05.85-1.9 1.9-1.9h.6v-.528A1.397 1.397 0 0 1 4.6 11zm-.1 3.4a.1.1 0 0 0-.1.1v6a.1.1 0 0 0 .1.1h7a.1.1 0 0 0 .1-.1v-6a.1.1 0 0 0-.1-.1h-7zm.6 2.1a.9.9 0 0 1 .9-.9h.5a.9.9 0 1 1 0 1.8H6a.9.9 0 0 1-.9-.9zm3.5 0a.9.9 0 0 1 .9-.9h.5a.9.9 0 1 1 0 1.8h-.5a.9.9 0 0 1-.9-.9zm1.242 2.181a.9.9 0 0 1-.524 1.16c-.42.16-.824.267-1.277.267-.442 0-.864-.104-1.32-.252a.9.9 0 0 1 .558-1.712c.391.128.602.164.764.164.15 0 .324-.03.639-.15a.9.9 0 0 1 1.16.523z" clip-rule="evenodd" style="fill: #990ae3;"/></svg>
