<?xml version="1.0" encoding="UTF-8"?>
<svg xmlns="http://www.w3.org/2000/svg" fill="none" viewBox="0 0 24 24"><path fill="#1E1E20" d="M16.487 9.514a.872.872 0 1 0-1.42-1.014l-4.248 5.948-2.18-2.18a.872.872 0 0 0-1.233 1.234l2.908 2.908a.872.872 0 0 0 1.326-.11l4.847-6.786z" style="fill: #990ae3;"/><path fill="#1E1E20" fill-rule="evenodd" d="M22 12c0 5.523-4.477 10-10 10S2 17.523 2 12 6.477 2 12 2s10 4.477 10 10zm-1.75 0a8.25 8.25 0 1 1-16.5 0 8.25 8.25 0 0 1 16.5 0z" clip-rule="evenodd" style="fill: #990ae3;"/></svg>
