<?xml version="1.0" encoding="UTF-8"?>
<svg xmlns="http://www.w3.org/2000/svg" fill="none" viewBox="0 0 24 24"><path fill="#1E1E20" fill-rule="evenodd" d="M15.209 2.601c2.228.035 3.926.862 4.701 2.426.664 1.34.52 2.97-.206 4.591.19.118.399.261.609.43.71.568 1.587 1.549 1.587 2.952 0 1.447-.926 2.315-1.687 2.772-.31.185-.614.319-.865.412a7.871 7.871 0 0 1-.87 2.745 6.308 6.308 0 0 1-2.249 2.4C15.155 21.99 13.77 22.4 12 22.4c-1.768 0-3.155-.41-4.23-1.071a6.307 6.307 0 0 1-2.248-2.4 7.87 7.87 0 0 1-.87-2.745 5.213 5.213 0 0 1-.865-.412C3.027 15.315 2.1 14.447 2.1 13c0-.705.227-1.285.6-1.732.359-.432.815-.693 1.216-.854.117-.046.233-.086.346-.12-.436-1.378-.452-2.666-.108-3.817.43-1.442 1.397-2.575 2.607-3.358 2.335-1.51 5.695-1.804 8.447-.518zm-9.106 7.512c.115-.015.248-.037.4-.065.637-.118 1.52-.338 2.487-.66 1.97-.655 4.123-1.678 5.351-3a.9.9 0 0 1 1.467.214c.326.662.605 1.077 1.003 1.43.297.264.69.518 1.274.8.565-1.282.554-2.317.213-3.006-.381-.769-1.349-1.44-3.291-1.426l-.216.001-.193-.096c-2.213-1.106-4.999-.878-6.859.326-.915.592-1.573 1.397-1.86 2.36-.253.845-.244 1.886.224 3.122zM19.4 11.636v2.52c.426-.283.7-.647.7-1.156 0-.515-.277-.972-.7-1.364zm-1.8-1.044c-.826-.374-1.464-.753-1.984-1.214a5.128 5.128 0 0 1-.834-.951c-1.52 1.23-3.533 2.107-5.224 2.67-1.04.345-2.001.586-2.727.72-.15.029-.295.053-.43.072v3.61-.002.038c.002.032.004.085.01.153.01.139.032.342.077.59.09.498.268 1.15.616 1.793.346.638.854 1.26 1.61 1.725.754.464 1.805.804 3.286.804s2.532-.34 3.286-.804a4.507 4.507 0 0 0 1.61-1.725 6.071 6.071 0 0 0 .617-1.794 5.909 5.909 0 0 0 .087-.776v-4.909zM5.5 15.5h0zm-.9-1.343v-2.078l-.016.007c-.223.09-.393.203-.502.334-.096.115-.182.285-.182.58 0 .509.275.873.7 1.157zm4.65-.416c-.104 0-.305.043-.684.35a.9.9 0 0 1-1.132-1.4c.528-.427 1.124-.75 1.816-.75.693 0 1.288.324 1.815.749a.9.9 0 0 1-1.13 1.4c-.38-.305-.581-.349-.685-.349zm5.5.159c-.104 0-.306.043-.684.349a.9.9 0 1 1-1.132-1.4c.528-.427 1.124-.75 1.817-.749.692 0 1.287.323 1.814.748a.9.9 0 0 1-1.13 1.401c-.38-.306-.581-.349-.686-.349zm-.05 3.535a.9.9 0 0 1-.135 1.266c-.684.552-1.701.748-2.565.748-.863 0-1.88-.195-2.566-.75a.9.9 0 0 1 1.132-1.399c.221.18.75.35 1.434.349.683 0 1.213-.17 1.435-.35a.9.9 0 0 1 1.265.136z" clip-rule="evenodd" style="fill: #990ae3;"/></svg>
