<?xml version="1.0" encoding="UTF-8"?>
<svg xmlns="http://www.w3.org/2000/svg" fill="none" viewBox="0 0 24 24"><path fill="#1E1E20" d="M12.676 7.949c-.678-.678-1.66-1.256-3.049-1.058-1.34.191-2 1.02-2.357 1.89a5.15 5.15 0 0 0-.37 1.7v.02a.9.9 0 0 1-.782.891h-.002l-.021.004-.098.016a5.8 5.8 0 0 0-1.542.516c-.846.43-1.513 1.076-1.556 2.11-.029.698.088 1.515.425 2.12.304.547.786.942 1.676.942h11a.9.9 0 1 1 0 1.8H5c-1.61 0-2.661-.81-3.249-1.866-.554-.997-.687-2.18-.65-3.071.08-1.964 1.414-3.068 2.538-3.64a7.594 7.594 0 0 1 1.523-.568l.002-.015a6.949 6.949 0 0 1 .441-1.645c.517-1.256 1.607-2.677 3.768-2.986 2.111-.302 3.629.62 4.576 1.567.425.425.743.861.964 1.21.182-.054.389-.106.614-.146.794-.145 1.945-.174 2.972.511 1.053.702 1.38 1.752 1.459 2.534.017.172.023.336.022.486.269.071.58.173.895.318.899.412 2.025 1.28 2.025 2.911 0 1.426-.646 2.4-1.284 3a4.493 4.493 0 0 1-1.157.782 2.908 2.908 0 0 1-.123.053l-.011.004-.005.002h-.002s-.001.001-.318-.841l.317.842a.9.9 0 0 1-.64-1.682h.001a2.116 2.116 0 0 0 .193-.096c.14-.08.327-.203.513-.378.362-.339.716-.864.716-1.686 0-.616-.374-.999-.975-1.275a4.033 4.033 0 0 0-1.189-.327l-.011-.001h-.002a.899.899 0 0 1-.797-1.11v-.004l.008-.039a2.866 2.866 0 0 0 .033-.78c-.047-.467-.219-.917-.666-1.215-.473-.315-1.072-.344-1.653-.239a4.223 4.223 0 0 0-.941.293l-.008.003a.9.9 0 0 1-1.226-.45l-.007-.016a4.733 4.733 0 0 0-.223-.41 5.315 5.315 0 0 0-.767-.981z" style="fill: #990ae3;"/></svg>
