<?xml version="1.0" encoding="UTF-8"?>
<svg xmlns="http://www.w3.org/2000/svg" fill="none" viewBox="0 0 24 24"><path fill="#1E1E20" d="M21.665 7.17a4.55 4.55 0 0 0-6.215-1.666.9.9 0 1 1-.9-1.559 6.35 6.35 0 0 1 8.674 2.324.9.9 0 1 1-1.56.9z" style="fill: #990ae3;"/><path fill="#1E1E20" d="M19.305 8.532a1.825 1.825 0 0 0-2.493-.668.9.9 0 1 1-.9-1.559 3.625 3.625 0 0 1 4.952 1.327.9.9 0 0 1-1.56.9zM12.681 9.509c-.678-.678-1.66-1.257-3.049-1.058-1.34.19-2 1.02-2.357 1.889a5.152 5.152 0 0 0-.37 1.7v.81l-.782.102h-.002l-.021.003-.098.017a5.793 5.793 0 0 0-1.542.516c-.846.43-1.513 1.075-1.556 2.109-.029.698.088 1.515.425 2.121.304.547.786.942 1.676.942h11a.9.9 0 0 1 0 1.8h-11c-1.61 0-2.661-.81-3.249-1.867-.554-.996-.687-2.179-.65-3.07.081-1.964 1.414-3.069 2.538-3.64a7.586 7.586 0 0 1 1.523-.568l.002-.015a6.948 6.948 0 0 1 .441-1.646c.518-1.256 1.607-2.677 3.768-2.985 2.111-.302 3.629.62 4.576 1.567.425.425.743.86.964 1.21.182-.054.389-.106.614-.147.794-.144 1.945-.173 2.972.512 1.053.702 1.38 1.752 1.46 2.534.016.172.022.335.02.486.27.071.58.173.896.318.899.412 2.025 1.279 2.025 2.91 0 1.426-.646 2.401-1.284 3a4.486 4.486 0 0 1-1.156.783 2.697 2.697 0 0 1-.124.053l-.011.004-.005.002h-.002s-.001.001-.318-.841l.317.842a.9.9 0 0 1-.64-1.682h.001a1.457 1.457 0 0 0 .193-.097 2.69 2.69 0 0 0 .513-.377c.362-.339.716-.864.716-1.686 0-.616-.374-1-.975-1.275a4.034 4.034 0 0 0-1.189-.327l-.012-.002h-.002l-1.052-.088.256-1.02v-.005a1.743 1.743 0 0 0 .035-.215c.018-.157.03-.371.006-.604-.047-.468-.219-.917-.666-1.215-.473-.316-1.072-.344-1.652-.239a4.222 4.222 0 0 0-.942.293l-.008.003a.9.9 0 0 1-1.225-.449l-.998-1.408z" style="fill: #990ae3;"/></svg>
