<svg xmlns="http://www.w3.org/2000/svg" fill="none" viewBox="0 0 24 24"><path fill="#000" fill-opacity=".84" fill-rule="evenodd" d="M5 9.9a.1.1 0 0 0-.1.1v3.894c.079.301.402 1.341 1.275 2.305.87.96 2.332 1.901 4.825 1.901 2.551 0 3.893-.983 4.63-1.935.749-.97.937-1.999.97-2.222V10a.1.1 0 0 0-.1-.1H5zm.561 8.2a7.244 7.244 0 0 1-.72-.692c-1.17-1.293-1.586-2.678-1.692-3.094a1.668 1.668 0 0 1-.049-.413V10c0-1.05.85-1.9 1.9-1.9h11.5c1.05 0 1.9.85 1.9 1.9v.111c.763.045 1.473.23 2.026.663.694.543.974 1.342.974 2.226 0 1.043-.534 1.818-1.314 2.289-.635.382-1.417.56-2.212.601-.195.435-.46.91-.82 1.376-.223.288-.48.57-.773.834H18a.9.9 0 0 1 .878 1.096L18 19l.878.196v.004l-.002.008-.006.024a5.326 5.326 0 0 1-.095.356 8.413 8.413 0 0 1-.307.868 5.56 5.56 0 0 1-.56 1.043c-.235.333-.561.69-1.003.913a2.19 2.19 0 0 1-.495.166c-.161.037-.344.067-.539.094-.39.053-.873.095-1.408.128-1.073.067-2.405.1-3.73.1-1.324 0-2.656-.033-3.73-.1a20.09 20.09 0 0 1-1.408-.128 6.421 6.421 0 0 1-.538-.094 2.19 2.19 0 0 1-.496-.166c-.483-.243-.789-.645-.981-1.018a4.15 4.15 0 0 1-.368-1.116 6.529 6.529 0 0 1-.111-1.27V18.973s0-.002.9.028l-.9-.029a.9.9 0 0 1 .9-.871h1.56zm-.589 1.8h11.775a3.505 3.505 0 0 1-.313.563c-.135.193-.249.292-.325.334-.01.004-.04.013-.096.026-.092.02-.22.043-.384.065-.33.045-.764.084-1.278.116a61.326 61.326 0 0 1-3.618.096c-1.3 0-2.593-.032-3.618-.096a18.389 18.389 0 0 1-1.277-.116 4.659 4.659 0 0 1-.385-.066 1.172 1.172 0 0 1-.094-.024c-.038-.023-.104-.083-.18-.23a2.378 2.378 0 0 1-.207-.668zM18.4 14.019a2.38 2.38 0 0 0 .758-.272c.306-.185.443-.41.443-.747 0-.497-.142-.698-.284-.81-.15-.117-.427-.233-.916-.274v2.034l-.001.069z" clip-rule="evenodd"/><path fill="#1E1E20" d="M8.264 1.763a.9.9 0 0 1 1.273.001l.001.001.001.002.003.002.006.007.015.015a1.59 1.59 0 0 1 .135.163c.076.1.168.24.257.419.18.36.345.871.345 1.026 0 .702-.19 1.099-.341 1.402l-.009.017c-.095.19-.148.298-.15.588 0 .01.01.076.088.188a1.034 1.034 0 0 0 .117.138v.001a.9.9 0 0 1-1.202 1.34l-.001-.001L8.8 7.07l-.005-.004-.01-.01a1.938 1.938 0 0 1-.12-.12 2.835 2.835 0 0 1-.255-.316c-.174-.25-.414-.684-.41-1.226.005-.701.199-1.096.347-1.395l.007-.015c.094-.187.201-.347.146-.583-.027-.117-.153-.159-.254-.383s-.328-.91.018-1.255zM11.764 1.763a.9.9 0 0 1 1.273.001l.001.001.002.002.002.002.006.007.015.015a1.528 1.528 0 0 1 .135.163c.076.1.168.24.257.419.18.36.345.871.345 1.026 0 .702-.19 1.099-.341 1.402l-.009.017c-.095.19-.148.298-.15.588 0 .01.01.076.088.188a1.035 1.035 0 0 0 .117.138v.001a.9.9 0 0 1-1.202 1.34l-.001-.001-.002-.002-.005-.004-.01-.01a1.678 1.678 0 0 1-.12-.12 2.848 2.848 0 0 1-.255-.316c-.174-.25-.414-.684-.41-1.226.005-.701.199-1.096.347-1.395l.007-.015c.094-.187.2-.355.146-.583-.04-.175-.153-.159-.254-.383s-.328-.91.018-1.255z"/></svg>