<?xml version="1.0" encoding="UTF-8"?>
<svg xmlns="http://www.w3.org/2000/svg" fill="none" viewBox="0 0 24 24"><path fill="#1E1E20" fill-rule="evenodd" d="M12 3.9a8.1 8.1 0 1 0 0 16.2 8.1 8.1 0 0 0 0-16.2zM2.1 12c0-5.468 4.432-9.9 9.9-9.9s9.9 4.432 9.9 9.9-4.432 9.9-9.9 9.9-9.9-4.432-9.9-9.9zm15.043-5.13a.9.9 0 0 1 .217.895l-2 6.5a.9.9 0 0 1-.557.582l-7 2.5a.9.9 0 0 1-1.168-1.094l2-7a.9.9 0 0 1 .618-.618l7-2a.9.9 0 0 1 .89.235zm-7.174 4.263l2.808 2.527-3.93 1.403 1.122-3.93zm4.085 1.255l-2.743-2.47 3.84-1.097-1.097 3.567z" clip-rule="evenodd" style="fill: #990ae3;"/></svg>
