<?xml version="1.0" encoding="UTF-8"?>
<svg xmlns="http://www.w3.org/2000/svg" fill="none" viewBox="0 0 24 24"><path fill="#1E1E20" fill-rule="evenodd" d="M12 3.9a8.1 8.1 0 0 0-3.6 15.359.9.9 0 0 1-.8 1.611A9.9 9.9 0 0 1 2.1 12c0-5.468 4.432-9.9 9.9-9.9s9.9 4.432 9.9 9.9-4.432 9.9-9.9 9.9a.9.9 0 0 1-.9-.9v-3.1h-.6A1.9 1.9 0 0 1 8.6 16v-4.1h-.1a.9.9 0 1 1 0-1.8h1.1V8a.9.9 0 1 1 1.8 0v2.1h1.2V8a.9.9 0 1 1 1.8 0v2.1h1.1a.9.9 0 1 1 0 1.8h-.1V16a1.9 1.9 0 0 1-1.9 1.9h-.6v2.15A8.101 8.101 0 0 0 12 3.9zm1.6 8V16a.1.1 0 0 1-.1.1h-3a.1.1 0 0 1-.1-.1v-4.1h3.2z" clip-rule="evenodd" style="fill: #990ae3;"/></svg>
