<?xml version="1.0" encoding="UTF-8"?>
<svg xmlns="http://www.w3.org/2000/svg" fill="none" viewBox="0 0 24 24"><path fill="#1E1E20" fill-rule="evenodd" d="M14.6 2.471a.9.9 0 0 1 .929-.87c1.847.058 3.33.309 4.48 1.059 1.186.773 1.87 1.975 2.353 3.58a.9.9 0 0 1-1.724.52c-.423-1.407-.93-2.147-1.612-2.592-.718-.469-1.78-.712-3.555-.768a.9.9 0 0 1-.87-.929zM1.6 5a.9.9 0 0 1 .9-.9h9a.9.9 0 0 1 .9.9v7.327l3.464-3.463a.9.9 0 0 1 1.272 0l5 5a.9.9 0 0 1 .264.636v7a.9.9 0 0 1-.9.9h-19a.9.9 0 0 1-.9-.9V5zm10.8 9.873V20.6h8.2v-5.727l-4.1-4.1-4.1 4.1zM10.6 20.6V5.9H3.4v14.7h1.2V18a.9.9 0 0 1 .9-.9h3a.9.9 0 0 1 .9.9v2.6h1.2zm-3 0v-1.7H6.4v1.7h1.2zm7.003-15.168a.9.9 0 0 1 .965-.83c.883.067 1.649.224 2.299.657.656.438 1.078 1.08 1.446 1.855a.9.9 0 1 1-1.626.772c-.313-.66-.56-.957-.818-1.129-.264-.176-.658-.3-1.437-.36a.9.9 0 0 1-.83-.965zM4.6 9a.9.9 0 0 1 .9-.9h3a.9.9 0 0 1 0 1.8h-3a.9.9 0 0 1-.9-.9zm0 3a.9.9 0 0 1 .9-.9h3a.9.9 0 0 1 0 1.8h-3a.9.9 0 0 1-.9-.9zm0 3a.9.9 0 0 1 .9-.9h3a.9.9 0 0 1 0 1.8h-3a.9.9 0 0 1-.9-.9zm9.5 0a.9.9 0 0 1 .9-.9h3a.9.9 0 0 1 0 1.8h-3a.9.9 0 0 1-.9-.9zm0 3a.9.9 0 0 1 .9-.9h3a.9.9 0 0 1 0 1.8h-3a.9.9 0 0 1-.9-.9z" clip-rule="evenodd" style="fill: #990ae3;"/></svg>
