<?xml version="1.0" encoding="UTF-8"?>
<svg xmlns="http://www.w3.org/2000/svg" fill="none" viewBox="0 0 24 24"><path fill="#1E1E20" fill-rule="evenodd" d="M4.864 2.364A.9.9 0 0 1 5.5 2.1H21a.9.9 0 0 1 .9.9v3a.9.9 0 0 1-.9.9h-1.1v13.2h.6a.9.9 0 1 1 0 1.8h-9a.9.9 0 0 1 0-1.8h1.1V6.9H6.4v3.43a.9.9 0 0 1 1.5.67 2.4 2.4 0 1 1-3.3-2.226V6.9H2.5a.9.9 0 0 1-.636-1.536l3-3zM6.329 10.4H5.5a.6.6 0 1 0 .6.6c0-.23.087-.44.23-.6zM14.4 6.9v3.143L17.06 6.9H14.4zm3.7 1.557L14.594 12.6H18.1V8.457zM16.954 14.4H14.4v2.786l2.554-2.786zM14.4 20.1v-.25l3.7-4.036V20.1h-3.7zM5.873 3.9l-1.2 1.2H20.1V3.9H5.873z" clip-rule="evenodd" style="fill: #990ae3;"/></svg>
