<?xml version="1.0" encoding="UTF-8"?>
<svg xmlns="http://www.w3.org/2000/svg" fill="none" viewBox="0 0 24 24"><path fill="#1E1E20" fill-rule="evenodd" d="M12 3.9a8.1 8.1 0 1 0 0 16.2 8.1 8.1 0 0 0 0-16.2zM2.1 12c0-5.468 4.432-9.9 9.9-9.9s9.9 4.432 9.9 9.9-4.432 9.9-9.9 9.9-9.9-4.432-9.9-9.9zm7.264-5.136l2-2a.9.9 0 0 1 1.272 0l2 2a.9.9 0 1 1-1.272 1.272l-.464-.463V9.5a.9.9 0 1 1-1.8 0V7.673l-.464.463a.9.9 0 0 1-1.272-1.272zm-2.5 2.5a.9.9 0 0 1 1.272 0l2 2a.9.9 0 0 1 0 1.272l-2 2a.9.9 0 1 1-1.272-1.272l.463-.464H5.5a.9.9 0 1 1 0-1.8h1.827l-.463-.464a.9.9 0 0 1 0-1.272zm10.272 0a.9.9 0 0 1 0 1.272l-.463.464H18.5a.9.9 0 1 1 0 1.8h-1.827l.463.464a.9.9 0 1 1-1.272 1.272l-2-2a.9.9 0 0 1 0-1.272l2-2a.9.9 0 0 1 1.272 0zM11.1 16.327V14.5a.9.9 0 1 1 1.8 0v1.827l.464-.463a.9.9 0 1 1 1.272 1.272l-2 2a.9.9 0 0 1-1.272 0l-2-2a.9.9 0 0 1 1.272-1.272l.464.463z" clip-rule="evenodd" style="fill: #990ae3;"/></svg>
