<?xml version="1.0" encoding="UTF-8"?>
<svg xmlns="http://www.w3.org/2000/svg" fill="none" viewBox="0 0 24 25"><path fill="#1E1E20" fill-rule="evenodd" d="M10.125 5.5A2.875 2.875 0 0 1 13 2.625h8A2.875 2.875 0 0 1 23.875 5.5v4.516A2.875 2.875 0 0 1 21 12.891h-3.914c-.365 0-.707.177-.918.474l-.454.641a.875.875 0 0 1-1.428-1.012l.455-.641a2.875 2.875 0 0 1 2.345-1.212H21c.621 0 1.125-.504 1.125-1.125V5.5c0-.621-.504-1.125-1.125-1.125h-8c-.621 0-1.125.504-1.125 1.125v1.548a.875.875 0 1 1-1.75 0V5.5zm3.5.992a.875.875 0 0 1 .883-.867l5.5.048a.875.875 0 0 1-.016 1.75l-5.5-.048a.875.875 0 0 1-.867-.883zM8.5 9.875c-1.617 0-2.945 1.329-2.945 2.99 0 .798.307 1.52.807 2.056a2.913 2.913 0 0 0 4.276 0c.5-.536.807-1.258.807-2.056 0-1.661-1.328-2.99-2.945-2.99zm-4.695 2.99c0-2.608 2.093-4.74 4.695-4.74 2.602 0 4.695 2.132 4.695 4.74 0 .768-.182 1.495-.504 2.138.573.21 1.318.56 1.853 1.126.996 1.054 1.591 2.713 1.219 5.21-.14.929-.952 1.536-1.817 1.536H3.054c-.87 0-1.68-.616-1.817-1.541-.223-1.5-.1-2.704.264-3.666.368-.97.96-1.64 1.589-2.094.405-.293.819-.492 1.19-.629a4.76 4.76 0 0 1-.475-2.08zm1.612 3.574a3.313 3.313 0 0 0-1.301.553c-.38.274-.744.679-.978 1.296-.237.623-.36 1.515-.17 2.788 0 .005.003.014.017.026.016.013.04.023.069.023h10.892a.112.112 0 0 0 .07-.023.051.051 0 0 0 .013-.013.024.024 0 0 0 .003-.01c.312-2.087-.21-3.166-.76-3.748-.28-.297-.773-.544-1.286-.72a6.642 6.642 0 0 0-.444-.136 4.653 4.653 0 0 1-3.042 1.13 4.653 4.653 0 0 1-3.083-1.166zM13.625 9c0-.483.392-.875.875-.875h3a.875.875 0 0 1 0 1.75h-3A.875.875 0 0 1 13.625 9z" clip-rule="evenodd" style="fill: #990ae3;"/></svg>
