<?xml version="1.0" encoding="UTF-8"?>
<svg xmlns="http://www.w3.org/2000/svg" fill="none" viewBox="0 0 24 24"><path fill="#1E1E20" fill-rule="evenodd" d="M5.1 3c0-1.05.85-1.9 1.9-1.9h9c1.05 0 1.9.85 1.9 1.9v2.5a.9.9 0 0 1-1.8 0V3a.1.1 0 0 0-.1-.1H7a.1.1 0 0 0-.1.1v17.5a.1.1 0 0 0 .1.1h9a.1.1 0 0 0 .1-.1v-4a.9.9 0 1 1 1.8 0v4a1.9 1.9 0 0 1-1.9 1.9H7a1.9 1.9 0 0 1-1.9-1.9V3zm15.44 3.28a.9.9 0 0 1 .18 1.26l-5.257 7a.9.9 0 0 1-1.374.079l-2.742-2.897a.9.9 0 0 1 1.306-1.237l2.01 2.122L19.28 6.46a.9.9 0 0 1 1.26-.18zM10.6 19a.9.9 0 0 1 .9-.9h1a.9.9 0 1 1 0 1.8h-1a.9.9 0 0 1-.9-.9z" clip-rule="evenodd" style="fill: #990ae3;"/></svg>
