<?xml version="1.0" encoding="UTF-8"?>
<svg xmlns="http://www.w3.org/2000/svg" fill="none" viewBox="0 0 24 24"><path fill="#1E1E20" fill-rule="evenodd" d="M12.1 6c0-1.05.85-1.9 1.9-1.9h6c1.05 0 1.9.85 1.9 1.9v13a1.9 1.9 0 0 1-1.9 1.9h-6a1.9 1.9 0 0 1-1.9-1.9v-4.5a.9.9 0 1 1 1.8 0V19a.1.1 0 0 0 .1.1h6a.1.1 0 0 0 .1-.1V6a.1.1 0 0 0-.1-.1h-6a.1.1 0 0 0-.1.1v1.5a.9.9 0 0 1-1.8 0V6zM10 4.1a.9.9 0 0 1 .9.9v5.827l.964-.963a.9.9 0 1 1 1.272 1.272l-2.5 2.5a.9.9 0 0 1-1.272 0l-2.5-2.5a.9.9 0 0 1 1.272-1.272l.964.963V5a.9.9 0 0 1 .9-.9zm-5.636.264a.9.9 0 0 1 1.272 0l2.5 2.5a.9.9 0 0 1-1.272 1.272L5.9 7.173V13a.9.9 0 1 1-1.8 0V7.173l-.964.963a.9.9 0 1 1-1.272-1.272l2.5-2.5zM15.6 17.5a.9.9 0 0 1 .9-.9h1a.9.9 0 1 1 0 1.8h-1a.9.9 0 0 1-.9-.9z" clip-rule="evenodd" style="fill: #990ae3;"/></svg>
