<?xml version="1.0" encoding="UTF-8"?>
<svg xmlns="http://www.w3.org/2000/svg" fill="none" viewBox="0 0 24 24"><path fill="#1E1E20" fill-rule="evenodd" d="M7 4.9a3.6 3.6 0 1 0 0 7.2 3.6 3.6 0 0 0 0-7.2zM1.6 8.5a5.4 5.4 0 0 1 9.595-3.4H15.5a.9.9 0 0 1 .9.9v2.1H19a.9.9 0 0 1 .787.463l2.5 4.5a.9.9 0 0 1 .113.437V18a.9.9 0 0 1-.9.9h-1.248c-.356 1.074-1.334 2-2.752 2-1.418 0-2.402-.915-2.755-2h-3.987a2.901 2.901 0 0 1-5.516 0H4a.9.9 0 0 1-.9-.9v-5.765A5.382 5.382 0 0 1 1.6 8.5zm3.3 4.976V17.1h.342a2.901 2.901 0 0 1 5.516 0H14.6V6.9h-2.441A5.4 5.4 0 0 1 4.9 13.476zm11.5 1.82V9.9h2.07l2.13 3.833V17.1h-.343c-.342-1.067-1.29-2-2.757-2-.407 0-.774.07-1.1.196zM6.5 5.6a.9.9 0 0 1 .9.9v1.627l1.236 1.237a.9.9 0 0 1-1.272 1.272l-1.5-1.5A.9.9 0 0 1 5.6 8.5v-2a.9.9 0 0 1 .9-.9zM8 16.9a1.1 1.1 0 1 0 0 2.2 1.1 1.1 0 0 0 0-2.2zm9.5 0c-.707 0-1.1.51-1.1 1.1 0 .574.43 1.1 1.1 1.1.664 0 1.1-.543 1.1-1.1 0-.574-.4-1.1-1.1-1.1z" clip-rule="evenodd" style="fill: #990ae3;"/></svg>
