<?xml version="1.0" encoding="UTF-8"?>
<svg xmlns="http://www.w3.org/2000/svg" fill="none" viewBox="0 0 24 24"><path fill="#1E1E20" fill-rule="evenodd" d="M10.514 21.323c.676.552 1.57.663 2.565.52a.9.9 0 0 0 .69-.515l3.337-7.273h3.346a.9.9 0 0 0 .9-.9V2.452a.9.9 0 0 0-.9-.9H7.06c-1.363 0-2.54.95-2.832 2.28l-1.575 7.191a2.9 2.9 0 0 0 2.833 3.522h4.042c-.013.483-.035.955-.056 1.415l-.03.673c-.038.92-.057 1.822.05 2.59.108.759.36 1.56 1.022 2.1zm5.115-8.364L12.353 20.1c-.416.003-.608-.096-.701-.172-.138-.112-.293-.362-.377-.956-.082-.585-.073-1.334-.034-2.265l.028-.638c.034-.749.072-1.575.072-2.424a.9.9 0 0 0-.9-.9H5.485a1.1 1.1 0 0 1-1.074-1.336l1.575-7.192c.111-.505.558-.865 1.074-.865h12.492v8.903h-2.123V5.371a.9.9 0 0 0-1.8 0v7.588z" clip-rule="evenodd" style="fill: #990ae3;"/></svg>
