<?xml version="1.0" encoding="UTF-8"?>
<svg xmlns="http://www.w3.org/2000/svg" fill="none" viewBox="0 0 24 24"><path fill="#1E1E20" fill-rule="evenodd" d="M6 3.4a1.1 1.1 0 0 0-1.1 1.1v16.1h11.6a.6.6 0 0 0 .6-.6.9.9 0 1 1 1.8 0 2.4 2.4 0 0 1-2.4 2.4H4a.9.9 0 0 1-.9-.9v-17A2.9 2.9 0 0 1 6 1.6h12a.9.9 0 0 1 .9.9V8a.9.9 0 0 1-1.8 0V3.4H6zm.1 4.1a.9.9 0 0 1 .9-.9h7a.9.9 0 0 1 0 1.8H7a.9.9 0 0 1-.9-.9zm12.874 2.1a.9.9 0 0 1 .662.264l2.5 2.5a.9.9 0 0 1 .037 1.234l-4 4.5a.9.9 0 0 1-.546.293l-3.5.5a.9.9 0 0 1-.98-1.176l1-3a.899.899 0 0 1 .18-.313l4-4.5a.9.9 0 0 1 .646-.302zM6.1 10.5a.9.9 0 0 1 .9-.9h7a.9.9 0 0 1 0 1.8H7a.9.9 0 0 1-.9-.9zm12.938 1.311l-3.243 3.649-.48 1.443 1.731-.247 3.218-3.62-1.226-1.225zM6.1 13.5a.9.9 0 0 1 .9-.9h4a.9.9 0 0 1 0 1.8H7a.9.9 0 0 1-.9-.9z" clip-rule="evenodd" style="fill: #990ae3;"/></svg>
