<svg xmlns="http://www.w3.org/2000/svg" fill="none" viewBox="0 0 24 24"><path fill="#000" fill-opacity=".84" fill-rule="evenodd" d="M4.364 1.864A.9.9 0 0 1 5 1.6h9a.9.9 0 0 1 .666.295l5 5.5A.9.9 0 0 1 19 8.9h-5a.9.9 0 0 1-.9-.9V3.4H5.9V7a.9.9 0 0 1-1.8 0V2.5a.9.9 0 0 1 .264-.636zM14.9 4.828L16.965 7.1H14.9V4.828zM5 18.1a.9.9 0 0 1 .9.9v1.6h12.2V19a.9.9 0 1 1 1.8 0v2.5a.9.9 0 0 1-.9.9H5a.9.9 0 0 1-.9-.9V19a.9.9 0 0 1 .9-.9z" clip-rule="evenodd"/><path fill="#1E1E20" d="M7.11 10.05H4.83V16h1.14v-2.074h1.138c1.114 0 2.049-.799 2.049-1.93 0-1.139-.935-1.946-2.049-1.946zm-1.14 2.907v-1.938H7c.595 0 1.011.408 1.011.977 0 .57-.416.961-1.011.961H5.97zM12.347 10.05H10.07V16h1.14v-2.074h1.138c1.114 0 2.049-.799 2.049-1.93 0-1.139-.935-1.946-2.049-1.946zm-1.139 2.907v-1.938h1.029c.595 0 1.011.408 1.011.977 0 .57-.416.961-1.011.961h-1.029zM19.574 10.05h-4.675v.969h1.785V16h1.122v-4.981h1.768v-.969z"/><path fill="#1E1E20" fill-rule="evenodd" d="M4.731 9.95H7.11c1.161 0 2.149.845 2.149 2.046 0 1.194-.988 2.03-2.149 2.03H6.07V16.1H4.731V9.95zM5.971 16H4.83v-5.95H7.11c1.114 0 2.049.807 2.049 1.946 0 1.131-.935 1.93-2.049 1.93H5.97V16zm.1-4.881v1.738h.928c.275 0 .502-.09.66-.24a.833.833 0 0 0 .251-.62.86.86 0 0 0-.252-.631.928.928 0 0 0-.66-.247H6.07zM9.968 9.95h2.378c1.161 0 2.149.845 2.149 2.046 0 1.194-.989 2.03-2.149 2.03h-1.039V16.1H9.97V9.95zM11.21 16h-1.14v-5.95h2.278c1.114 0 2.049.807 2.049 1.946 0 1.131-.935 1.93-2.049 1.93h-1.139V16zm.1-4.881v1.738h.928c.275 0 .502-.09.66-.24a.833.833 0 0 0 .251-.62.86.86 0 0 0-.252-.631.928.928 0 0 0-.66-.247h-.928zm8.365-1.169v1.169h-1.768V16.1h-1.322v-4.981h-1.785V9.95h4.875zm-4.775 1.069v-.969h4.675v.969h-1.768V16h-1.122v-4.981h-1.785zM5.97 12.957H7c.595 0 1.011-.391 1.011-.96 0-.57-.416-.978-1.011-.978H5.97v1.938zm5.238 0h1.029c.595 0 1.011-.391 1.011-.96 0-.57-.416-.978-1.011-.978h-1.029v1.938z" clip-rule="evenodd"/><path fill="#1E1E20" fill-rule="evenodd" d="M4.731 9.95H7.11c1.161 0 2.149.845 2.149 2.046 0 1.194-.988 2.03-2.149 2.03H6.07V16.1H4.731V9.95zm1.49 4.226v2.074H4.58V9.8H7.11c1.233 0 2.299.9 2.299 2.196 0 1.29-1.069 2.18-2.299 2.18H6.22zM9.968 9.95h2.378c1.161 0 2.149.845 2.149 2.046 0 1.194-.989 2.03-2.149 2.03h-1.039V16.1H9.97V9.95zm1.49 4.226v2.074h-1.64V9.8h2.528c1.232 0 2.299.9 2.299 2.196 0 1.29-1.069 2.18-2.299 2.18h-.889zm8.215-4.226v1.169h-1.768V16.1h-1.322v-4.981h-1.785V9.95h4.875zm-3.24 1.319h-1.785V9.8h5.175v1.469h-1.768v4.981h-1.622v-4.981zm-10.214 0v1.438H7c.242 0 .43-.079.557-.198a.684.684 0 0 0 .204-.513.71.71 0 0 0-.206-.522.779.779 0 0 0-.555-.205H6.22zm5.238 0v1.438h.779c.242 0 .43-.079.557-.198a.684.684 0 0 0 .204-.513.71.71 0 0 0-.207-.522.779.779 0 0 0-.554-.205h-.779zm-5.388-.15H7c.274 0 .501.094.66.247a.86.86 0 0 1 .251.63c0 .26-.094.473-.251.622a.942.942 0 0 1-.66.239H6.07v-1.738zm5.238 0h.929c.274 0 .5.094.659.247a.86.86 0 0 1 .252.63c0 .26-.094.473-.251.622a.941.941 0 0 1-.66.239h-.929v-1.738z" clip-rule="evenodd"/></svg>