<svg xmlns="http://www.w3.org/2000/svg" fill="none" viewBox="0 0 24 24"><path fill="#000" fill-opacity=".84" fill-rule="evenodd" d="M4.364 1.864A.9.9 0 0 1 5 1.6h9a.9.9 0 0 1 .666.295l5 5.5A.9.9 0 0 1 19 8.9h-5a.9.9 0 0 1-.9-.9V3.4H5.9V7a.9.9 0 0 1-1.8 0V2.5a.9.9 0 0 1 .264-.636zM14.9 4.828L16.965 7.1H14.9V4.828zM5 18.1a.9.9 0 0 1 .9.9v1.6h12.2V19a.9.9 0 1 1 1.8 0v2.5a.9.9 0 0 1-.9.9H5a.9.9 0 0 1-.9-.9V19a.9.9 0 0 1 .9-.9z" clip-rule="evenodd"/><path fill="#1E1E20" d="M6.765 10.05H4.487V16h1.139v-2.074h1.139c1.113 0 2.048-.799 2.048-1.93 0-1.139-.935-1.946-2.048-1.946zm-1.14 2.907v-1.938h1.03c.594 0 1.01.408 1.01.977 0 .57-.416.961-1.01.961h-1.03zM12.113 10.05H9.725V16h2.388c1.581 0 2.924-1.241 2.924-2.975s-1.343-2.975-2.924-2.975zm-1.24 4.981v-4.012h1.24c1.012 0 1.768.825 1.768 2.006 0 1.181-.756 2.006-1.768 2.006h-1.24zM19.985 10.05h-3.927V16h1.148v-2.49h2.218v-.97h-2.218V11.02h2.78v-.969z"/><path fill="#1E1E20" fill-rule="evenodd" d="M4.387 9.95h2.378c1.161 0 2.148.845 2.148 2.046 0 1.194-.988 2.03-2.148 2.03h-1.04V16.1H4.388V9.95zM5.626 16h-1.14v-5.95h2.279c1.113 0 2.048.807 2.048 1.946 0 1.131-.935 1.93-2.048 1.93h-1.14V16zm.1-4.881v1.738h.928c.276 0 .503-.09.66-.24a.833.833 0 0 0 .252-.62.86.86 0 0 0-.252-.631.928.928 0 0 0-.66-.247h-.928zM9.625 9.95h2.488c1.635 0 3.024 1.285 3.024 3.075 0 1.79-1.389 3.075-3.024 3.075H9.625V9.95zm.1 6.05h2.388c1.581 0 2.924-1.241 2.924-2.975s-1.343-2.975-2.924-2.975H9.725V16zm1.247-4.881v3.812h1.141c.946 0 1.668-.769 1.668-1.906s-.722-1.906-1.668-1.906h-1.14zm9.113-1.169v1.169h-2.78v1.322h2.22v1.168h-2.22V16.1h-1.347V9.95h4.127zM17.205 16h-1.147v-5.95h3.927v.969h-2.78v1.521h2.22v.97h-2.22V16zm-11.58-3.043h1.03c.594 0 1.01-.391 1.01-.96 0-.57-.416-.978-1.01-.978h-1.03v1.938zm5.247 2.074h1.241c1.012 0 1.768-.825 1.768-2.006 0-1.181-.756-2.006-1.768-2.006h-1.24v4.012z" clip-rule="evenodd"/><path fill="#1E1E20" fill-rule="evenodd" d="M4.387 9.95h2.378c1.161 0 2.148.845 2.148 2.046 0 1.194-.988 2.03-2.148 2.03h-1.04V16.1H4.388V9.95zm1.489 4.226v2.074h-1.64V9.8h2.529c1.232 0 2.298.9 2.298 2.196 0 1.29-1.068 2.18-2.298 2.18h-.89zM9.625 9.95h2.488c1.635 0 3.024 1.285 3.024 3.075 0 1.79-1.389 3.075-3.024 3.075H9.625V9.95zm10.46 0v1.169h-2.78v1.322h2.22v1.168h-2.22V16.1h-1.347V9.95h4.127zm-2.63 3.81v2.49h-1.647V9.8h4.427v1.469h-2.78v1.021h2.22v1.47h-2.22zM9.476 9.8h2.638c1.716 0 3.174 1.35 3.174 3.225s-1.458 3.225-3.174 3.225H9.475V9.8zm-3.6 1.469v1.438h.78c.242 0 .43-.079.556-.198a.684.684 0 0 0 .205-.513.71.71 0 0 0-.207-.522.779.779 0 0 0-.555-.205h-.778zm5.247 0v3.512h.991c.848 0 1.518-.685 1.518-1.756 0-1.07-.67-1.756-1.518-1.756h-.99zm-5.396-.15h.928c.275 0 .502.094.66.247a.86.86 0 0 1 .252.63c0 .26-.094.473-.251.622a.942.942 0 0 1-.66.239h-.93v-1.738zm5.246 0h1.141c.946 0 1.668.769 1.668 1.906s-.722 1.906-1.668 1.906h-1.14v-3.812z" clip-rule="evenodd"/></svg>