<svg xmlns="http://www.w3.org/2000/svg" fill="none" viewBox="0 0 24 24"><path fill="#000" fill-opacity=".84" fill-rule="evenodd" d="M4.364 1.864A.9.9 0 0 1 5 1.6h9a.9.9 0 0 1 .666.295l5 5.5A.9.9 0 0 1 19 8.9h-5a.9.9 0 0 1-.9-.9V3.4H5.9V7a.9.9 0 0 1-1.8 0V2.5a.9.9 0 0 1 .264-.636zM14.9 4.828L16.965 7.1H14.9V4.828zM5 18.1a.9.9 0 0 1 .9.9v1.6h12.2V19a.9.9 0 0 1 1.8 0v2.5a.9.9 0 0 1-.9.9H5a.9.9 0 0 1-.9-.9V19a.9.9 0 0 1 .9-.9z" clip-rule="evenodd"/><path fill="#1E1E20" d="M5.572 10.05H3.184V16h2.388c1.581 0 2.924-1.241 2.924-2.975S7.153 10.05 5.572 10.05zm-1.24 4.981v-4.012h1.24c1.012 0 1.768.825 1.768 2.006 0 1.181-.756 2.006-1.768 2.006h-1.24zM12.27 16.136c1.658 0 3.052-1.3 3.052-3.111 0-1.81-1.394-3.111-3.052-3.111-1.649 0-3.043 1.3-3.043 3.111 0 1.81 1.394 3.111 3.043 3.111zm0-.969c-1.08 0-1.895-.884-1.895-2.142s.816-2.142 1.895-2.142c1.088 0 1.904.884 1.904 2.142s-.816 2.142-1.904 2.142zM19.102 16.136c.927 0 1.734-.391 2.244-.977l-.773-.706a1.883 1.883 0 0 1-1.47.714c-1.089 0-1.905-.884-1.905-2.142s.816-2.142 1.904-2.142c.57 0 1.063.255 1.403.629l.756-.714c-.51-.527-1.283-.884-2.159-.884-1.657 0-3.051 1.3-3.051 3.111 0 1.81 1.394 3.111 3.051 3.111z"/><path fill="#1E1E20" fill-rule="evenodd" d="M3.084 9.95h2.488c1.635 0 3.024 1.285 3.024 3.075 0 1.79-1.389 3.075-3.024 3.075H3.084V9.95zm.1 6.05h2.388c1.581 0 2.924-1.241 2.924-2.975S7.153 10.05 5.572 10.05H3.184V16zm1.247-4.881v3.812h1.141c.946 0 1.668-.769 1.668-1.906s-.722-1.906-1.668-1.906h-1.14zm10.99 1.906c0 1.867-1.439 3.211-3.15 3.211-1.704 0-3.144-1.345-3.144-3.211 0-1.866 1.44-3.211 3.143-3.211 1.712 0 3.152 1.345 3.152 3.211zm-4.946 0c0 1.213.781 2.042 1.795 2.042 1.023 0 1.804-.829 1.804-2.042 0-1.213-.78-2.042-1.804-2.042-1.014 0-1.795.829-1.795 2.042zm11.01 2.125l-.063.074c-.53.61-1.365 1.012-2.32 1.012-1.712 0-3.151-1.345-3.151-3.211 0-1.866 1.44-3.211 3.151-3.211.903 0 1.702.368 2.231.915l.07.072-.904.854-.068-.076a1.79 1.79 0 0 0-1.329-.596c-1.023 0-1.804.829-1.804 2.042 0 1.213.781 2.042 1.804 2.042.579 0 1.078-.281 1.392-.676l.067-.084.925.843zm-.977-.62c.023-.025.044-.051.065-.077l.773.706c-.51.586-1.317.977-2.244.977-1.657 0-3.051-1.3-3.051-3.111 0-1.81 1.394-3.111 3.051-3.111a3.022 3.022 0 0 1 2.16.884l-.757.714a1.885 1.885 0 0 0-1.402-.629c-1.089 0-1.905.884-1.905 2.142s.816 2.142 1.904 2.142a1.88 1.88 0 0 0 1.406-.637zm-16.177.501h1.241c1.012 0 1.768-.825 1.768-2.006 0-1.181-.756-2.006-1.768-2.006h-1.24v4.012zm10.99-2.006c0 1.81-1.393 3.111-3.05 3.111-1.65 0-3.044-1.3-3.044-3.111 0-1.81 1.394-3.111 3.043-3.111 1.658 0 3.052 1.3 3.052 3.111zm-4.946 0c0 1.258.816 2.142 1.895 2.142 1.088 0 1.904-.884 1.904-2.142s-.816-2.142-1.904-2.142c-1.08 0-1.895.884-1.895 2.142z" clip-rule="evenodd"/><path fill="#1E1E20" fill-rule="evenodd" d="M3.084 9.95h2.488c1.635 0 3.024 1.285 3.024 3.075 0 1.79-1.389 3.075-3.024 3.075H3.084V9.95zm18.402 5.2l-.064.074c-.53.61-1.365 1.012-2.32 1.012-1.712 0-3.151-1.345-3.151-3.211 0-1.866 1.44-3.211 3.151-3.211a3.122 3.122 0 0 1 2.231.915l.07.072-.904.854-.068-.076a1.825 1.825 0 0 0-.049-.05 1.786 1.786 0 0 0-1.28-.546c-1.023 0-1.804.829-1.804 2.042 0 1.213.781 2.042 1.804 2.042a1.78 1.78 0 0 0 1.392-.676l.067-.084.925.843zM2.934 9.8h2.638c1.716 0 3.174 1.35 3.174 3.225S7.288 16.25 5.572 16.25H2.934V9.8zm18.761 5.338l-.16.185c-.56.642-1.436 1.063-2.433 1.063-1.794 0-3.301-1.41-3.301-3.361 0-1.95 1.507-3.361 3.301-3.361.943 0 1.782.384 2.339.96l.176.182-1.126 1.063-.171-.189a1.64 1.64 0 0 0-1.218-.547c-.926 0-1.654.747-1.654 1.892s.728 1.892 1.654 1.892c.529 0 .986-.257 1.275-.62l.167-.209 1.151 1.05zM4.581 11.27v3.512h.991c.848 0 1.518-.685 1.518-1.756 0-1.07-.67-1.756-1.518-1.756h-.99zm10.99 1.756c0 1.95-1.507 3.361-3.3 3.361-1.786 0-3.294-1.411-3.294-3.361 0-1.95 1.508-3.361 3.293-3.361 1.794 0 3.302 1.41 3.302 3.361zm-4.946 0c0 1.146.729 1.892 1.645 1.892.926 0 1.654-.747 1.654-1.892s-.728-1.892-1.654-1.892c-.916 0-1.645.746-1.645 1.892zM4.43 11.119h1.141c.946 0 1.668.769 1.668 1.906s-.722 1.906-1.668 1.906h-1.14v-3.812zm7.84 5.117c1.711 0 3.15-1.345 3.15-3.211 0-1.866-1.439-3.211-3.15-3.211-1.704 0-3.144 1.345-3.144 3.211 0 1.866 1.44 3.211 3.143 3.211zm0-1.169c-1.015 0-1.796-.829-1.796-2.042 0-1.213.781-2.042 1.795-2.042 1.023 0 1.804.829 1.804 2.042 0 1.213-.78 2.042-1.804 2.042z" clip-rule="evenodd"/></svg>