<?xml version="1.0" encoding="UTF-8"?>
<svg xmlns="http://www.w3.org/2000/svg" fill="none" viewBox="0 0 24 24"><path fill="#1E1E20" fill-rule="evenodd" d="M1.6 4.5a.9.9 0 0 1 .9-.9h5a.9.9 0 0 1 0 1.8H5.9v1.2h3.065a.1.1 0 0 0 .083-.045l.406-.609a1.9 1.9 0 0 1 1.581-.846h1.93a1.9 1.9 0 0 1 1.58.846l.407.61a.1.1 0 0 0 .083.044H18.1V5.4h-1.6a.9.9 0 1 1 0-1.8h5a.9.9 0 0 1 0 1.8h-1.6v1.307c.21.046.445.112.684.207.401.16.857.422 1.217.854.372.447.599 1.027.599 1.732 0 1.262-.495 2.062-1.15 2.499a2.432 2.432 0 0 1-1.193.4h-.046l-.006.001h-.003c-.001 0-.002 0-.002-.9v.9h-4.5c-.133 0-.168.028-.218.074a1.77 1.77 0 0 0-.236.29c-.051.072-.115.161-.201.276-.216.289-.523.652-1.008.929-.49.28-1.088.431-1.837.431-.746 0-1.336-.15-1.81-.457-.465-.302-.724-.7-.89-.966l-.029-.045c-.17-.272-.223-.358-.306-.426-.034-.029-.131-.106-.465-.106H5v-.9.9H4.948l-.107-.005a4.545 4.545 0 0 1-1.425-.309c-.402-.16-.857-.422-1.217-.854-.372-.447-.599-1.027-.599-1.732 0-.705.227-1.285.6-1.732.359-.432.814-.693 1.216-.854.239-.095.474-.161.684-.207V5.4H2.5a.9.9 0 0 1-.9-.9zm3.404 3.9h-.008l-.052.002a2.904 2.904 0 0 0-.86.184c-.223.09-.393.203-.502.334-.096.115-.182.285-.182.58s.086.465.182.58c.11.131.279.245.502.334a2.747 2.747 0 0 0 .86.184l.052.002H8.5c.666 0 1.194.173 1.613.52.325.268.54.62.668.83l.045.073c.145.233.23.336.343.41.105.067.327.167.831.167.5 0 .777-.099.944-.194.172-.098.302-.235.461-.446l.086-.12c.136-.19.343-.479.57-.689.357-.33.822-.551 1.439-.551h4.48a.633.633 0 0 0 .27-.099c.095-.063.35-.263.35-1.001 0-.295-.086-.465-.182-.58a1.246 1.246 0 0 0-.502-.334 2.753 2.753 0 0 0-.86-.184 1.778 1.778 0 0 0-.052-.002h-3.968a1.9 1.9 0 0 1-1.582-.846l-.406-.61a.1.1 0 0 0-.083-.044h-1.93a.1.1 0 0 0-.083.045l-.406.609a1.9 1.9 0 0 1-1.581.846H5.004zm9.837 7.28a.9.9 0 0 1-.52 1.161c-.832.316-1.554.517-2.318.52-.767.005-1.493-.19-2.335-.524a.9.9 0 0 1 .664-1.674c.742.294 1.223.401 1.663.399.444-.002.93-.115 1.685-.403a.9.9 0 0 1 1.161.52zm2.468 1.926a.9.9 0 0 1-.415 1.203c-1.838.896-3.34 1.411-4.899 1.414-1.56.004-3.06-.506-4.895-1.417a.9.9 0 1 1 .8-1.612c1.744.865 2.945 1.232 4.091 1.23 1.149-.003 2.357-.376 4.115-1.233a.9.9 0 0 1 1.203.415z" clip-rule="evenodd" style="fill: #990ae3;"/></svg>
