<?xml version="1.0" encoding="UTF-8"?>
<svg xmlns="http://www.w3.org/2000/svg" fill="none" viewBox="0 0 24 24"><path fill="#1E1E20" fill-rule="evenodd" d="M4.5 4.4a.1.1 0 0 0-.1.1v15a.1.1 0 0 0 .1.1h15a.1.1 0 0 0 .1-.1v-15a.1.1 0 0 0-.1-.1h-15zm-1.9.1c0-1.05.85-1.9 1.9-1.9h15c1.05 0 1.9.85 1.9 1.9v15a1.9 1.9 0 0 1-1.9 1.9h-15a1.9 1.9 0 0 1-1.9-1.9v-15zM8 7.9a.1.1 0 0 0-.1.1v5a.1.1 0 0 0 .1.1h.5c1.05 0 1.9.85 1.9 1.9v1a.1.1 0 0 0 .1.1h3a.1.1 0 0 0 .1-.1v-1c0-1.05.85-1.9 1.9-1.9h.5a.1.1 0 0 0 .1-.1V8a.1.1 0 0 0-.1-.1h-1.6V9a.9.9 0 1 1-1.8 0V7.9h-1.2V9a.9.9 0 1 1-1.8 0V7.9H8zM6.1 8c0-1.05.85-1.9 1.9-1.9h8c1.05 0 1.9.85 1.9 1.9v5a1.9 1.9 0 0 1-1.9 1.9h-.5a.1.1 0 0 0-.1.1v1a1.9 1.9 0 0 1-1.9 1.9h-3A1.9 1.9 0 0 1 8.6 16v-1a.1.1 0 0 0-.1-.1H8A1.9 1.9 0 0 1 6.1 13V8z" clip-rule="evenodd" style="fill: #990ae3;"/></svg>
