<?xml version="1.0" encoding="UTF-8"?>
<svg xmlns="http://www.w3.org/2000/svg" fill="none" viewBox="0 0 24 24"><path fill="#1E1E20" fill-rule="evenodd" d="M15.942 2.506a1.9 1.9 0 0 1 2.687 0l2.865 2.865a1.9 1.9 0 0 1 0 2.687l-11.37 11.37a.899.899 0 0 1-.335.212l-6.644 2.365a.9.9 0 0 1-1.15-1.15l2.365-6.644a.9.9 0 0 1 .212-.335l11.37-11.37zm1.414 1.273a.1.1 0 0 0-.141 0L15.913 5.08l1.504 1.503a.9.9 0 0 1-1.273 1.273L14.64 6.353l-8.16 8.16 3.007 3.006L20.22 6.785a.1.1 0 0 0 0-.141l-2.865-2.865zM7.844 18.42L5.58 16.156l-1.253 3.518 3.518-1.253z" clip-rule="evenodd" style="fill: #990ae3;"/></svg>
