<?xml version="1.0" encoding="UTF-8"?>
<svg xmlns="http://www.w3.org/2000/svg" fill="none" viewBox="0 0 24 24"><path fill="#1E1E20" fill-rule="evenodd" d="M16 3.4a3.1 3.1 0 1 0 0 6.2 3.1 3.1 0 0 0 0-6.2zm-4.9 3.1a4.9 4.9 0 1 1 9.8 0 4.9 4.9 0 0 1-9.8 0zm5.4-2.4a.9.9 0 0 1 .9.9v2.373l-1.264 1.263a.9.9 0 0 1-1.272-1.272l.736-.737V5a.9.9 0 0 1 .9-.9zm-7 3a.9.9 0 0 1 .9.9v2.149l-.615.205c-.693.23-1.117.449-1.41.645-.294.196-.49.388-.739.637l-.521.522-1.329-.886-.573.955 1.297.864-.13.6c-.11.506-.154.84-.154 1.128 0 .28.04.558.144.952l.164.621-1.32.88.572.956 1.33-.887.521.524c.397.398.688.632.98.806.294.174.629.31 1.146.468l.637.195V21.1h1.2v-1.749l.615-.205c.693-.23 1.117-.449 1.41-.645.294-.196.49-.388.739-.637l.521-.522 1.329.886.573-.955-1.33-.887.176-.63c.132-.47.181-.77.182-1.035 0-.26-.046-.537-.175-.956l-.197-.642 2.058-1.372a.9.9 0 1 1 .998 1.498l-.968.646a4.177 4.177 0 0 1-.008 1.705l.976.651c.4.267.52.8.273 1.212l-1.5 2.5A.9.9 0 0 1 16 20.25l-.906-.604a5.22 5.22 0 0 1-.47.354c-.331.22-.725.43-1.225.63V22a.9.9 0 0 1-.9.9h-3a.9.9 0 0 1-.9-.9v-1.354a5.658 5.658 0 0 1-.901-.427 5.576 5.576 0 0 1-.793-.575L6 20.25a.9.9 0 0 1-1.27-.286l-1.5-2.5a.9.9 0 0 1 .272-1.212l.99-.66a4.697 4.697 0 0 1-.065-.773c0-.293.028-.586.078-.9l-1.003-.67a.9.9 0 0 1-.273-1.211l1.5-2.5A.9.9 0 0 1 6 9.251l.906.604c.138-.116.293-.235.47-.354.331-.22.725-.43 1.225-.63V8a.9.9 0 0 1 .9-.9zm1.5 5.8a1.6 1.6 0 1 0 0 3.2 1.6 1.6 0 0 0 0-3.2zm-3.4 1.6a3.4 3.4 0 1 1 6.8 0 3.4 3.4 0 0 1-6.8 0z" clip-rule="evenodd" style="fill: #990ae3;"/></svg>
