<?xml version="1.0" encoding="UTF-8"?>
<svg xmlns="http://www.w3.org/2000/svg" fill="none" viewBox="0 0 24 24"><path fill="#1E1E20" fill-rule="evenodd" d="M12 3.4a4.6 4.6 0 1 0 0 9.2 4.6 4.6 0 0 0 0-9.2zM5.6 8a6.4 6.4 0 1 1 2.073 4.716c-.129.02-.285.05-.462.094a5.131 5.131 0 0 0-1.791.824c-.604.444-1.175 1.1-1.525 2.09-.354.998-.502 2.392-.165 4.334.002.007.004.014.015.023a.09.09 0 0 0 .057.019h16.396a.09.09 0 0 0 .057-.019c.01-.009.013-.016.015-.023.565-3.253-.224-4.985-1.133-5.936a.9.9 0 0 1 1.3-1.244c1.394 1.457 2.245 3.812 1.606 7.488-.16.918-.965 1.534-1.845 1.534H3.802c-.88 0-1.686-.616-1.845-1.534-.377-2.17-.239-3.888.24-5.243.483-1.362 1.29-2.302 2.155-2.939a6.833 6.833 0 0 1 2.08-1.026A6.373 6.373 0 0 1 5.6 8z" clip-rule="evenodd" style="fill: #990ae3;"/></svg>
