<?xml version="1.0" encoding="UTF-8"?>
<svg xmlns="http://www.w3.org/2000/svg" fill="none" viewBox="0 0 24 25"><path fill="#1E1E20" fill-rule="evenodd" d="M21.424.49l1.243 4.636L7.837 9.1H21.5a.9.9 0 0 1 .9.9v9a2.9 2.9 0 0 1-2.9 2.9h-1a.9.9 0 0 1 0-1.8h1a1.1 1.1 0 0 0 1.1-1.1v-8.1H3.4V19a1.1 1.1 0 0 0 1.1 1.1h1.127a.9.9 0 1 1 0 1.8H4.5A2.9 2.9 0 0 1 1.6 19v-9a.9.9 0 0 1 .61-.852l-.877-3.274L21.424.49zM3.848 8.305l2.368-.634.076-1.263-2.754.738.31 1.16zm4.277-2.388L8.049 7.18l2.514-.674.076-1.262-2.514.673zm4.346-1.164l-.075 1.262 2.513-.673.076-1.263-2.514.674zm4.347-1.165l-.076 1.263 3.72-.997-.31-1.16-3.334.894zm-.418 9.185v6.74c0 1.078-.932 1.812-1.902 1.812-.969 0-1.901-.734-1.901-1.812 0-1.079.932-1.812 1.901-1.812.034 0 .068 0 .102.002v-2.476l-3.197 1.008v4.853c0 1.078-.932 1.812-1.901 1.812-.97 0-1.902-.734-1.902-1.812s.933-1.812 1.902-1.812c.034 0 .067 0 .101.002v-4.363l6.797-2.142zm-6.83 8.315a.184.184 0 0 0-.068-.012.184.184 0 0 0-.068.012c.017.007.04.012.068.012.028 0 .05-.005.068-.012zm4.996-1.575a.182.182 0 0 0-.068-.012.182.182 0 0 0-.068.012c.018.007.04.012.068.012.029 0 .051-.005.068-.012z" clip-rule="evenodd" style="fill: #990ae3;"/></svg>
