<?xml version="1.0" encoding="UTF-8"?>
<svg xmlns="http://www.w3.org/2000/svg" fill="none" viewBox="0 0 24 24"><path fill="#1E1E20" fill-rule="evenodd" d="M12 4.9c-1.42 0-3.802.35-5.402 1.773C3.753 9.2 3.64 13.665 6.037 16.69L7.6 15.127V10.5a.9.9 0 0 1 1.8 0v2.827l1.77-1.77-.07-3.036a.9.9 0 0 1 1.8-.042l.03 1.318 1.934-1.933a.9.9 0 1 1 1.272 1.272l-1.933 1.934 1.318.03a.9.9 0 0 1-.042 1.8l-3.037-.07-1.77 1.77H13.5a.9.9 0 0 1 0 1.8H8.873l-2.155 2.154-.002.005a16.482 16.482 0 0 0-.648 1.255C5.69 20.63 5.4 21.469 5.4 22a.9.9 0 1 1-1.8 0c0-.968.459-2.13.833-2.94.164-.355.327-.675.462-.928-3.177-3.674-3.257-9.459.507-12.805C7.494 3.467 10.42 3.1 12 3.1h8V4h.9v8c0 .577-.1 1.69-.413 2.907-.312 1.209-.858 2.616-1.814 3.69-2.58 2.903-6.626 3.515-10 2.198a.9.9 0 1 1 .654-1.677c2.78 1.085 5.992.543 8-1.716.685-.77 1.138-1.864 1.417-2.944.276-1.072.356-2.035.356-2.458V4.9H12zm8-.9h.9a.9.9 0 0 0-.9-.9V4z" clip-rule="evenodd" style="fill: #990ae3;"/></svg>
