<?xml version="1.0" encoding="UTF-8"?>
<svg xmlns="http://www.w3.org/2000/svg" fill="none" viewBox="0 0 24 24"><path fill="#1E1E20" fill-rule="evenodd" d="M10.355 3.05c.73-1.267 2.56-1.267 3.29 0l8.66 15c.732 1.267-.182 2.85-1.645 2.85H3.34c-1.463 0-2.377-1.583-1.646-2.85l8.66-15zm1.594.862a.092.092 0 0 0-.036.038l-8.66 15a.092.092 0 0 0-.015.05c0 .014.005.032.015.05.01.018.024.03.036.038.01.006.024.012.05.012H20.66c.026 0 .041-.006.05-.012a.107.107 0 0 0 .037-.038.106.106 0 0 0 .015-.05.092.092 0 0 0-.015-.05l-8.66-15a.092.092 0 0 0-.036-.038A.106.106 0 0 0 12 3.9a.106.106 0 0 0-.05.012z" clip-rule="evenodd" style="fill: #990ae3;"/><path fill="#1E1E20" d="M12.523 14.922l.412-6.25a.936.936 0 1 0-1.868 0l.421 6.25h1.035zM12 17.52c.44 0 .826-.387.826-.815 0-.418-.387-.816-.826-.816-.428 0-.825.398-.825.816 0 .428.397.815.825.815z" style="fill: #990ae3;"/><path fill="#1E1E20" fill-rule="evenodd" d="M12.691 15.096h-1.37l-.431-6.53a1 1 0 0 1 .997-1.066h.227a1 1 0 0 1 .998 1.064l-.42 6.532zm.244-6.425a.936.936 0 1 0-1.868.002l.421 6.249h1.035l.412-6.25zM13 16.706c0 .526-.466.99-1 .99-.522 0-1-.463-1-.99 0-.264.125-.51.304-.689.18-.178.429-.301.696-.301.536 0 1 .475 1 .99zm-.174 0c0 .428-.387.815-.826.815-.428 0-.825-.387-.825-.815 0-.418.397-.816.825-.816.44 0 .826.398.826.816z" clip-rule="evenodd" style="fill: #990ae3;"/></svg>
