<?xml version="1.0" encoding="UTF-8"?>
<svg xmlns="http://www.w3.org/2000/svg" fill="none" viewBox="0 0 25 24"><path fill="#1E1E20" fill-rule="evenodd" d="M14.268 3.5c-.77-1.333-2.694-1.333-3.464 0l-8.66 15c-.77 1.333.192 3 1.732 3h17.32c1.54 0 2.502-1.667 1.733-3l-8.66-15zm-.694 5.067l-.247 6.876h-1.566l-.247-6.876a1.03 1.03 0 1 1 2.06 0zm.212 8.917c0 .649-.585 1.234-1.25 1.234-.648 0-1.25-.585-1.25-1.234 0-.633.602-1.234 1.25-1.234.665 0 1.25.601 1.25 1.234z" clip-rule="evenodd" style="fill: #990ae3;"/></svg>
