<?xml version="1.0" encoding="UTF-8"?>
<svg xmlns="http://www.w3.org/2000/svg" fill="none" viewBox="0 0 24 24"><path fill="#1E1E20" fill-rule="evenodd" d="M5.5 3.9a.1.1 0 0 0-.1.1v16a.1.1 0 0 0 .1.1h2.6v-.6a.9.9 0 1 1 1.8 0v.6h1.2v-.6a.9.9 0 1 1 1.8 0v.6h1.2v-.6a.9.9 0 1 1 1.8 0v.6h2.6a.1.1 0 0 0 .1-.1V4a.1.1 0 0 0-.1-.1h-2.6v.6a.9.9 0 0 1-1.8 0v-.6h-1.2v.6a.9.9 0 0 1-1.8 0v-.6H9.9v.6a.9.9 0 0 1-1.8 0v-.6H5.5zM3.6 4c0-1.05.85-1.9 1.9-1.9h13c1.05 0 1.9.85 1.9 1.9v16a1.9 1.9 0 0 1-1.9 1.9h-13A1.9 1.9 0 0 1 3.6 20V4zm5.97 3.157a1.9 1.9 0 0 1 1.344-.557H15.5c1.05 0 1.9.85 1.9 1.9v7a1.9 1.9 0 0 1-1.9 1.9h-7a1.9 1.9 0 0 1-1.9-1.9v-4.586c0-.504.2-.987.556-1.343l2.415-2.414zM10.915 8.4a.1.1 0 0 0-.07.03l-2.415 2.414a.1.1 0 0 0-.029.07V15.5a.1.1 0 0 0 .1.1h7a.1.1 0 0 0 .1-.1v-7a.1.1 0 0 0-.1-.1h-4.586z" clip-rule="evenodd" style="fill: #990ae3;"/></svg>
