<?xml version="1.0" encoding="UTF-8"?>
<svg xmlns="http://www.w3.org/2000/svg" fill="none" viewBox="0 0 24 24"><path fill="#1E1E20" fill-rule="evenodd" d="M3.6 3a.9.9 0 0 1 .9-.9h15a.9.9 0 0 1 .9.9v3.5a.9.9 0 1 1-1.8 0V3.9H5.4v3.6a.9.9 0 0 1-1.8 0V3zm15.9 13.6a.9.9 0 0 1 .9.9V21a.9.9 0 0 1-.9.9h-15a.9.9 0 0 1-.9-.9v-3a.9.9 0 1 1 1.8 0v2.1h13.2v-2.6a.9.9 0 0 1 .9-.9z" clip-rule="evenodd" style="fill: #990ae3;"/><path fill="#1E1E20" d="M3.297 10.34c-1.32 0-2.5 1.08-2.5 2.64s1.19 2.65 2.56 2.65c.83 0 1.65-.4 2.15-1.07l-.98-.59c-.25.38-.66.61-1.17.61-.68 0-1.21-.49-1.34-1.23h3.69c.17-1.63-.68-3.01-2.41-3.01zm0 1.02c.65 0 1.07.41 1.22 1.06h-2.46c.17-.64.63-1.06 1.24-1.06zM8.893 15.65c1.36 0 2.52-.85 2.52-2.15 0-1.06-.59-1.65-1.89-2.09l-.73-.25c-.61-.21-1.03-.42-1.03-.87 0-.43.41-.8 1.13-.8.61 0 1.15.24 1.49.63l.89-.71c-.54-.69-1.47-1.06-2.38-1.06-1.32 0-2.38.83-2.38 1.98 0 .91.43 1.5 1.73 1.94l.8.28c.62.21 1.12.48 1.12 1 0 .57-.51.96-1.25.96-.71 0-1.37-.39-1.76-1.01l-.96.69c.54.97 1.65 1.46 2.7 1.46zM13.886 15.5v-7h-1.35v7h1.35zM19.116 12.31l-2.01-3.81h-1.64v7h1.31v-5.2l1.82 3.45h1.03l1.82-3.46v5.21h1.31v-7h-1.64l-2 3.81z" style="fill: #990ae3;"/></svg>
