<?xml version="1.0" encoding="UTF-8"?>
<svg xmlns="http://www.w3.org/2000/svg" fill="none" viewBox="0 0 24 24"><path fill="#1E1E20" d="M16.358 16.711a.54.54 0 0 0-.606.23c-.664 1.002-1.623 1.528-2.747 1.528-1.964 0-3.342-1.301-3.826-3.763h4.449a.5.5 0 0 0 .5-.5v-.649a.5.5 0 0 0-.5-.5H8.974V12.5c0-.348 0-.674.026-.975h4.628a.5.5 0 0 0 .5-.5v-.65a.5.5 0 0 0-.5-.5H9.28c.56-2.182 1.887-3.344 3.724-3.344 1.14 0 2.097.539 2.743 1.55.135.21.392.317.628.235l2.044-.71c.291-.1.423-.439.255-.697C17.433 5.006 15.403 4 13.005 4 9.408 4 6.73 6.044 5.888 9.876H4.5a.5.5 0 0 0-.5.5v.649a.5.5 0 0 0 .5.5h1.158c-.025.325-.025.65-.025.975v.557H4.5a.5.5 0 0 0-.5.5v.65a.5.5 0 0 0 .5.5h1.311C6.526 18.793 9.281 21 13.005 21c2.397 0 4.447-1.005 5.693-2.942.169-.263.028-.605-.27-.698l-2.07-.649z" style="fill: #990ae3;"/></svg>
