<svg xmlns="http://www.w3.org/2000/svg" fill="none" viewBox="0 0 24 24"><path fill="#000" fill-opacity=".84" fill-rule="evenodd" d="M4.364 1.864A.9.9 0 0 1 5 1.6h9a.9.9 0 0 1 .666.295l5 5.5A.9.9 0 0 1 19 8.9h-5a.9.9 0 0 1-.9-.9V3.4H5.9V7a.9.9 0 0 1-1.8 0V2.5a.9.9 0 0 1 .264-.636zM14.9 4.828L16.965 7.1H14.9V4.828zM5 18.1a.9.9 0 0 1 .9.9v1.6h12.2V19a.9.9 0 1 1 1.8 0v2.5a.9.9 0 0 1-.9.9H5a.9.9 0 0 1-.9-.9V19a.9.9 0 0 1 .9-.9z" clip-rule="evenodd"/><path fill="#1E1E20" d="M7.893 12.864L9.94 10.05H8.607l-1.445 2.031-1.445-2.031H4.382l2.057 2.813L4.144 16H5.48l1.683-2.354L8.845 16h1.334l-2.286-3.136zM12.039 10.05H10.89V16h3.834v-.969h-2.686V10.05zM17.473 16.128c1.156 0 2.142-.723 2.142-1.828 0-.901-.501-1.402-1.606-1.777l-.62-.212c-.52-.178-.876-.357-.876-.74 0-.365.348-.68.96-.68.519 0 .978.204 1.267.536l.756-.604c-.459-.586-1.25-.9-2.023-.9-1.122 0-2.023.705-2.023 1.682 0 .774.366 1.275 1.47 1.65l.68.237c.528.179.953.408.953.85 0 .485-.434.816-1.063.816-.603 0-1.164-.331-1.496-.858l-.816.586c.46.825 1.403 1.242 2.295 1.242z"/><path fill="#1E1E20" fill-rule="evenodd" d="M7.893 12.864L10.179 16H8.845l-1.683-2.354L5.479 16H4.144l2.295-3.136-2.057-2.814h1.335l1.445 2.031 1.445-2.031H9.94l-2.048 2.813zm-.731-.955L5.768 9.95H4.185l2.13 2.914L3.947 16.1H5.53l1.632-2.283L8.793 16.1h1.583l-2.36-3.237 2.122-2.913H8.555l-1.393 1.959zm4.977-1.959v4.981h2.686V16.1H10.79V9.95h1.348zm2.586 5.081V16H10.89v-5.95h1.148v4.981h2.686zm4.015-3.604c-.29-.332-.748-.535-1.267-.535-.612 0-.96.314-.96.68 0 .382.357.56.875.739l.62.213c1.106.374 1.607.875 1.607 1.776 0 1.105-.986 1.828-2.142 1.828-.892 0-1.836-.417-2.295-1.242l.816-.586.056.083c.336.479.87.776 1.44.776.63 0 1.063-.332 1.063-.817 0-.442-.425-.671-.952-.85l-.68-.238c-1.105-.373-1.47-.875-1.47-1.649 0-.977.9-1.682 2.022-1.682.74 0 1.494.287 1.96.823a2.116 2.116 0 0 1 .063.077l-.756.604zm-1.852 1.922c-.56-.19-.947-.416-1.193-.704-.249-.292-.345-.636-.345-1.04 0-1.05.966-1.782 2.123-1.782.798 0 1.62.323 2.102.939l.061.078-.909.725-.063-.072c-.267-.308-.698-.502-1.19-.502-.585 0-.861.294-.861.58 0 .153.068.266.203.367.14.104.346.19.605.278l.62.213c.559.189.979.415 1.259.717.283.306.415.683.415 1.154 0 1.178-1.05 1.927-2.242 1.927-.919 0-1.901-.428-2.382-1.292l-.043-.078.974-.7.057.09c.315.5.845.812 1.411.812.298 0 .541-.08.707-.206a.625.625 0 0 0 .256-.51c0-.183-.085-.324-.24-.446-.158-.124-.383-.221-.644-.31h-.001l-.68-.238z" clip-rule="evenodd"/></svg>