<?xml version="1.0" encoding="UTF-8"?>
<svg xmlns="http://www.w3.org/2000/svg" fill="none" viewBox="0 0 24 24"><path fill="#1E1E20" fill-rule="evenodd" d="M15 3.4a.9.9 0 1 1 0-1.8h6.5a.9.9 0 0 1 .9.9V9a.9.9 0 1 1-1.8 0V4.673l-7.964 7.963a.9.9 0 1 1-1.272-1.272L19.327 3.4H15zM1.6 5c0-1.05.85-1.9 1.9-1.9h6a.9.9 0 1 1 0 1.8h-6a.1.1 0 0 0-.1.1v15.5a.1.1 0 0 0 .1.1h16a.1.1 0 0 0 .1-.1V14a.9.9 0 1 1 1.8 0v6.5a1.9 1.9 0 0 1-1.9 1.9h-16a1.9 1.9 0 0 1-1.9-1.9V5z" clip-rule="evenodd" style="fill: #990ae3;"/></svg>
