<?xml version="1.0" encoding="UTF-8"?>
<svg xmlns="http://www.w3.org/2000/svg" fill="none" viewBox="0 0 24 24"><path fill="#1E1E20" fill-rule="evenodd" d="M4.031 10.54l4.1 2.487c2.82-.78 4.97-.786 7.741-.002l4.097-2.485a8.103 8.103 0 0 0-15.938 0zm16.049 2.038l-2.922 1.772a32.388 32.388 0 0 1 1.076 2.822 8.06 8.06 0 0 0 1.846-4.594zm-3.296 5.959c-.088-.282-.206-.65-.349-1.064-.287-.84-.663-1.847-1.071-2.721-2.427-.684-4.24-.682-6.73.003-.407.874-.782 1.88-1.07 2.718-.142.414-.26.782-.348 1.064A8.06 8.06 0 0 0 12 20.1a8.06 8.06 0 0 0 4.784-1.563zM5.766 17.172l.096-.283a32.38 32.38 0 0 1 .98-2.539L3.92 12.578a8.06 8.06 0 0 0 1.846 4.594zm-3.606-6.27C2.708 5.95 6.904 2.1 12 2.1s9.292 3.85 9.84 8.801a9.88 9.88 0 0 1-3.433 8.647A9.864 9.864 0 0 1 12 21.9a9.865 9.865 0 0 1-6.406-2.352 9.88 9.88 0 0 1-3.434-8.647zm11.413-2.194c1.085-.586 2.314-.587 3.37.008a.9.9 0 1 1-.886 1.568c-.497-.281-1.07-.294-1.63.008a.9.9 0 1 1-.854-1.584zm-6.5 0c1.085-.586 2.314-.587 3.37.008a.9.9 0 1 1-.885 1.568c-.498-.281-1.07-.294-1.63.008a.9.9 0 0 1-.855-1.584z" clip-rule="evenodd" style="fill: #990ae3;"/></svg>
