<?xml version="1.0" encoding="UTF-8"?>
<svg xmlns="http://www.w3.org/2000/svg" fill="none" viewBox="0 0 24 24"><path fill="#1E1E20" fill-rule="evenodd" d="M2.1 3a.9.9 0 0 1 .9-.9h5a.9.9 0 0 1 0 1.8H3.9V8a.9.9 0 0 1-1.8 0V3zm13 0a.9.9 0 0 1 .9-.9h5a.9.9 0 0 1 .9.9v5a.9.9 0 1 1-1.8 0V3.9H16a.9.9 0 0 1-.9-.9zm.4 7.15c-.459 0-.662.187-.695.252a.9.9 0 1 1-1.61-.804c.467-.935 1.514-1.248 2.305-1.248.791 0 1.837.313 2.305 1.248a.9.9 0 1 1-1.61.804c-.032-.065-.236-.252-.695-.252zm-7 0c-.459 0-.662.187-.695.252a.9.9 0 1 1-1.61-.804C6.662 8.663 7.709 8.35 8.5 8.35c.791 0 1.838.313 2.305 1.247a.9.9 0 0 1-1.61.806c-.032-.066-.236-.253-.695-.253zm-.636 3.714a.9.9 0 0 1 1.272 0c1.649 1.648 4.08 1.648 5.728 0a.9.9 0 1 1 1.272 1.272c-2.351 2.352-5.92 2.352-8.272 0a.9.9 0 0 1 0-1.272zM3 15.1a.9.9 0 0 1 .9.9v4.1H8a.9.9 0 1 1 0 1.8H3a.9.9 0 0 1-.9-.9v-5a.9.9 0 0 1 .9-.9zm18 0a.9.9 0 0 1 .9.9v5a.9.9 0 0 1-.9.9h-5a.9.9 0 1 1 0-1.8h4.1V16a.9.9 0 0 1 .9-.9z" clip-rule="evenodd" style="fill: #990ae3;"/></svg>
