<?xml version="1.0" encoding="UTF-8"?>
<svg xmlns="http://www.w3.org/2000/svg" fill="none" viewBox="0 0 24 25"><path fill="#1E1E20" fill-rule="evenodd" d="M20.555.723a.9.9 0 0 1 1.102.636l.777 2.898a.9.9 0 0 1-.637 1.102L7.837 9.1H18a.9.9 0 1 1 0 1.8H3.4V19a1.1 1.1 0 0 0 1.1 1.1h15a1.1 1.1 0 0 0 1.1-1.1v-9a.9.9 0 1 1 1.8 0v9a2.9 2.9 0 0 1-2.9 2.9h-15A2.9 2.9 0 0 1 1.6 19v-9c0-.07.008-.14.023-.205a.9.9 0 0 1-.023-.186l-.064-3.08a.9.9 0 0 1 .667-.888L20.555.723zM3.375 8.427l2.019-.536h.002l.82-.22.076-1.263-2.942.789.026 1.23zm4.75-2.51L8.049 7.18l2.514-.674.076-1.262-2.514.673zm4.346-1.164l-.075 1.262 2.513-.673.076-1.263-2.514.674zm4.347-1.165l-.076 1.263 3.72-.997-.31-1.16-3.334.894z" clip-rule="evenodd" style="fill: #990ae3;"/></svg>
