<?xml version="1.0" encoding="UTF-8"?>
<svg xmlns="http://www.w3.org/2000/svg" fill="none" viewBox="0 0 24 24"><path fill="#1E1E20" fill-rule="evenodd" d="M6.165 7.458H2.5a.9.9 0 1 0 0 1.8h3.626a3.33 3.33 0 0 0 6.447 0H21.5a.9.9 0 0 0 0-1.8h-8.966a3.33 3.33 0 0 0-6.369 0zm1.66.858a.908.908 0 0 1-.003.136 1.528 1.528 0 1 0 .004-.136zm3.602 7.281H2.5a.9.9 0 0 0 0 1.8h8.966a3.33 3.33 0 0 0 6.369 0H21.5a.9.9 0 0 0 0-1.8h-3.626a3.33 3.33 0 0 0-6.447 0zm1.696.826a.882.882 0 0 1 .002.098 1.528 1.528 0 0 0 3.05.019.846.846 0 0 1 .003-.136 1.528 1.528 0 0 0-3.055.019z" clip-rule="evenodd" style="fill: #990ae3;"/></svg>
