<?xml version="1.0" encoding="UTF-8"?>
<svg xmlns="http://www.w3.org/2000/svg" fill="none" viewBox="0 0 24 24"><path fill="#1E1E20" fill-rule="evenodd" d="M12.353.926c1.968.027 4.343.569 6.271 2.425 1.909 1.838 2.71 4.304 3.047 6.23.17.973.227 1.835.242 2.456a14.004 14.004 0 0 1-.014 1.004v.017l-.001.006v.002L21 13l.898.067a.9.9 0 0 1-1.796-.133l.001-.008.002-.039a12.092 12.092 0 0 0 .008-.809 14.85 14.85 0 0 0-.215-2.186c-.306-1.75-1.005-3.783-2.522-5.244-1.497-1.441-3.372-1.9-5.048-1.922-1.701-.024-3.074.403-3.426.58a.9.9 0 0 1-.804-1.611c.648-.324 2.313-.796 4.255-.77zM6.594 3.824a.9.9 0 0 1 .082 1.27c-.869.988-1.402 1.74-1.739 2.525-.333.776-.5 1.647-.537 2.907a.9.9 0 1 1-1.8-.052c.041-1.4.232-2.514.683-3.565.447-1.043 1.125-1.962 2.041-3.003a.9.9 0 0 1 1.27-.082zm4.579 2.061c1.248-.159 2.034-.118 2.664.108.626.224 1.213.675 1.972 1.584a.9.9 0 1 0 1.382-1.154c-.855-1.023-1.69-1.746-2.746-2.125-1.044-.374-2.186-.37-3.561-.19a.9.9 0 0 0-.111.02c-1.477.386-2.656.946-3.528 1.993-.853 1.024-1.318 2.402-1.63 4.212-.235 1.142-.487 1.629-.737 1.87-.218.211-.567.358-1.42.398a.9.9 0 0 0 .084 1.798c.973-.045 1.882-.221 2.586-.9.671-.648 1.007-1.616 1.254-2.818a.91.91 0 0 0 .005-.03c.294-1.712.69-2.717 1.24-3.378.526-.63 1.28-1.052 2.546-1.388zm.109.742a3.69 3.69 0 0 1 3.873 1.246c.032.04.055.068.075.09.927 1.03 1.12 2.362.997 3.622-.123 1.259-.571 2.567-1.083 3.72a25.15 25.15 0 0 1-1.588 2.972 26.118 26.118 0 0 1-.809 1.225l-.013.019-.004.005-.001.002L12 19l.728.529a.9.9 0 0 1-1.456-1.058l.002-.003.01-.013a10.891 10.891 0 0 0 .195-.282c.135-.199.326-.487.547-.844a23.368 23.368 0 0 0 1.473-2.755c.476-1.07.84-2.178.937-3.165.097-.986-.084-1.73-.544-2.242a3.61 3.61 0 0 1-.151-.18c-.148-.189-.804-.918-2.023-.614-.678.17-.984.566-1.146.93a2.123 2.123 0 0 0-.172.704v-.005.006A.9.9 0 0 1 8.6 10h.9-.9v-.02a1.966 1.966 0 0 1 .006-.13 3.92 3.92 0 0 1 .321-1.278c.339-.76 1.033-1.615 2.355-1.945zm5.737 1.612a.9.9 0 0 1 1.242.28c.866 1.37.909 3.029.646 6.43v.007c.07.345.161.398.241.44.189.098.564.177 1.381.204a.9.9 0 0 1-.058 1.8c-.807-.027-1.565-.1-2.157-.41-.7-.365-1.034-.976-1.176-1.699a1.781 1.781 0 0 1-.026-.481c.272-3.512.123-4.544-.373-5.33a.9.9 0 0 1 .28-1.24zM12 9.6a.9.9 0 0 1 .9.9c0 2.85-.524 4.932-1.923 6.517-1.368 1.548-3.455 2.481-6.208 3.342a.9.9 0 1 1-.538-1.718c2.719-.85 4.382-1.667 5.396-2.816.983-1.112 1.473-2.674 1.473-5.325a.9.9 0 0 1 .9-.9zm-2.61 2.589a.9.9 0 0 1 .421 1.2c-.572 1.192-1.185 2.125-2.12 2.794-.93.665-2.075.998-3.565 1.208a.9.9 0 1 1-.252-1.782c1.382-.195 2.189-.475 2.77-.89.573-.41 1.024-1.025 1.545-2.109a.9.9 0 0 1 1.2-.421zm6.305 5.408a.9.9 0 0 1 1.345-.318l.002.002.012.01a5.548 5.548 0 0 0 .281.194c.195.13.469.303.784.475.67.365 1.373.64 1.881.64a.9.9 0 0 1 0 1.8c-.992 0-2.038-.475-2.744-.86-.165-.09-.32-.18-.46-.265-.075.115-.157.238-.246.366-.464.662-1.165 1.517-2.05 2.108a.9.9 0 0 1-1-1.498c.615-.41 1.164-1.054 1.575-1.642a10.025 10.025 0 0 0 .614-1l.006-.011c0-.001 0 0 0 0zm-4.984 2.351a.9.9 0 0 1-.16 1.263c-.64.497-1.208.854-1.839 1.12-.626.262-1.276.418-2.056.555a.9.9 0 1 1-.312-1.773c.725-.127 1.224-.255 1.671-.442.443-.186.873-.447 1.433-.882a.9.9 0 0 1 1.263.16z" clip-rule="evenodd" style="fill: #990ae3;"/></svg>
