<?xml version="1.0" encoding="UTF-8"?>
<svg xmlns="http://www.w3.org/2000/svg" fill="none" viewBox="0 0 24 24"><path fill="#1E1E20" fill-rule="evenodd" d="M20.344 2.169A.9.9 0 0 1 20.9 3v8.5a.898.898 0 0 1-.027.218L20 11.5c.873.218.873.219.873.22l-.001.003-.001.005-.004.013a1.436 1.436 0 0 1-.041.134 3.763 3.763 0 0 1-.711 1.218c-.596.681-1.588 1.307-3.115 1.307-1.425 0-2.813-.556-4.007-1.034l-.077-.03c-1.289-.516-2.372-.936-3.416-.936a.9.9 0 1 1 0-1.8c1.425 0 2.813.556 4.007 1.034l.077.03c1.289.516 2.372.936 3.416.936.973 0 1.481-.374 1.76-.693a1.963 1.963 0 0 0 .34-.552v-6.63c-.678.354-1.574.675-2.6.675-1.032 0-1.966-.34-2.83-.655-.138-.05-.273-.1-.407-.146C12.247 4.24 11.106 3.9 9.5 3.9c-1.578 0-2.169.445-2.385.693a.921.921 0 0 0-.196.346.574.574 0 0 0-.019.086v12.158c.511.1.955.284 1.334.537.58.387.955.896 1.196 1.378a4.586 4.586 0 0 1 .47 1.879V20.998S9.9 21 9 21h.9a.9.9 0 0 1-.9.9H3a.9.9 0 0 1-.9-.9H3h-.9v-.023a2.387 2.387 0 0 1 .008-.17 4.586 4.586 0 0 1 .462-1.71c.24-.481.616-.99 1.196-1.377a3.627 3.627 0 0 1 1.334-.537V5H6c-.9 0-.9 0-.9-.002V4.97a1.445 1.445 0 0 1 .014-.167c.012-.096.034-.221.077-.366.085-.292.25-.664.57-1.029C6.418 2.655 7.577 2.1 9.5 2.1c1.894 0 3.253.41 4.362.801l.455.163c.886.318 1.491.536 2.183.536.779 0 1.492-.295 2.037-.622a5.338 5.338 0 0 0 .788-.578l.035-.033.005-.005M4.092 20.1h3.816a2.391 2.391 0 0 0-.088-.198 1.735 1.735 0 0 0-.585-.684C6.977 19.046 6.592 18.9 6 18.9c-.593 0-.977.146-1.235.318-.264.175-.45.416-.585.684a2.391 2.391 0 0 0-.088.198zM19.364 2.363l.002-.002a.9.9 0 0 1 .978-.192" clip-rule="evenodd" style="fill: #990ae3;"/></svg>
