<?xml version="1.0" encoding="UTF-8"?>
<svg xmlns="http://www.w3.org/2000/svg" fill="none" viewBox="0 0 24 24"><path fill="#1E1E20" fill-rule="evenodd" d="M12 1.1a.9.9 0 0 1 .9.9v1.145a8.903 8.903 0 0 1 7.955 7.955H22a.9.9 0 0 1 0 1.8h-1.145a8.903 8.903 0 0 1-4.542 6.887.9.9 0 0 1-.874-1.574 7.104 7.104 0 0 0 3.605-5.313H17a.9.9 0 1 1 0-1.8h2.044A7.104 7.104 0 0 0 12.9 4.957V7a.9.9 0 0 1-1.8 0V4.957A7.104 7.104 0 0 0 4.956 11.1H7a.9.9 0 1 1 0 1.8H4.956a7.104 7.104 0 0 0 6.144 6.144V17a.9.9 0 1 1 1.8 0v5a.9.9 0 0 1-1.8 0v-1.145A8.903 8.903 0 0 1 3.145 12.9H2a.9.9 0 1 1 0-1.8h1.145A8.903 8.903 0 0 1 11.1 3.145V2a.9.9 0 0 1 .9-.9z" clip-rule="evenodd" style="fill: #990ae3;"/></svg>
