<?xml version="1.0" encoding="UTF-8"?>
<svg xmlns="http://www.w3.org/2000/svg" fill="none" viewBox="0 0 24 24"><path fill="#1E1E20" fill-rule="evenodd" d="M1.6 5c0-1.05.85-1.9 1.9-1.9h7a1.9 1.9 0 0 1 1.858 1.5H18c1.05 0 1.9.85 1.9 1.9v2.1h.6c1.05 0 1.9.85 1.9 1.9v9a1.9 1.9 0 0 1-1.9 1.9H6a1.9 1.9 0 0 1-1.9-1.9v-2.6h-.6A1.9 1.9 0 0 1 1.6 15V5zm2.5 10.1V9c0-1.05.85-1.9 1.9-1.9h7a1.9 1.9 0 0 1 1.858 1.5H18.1V6.5a.1.1 0 0 0-.1-.1h-7.4V5a.1.1 0 0 0-.1-.1h-7a.1.1 0 0 0-.1.1v10a.1.1 0 0 0 .1.1h.6zM6 8.9a.1.1 0 0 0-.1.1v10.5a.1.1 0 0 0 .1.1h14.5a.1.1 0 0 0 .1-.1v-9a.1.1 0 0 0-.1-.1h-7.4V9a.1.1 0 0 0-.1-.1H6zM7.6 13a.9.9 0 0 1 .9-.9h9a.9.9 0 1 1 0 1.8h-9a.9.9 0 0 1-.9-.9z" clip-rule="evenodd" style="fill: #990ae3;"/></svg>
