<?xml version="1.0" encoding="UTF-8"?>
<svg xmlns="http://www.w3.org/2000/svg" fill="none" viewBox="0 0 24 24"><path fill="#1E1E20" fill-rule="evenodd" d="M10.5 1.6a.9.9 0 0 1 .9.9v7.498c.002.528-.093 1.02-.411 1.451a2.453 2.453 0 0 1-.589.555V19.5h-.9.9v.045l-.004.09a4.17 4.17 0 0 1-.24 1.181 2.61 2.61 0 0 1-.69 1.044c-.376.334-.87.54-1.466.54s-1.09-.206-1.465-.54a2.61 2.61 0 0 1-.69-1.044 3.98 3.98 0 0 1-.244-1.271v-.028l-.001-.01V19.5l.9-.001h-.9v-7.505a2.473 2.473 0 0 1-.568-.546c-.306-.42-.413-.896-.431-1.416L4.6 10V2.5a.9.9 0 1 1 1.8 0v7.483c.013.302.067.38.085.404.041.055.134.142.465.334a.9.9 0 0 1 .45.779v8-.004.003a2.338 2.338 0 0 0 .13.685.833.833 0 0 0 .2.331c.048.042.116.085.27.085.154 0 .222-.043.27-.085a.833.833 0 0 0 .2-.33 2.186 2.186 0 0 0 .13-.685v-.004.002V11.5a.9.9 0 0 1 .46-.785c.35-.196.442-.283.479-.332v-.001c.011-.014.062-.081.061-.378V2.5a.9.9 0 0 1 .9-.9zm8.609.238a.9.9 0 0 1 .291.662V20h-.9.9v.047l-.005.082a2.758 2.758 0 0 1-.277 1.024 2.214 2.214 0 0 1-.752.862c-.375.25-.834.386-1.366.385-1.997 0-2.9-1.402-2.9-2.4 0-.297.13-1.98.253-3.509.062-.782.125-1.548.172-2.12l.034-.416-1.058-.706a.9.9 0 0 1-.401-.749V5c0-.507.11-1.001.38-1.449.268-.445.658-.786 1.125-1.047.9-.501 2.188-.762 3.819-.9a.9.9 0 0 1 .685.234zM14.9 12.018l1.1.733a.9.9 0 0 1 .397.824l-.078.944c-.047.57-.11 1.335-.172 2.115-.062.781-.125 1.576-.171 2.206a90.472 90.472 0 0 0-.072 1.051 4.95 4.95 0 0 0-.003.08L15.9 20c.003.017.03.157.174.3.128.128.391.3.926.3.218 0 .32-.052.368-.084a.42.42 0 0 0 .14-.169.948.948 0 0 0 .092-.358V3.504c-1.021.14-1.694.336-2.118.572-.256.143-.387.282-.46.404-.072.118-.122.278-.122.52v7.019zM8 1.6a.9.9 0 0 1 .9.9v6a.9.9 0 0 1-1.8 0v-6a.9.9 0 0 1 .9-.9z" clip-rule="evenodd" style="fill: #990ae3;"/></svg>
