<?xml version="1.0" encoding="UTF-8"?>
<svg xmlns="http://www.w3.org/2000/svg" fill="none" viewBox="0 0 24 24"><path fill="#1E1E20" fill-rule="evenodd" d="M9.956 3.907c-.067.022-.09.055-.1.08l-1.639 3.93c.22.06.467.124.732.19.983.24 2.155.47 3.074.493.985.025 2.137-.2 3.081-.449.254-.067.487-.135.693-.197l-1.653-3.968.83-.346-.83.346c-.01-.024-.034-.057-.1-.079a.333.333 0 0 0-.239.015c-.48.223-1.15.478-1.805.478s-1.326-.255-1.806-.478l.38-.816-.38.816a.333.333 0 0 0-.238-.015zm7.672 3.76l-1.823-4.373-.822.343.822-.343c-.475-1.141-1.804-1.448-2.76-1.004l.38.816-.38-.816c-.422.197-.798.31-1.045.31-.247 0-.623-.113-1.046-.31-.956-.444-2.285-.137-2.76 1.004l-1.855 4.45c-1.496.432-2.4 1.045-2.975 1.62-.158.156-.284.38-.306.654a1.09 1.09 0 0 0 .135.614c.144.26.37.443.535.557.358.25.876.488 1.473.698.266.093.556.185.869.272a1.566 1.566 0 0 0-.179.218c-.197.29-.291.637-.291 1.012 0 .939.67 1.454 1.087 1.68.107.058.212.106.309.145.062.21.133.426.212.644l-3.405.764a.9.9 0 0 0-.365 1.58l1.773 1.42-.68.792a.9.9 0 1 0 1.367 1.172l1.285-1.5a.9.9 0 0 0-.12-1.289l-1.037-.829 1.978-.444c.527.841 1.24 1.583 2.207 2.01a4.396 4.396 0 0 0 1.79.366c1.938 0 3.204-1.084 4.024-2.376l1.953.441-1.04.832a.9.9 0 0 0-.03 1.38l1.714 1.5a.9.9 0 1 0 1.185-1.354l-.905-.792 1.66-1.328a.9.9 0 0 0-.363-1.58l-3.365-.761a10.901 10.901 0 0 0 .22-.655c.094-.04.195-.087.298-.145.417-.236 1.048-.754 1.048-1.673 0-.363-.084-.7-.266-.987a1.559 1.559 0 0 0-.071-.104c.683-.153 1.284-.335 1.77-.544.37-.159.721-.353.996-.6.272-.243.559-.621.57-1.133l.009-.379-.264-.27c-.542-.555-1.067-.972-1.742-1.26-.523-.224-1.098-.355-1.774-.445zm-1.87 5.01a36.23 36.23 0 0 1-3.75.223 22.832 22.832 0 0 1-3.714-.266l.114.751.2.906c.006.028.014.056.021.083a9.024 9.024 0 0 0 .644 1.74c.415.817.962 1.463 1.664 1.773.302.133.652.213 1.063.213 1.625 0 2.614-1.301 3.222-3.077.084-.246.158-.494.222-.737l.204-.905.11-.705zm1.353-3.26a21.047 21.047 0 0 1-1.546.474c-1 .264-2.347.54-3.588.509-1.12-.029-2.447-.298-3.455-.545a31.793 31.793 0 0 1-1.544-.42c-.672.182-1.175.398-1.553.613.113.046.237.093.374.141.458.162 1.024.323 1.677.464 1.256.272 2.813.465 4.514.447 1.753-.018 3.343-.15 4.638-.36 1.097-.177 1.944-.403 2.495-.64a3.88 3.88 0 0 0 .09-.04 2.698 2.698 0 0 0-.519-.294c-.37-.158-.84-.265-1.583-.35zm2.545.369l-.002.003a.019.019 0 0 1 .002-.003zM4.704 9.67z" clip-rule="evenodd" style="fill: #990ae3;"/></svg>
