<?xml version="1.0" encoding="UTF-8"?>
<svg xmlns="http://www.w3.org/2000/svg" fill="none" viewBox="0 0 24 25"><path fill="#1E1E20" fill-rule="evenodd" d="M17.852 3.112a.9.9 0 0 1 1.036.74L18 4l.888-.148v.004l.001.005.002.014a2.641 2.641 0 0 1 .02.169c.01.105.02.251.02.425 0 .34-.037.819-.202 1.316a2.98 2.98 0 0 1-1.033 1.466c-.56.42-1.291.649-2.196.649-.562 0-.874.158-1.064.324-.204.18-.351.443-.446.773-.057.201-.09.409-.106.603H16.5c1.919 0 3.534.55 4.677 1.617C22.326 12.29 22.9 13.793 22.9 15.5c0 1.704-.572 3.195-1.639 4.261C20.195 20.828 18.705 21.4 17 21.4c-1.286 0-2.363-.644-3.16-1.133a68.274 68.274 0 0 1-.181-.113c-.347-.214-.637-.394-.922-.533-.327-.16-.559-.221-.737-.221-.167 0-.358.053-.632.203-.214.117-.419.256-.674.43l-.32.216C9.58 20.779 8.521 21.4 7 21.4c-2.938 0-5.9-2.345-5.9-5.9 0-1.707.574-3.21 1.723-4.283C3.966 10.15 5.581 9.6 7.5 9.6H10a.9.9 0 1 1 0 1.8H7.5c-1.581 0-2.716.45-3.448 1.133-.726.678-1.152 1.674-1.152 2.967 0 2.445 2.038 4.1 4.1 4.1.98 0 1.67-.379 2.376-.849l.243-.164c.277-.19.588-.401.888-.565.413-.225.91-.422 1.493-.422.572 0 1.09.19 1.529.404.371.182.748.416 1.09.627.056.035.111.07.165.102.829.51 1.502.867 2.216.867 1.296 0 2.305-.428 2.989-1.111.683-.684 1.111-1.694 1.111-2.989 0-1.293-.426-2.29-1.152-2.967-.732-.683-1.867-1.133-3.448-1.133H13a.9.9 0 0 1-.891-.773L13 10.5c-.891.127-.89.128-.891.127v-.003l-.001-.005-.002-.014a2.982 2.982 0 0 1-.019-.182 5.798 5.798 0 0 1-.018-.47c0-.378.035-.905.19-1.45.156-.545.447-1.156.992-1.633.56-.49 1.311-.77 2.249-.77.595 0 .926-.146 1.116-.289.194-.145.323-.348.405-.596.085-.253.11-.524.11-.746a2.743 2.743 0 0 0-.018-.316l-.002-.01v.002l.001.001v-.003a.9.9 0 0 1 .74-1.03zM7 13.1a.9.9 0 0 1 .9.9v.6h.6a.9.9 0 1 1 0 1.8h-.6v.6a.9.9 0 1 1-1.8 0v-.6h-.6a.9.9 0 1 1 0-1.8h.6V14a.9.9 0 0 1 .9-.9zm10.1 1.4a.9.9 0 0 1 .9-.9h.5a.9.9 0 1 1 0 1.8H18a.9.9 0 0 1-.9-.9zm-2 2.5a.9.9 0 0 1 .9-.9h.5a.9.9 0 1 1 0 1.8H16a.9.9 0 0 1-.9-.9z" clip-rule="evenodd" style="fill: #990ae3;"/></svg>
