<?xml version="1.0" encoding="UTF-8"?>
<svg xmlns="http://www.w3.org/2000/svg" fill="none" viewBox="0 0 24 24"><path fill="#1E1E20" fill-rule="evenodd" d="M11.5 1.251a.9.9 0 0 1 1 0c.833.556 2.038 1.604 3.043 2.998C16.547 5.642 17.4 7.449 17.4 9.5c0 .26-.005.514-.014.763.768.27 1.424.846 1.906 1.533.682.973 1.108 2.28 1.108 3.704a.9.9 0 0 1-1.135.869l-2.869-.777a8.311 8.311 0 0 1-.624 1.371.9.9 0 0 1-.772.437H9a.9.9 0 1 1 0-1.8h5.452c.148-.327.324-.782.494-1.355.258-.873.494-1.995.598-3.316.036-.454.056-.93.056-1.429 0-1.549-.647-2.992-1.518-4.199A11.325 11.325 0 0 0 12 3.115a11.32 11.32 0 0 0-2.083 2.186C9.047 6.508 8.4 7.951 8.4 9.5c0 .498.02.975.056 1.43.104 1.32.34 2.442.598 3.315a.9.9 0 0 1-.627 1.124l-3.692 1A.9.9 0 0 1 3.6 15.5c0-1.424.426-2.731 1.108-3.704.482-.687 1.138-1.264 1.906-1.533-.01-.25-.014-.504-.014-.763 0-2.051.853-3.858 1.857-5.251 1.005-1.394 2.21-2.442 3.044-2.998zM6.784 12.195c-.2.147-.405.355-.601.634a4.313 4.313 0 0 0-.64 1.456l1.55-.42a18.127 18.127 0 0 1-.31-1.67zm10.124 1.67l1.55.42a4.314 4.314 0 0 0-.639-1.456c-.196-.279-.4-.487-.6-.634-.084.603-.19 1.162-.31 1.67zM12 7.9a.6.6 0 1 0 0 1.2.6.6 0 0 0 0-1.2zm-2.4.6a2.4 2.4 0 1 1 4.8 0 2.4 2.4 0 0 1-4.8 0zm-.1 9.6a.9.9 0 0 1 .9.9v1.5a.9.9 0 1 1-1.8 0V19a.9.9 0 0 1 .9-.9zm2.5 0a.9.9 0 0 1 .9.9v2.5a.9.9 0 0 1-1.8 0V19a.9.9 0 0 1 .9-.9zm2.5 0a.9.9 0 0 1 .9.9v1.5a.9.9 0 0 1-1.8 0V19a.9.9 0 0 1 .9-.9z" clip-rule="evenodd" style="fill: #990ae3;"/></svg>
