<?xml version="1.0" encoding="UTF-8"?>
<svg xmlns="http://www.w3.org/2000/svg" fill="none" viewBox="0 0 24 24"><path fill="#1E1E20" d="M9.428 13.032v1.152a1.915 1.915 0 0 1-1.197.396c-1.152 0-2.016-.954-2.016-2.286s.864-2.268 2.016-2.268c.603 0 1.188.243 1.584.621l.801-.738C10.022 9.306 9.158 9 8.231 9 6.476 9 5 10.377 5 12.294s1.476 3.294 3.231 3.294a3.39 3.39 0 0 0 2.385-.954v-2.628H8.213v1.026h1.215zM13.276 15.444v-6.3h-1.215v6.3h1.215zM19.036 9.144h-4.158v6.3h1.215v-2.637h2.349v-1.026h-2.35V10.17h2.944V9.144z" style="fill: #990ae3;"/><path fill="#1E1E20" fill-rule="evenodd" d="M9.815 10.647a2.336 2.336 0 0 0-1.584-.621c-1.152 0-2.016.936-2.016 2.268 0 1.332.864 2.286 2.016 2.286.45 0 .864-.135 1.197-.396v-1.152H8.213v-1.026h2.403v2.628a3.39 3.39 0 0 1-2.385.954C6.476 15.588 5 14.211 5 12.294S6.476 9 8.231 9c.872 0 1.688.27 2.277.805.037.034.073.068.108.104l-.801.738zm-.537 2.535H8.063v-1.326h2.703v2.84l-.045.045a3.541 3.541 0 0 1-2.49.997c-1.837 0-3.381-1.443-3.381-3.444 0-2 1.544-3.444 3.381-3.444.958 0 1.864.316 2.492.954l.109.11-1.019.939-.102-.098a2.186 2.186 0 0 0-1.48-.579c-1.055 0-1.866.853-1.866 2.118 0 1.266.813 2.136 1.866 2.136.393 0 .753-.11 1.047-.321v-.927zm4.148 2.412h-1.515v-6.6h1.515v6.6zm5.76-6.6v1.326h-2.943v1.311h2.349v1.326h-2.35v2.637h-1.514v-6.6h4.458zm-3.093 6.45h-1.215v-6.3h4.158v1.026h-2.943v1.611h2.349v1.026h-2.35v2.637zm-2.817-6.3v6.3h-1.215v-6.3h1.215zM2.1 3a.9.9 0 0 1 .9-.9h5a.9.9 0 0 1 0 1.8H3.9V8a.9.9 0 0 1-1.8 0V3zm13 0a.9.9 0 0 1 .9-.9h5a.9.9 0 0 1 .9.9v5a.9.9 0 1 1-1.8 0V3.9H16a.9.9 0 0 1-.9-.9zM3 15.1a.9.9 0 0 1 .9.9v4.1H8a.9.9 0 1 1 0 1.8H3a.9.9 0 0 1-.9-.9v-5a.9.9 0 0 1 .9-.9zm18 0a.9.9 0 0 1 .9.9v5a.9.9 0 0 1-.9.9h-5a.9.9 0 1 1 0-1.8h4.1V16a.9.9 0 0 1 .9-.9z" clip-rule="evenodd" style="fill: #990ae3;"/></svg>
