<?xml version="1.0" encoding="UTF-8"?>
<svg xmlns="http://www.w3.org/2000/svg" fill="none" viewBox="0 0 24 24"><path fill="#1E1E20" fill-rule="evenodd" d="M3.1 4a.9.9 0 0 1 .9-.9h6a.9.9 0 0 1 .9.9v6a.9.9 0 0 1-.9.9H4a.9.9 0 0 1-.9-.9V4zm1.8.9v4.2h4.2V4.9H4.9zm8.2-.9a.9.9 0 0 1 .9-.9h6a.9.9 0 0 1 .9.9v6a.9.9 0 0 1-.9.9h-6a.9.9 0 0 1-.9-.9V4zm1.8.9v4.2h4.2V4.9h-4.2zM3.1 14a.9.9 0 0 1 .9-.9h6a.9.9 0 0 1 .9.9v6a.9.9 0 0 1-.9.9H4a.9.9 0 0 1-.9-.9v-6zm1.8.9v4.2h4.2v-4.2H4.9zm8.2-.9a.9.9 0 0 1 .9-.9h6a.9.9 0 0 1 .9.9v6a.9.9 0 0 1-.9.9h-6a.9.9 0 0 1-.9-.9v-6zm1.8.9v4.2h4.2v-4.2h-4.2z" clip-rule="evenodd" style="fill: #990ae3;"/></svg>
