<?xml version="1.0" encoding="UTF-8"?>
<svg xmlns="http://www.w3.org/2000/svg" fill="none" viewBox="0 0 24 24"><path fill="#1E1E20" fill-rule="evenodd" d="M7.423 6.626a5.353 5.353 0 0 1-1.02.679 7.283 7.283 0 0 1-1.003.417V12a.9.9 0 0 1-1.8 0V7.401a.1.1 0 0 0-.014-.001H3a.1.1 0 0 0-.1.1V14a.1.1 0 0 0 .1.1h1.5c.69 0 1.238.347 1.642.694.383.33.744.758 1.062 1.133l.046.054c.35.414.668.785 1.01 1.086.337.298.648.482.958.56.062.015.121.029.177.04A.9.9 0 0 1 10.5 16.25l1.5 1c.05.033.095.07.137.113-.004-.005-.003-.004.002 0 .017.012.087.063.216.116.155.063.372.12.646.12a.53.53 0 0 0 .155-.024l-1.717-1.373a.9.9 0 0 1 1.124-1.406l2.433 1.947.103-.049a.308.308 0 0 0 .114-.082.065.065 0 0 0 .012-.032.28.28 0 0 0-.002-.086l-1.858-1.859a.9.9 0 1 1 1.272-1.272l1.88 1.88a1.208 1.208 0 0 0 .301.074.577.577 0 0 0 .088.002 1.02 1.02 0 0 0 .076-.097l-5.063-5.485a.1.1 0 0 0-.13-.016L9.5 11.25a.902.902 0 0 1-.097.056 2.148 2.148 0 0 1-1.27.196c-.566-.091-1.106-.436-1.437-1.098a2.049 2.049 0 0 1-.235-.931c.002-.327.097-.607.227-.836a2.38 2.38 0 0 1 .395-.503c.06-.06.118-.114.164-.157l.002-.002.116-.11.247-.253c.263-.271.643-.663 1.033-1.033l.112-.106A5.344 5.344 0 0 0 8 6.4a.898.898 0 0 0-.296.035.592.592 0 0 0-.164.097l-.117.094zm3.328-1.579C10.03 4.867 8.798 4.6 8 4.6a2.66 2.66 0 0 0-.891.136 2.364 2.364 0 0 0-.649.356 8.202 8.202 0 0 0-.246.194c-.183.148-.328.265-.616.409-.34.17-.613.273-.81.333A1.9 1.9 0 0 0 3.585 5.6H3a1.9 1.9 0 0 0-1.9 1.9V14c0 1.05.85 1.9 1.9 1.9h1.5c.06 0 .2.028.468.259.27.232.548.56.907.985.338.399.738.871 1.194 1.273.46.406 1.023.784 1.713.956.96.24 1.664.16 2.233-.082a3.37 3.37 0 0 0 .452-.238A3.45 3.45 0 0 0 13 19.4a2.45 2.45 0 0 0 1.558-.579c.079-.064.152-.132.22-.2.376.004.76-.134 1.124-.316.564-.282.897-.715 1.04-1.185.371-.01.826-.115 1.194-.484.307-.306.505-.64.623-.948.215.134.469.212.741.212h1a1.9 1.9 0 0 0 1.9-1.9V7.5a1.9 1.9 0 0 0-1.9-1.9h-1.088c-.492 0-.921.271-1.146.672a82.34 82.34 0 0 0-2.821-.992c-.566-.184-1.12-.35-1.609-.471-.47-.117-.948-.209-1.336-.209-.578 0-1.198.202-1.75.447zM19.806 7.4c-.252.63-.976.997-1.67.742a331.14 331.14 0 0 1-.145-.053c-.933-.343-2.065-.76-3.104-1.097a22.342 22.342 0 0 0-1.484-.436c-.449-.111-.748-.156-.904-.156-.258 0-.696.128-1.265.408-.318.156-.812.562-1.351 1.075-.363.345-.684.676-.942.94-.115.12-.218.226-.306.313-.053.054-.11.106-.153.147l-.007.006a5.02 5.02 0 0 0-.121.116.965.965 0 0 0-.089.099c.006.02.017.05.039.093.043.086.076.111.082.115a.065.065 0 0 0 .032.012.292.292 0 0 0 .096-.004.406.406 0 0 0 .052-.013l2.223-1.482a1.9 1.9 0 0 1 2.45.292l4.86 5.264V10a.9.9 0 1 1 1.8 0v4.1h.6a.1.1 0 0 0 .1-.1V7.5a.1.1 0 0 0-.1-.1h-.693zm-5.035 9.422h.002-.002z" clip-rule="evenodd" style="fill: #990ae3;"/></svg>
