<?xml version="1.0" encoding="UTF-8"?>
<svg xmlns="http://www.w3.org/2000/svg" fill="none" viewBox="0 0 24 25"><path fill="#1E1E20" fill-rule="evenodd" d="M5.383 12.664c.007-.147.019-.312.035-.49.074-.792.249-1.831.647-2.857.399-1.024 1.007-2.001 1.927-2.722.91-.711 2.184-1.22 4.008-1.22 2.09 0 3.491.668 4.458 1.567.986.918 1.582 2.135 1.936 3.31a.875.875 0 1 0 1.675-.504c-.407-1.354-1.13-2.887-2.419-4.087-1.31-1.218-3.143-2.036-5.65-2.036-2.176 0-3.84.616-5.086 1.592-1.236.967-2.003 2.24-2.48 3.466-.476 1.224-.676 2.435-.758 3.33-.026.28-.041.532-.049.747a2.876 2.876 0 0 0-2.002 2.74v3A2.875 2.875 0 0 0 4.5 21.375H5c1.036 0 1.875-.84 1.875-1.875v-5c0-.904-.64-1.66-1.492-1.836zM4.5 14.375c-.621 0-1.125.504-1.125 1.125v3c0 .621.504 1.125 1.125 1.125H5a.125.125 0 0 0 .125-.125v-5A.125.125 0 0 0 5 14.375h-.5zm14.5 0a.125.125 0 0 0-.125.125v5c0 .069.056.125.125.125h.5c.621 0 1.125-.504 1.125-1.125v-3.25a.875.875 0 0 0-.875-.875H19zm-1.875.125c0-1.036.84-1.875 1.875-1.875h.75a2.625 2.625 0 0 1 2.625 2.625v3.25a2.875 2.875 0 0 1-2.875 2.875H19a1.875 1.875 0 0 1-1.875-1.875v-5z" clip-rule="evenodd" style="fill: #990ae3;"/></svg>
