<?xml version="1.0" encoding="UTF-8"?>
<svg xmlns="http://www.w3.org/2000/svg" fill="none" viewBox="0 0 24 24"><path fill="#1E1E20" fill-rule="evenodd" d="M11.38 1.848a.9.9 0 0 1 1.24 0l8.69 8.276c1.242 1.183.405 3.276-1.31 3.276h-.6v8.1a.9.9 0 0 1-.9.9h-13a.9.9 0 0 1-.9-.9v-8.1H4c-1.715 0-2.552-2.093-1.31-3.276l8.69-8.276zM12 3.743l-8.069 7.685c-.026.024-.03.04-.032.049a.11.11 0 0 0 .008.06.11.11 0 0 0 .036.049c.007.005.021.014.057.014h1.5a.9.9 0 0 1 .9.9v8.1h11.2v-8.1a.9.9 0 0 1 .9-.9H20c.036 0 .05-.009.057-.014a.111.111 0 0 0 .036-.049.111.111 0 0 0 .008-.06c-.002-.008-.006-.025-.032-.05L12 3.744zM10.6 14a.9.9 0 0 1 .9-.9H15a.9.9 0 0 1 .9.9v4a.9.9 0 0 1-.9.9h-3.5a.9.9 0 0 1-.9-.9v-4zm1.8.9v2.2h1.7v-2.2h-1.7z" clip-rule="evenodd" style="fill: #990ae3;"/></svg>
