<?xml version="1.0" encoding="UTF-8"?>
<svg xmlns="http://www.w3.org/2000/svg" fill="none" viewBox="0 0 24 24"><path fill="#1E1E20" fill-rule="evenodd" d="M11.364 2.364a.9.9 0 0 1 1.272 0l10 10A.9.9 0 0 1 22 13.9h-2.1V21a.9.9 0 0 1-.9.9h-1.5a.9.9 0 1 1 0-1.8h.6v-8h1.727L12 4.273 4.173 12.1H5.4v8H9a.9.9 0 1 1 0 1.8H4.5a.9.9 0 0 1-.9-.9v-7.1H2a.9.9 0 0 1-.636-1.536l10-10zM7.6 10.38a.9.9 0 0 1 .9-.9h1.324a.9.9 0 1 1 0 1.8H9.4v2.507c0 .174.074.349.443.528.39.19.952.287 1.499.284.06 0 .122-.002.186-.007.587-.039 1.101-.136 1.443-.309.29-.147.364-.285.364-.496V11.28h-.423a.9.9 0 1 1 0-1.8h1.323a.9.9 0 0 1 .9.9v3.407c0 1.066-.63 1.738-1.353 2.103-.477.241-1.024.37-1.535.439v2.761c0 .098.022.135.03.148a.33.33 0 0 0 .13.1c.19.096.513.154.894.131.337-.02.617-.102.783-.205a.36.36 0 0 0 .118-.102c.006-.01.016-.027.016-.072v-.803a.9.9 0 0 1 .017-1.8H16a.9.9 0 0 1 .018 1.8v.803c0 .809-.455 1.375-.986 1.705-.502.31-1.104.44-1.627.471-.556.033-1.236-.03-1.816-.325-.637-.326-1.142-.942-1.142-1.85v-2.753a4.722 4.722 0 0 1-1.39-.404c-.739-.359-1.457-1.044-1.457-2.147V10.38z" clip-rule="evenodd" style="fill: #990ae3;"/></svg>
