<?xml version="1.0" encoding="UTF-8"?>
<svg xmlns="http://www.w3.org/2000/svg" fill="none" viewBox="0 0 24 24"><path fill="#1E1E20" fill-rule="evenodd" d="M11.364 1.864a.9.9 0 0 1 1.272 0l10 10A.9.9 0 0 1 22 13.4h-1.6v7.1a1.9 1.9 0 0 1-1.9 1.9h-3.966a3.179 3.179 0 0 1-.294.004 3.55 3.55 0 0 1-.744-.102c-.582-.146-1.358-.513-1.801-1.4-.351-.701-.494-1.442-.554-1.98l-.002-.022h-.64A1.9 1.9 0 0 1 8.6 17v-4.1h-.1a.9.9 0 1 1 0-1.8h1.1V9a.9.9 0 1 1 1.8 0v2.1h1.2V9a.9.9 0 1 1 1.8 0v2.1h1.1a.9.9 0 1 1 0 1.8h-.1V17a1.9 1.9 0 0 1-1.9 1.9h-.547c.056.385.162.817.352 1.198.128.256.352.388.628.457a1.755 1.755 0 0 0 .467.05l.019-.001a.88.88 0 0 1 .081-.004h4a.1.1 0 0 0 .1-.1v-8.9h1.227L12 3.773 4.173 11.6H5.4v8.9a.1.1 0 0 0 .1.1h2a.9.9 0 1 1 0 1.8h-2a1.9 1.9 0 0 1-1.9-1.9v-7.1H2a.9.9 0 0 1-.636-1.536l10-10zM13.6 12.9V17a.1.1 0 0 1-.1.1h-3a.1.1 0 0 1-.1-.1v-4.1h3.2z" clip-rule="evenodd" style="fill: #990ae3;"/></svg>
