<?xml version="1.0" encoding="UTF-8"?>
<svg xmlns="http://www.w3.org/2000/svg" fill="none" viewBox="0 0 24 24"><path fill="#1E1E20" fill-rule="evenodd" d="M4.1 2.5a.9.9 0 0 1 .9-.9h14a.9.9 0 0 1 .9.9v19a.9.9 0 0 1-.9.9H5a.9.9 0 0 1-.9-.9v-19zm1.8.9v17.2h2.2v-3.1a.9.9 0 0 1 .9-.9h6a.9.9 0 0 1 .9.9v3.1h2.2V3.4H5.9zm8.2 17.2v-2.2h-1.2v2.2h1.2zm-3 0v-2.2H9.9v2.2h1.2zm.9-16a.9.9 0 0 1 .9.9v.6h.6a.9.9 0 1 1 0 1.8h-.6v.6a.9.9 0 1 1-1.8 0v-.6h-.6a.9.9 0 1 1 0-1.8h.6v-.6a.9.9 0 0 1 .9-.9zm-3.9 6.9a.9.9 0 0 1 .9-.9h6a.9.9 0 1 1 0 1.8H9a.9.9 0 0 1-.9-.9zm0 3a.9.9 0 0 1 .9-.9h6a.9.9 0 1 1 0 1.8H9a.9.9 0 0 1-.9-.9z" clip-rule="evenodd" style="fill: #990ae3;"/></svg>
