<?xml version="1.0" encoding="UTF-8"?>
<svg xmlns="http://www.w3.org/2000/svg" fill="none" viewBox="0 0 24 25"><path fill="#1E1E20" fill-rule="evenodd" d="M1.6 4.5a.9.9 0 0 1 .9-.9h19a.9.9 0 0 1 .9.9v16a.9.9 0 0 1-.9.9h-19a.9.9 0 0 1-.9-.9v-16zm1.8.9v14.2h17.2V5.4H3.4zm4.1 2.5a1.6 1.6 0 1 0 0 3.2 1.6 1.6 0 0 0 0-3.2zM4.1 9.5a3.4 3.4 0 1 1 6.8 0 3.4 3.4 0 0 1-6.8 0zm11.264.864a.9.9 0 0 1 1.272 0l3 3a.9.9 0 1 1-1.272 1.272L16 12.273l-5.364 5.363a.9.9 0 0 1-1.272 0L8 16.273l-2.364 2.363a.9.9 0 1 1-1.272-1.272l3-3a.9.9 0 0 1 1.272 0L10 15.727l5.364-5.363z" clip-rule="evenodd" style="fill: #990ae3;"/></svg>
