<?xml version="1.0" encoding="UTF-8"?>
<svg xmlns="http://www.w3.org/2000/svg" fill="none" viewBox="0 0 24 24"><path fill="#1E1E20" fill-rule="evenodd" d="M17.1 2.5a.9.9 0 0 1 .9-.9h3a.9.9 0 0 1 .9.9V21a.9.9 0 0 1-.9.9H2.5a.9.9 0 0 1-.9-.9v-9a.9.9 0 0 1 .298-.669l3.33-2.998C6.453 7.233 8.4 8.1 8.4 9.745v.234l1.829-1.646c1.223-1.1 3.171-.233 3.171 1.412v.234l3.498-3.148a.9.9 0 0 1 .202-.137V2.5zM18.9 9a.9.9 0 0 1-1.797.069l-4.001 3.6A.9.9 0 0 1 11.6 12V9.745c0-.033-.008-.047-.014-.055a.109.109 0 0 0-.045-.036.11.11 0 0 0-.058-.01c-.01.001-.025.005-.05.027l-3.331 2.998A.9.9 0 0 1 6.6 12V9.745c0-.033-.008-.047-.014-.055a.11.11 0 0 0-.045-.036.11.11 0 0 0-.058-.01c-.01.001-.025.005-.05.027L3.4 12.401V20.1h16.7V3.4h-1.2V9zm-8.3 6a.9.9 0 0 1 .9-.9h.5a.9.9 0 0 1 0 1.8h-.5a.9.9 0 0 1-.9-.9zm3 0a.9.9 0 0 1 .9-.9h.5a.9.9 0 0 1 0 1.8h-.5a.9.9 0 0 1-.9-.9zm3 0a.9.9 0 0 1 .9-.9h.5a.9.9 0 0 1 0 1.8h-.5a.9.9 0 0 1-.9-.9zm-9 2.5a.9.9 0 0 1 .9-.9H9a.9.9 0 1 1 0 1.8h-.5a.9.9 0 0 1-.9-.9zm3 0a.9.9 0 0 1 .9-.9h.5a.9.9 0 0 1 0 1.8h-.5a.9.9 0 0 1-.9-.9zm3 0a.9.9 0 0 1 .9-.9h.5a.9.9 0 0 1 0 1.8h-.5a.9.9 0 0 1-.9-.9zm3 0a.9.9 0 0 1 .9-.9h.5a.9.9 0 0 1 0 1.8h-.5a.9.9 0 0 1-.9-.9z" clip-rule="evenodd" style="fill: #990ae3;"/></svg>
