<?xml version="1.0" encoding="UTF-8"?>
<svg xmlns="http://www.w3.org/2000/svg" fill="none" viewBox="0 0 24 24"><path fill="#1E1E20" fill-rule="evenodd" d="M17.5 3.9a1.1 1.1 0 1 0-.002 2.199A1.1 1.1 0 0 0 17.5 3.9zm-2.316-.646a2.9 2.9 0 1 1 4.725 3.36l1.882 3.456a.9.9 0 0 1-.02.893l-1.5 2.5a.9.9 0 1 1-1.543-.926l1.235-2.059-1.493-2.744a2.895 2.895 0 0 1-1.404.134l-.617.217-.946 2.337 1.269 2.115a.9.9 0 1 1-1.544.926l-1.5-2.5a.9.9 0 0 1-.062-.8l.519-1.282-4.831 1.7 6.519 6.519H18c1.05 0 1.9.85 1.9 1.9v1a1.9 1.9 0 0 1-1.9 1.9h-2a.9.9 0 0 1 0-1.8h2a.1.1 0 0 0 .1-.1v-1a.1.1 0 0 0-.1-.1H7a.1.1 0 0 0-.1.1v1a.1.1 0 0 0 .1.1h5.5a.9.9 0 1 1 0 1.8H7A1.9 1.9 0 0 1 5.1 20v-1c0-1.05.85-1.9 1.9-1.9h1.944l-4.931-5.341a3.4 3.4 0 1 1 3.595-5.755l7.576-2.75zm-.56 2.118L9.006 7.411c.202.38.333.803.377 1.251l5.73-2.015a2.882 2.882 0 0 1-.49-1.275zM7.987 11.76c-.315.227-.67.402-1.053.51l4.46 4.831h1.933l-5.34-5.34zM6 7.4a1.6 1.6 0 1 0 0 3.2 1.6 1.6 0 0 0 0-3.2z" clip-rule="evenodd" style="fill: #990ae3;"/></svg>
