<?xml version="1.0" encoding="UTF-8"?>
<svg xmlns="http://www.w3.org/2000/svg" fill="none" viewBox="0 0 24 24"><path fill="#1E1E20" fill-rule="evenodd" d="M3.886 9.886C3.263 10.51 2.9 11.293 2.9 12c0 .707.363 1.49.986 2.114.624.623 1.407.986 2.114.986.717 0 1.513-.34 2.444-1.03.735-.544 1.487-1.255 2.282-2.056-.805-.784-1.555-1.496-2.295-2.054C7.492 9.253 6.705 8.9 6 8.9c-.707 0-1.49.363-2.114.986zm8.089 3.425c-.808.814-1.63 1.591-2.46 2.206C8.46 16.298 7.283 16.9 6 16.9c-1.293 0-2.51-.637-3.386-1.514C1.737 14.51 1.1 13.293 1.1 12c0-1.293.637-2.51 1.514-3.386C3.49 7.737 4.707 7.1 6 7.1c1.295 0 2.472.637 3.515 1.423.83.626 1.66 1.414 2.474 2.208.803-.804 1.634-1.591 2.475-2.218C15.519 7.726 16.71 7.1 18 7.1c1.293 0 2.51.637 3.386 1.514.877.876 1.514 2.093 1.514 3.386 0 1.293-.637 2.51-1.514 3.386-.876.877-2.093 1.514-3.386 1.514-1.254 0-2.408-.51-3.482-1.276-.854-.608-1.696-1.405-2.543-2.313zm1.264-1.284c.791-.793 1.552-1.513 2.3-2.071C16.483 9.253 17.29 8.9 18 8.9c.707 0 1.49.363 2.114.986.623.624.986 1.407.986 2.114 0 .707-.363 1.49-.986 2.114-.624.623-1.407.986-2.114.986-.746 0-1.539-.301-2.438-.942-.736-.524-1.502-1.246-2.323-2.131z" clip-rule="evenodd" style="fill: #990ae3;"/></svg>
