<?xml version="1.0" encoding="UTF-8"?>
<svg xmlns="http://www.w3.org/2000/svg" fill="none" viewBox="0 0 24 24"><path fill="#1E1E20" d="M11 8.18c0 .537.469.979 1.007.979.524 0 .993-.442.993-.98s-.469-.979-.993-.979c-.538 0-1.007.441-1.007.98zM11.152 10.138v6.897h1.696v-6.897h-1.696z" style="fill: #990ae3;"/><path fill="#1E1E20" fill-rule="evenodd" d="M22 12c0 5.523-4.477 10-10 10S2 17.523 2 12 6.477 2 12 2s10 4.477 10 10zm-1.75 0a8.25 8.25 0 1 1-16.5 0 8.25 8.25 0 0 1 16.5 0z" clip-rule="evenodd" style="fill: #990ae3;"/></svg>
