<?xml version="1.0" encoding="UTF-8"?>
<svg xmlns="http://www.w3.org/2000/svg" fill="none" viewBox="0 0 24 24"><path fill="#1E1E20" fill-rule="evenodd" d="M8.993 4.476a8.103 8.103 0 0 0 0 15.048 9.575 9.575 0 0 1-.374-.826c-.62-1.552-1.017-3.578-1.102-5.798H6.15a.9.9 0 1 1 0-1.8h1.367c.085-2.22.481-4.246 1.102-5.798.115-.288.24-.564.374-.826zM12 2.1c-5.468 0-9.9 4.432-9.9 9.9s4.432 9.9 9.9 9.9 9.9-4.432 9.9-9.9-4.432-9.9-9.9-9.9zm0 1.8c-.17 0-.423.082-.747.426-.327.345-.662.893-.963 1.644-.523 1.308-.887 3.1-.971 5.13h5.362c-.083-2.03-.448-3.822-.971-5.13-.3-.751-.636-1.3-.963-1.644-.324-.344-.577-.426-.747-.426zm4.483 7.2c-.085-2.22-.481-4.246-1.102-5.798a9.546 9.546 0 0 0-.374-.826A8.108 8.108 0 0 1 20.05 11.1h-3.568zm-1.802 1.8H9.32c.084 2.03.448 3.822.971 5.13.3.751.636 1.3.963 1.644.324.344.577.426.747.426.17 0 .423-.082.747-.426.327-.345.662-.893.963-1.644.523-1.308.887-3.1.971-5.13zm.326 6.624c.134-.262.26-.538.374-.826.62-1.552 1.017-3.578 1.102-5.798h3.568a8.108 8.108 0 0 1-5.044 6.624z" clip-rule="evenodd" style="fill: #990ae3;"/></svg>
