<?xml version="1.0" encoding="UTF-8"?>
<svg xmlns="http://www.w3.org/2000/svg" fill="none" viewBox="0 0 24 24"><path fill="#1E1E20" fill-rule="evenodd" d="M7 3.4a1.1 1.1 0 0 0-1.1 1.1v16.1H17a1.1 1.1 0 0 0 1.1-1.1V3.4H7zM4.1 4.5A2.9 2.9 0 0 1 7 1.6h12a.9.9 0 0 1 .9.9v17a2.9 2.9 0 0 1-2.9 2.9H5a.9.9 0 0 1-.9-.9v-17zm4 1.5a.9.9 0 0 1 .9-.9h3a.9.9 0 0 1 0 1.8H9a.9.9 0 0 1-.9-.9zm6 0a.9.9 0 0 1 .9-.9h.5a.9.9 0 0 1 0 1.8H15a.9.9 0 0 1-.9-.9zm-6 3a.9.9 0 0 1 .9-.9h3a.9.9 0 0 1 0 1.8H9a.9.9 0 0 1-.9-.9zm6 0a.9.9 0 0 1 .9-.9h.5a.9.9 0 0 1 0 1.8H15a.9.9 0 0 1-.9-.9zm-6 3a.9.9 0 0 1 .9-.9h3a.9.9 0 0 1 0 1.8H9a.9.9 0 0 1-.9-.9zm6 0a.9.9 0 0 1 .9-.9h.5a.9.9 0 0 1 0 1.8H15a.9.9 0 0 1-.9-.9zm-6 3a.9.9 0 0 1 .9-.9h6.5a.9.9 0 0 1 0 1.8H9a.9.9 0 0 1-.9-.9zm5 3a.9.9 0 0 1 .9-.9h1.5a.9.9 0 0 1 0 1.8H14a.9.9 0 0 1-.9-.9z" clip-rule="evenodd" style="fill: #990ae3;"/></svg>
