<?xml version="1.0" encoding="UTF-8"?>
<svg xmlns="http://www.w3.org/2000/svg" fill="none" viewBox="0 0 24 24"><path fill="#1E1E20" fill-rule="evenodd" d="M11.5 3.9a7.6 7.6 0 1 0 0 15.2 7.6 7.6 0 0 0 0-15.2zm-9.4 7.6a9.4 9.4 0 1 1 17.48 4.807l2.056 2.057L21 19l.637-.636.002.002.003.003.007.008.02.02a2.235 2.235 0 0 1 .204.252c.113.158.257.394.356.691.1.301.16.681.075 1.102-.085.427-.306.833-.668 1.194-.361.362-.767.583-1.194.668a2.14 2.14 0 0 1-1.102-.075 2.64 2.64 0 0 1-.943-.56l-.02-.02-.008-.007-.003-.003-.001-.001v-.001L19 21l-.636.636-2.057-2.056A9.4 9.4 0 0 1 2.1 11.5zm15.673 7l1.856 1.856a.84.84 0 0 0 .28.165.346.346 0 0 0 .18.018c.041-.008.136-.037.275-.175.138-.139.167-.233.175-.275a.345.345 0 0 0-.018-.18.84.84 0 0 0-.165-.28L18.5 17.773a9.45 9.45 0 0 1-.727.727zM11.432 7.9c-.766 0-1.372.613-1.372 1.35 0 .737.606 1.35 1.372 1.35.766 0 1.372-.613 1.372-1.35 0-.737-.606-1.35-1.372-1.35zM8.26 9.25c0-1.748 1.428-3.15 3.172-3.15 1.744 0 3.172 1.402 3.172 3.15 0 .247-.029.487-.083.718a4.15 4.15 0 0 1 1.374.934 3.6 3.6 0 0 1 .97 2.01 3.598 3.598 0 0 1-.215 1.836 2.243 2.243 0 0 1-.464.724c-.204.205-.532.428-.967.428H8.15c-.783 0-1.336-.531-1.634-1.043-.311-.532-.461-1.21-.406-1.895.057-.697.33-1.43.9-2.048.35-.379.794-.697 1.334-.937a3.142 3.142 0 0 1-.085-.727zm1 2.296c-.436.163-.73.376-.926.588a1.615 1.615 0 0 0-.428.975c-.029.344.054.65.166.841a.494.494 0 0 0 .118.15h6.78l.017-.04c.087-.21.145-.54.094-.901a1.8 1.8 0 0 0-.486-1.012c-.211-.221-.524-.44-.987-.605a3.176 3.176 0 0 1-2.176.858 3.176 3.176 0 0 1-2.171-.854zM8.206 14.11l-.006-.003.006.003z" clip-rule="evenodd" style="fill: #990ae3;"/></svg>
