<?xml version="1.0" encoding="UTF-8"?>
<svg xmlns="http://www.w3.org/2000/svg" fill="none" viewBox="0 0 24 24"><path fill="#1E1E20" fill-rule="evenodd" d="M15.5 2.9a5.6 5.6 0 0 0-5.6 5.6v.012c0 .315 0 .863-.07 1.404a4.536 4.536 0 0 1-.188.86c-.093.275-.244.599-.506.86L3.43 17.345a.1.1 0 0 0-.029.07V20.5a.1.1 0 0 0 .1.1H5a.1.1 0 0 0 .1-.1v-2.4h2.4a.1.1 0 0 0 .1-.1v-1.9h1.9a.1.1 0 0 0 .1-.1v-1.9h5.9a5.6 5.6 0 1 0 0-11.2zM8.1 8.5a7.4 7.4 0 1 1 7.4 7.4h-4.1v.1a1.9 1.9 0 0 1-1.9 1.9h-.1v.1a1.9 1.9 0 0 1-1.9 1.9h-.6v.6A1.9 1.9 0 0 1 5 22.4H3.5a1.9 1.9 0 0 1-1.9-1.9v-3.086c0-.504.2-.987.556-1.343l5.706-5.706s.032-.041.074-.165c.045-.133.082-.307.11-.515.053-.418.054-.862.054-1.185zM16 6.9a1.1 1.1 0 1 0 0 2.2 1.1 1.1 0 0 0 0-2.2zM13.1 8a2.9 2.9 0 1 1 5.8 0 2.9 2.9 0 0 1-5.8 0z" clip-rule="evenodd" style="fill: #990ae3;"/></svg>
