<?xml version="1.0" encoding="UTF-8"?>
<svg xmlns="http://www.w3.org/2000/svg" fill="none" viewBox="0 0 24 24"><path fill="#1E1E20" fill-rule="evenodd" d="M5.1 2.5a.9.9 0 0 1 .9-.9h13.5a.9.9 0 0 1 .9.9V19a4.31 4.31 0 0 1-.877 2.615c-.575.739-1.445 1.285-2.523 1.285H5.5c-1.262 0-2.187-.495-2.749-1.338-.52-.78-.651-1.74-.651-2.562v-1a.9.9 0 0 1 .9-.9h11.5a.9.9 0 0 1 .9.9v1c0 .561.19 1.114.498 1.51.3.386.68.59 1.102.59.422 0 .802-.204 1.102-.59A2.51 2.51 0 0 0 18.6 19V3.4H6.9V15a.9.9 0 0 1-1.8 0V2.5zm9.038 18.6A4.378 4.378 0 0 1 13.6 19v-.1H3.9v.1c0 .678.118 1.217.349 1.563.188.282.513.537 1.251.537h8.638zM8.1 5.5a.9.9 0 0 1 .9-.9h7.5a.9.9 0 1 1 0 1.8H9a.9.9 0 0 1-.9-.9zm0 4a.9.9 0 0 1 .9-.9h7.5a.9.9 0 1 1 0 1.8H9a.9.9 0 0 1-.9-.9zm0 4a.9.9 0 0 1 .9-.9h7.5a.9.9 0 1 1 0 1.8H9a.9.9 0 0 1-.9-.9z" clip-rule="evenodd" style="fill: #990ae3;"/></svg>
