<?xml version="1.0" encoding="UTF-8"?>
<svg xmlns="http://www.w3.org/2000/svg" fill="none" viewBox="0 0 24 24"><path fill="#1E1E20" fill-rule="evenodd" d="M12.938 2.13c-.676-.552-1.57-.663-2.565-.521a.9.9 0 0 0-.69.516L6.345 9.397H3a.9.9 0 0 0-.9.9V21a.9.9 0 0 0 .9.9h13.392c1.363 0 2.54-.95 2.832-2.28l1.575-7.191a2.9 2.9 0 0 0-2.833-3.521h-4.042c.013-.484.035-.955.056-1.416l.03-.672c.037-.92.057-1.823-.051-2.59-.107-.76-.36-1.561-1.021-2.1zm-5.115 8.364l3.276-7.142c.416-.003.608.096.7.172.139.112.294.363.378.956.082.585.072 1.334.034 2.266-.008.205-.018.418-.028.637-.034.75-.072 1.575-.072 2.425a.9.9 0 0 0 .9.9h4.955a1.1 1.1 0 0 1 1.075 1.336l-1.576 7.191c-.11.506-.557.865-1.073.865H3.9v-8.903h2.123v6.884a.9.9 0 1 0 1.8 0v-7.587z" clip-rule="evenodd" style="fill: #990ae3;"/></svg>
