<?xml version="1.0" encoding="UTF-8"?>
<svg xmlns="http://www.w3.org/2000/svg" fill="none" viewBox="0 0 24 24"><path fill="#1E1E20" fill-rule="evenodd" d="M14.114 3.114a4.79 4.79 0 1 1 6.772 6.772l-2.25 2.25a.9.9 0 1 1-1.272-1.272l2.25-2.25a2.99 2.99 0 0 0-4.228-4.228l-3.921 3.922a3.1 3.1 0 0 0 0 4.384l.171.172a.9.9 0 1 1-1.272 1.272l-.172-.171.594-.594-.594.594a4.9 4.9 0 0 1 0-6.93l3.922-3.921zm-1.75 6.75a.9.9 0 0 1 1.272 0l.172.171a4.9 4.9 0 0 1 0 6.93l-3.922 3.921a4.79 4.79 0 0 1-6.772-6.772l2.25-2.25a.9.9 0 1 1 1.272 1.272l-2.25 2.25a2.99 2.99 0 1 0 4.228 4.228l3.921-3.922a3.1 3.1 0 0 0 0-4.384l-.171-.172a.9.9 0 0 1 0-1.272z" clip-rule="evenodd" style="fill: #990ae3;"/></svg>
