<?xml version="1.0" encoding="UTF-8"?>
<svg xmlns="http://www.w3.org/2000/svg" fill="none" viewBox="0 0 24 24"><path fill="#1E1E20" fill-rule="evenodd" d="M3.1 6.5a.9.9 0 0 1 .9-.9h.5a.9.9 0 0 1 0 1.8H4a.9.9 0 0 1-.9-.9zm3.5 0a.9.9 0 0 1 .9-.9h13a.9.9 0 1 1 0 1.8h-13a.9.9 0 0 1-.9-.9zM3.1 12a.9.9 0 0 1 .9-.9h.5a.9.9 0 1 1 0 1.8H4a.9.9 0 0 1-.9-.9zm3.5 0a.9.9 0 0 1 .9-.9h13a.9.9 0 1 1 0 1.8h-13a.9.9 0 0 1-.9-.9zm-3.5 5.5a.9.9 0 0 1 .9-.9h.5a.9.9 0 1 1 0 1.8H4a.9.9 0 0 1-.9-.9zm3.5 0a.9.9 0 0 1 .9-.9h13a.9.9 0 1 1 0 1.8h-13a.9.9 0 0 1-.9-.9z" clip-rule="evenodd" style="fill: #990ae3;"/></svg>
