<?xml version="1.0" encoding="UTF-8"?>
<svg xmlns="http://www.w3.org/2000/svg" fill="none" viewBox="0 0 24 24"><path fill="#1E1E20" fill-rule="evenodd" d="M9.011 4.011C8.328 4.695 7.9 5.705 7.9 7v3.124a.9.9 0 0 1-.9.9H4.904v9.733h14.181v-9.733H11a.9.9 0 1 1 0-1.8h8.985a.9.9 0 0 1 .9.9v11.533a.9.9 0 0 1-.9.9H4.004a.9.9 0 0 1-.9-.9V10.124a.9.9 0 0 1 .9-.9H6.1V7c0-1.705.572-3.195 1.639-4.261C8.805 1.672 10.296 1.1 12 1.1c2.881 0 5.078 1.641 5.714 4.282a.9.9 0 1 1-1.75.422C15.54 4.041 14.123 2.9 12 2.9c-1.296 0-2.305.428-2.989 1.111zM12 14.6a.9.9 0 0 1 .9.9V18a.9.9 0 0 1-1.8 0v-2.5a.9.9 0 0 1 .9-.9z" clip-rule="evenodd" style="fill: #990ae3;"/></svg>
