<?xml version="1.0" encoding="UTF-8"?>
<svg xmlns="http://www.w3.org/2000/svg" fill="none" viewBox="0 0 24 24"><path fill="#1E1E20" fill-rule="evenodd" d="M9.011 4.011C8.328 4.695 7.9 5.705 7.9 7v3.124a.9.9 0 0 1-.9.9H4.904v9.733h14.181v-9.733H11a.9.9 0 1 1 0-1.8h5.1V7c0-1.295-.428-2.305-1.111-2.989C14.305 3.328 13.295 2.9 12 2.9c-1.296 0-2.305.428-2.989 1.111zM17.9 9.224V7c0-1.705-.572-3.195-1.639-4.261C15.195 1.672 13.705 1.1 12 1.1c-1.704 0-3.195.572-4.261 1.639C6.672 3.805 6.1 5.295 6.1 7v2.224H4.004a.9.9 0 0 0-.9.9v11.533a.9.9 0 0 0 .9.9h15.981a.9.9 0 0 0 .9-.9V10.124a.9.9 0 0 0-.9-.9H17.9zM12 14.6a.9.9 0 0 1 .9.9V18a.9.9 0 0 1-1.8 0v-2.5a.9.9 0 0 1 .9-.9z" clip-rule="evenodd" style="fill: #990ae3;"/></svg>
