<?xml version="1.0" encoding="UTF-8"?>
<svg xmlns="http://www.w3.org/2000/svg" fill="none" viewBox="0 0 24 24"><path fill="#1E1E20" fill-rule="evenodd" d="M7.465 5.12C6.465 6.173 5.9 7.686 5.9 9.5c0 1.966 1.033 4.108 2.465 6.175 1.174 1.695 2.54 3.233 3.651 4.484.233.263.455.512.661.748a.9.9 0 1 1-1.354 1.186c-.193-.221-.405-.46-.631-.714-1.111-1.25-2.564-2.886-3.807-4.679C5.401 14.558 4.1 12.034 4.1 9.5c0-2.186.685-4.173 2.06-5.62C7.542 2.426 9.541 1.6 12 1.6s4.458.826 5.84 2.28c1.375 1.447 2.06 3.434 2.06 5.62 0 1.88-.715 3.743-1.67 5.433-.96 1.698-2.204 3.293-3.352 4.649a.9.9 0 0 1-1.374-1.164c1.121-1.323 2.281-2.818 3.159-4.37.882-1.561 1.437-3.108 1.437-4.548 0-1.814-.565-3.327-1.565-4.38C15.542 4.074 14.041 3.4 12 3.4s-3.542.674-4.535 1.72zM12 6.9a2.1 2.1 0 1 0 0 4.2 2.1 2.1 0 0 0 0-4.2zM8.1 9a3.9 3.9 0 1 1 7.8 0 3.9 3.9 0 0 1-7.8 0z" clip-rule="evenodd" style="fill: #990ae3;"/></svg>
