<?xml version="1.0" encoding="UTF-8"?>
<svg xmlns="http://www.w3.org/2000/svg" fill="none" viewBox="0 0 24 24"><path fill="#1E1E20" fill-rule="evenodd" d="M3.049 3.87c.025-1.04.89-1.77 1.846-1.77H6a.9.9 0 0 1 0 1.8H4.895c-.027 0-.041.009-.047.013-.026 1.098.058 2.97.722 4.533.327.77.778 1.426 1.39 1.889.6.454 1.41.765 2.54.765 1.13 0 1.94-.31 2.54-.765.612-.463 1.063-1.119 1.39-1.89.664-1.563.748-3.434.722-4.532-.006-.004-.02-.013-.047-.013h-1.104a.9.9 0 1 1 0-1.8h1.104c.955 0 1.821.73 1.846 1.77.028 1.174-.047 3.357-.864 5.28-.413.972-1.032 1.917-1.96 2.62-.94.711-2.14 1.13-3.627 1.13-1.488 0-2.687-.419-3.626-1.13-.929-.703-1.548-1.648-1.961-2.62-.817-1.923-.892-4.106-.864-5.28zM18.5 13.4a.6.6 0 1 0 0 1.2.6.6 0 0 0 0-1.2zm-2.4.6a2.4 2.4 0 1 1 3.3 2.226V18h-.9l.9.001V18.028a2.874 2.874 0 0 1-.012.216 5.432 5.432 0 0 1-.666 2.197C18.004 21.718 16.583 22.9 14 22.9c-2.583 0-4.004-1.182-4.722-2.459a5.43 5.43 0 0 1-.678-2.413V18L9.47 18H8.6v-3a.9.9 0 1 1 1.8 0v3.011l.006.089a3.63 3.63 0 0 0 .441 1.459c.407.723 1.236 1.541 3.153 1.541s2.746-.818 3.153-1.541a3.63 3.63 0 0 0 .447-1.548v-1.785A2.4 2.4 0 0 1 16.1 14z" clip-rule="evenodd" style="fill: #990ae3;"/></svg>
