<?xml version="1.0" encoding="UTF-8"?>
<svg xmlns="http://www.w3.org/2000/svg" fill="none" viewBox="0 0 24 24"><path fill="#1E1E20" d="M16 16.5a1 1 0 1 1-2 0 1 1 0 0 1 2 0z" style="fill: #990ae3;"/><path fill="#1E1E20" fill-rule="evenodd" d="M4.1 2.5a.9.9 0 0 1 .9-.9h9a.9.9 0 0 1 .666.295l5 5.5A.9.9 0 0 1 19 8.9h-5a.9.9 0 0 1-.9-.9V3.4H5.9v2.1a.9.9 0 0 1-1.8 0v-3zm10.8 2.328L16.965 7.1H14.9V4.828zM7.5 8.9a2.6 2.6 0 1 0 0 5.2 2.6 2.6 0 0 0 0-5.2zm-4.4 2.6a4.4 4.4 0 1 1 8.8 0 4.4 4.4 0 0 1-8.8 0zm12.556-1.332a.9.9 0 0 1 .98.196l2.5 2.5a.9.9 0 1 1-1.272 1.272l-.964-.963V16.5a1.9 1.9 0 1 1-1.8-1.897V11a.9.9 0 0 1 .556-.832zM15.1 16.5a.1.1 0 1 0-.2 0 .1.1 0 0 0 .2 0zM5 16.6a.9.9 0 0 1 .9.9v3.1h12.2V19a.9.9 0 1 1 1.8 0v2.5a.9.9 0 0 1-.9.9H5a.9.9 0 0 1-.9-.9v-4a.9.9 0 0 1 .9-.9z" clip-rule="evenodd" style="fill: #990ae3;"/></svg>
