<?xml version="1.0" encoding="UTF-8"?>
<svg xmlns="http://www.w3.org/2000/svg" fill="none" viewBox="0 0 24 25"><path fill="#1E1E20" fill-rule="evenodd" d="M14.374 3.182A.9.9 0 0 1 14.9 4v14a.9.9 0 0 1-1.488.681L9.034 14.9H4.5A2.9 2.9 0 0 1 1.6 12v-2a2.9 2.9 0 0 1 2.9-2.9h4.534l4.378-3.781a.9.9 0 0 1 .962-.137zM13.1 5.966L9.957 8.681a.9.9 0 0 1-.589.219H4.5A1.1 1.1 0 0 0 3.4 10v2a1.1 1.1 0 0 0 1.1 1.1h4.868a.9.9 0 0 1 .589.219l3.143 2.714V5.966zm5.781-1.79a.9.9 0 0 1 1.273 0c3.768 3.769 3.768 9.879 0 13.647a.9.9 0 1 1-1.273-1.272 7.85 7.85 0 0 0 0-11.102.9.9 0 0 1 0-1.273zm-2.686 2.688a.9.9 0 0 1 1.272 0 5.85 5.85 0 0 1 0 8.272.9.9 0 1 1-1.272-1.272 4.05 4.05 0 0 0 0-5.728.9.9 0 0 1 0-1.272zM4.782 15.127a.9.9 0 0 1 1.091.655l.81 3.242a.1.1 0 0 0 .098.076h.938a.1.1 0 0 0 .097-.124l-.69-2.758a.9.9 0 0 1 1.747-.436l.69 2.757A1.9 1.9 0 0 1 7.718 20.9h-.938a1.9 1.9 0 0 1-1.843-1.44l-.811-3.242a.9.9 0 0 1 .655-1.091z" clip-rule="evenodd" style="fill: #990ae3;"/></svg>
