<?xml version="1.0" encoding="UTF-8"?>
<svg xmlns="http://www.w3.org/2000/svg" fill="none" viewBox="0 0 24 25"><path fill="#1E1E20" fill-rule="evenodd" d="M7.6 6.25a4.65 4.65 0 1 1 9.3 0v6.5a4.65 4.65 0 0 1-9.3 0v-6.5zm4.65 9.35a2.85 2.85 0 0 0 2.85-2.85v-6.5a2.85 2.85 0 0 0-5.7 0v.85h2.1a.9.9 0 1 1 0 1.8H9.4v1.2h2.1a.9.9 0 1 1 0 1.8H9.4v.85a2.85 2.85 0 0 0 2.85 2.85zm-5.47.451a.9.9 0 0 0-1.561.896L6 16.5c-.781.447-.782.446-.781.447l.001.003.003.004.008.013a3.093 3.093 0 0 0 .11.175c.072.113.179.267.318.45.278.365.694.85 1.248 1.335.959.839 2.36 1.7 4.193 1.92V22a.9.9 0 1 0 1.8 0v-2a.9.9 0 0 0-.9-.9c-1.719 0-3.017-.748-3.907-1.527A7.39 7.39 0 0 1 7.09 16.5a5.86 5.86 0 0 1-.3-.43l-.01-.018-.001-.002zm0 0l.001.002-.001-.002zm11.666-.332a.9.9 0 0 1 .335 1.228L18 16.5c.781.447.782.446.781.447v.002l-.003.003-.005.008-.015.026a6.714 6.714 0 0 1-.24.366 8.914 8.914 0 0 1-.728.896c-.639.692-1.613 1.535-2.929 2.083a.9.9 0 0 1-.692-1.662c1.007-.419 1.776-1.076 2.299-1.642a7.093 7.093 0 0 0 .717-.918l.03-.049.005-.008-.001.001a.9.9 0 0 1 1.227-.334z" clip-rule="evenodd" style="fill: #990ae3;"/></svg>
