<?xml version="1.0" encoding="UTF-8"?>
<svg xmlns="http://www.w3.org/2000/svg" fill="none" viewBox="0 0 24 24"><path fill="#1E1E20" fill-rule="evenodd" d="M1.6 5.5c0-1.05.85-1.9 1.9-1.9h17c1.05 0 1.9.85 1.9 1.9v10a1.9 1.9 0 0 1-1.9 1.9h-6.627l-3.737 3.736a.9.9 0 0 1-1.272-1.272l4-4a.9.9 0 0 1 .636-.264h7a.1.1 0 0 0 .1-.1v-.627l-3.6-3.6-3.364 3.363a.9.9 0 0 1-1.272 0L7.5 9.773l-4.1 4.1V15.5a.1.1 0 0 0 .1.1h5a.9.9 0 1 1 0 1.8h-5a1.9 1.9 0 0 1-1.9-1.9v-10zm1.8 5.827l3.464-3.463a.9.9 0 0 1 1.272 0L13 12.727l3.364-3.363a.9.9 0 0 1 1.272 0l2.964 2.963V5.5a.1.1 0 0 0-.1-.1h-17a.1.1 0 0 0-.1.1v5.827zM14.5 9.4H14a.9.9 0 1 1 0-1.8h.5a.9.9 0 1 1 0 1.8z" clip-rule="evenodd" style="fill: #990ae3;"/></svg>
