<?xml version="1.0" encoding="UTF-8"?>
<svg xmlns="http://www.w3.org/2000/svg" fill="none" viewBox="0 0 24 24"><path fill="#1E1E20" fill-rule="evenodd" d="M2.6 3c0-1.05.85-1.9 1.9-1.9h9c1.05 0 1.9.85 1.9 1.9v17.5a1.9 1.9 0 0 1-1.9 1.9h-9a1.9 1.9 0 0 1-1.9-1.9V3zm1.8 0v17.5a.1.1 0 0 0 .1.1h9a.1.1 0 0 0 .1-.1V3a.1.1 0 0 0-.1-.1h-9a.1.1 0 0 0-.1.1zm14.464 3.364a.9.9 0 0 1 1.272 0 7.264 7.264 0 0 1 0 10.272.9.9 0 1 1-1.272-1.273 5.464 5.464 0 0 0 0-7.727.9.9 0 0 1 0-1.272zm-1.956 1.954a.9.9 0 0 1 1.273 0 4.5 4.5 0 0 1 0 6.364.9.9 0 1 1-1.273-1.273 2.7 2.7 0 0 0 0-3.818.9.9 0 0 1 0-1.273zM7.6 19a.9.9 0 0 1 .9-.9h1a.9.9 0 1 1 0 1.8h-1a.9.9 0 0 1-.9-.9z" clip-rule="evenodd" style="fill: #990ae3;"/></svg>
