<?xml version="1.0" encoding="UTF-8"?>
<svg xmlns="http://www.w3.org/2000/svg" fill="none" viewBox="0 0 24 24"><path fill="#1E1E20" fill-rule="evenodd" d="M8.5 3.1a.9.9 0 0 1 .812.512l2.252 4.705a.893.893 0 0 1 .02.047l-.832.342c.832-.342.833-.341.833-.34v.002l.003.005.005.013.016.042a4.976 4.976 0 0 1 .175.593c.083.364.161.894.085 1.454-.079.574-.328 1.22-.93 1.709-.591.48-1.41.716-2.439.716-1.03 0-1.847-.235-2.44-.716-.601-.49-.85-1.135-.929-1.71-.076-.559.002-1.088.085-1.453a4.954 4.954 0 0 1 .19-.634l.006-.014.002-.005v-.002h.001c0-.001 0-.002.833.34l-.833-.342a.904.904 0 0 1 .021-.047l2.252-4.705A.9.9 0 0 1 8.5 3.1zM7.075 9.063a3.154 3.154 0 0 0-.104.358 2.354 2.354 0 0 0-.056.81c.034.25.123.427.28.556.169.136.533.313 1.305.313.772 0 1.136-.176 1.304-.313.158-.129.247-.306.281-.556a2.355 2.355 0 0 0-.056-.81 3.137 3.137 0 0 0-.104-.358L8.5 6.085 7.075 9.063zM16.5 7.1a.9.9 0 0 1 .812.512l1.801 3.764a.813.813 0 0 1 .021.047l-.833.342.833-.341.002.003.001.004.005.012.014.036c.01.029.025.068.04.115.032.095.071.226.107.382.069.303.136.75.07 1.228-.067.492-.282 1.055-.808 1.483-.516.419-1.215.613-2.065.613-.85 0-1.55-.194-2.065-.613-.526-.428-.741-.991-.808-1.483a3.487 3.487 0 0 1 .07-1.227 4.117 4.117 0 0 1 .16-.534l.006-.012.001-.004.001-.002v-.001l.833.34-.832-.34a.934.934 0 0 1 .02-.048l1.802-3.764A.9.9 0 0 1 16.5 7.1zm-.974 5.02a2.36 2.36 0 0 0-.074.256 1.707 1.707 0 0 0-.042.584c.023.168.078.263.16.33.092.075.338.21.93.21.592 0 .838-.135.93-.21.082-.067.137-.162.16-.33a1.707 1.707 0 0 0-.042-.584 2.355 2.355 0 0 0-.074-.256l-.974-2.035-.974 2.035zM12 14.1a.9.9 0 0 1 .812.512l1.801 3.764a.813.813 0 0 1 .021.047l-.833.342.833-.341.002.003.001.004.005.012.014.036c.01.029.025.068.04.115.032.095.071.226.107.382.069.303.136.75.07 1.228-.067.492-.282 1.055-.808 1.483-.516.419-1.215.613-2.065.613-.85 0-1.55-.194-2.065-.613-.526-.428-.741-.991-.808-1.483a3.489 3.489 0 0 1 .07-1.227 4.133 4.133 0 0 1 .16-.534l.006-.012.001-.004.001-.002v-.001l.833.34-.832-.34a.943.943 0 0 1 .02-.048l1.802-3.765A.9.9 0 0 1 12 14.1zm-.974 5.02a2.36 2.36 0 0 0-.074.256 1.707 1.707 0 0 0-.042.584c.023.168.078.263.16.33.092.075.338.21.93.21.592 0 .838-.135.93-.21.082-.067.137-.162.16-.33a1.707 1.707 0 0 0-.042-.584 2.355 2.355 0 0 0-.074-.256L12 17.085l-.974 2.035z" clip-rule="evenodd" style="fill: #990ae3;"/></svg>
