<?xml version="1.0" encoding="UTF-8"?>
<svg xmlns="http://www.w3.org/2000/svg" fill="none" viewBox="0 0 24 24"><path fill="#1E1E20" fill-rule="evenodd" d="M15 3.4a6.093 6.093 0 0 0-6.1 6.1A6.1 6.1 0 1 0 15 3.4zM8.6 4.867A7.9 7.9 0 1 1 18.4 16.633a7.937 7.937 0 0 1-2.204 2.062 7.9 7.9 0 1 1-10.89-10.89A7.93 7.93 0 0 1 8.6 4.867zM7.202 8.234A6.068 6.068 0 0 0 5.9 12a6.1 6.1 0 0 0 8.943 5.398 7.9 7.9 0 0 1-7.642-9.164zm-3.093 3.41a6.1 6.1 0 0 0 8.247 8.247 7.9 7.9 0 0 1-8.247-8.247z" clip-rule="evenodd" style="fill: #990ae3;"/><path fill="#1E1E20" d="M12.705 9.438l1.48-1.485c.315-.315.085-.853-.36-.853l-2.044 2.149V7.1h-.945V12h.945V9.753L13.91 12h.095a.5.5 0 0 0 .36-.848l-1.659-1.714zM18.648 12a.5.5 0 0 0 .413-.782l-.79-1.157c.603-.21 1.037-.742 1.037-1.421 0-.91-.75-1.54-1.638-1.54h-1.946V12h.924v-1.834h.679L18.524 12h.124zm-1.076-4.116c.504 0 .826.315.826.763 0 .434-.322.742-.826.742h-.924V7.884h.924z" style="fill: #990ae3;"/><path fill="#1E1E20" fill-rule="evenodd" d="M12.705 9.438l1.658 1.714a.5.5 0 0 1-.359.848h-.095l-2.128-2.247V12h-.945V7.1h.945v2.149L13.825 7.1c.445 0 .675.538.36.853l-1.48 1.485zm-.774-.564V7.45a.5.5 0 0 0-.5-.5h-.245a.5.5 0 0 0-.5.5v4.2a.5.5 0 0 0 .5.5h.245a.5.5 0 0 0 .5-.5v-1.52l1.766 1.864a.5.5 0 0 0 .363.156h.298a.5.5 0 0 0 .36-.848L12.914 9.44l1.632-1.637a.5.5 0 0 0-.354-.853h-.218a.5.5 0 0 0-.362.155l-1.682 1.769zm7.414 2.494a.5.5 0 0 1-.413.782h-.219a.5.5 0 0 1-.418-.227l-1.05-1.607h-.447v1.334a.5.5 0 0 1-.5.5h-.224a.5.5 0 0 1-.5-.5v-4.2a.5.5 0 0 1 .5-.5h1.596c.958 0 1.788.684 1.788 1.69 0 .68-.395 1.223-.958 1.49l.845 1.238zm-1.073-1.307c.049-.017.096-.036.143-.057.526-.24.893-.74.893-1.364 0-.91-.75-1.54-1.638-1.54h-1.946V12h.924v-1.834h.679L18.524 12h.124a.5.5 0 0 0 .413-.782l-.79-1.157zm-.2-1.854c-.112-.105-.28-.173-.5-.173h-.774v1.205h.774c.221 0 .39-.067.5-.169.11-.1.176-.245.176-.423a.585.585 0 0 0-.177-.44zm.326.44c0-.448-.322-.763-.826-.763h-.924v1.505h.924c.504 0 .826-.308.826-.742z" clip-rule="evenodd" style="fill: #990ae3;"/></svg>
