<svg xmlns="http://www.w3.org/2000/svg" fill="none" viewBox="0 0 24 24"><path fill="#000" fill-opacity=".84" fill-rule="evenodd" d="M15 3.4a6.093 6.093 0 0 0-6.1 6.1A6.1 6.1 0 1 0 15 3.4zM8.6 4.867A7.9 7.9 0 1 1 18.4 16.633a7.937 7.937 0 0 1-2.204 2.062 7.9 7.9 0 1 1-10.89-10.89A7.93 7.93 0 0 1 8.6 4.867zM7.202 8.234A6.068 6.068 0 0 0 5.9 12a6.1 6.1 0 0 0 8.943 5.398 7.9 7.9 0 0 1-7.642-9.164zm-3.093 3.41a6.1 6.1 0 0 0 8.247 8.247 7.9 7.9 0 0 1-8.247-8.247z" clip-rule="evenodd"/><path fill="#1E1E20" d="M16.98 11.549c-.23-.073-.473.035-.628.219-.3.355-.696.54-1.15.54-.916 0-1.56-.611-1.785-1.77h1.921a.388.388 0 1 0 0-.776h-2.017V9.5c0-.164 0-.317.012-.459h2.005a.388.388 0 1 0 0-.776h-1.874c.262-1.027.881-1.574 1.738-1.574.457 0 .85.187 1.143.54.16.193.416.305.652.222l.44-.154c.29-.101.423-.44.232-.68-.586-.733-1.456-1.119-2.467-1.119-1.678 0-2.928.962-3.321 2.765h-.493a.388.388 0 1 0 0 .776h.386c-.012.153-.012.306-.012.459v.262h-.374a.388.388 0 1 0 0 .776h.457c.334 1.924 1.62 2.962 3.357 2.962 1.009 0 1.886-.384 2.475-1.128.193-.244.051-.586-.245-.68l-.453-.143z"/></svg>