<svg xmlns="http://www.w3.org/2000/svg" fill="none" viewBox="0 0 24 24"><path fill="#000" fill-opacity=".84" fill-rule="evenodd" d="M9.5 3.4a3.6 3.6 0 1 0 0 7.2 3.6 3.6 0 0 0 0-7.2zM4.1 7a5.4 5.4 0 1 1 10.8 0A5.4 5.4 0 0 1 4.1 7z" clip-rule="evenodd"/><path fill="#1E1E20" fill-rule="evenodd" d="M19.302 13.3a.1.1 0 0 0-.1.1v5.5a.1.1 0 0 0 .1.1h1a.1.1 0 0 0 .1-.1v-5.5a.1.1 0 0 0-.1-.1h-1zm-1.796-.523a1.9 1.9 0 0 1 1.796-1.277h1c1.05 0 1.9.85 1.9 1.9v5.5a1.9 1.9 0 0 1-1.9 1.9h-1a1.9 1.9 0 0 1-1.828-1.378c-.34.06-.634.132-.917.231-.502.175-1.019.453-1.721.971a.89.89 0 0 1-.1.064c-1.723.949-3.21 1.487-4.758 1.405-1.546-.083-3-.777-4.676-1.944a1.574 1.574 0 0 1-.055-.04c-.166-.125-2.077-1.568-3.082-2.573-.836-.837-.816-2.059-.314-2.863.262-.419.687-.78 1.253-.903.575-.124 1.164.026 1.697.381a12.563 12.563 0 0 0 2.132 1.123c.206-.269.47-.483.798-.625.564-.245 1.182-.213 1.696-.14.165.023.484.017.898-.028.089-.01.283-.06.593-.176.293-.109.629-.254.977-.412.28-.128.587-.273.876-.41.379-.18.728-.345.95-.438 1.33-.556 2.487-.54 3.785-.268zm-.104 1.82c-1.231-.288-2.037-.288-2.986.109-.202.084-.473.213-.8.369-.286.136-.615.292-.976.456-.363.166-.742.33-1.091.46-.331.124-.703.244-1.029.28-.443.048-.946.076-1.343.02-.44-.062-.64-.03-.73.01a.197.197 0 0 0-.082.063.859.859 0 0 0-.133.292.863.863 0 0 0-.03.244c0 .075.003.134.008.18.063-.003.15-.009.268-.02l.101-.011c.198-.021.462-.049.723-.049h3a.9.9 0 1 1 0 1.8h-3c-.158 0-.313.016-.51.036l-.135.014c-.225.023-.557.054-.878 0a1.532 1.532 0 0 1-1.054-.662c-.233-.35-.311-.768-.322-1.186a14.351 14.351 0 0 1-2.6-1.353c-.215-.143-.313-.12-.319-.12-.011.003-.056.017-.106.098a.529.529 0 0 0 .06.637c.9.9 2.71 2.27 2.893 2.407m0 0c1.576 1.098 2.695 1.568 3.743 1.624 1.036.055 2.152-.286 3.743-1.155-.017.011-.033.023-.05.036l.1-.064-.05.028c.777-.569 1.44-.94 2.145-1.186.47-.165.939-.267 1.44-.344v-3.012" clip-rule="evenodd"/><path fill="#000" fill-opacity=".84" d="M10.858 8.26c-.096-.033-.2.012-.255.096-.176.262-.42.4-.702.4-.523 0-.89-.383-1.02-1.107H10a.2.2 0 0 0 .2-.2v-.085a.2.2 0 0 0-.2-.2H8.827V7c0-.102 0-.198.006-.287h1.168a.2.2 0 0 0 .2-.2v-.085a.2.2 0 0 0-.2-.2H8.908c.15-.642.504-.983.993-.983.286 0 .529.14.7.402.057.089.166.135.264.098l.424-.163c.11-.042.16-.17.098-.269-.333-.532-.863-.813-1.486-.813-.959 0-1.673.601-1.898 1.728H7.7a.2.2 0 0 0-.2.2v.085c0 .11.09.2.2.2h.242c-.007.096-.007.191-.007.287v.164H7.7a.2.2 0 0 0-.2.2v.085c0 .11.09.2.2.2h.283C8.173 8.85 8.908 9.5 9.901 9.5c.623 0 1.158-.28 1.492-.821.063-.102.008-.231-.105-.27l-.43-.149z"/><path fill="#1E1E20" fill-rule="evenodd" d="M8.61 4.867c.347-.31.79-.467 1.291-.467.657 0 1.22.298 1.571.86.1.16.014.354-.147.416l-.424.162a.325.325 0 0 1-.384-.136c-.155-.238-.368-.357-.616-.357a.762.762 0 0 0-.554.222c-.13.128-.236.314-.31.561h.964a.3.3 0 0 1 .3.3v.085a.3.3 0 0 1-.3.3H8.928L8.927 7v.064H10a.3.3 0 0 1 .3.3v.085a.3.3 0 0 1-.3.3h-.998c.067.29.175.508.313.657.154.165.35.25.585.25.246 0 .46-.118.619-.356a.324.324 0 0 1 .37-.134l.431.149c.166.057.258.254.157.416-.353.572-.921.869-1.577.869-.52 0-.976-.17-1.328-.502-.335-.316-.569-.771-.674-1.35H7.7a.3.3 0 0 1-.3-.3v-.084a.3.3 0 0 1 .3-.3h.135v-.066c0-.06 0-.122.002-.185H7.7a.3.3 0 0 1-.3-.3v-.085a.3.3 0 0 1 .3-.3h.222c.122-.541.358-.967.688-1.261zm.133.149c-.307.274-.533.685-.642 1.232l-.016.08H7.7a.1.1 0 0 0-.1.1v.085a.1.1 0 0 0 .1.1h.35l-.008.107a3.951 3.951 0 0 0-.007.28v.264H7.7a.1.1 0 0 0-.1.1v.085a.1.1 0 0 0 .1.1h.368l.014.084c.092.585.316 1.025.628 1.32.311.293.718.447 1.191.447.59 0 1.092-.264 1.407-.774.025-.04.008-.102-.052-.122l-.43-.15c-.046-.015-.105.004-.14.057-.192.287-.465.444-.785.444a.968.968 0 0 1-.731-.313c-.19-.205-.32-.502-.387-.876l-.021-.117H10a.1.1 0 0 0 .1-.1v-.085a.1.1 0 0 0-.1-.1H8.727v-.266c0-.101 0-.2.007-.293l.007-.092H10a.1.1 0 0 0 .1-.1v-.085a.1.1 0 0 0-.1-.1H8.782l.029-.123c.077-.333.21-.598.396-.78a.962.962 0 0 1 .694-.28c.324 0 .596.16.783.448.037.056.1.076.146.058l.424-.162c.058-.022.074-.083.049-.123-.315-.502-.812-.766-1.402-.766-.457 0-.851.143-1.158.416z" clip-rule="evenodd"/></svg>