<?xml version="1.0" encoding="UTF-8"?>
<svg xmlns="http://www.w3.org/2000/svg" fill="none" viewBox="0 0 24 25"><path fill="#1E1E20" fill-rule="evenodd" d="M19.877 3.79V15.5c0 1.571-1.422 2.637-2.9 2.637-1.479 0-2.9-1.066-2.9-2.637s1.421-2.637 2.9-2.637c.378 0 .752.07 1.1.2V6.21L9.9 8.67v9.83c0 1.571-1.422 2.637-2.9 2.637S4.1 20.071 4.1 18.5s1.422-2.637 2.9-2.637c.378 0 .752.07 1.1.2V7.33L19.877 3.79zM8.1 18.5c0-.348-.37-.837-1.1-.837-.73 0-1.1.49-1.1.837 0 .348.37.837 1.1.837.73 0 1.1-.49 1.1-.837zm9.977-3c0-.348-.37-.837-1.1-.837-.73 0-1.1.49-1.1.837 0 .348.37.837 1.1.837.73 0 1.1-.49 1.1-.837z" clip-rule="evenodd" style="fill: #990ae3;"/></svg>
