<?xml version="1.0" encoding="UTF-8"?>
<svg xmlns="http://www.w3.org/2000/svg" fill="none" viewBox="0 0 24 24"><path fill="#1E1E20" fill-rule="evenodd" d="M4.357 3.614a.743.743 0 1 0 0 1.486.743.743 0 0 0 0-1.486zm-2.543.743a2.543 2.543 0 1 1 4.881 1.001l2.96 2.785A4.384 4.384 0 0 1 12.5 7.1c.89 0 1.717.264 2.41.718l1.447-1.447a2.673 2.673 0 1 1 1.273 1.273L16.181 9.09A4.38 4.38 0 0 1 16.9 11.5c0 .636-.136 1.242-.38 1.79l1.7 1.119a2.604 2.604 0 1 1-.905 1.56l-1.849-1.219a4.386 4.386 0 0 1-3.121 1.147l-.238 1.473a2.4 2.4 0 1 1-1.796-.17l.28-1.735a4.416 4.416 0 0 1-1.795-1.59l-.91.355a2.638 2.638 0 1 1-.789-1.624l1.058-.412a4.427 4.427 0 0 1 .39-2.625L5.446 6.655a2.543 2.543 0 0 1-3.632-2.298zm16.959-.003a.873.873 0 1 0 0 1.746.873.873 0 0 0 0-1.746zM12.5 8.9a2.595 2.595 0 0 0-2.6 2.6 2.593 2.593 0 0 0 1.928 2.513 2.606 2.606 0 0 0 2.766-.972A2.6 2.6 0 0 0 12.5 8.9zm-7.238 4.762a.838.838 0 1 0 0 1.676.838.838 0 0 0 0-1.676zm14.619 1.948a.804.804 0 1 0-.002 1.607.804.804 0 0 0 .002-1.607zM11 18.9a.6.6 0 1 0 0 1.2.6.6 0 0 0 0-1.2z" clip-rule="evenodd" style="fill: #990ae3;"/></svg>
