<?xml version="1.0" encoding="UTF-8"?>
<svg xmlns="http://www.w3.org/2000/svg" fill="none" viewBox="0 0 24 24"><path fill="#1E1E20" fill-rule="evenodd" d="M7.288 3.375a2.233 2.233 0 1 0 0 4.465 2.233 2.233 0 0 0 0-4.465zM3.306 5.608a3.983 3.983 0 1 1 1.43 3.057 2.556 2.556 0 0 0-.916.397 2.052 2.052 0 0 0-.736.951c-.177.451-.28 1.109-.15 2.065H6.5a.875.875 0 1 1 0 1.75H2.91c-.81 0-1.576-.573-1.702-1.45-.174-1.215-.067-2.205.248-3.005a3.802 3.802 0 0 1 1.353-1.74c.277-.195.559-.34.821-.448a3.97 3.97 0 0 1-.324-1.577zm10.169 3.674a2.233 2.233 0 1 0 0 4.465 2.233 2.233 0 0 0 0-4.465zm-3.983 2.232a3.983 3.983 0 1 1 7.61 1.647c.337.162.707.396 1.03.734a.875.875 0 1 1-1.265 1.21c-.217-.228-.515-.381-.796-.478a2.79 2.79 0 0 0-.08-.026 3.969 3.969 0 0 1-2.516.896c-.971 0-1.861-.348-2.552-.925a2.557 2.557 0 0 0-.916.397 2.053 2.053 0 0 0-.736.951c-.177.451-.281 1.109-.151 2.065H14a.875.875 0 1 1 0 1.75H9.097c-.81 0-1.577-.573-1.702-1.45-.174-1.215-.067-2.205.247-3.005a3.802 3.802 0 0 1 1.354-1.74c.277-.195.558-.34.82-.448a3.97 3.97 0 0 1-.324-1.578zm9.758 4.111c.483 0 .875.392.875.875v1.375H21.5a.875.875 0 0 1 0 1.75h-1.375V21a.875.875 0 0 1-1.75 0v-1.375H17a.875.875 0 0 1 0-1.75h1.375V16.5c0-.483.392-.875.875-.875z" clip-rule="evenodd" style="fill: #990ae3;"/></svg>
