<?xml version="1.0" encoding="UTF-8"?>
<svg xmlns="http://www.w3.org/2000/svg" fill="none" viewBox="0 0 24 24"><path fill="#1E1E20" fill-rule="evenodd" d="M10.5 3.375c-1.941 0-3.532 1.595-3.532 3.584 0 .957.367 1.822.966 2.464a3.496 3.496 0 0 0 5.132 0c.599-.642.966-1.507.966-2.464 0-1.989-1.59-3.584-3.532-3.584zM5.218 6.959c0-2.936 2.355-5.334 5.282-5.334s5.282 2.398 5.282 5.334c0 .894-.217 1.737-.603 2.477.215.073.443.163.677.277a.875.875 0 1 1-.763 1.574 4.206 4.206 0 0 0-1.075-.348 5.236 5.236 0 0 1-3.518 1.355 5.236 5.236 0 0 1-3.518-1.355 3.945 3.945 0 0 0-1.638.686c-.46.337-.897.833-1.173 1.588-.28.762-.411 1.838-.17 3.356.002.009.006.02.02.032a.111.111 0 0 0 .071.024H9.5a.875.875 0 0 1 0 1.75H4.092c-.871 0-1.673-.615-1.82-1.531-.276-1.74-.148-3.13.255-4.232a5.083 5.083 0 0 1 1.782-2.398 5.57 5.57 0 0 1 1.512-.778 5.356 5.356 0 0 1-.603-2.477zM17.5 13.875a3.625 3.625 0 1 0 0 7.25 3.625 3.625 0 0 0 0-7.25zM12.125 17.5a5.375 5.375 0 1 1 10.75 0 5.375 5.375 0 0 1-10.75 0zm5.375-2.375c.483 0 .875.392.875.875v.625H19a.875.875 0 0 1 0 1.75h-.625V19a.875.875 0 0 1-1.75 0v-.625H16a.875.875 0 0 1 0-1.75h.625V16c0-.483.392-.875.875-.875z" clip-rule="evenodd" style="fill: #990ae3;"/></svg>
