<?xml version="1.0" encoding="UTF-8"?>
<svg xmlns="http://www.w3.org/2000/svg" fill="none" viewBox="0 0 24 24"><path fill="#1E1E20" fill-rule="evenodd" d="M4 3.9c-.06 0-.1.045-.1.096V19c0 .678.118 1.217.349 1.563.188.282.513.537 1.251.537h10.138A4.379 4.379 0 0 1 15.1 19V4a.1.1 0 0 0-.1-.1H4zm14.5 17.2c.422 0 .802-.204 1.102-.59A2.51 2.51 0 0 0 20.1 19V8.9h-.6a.9.9 0 1 1 0-1.8H21a.9.9 0 0 1 .9.9v11a4.31 4.31 0 0 1-.877 2.615c-.575.739-1.445 1.285-2.523 1.285h-13c-1.262 0-2.187-.495-2.749-1.338-.52-.78-.651-1.74-.651-2.562V3.996C2.1 2.942 2.956 2.1 4 2.1h11c1.05 0 1.9.85 1.9 1.9v15c0 .561.19 1.114.498 1.51.3.386.68.59 1.102.59zM5.1 7a.9.9 0 0 1 .9-.9h7a.9.9 0 0 1 .9.9v4a.9.9 0 0 1-.9.9H6a.9.9 0 0 1-.9-.9V7zm1.8.9v2.2h5.2V7.9H6.9zm-1.8 6.6a.9.9 0 0 1 .9-.9h7a.9.9 0 1 1 0 1.8H6a.9.9 0 0 1-.9-.9zm0 3.5a.9.9 0 0 1 .9-.9h7a.9.9 0 1 1 0 1.8H6a.9.9 0 0 1-.9-.9z" clip-rule="evenodd" style="fill: #990ae3;"/></svg>
