<?xml version="1.0" encoding="UTF-8"?>
<svg xmlns="http://www.w3.org/2000/svg" fill="none" viewBox="0 0 24 24"><path fill="#1E1E20" fill-rule="evenodd" d="M7.118 4.6H7a1.9 1.9 0 0 0-1.9 1.9V8a1.9 1.9 0 0 0 1.5 1.858v.642a.9.9 0 1 0 1.8 0v-.6h3.2v.6a.9.9 0 0 0 1.8 0v-.6h3.7V11a.9.9 0 0 0 1.8 0V9.858A1.9 1.9 0 0 0 20.4 8V6.5a1.9 1.9 0 0 0-1.9-1.9h-.618c-.063-.708-.3-1.394-.756-1.943-.56-.674-1.384-1.057-2.376-1.057-.92 0-1.696.33-2.25.915-.554-.585-1.33-.915-2.25-.915-.992 0-1.816.383-2.376 1.057-.457.549-.693 1.235-.756 1.943zm1.812 0h2.64c-.053-.34-.174-.607-.328-.792-.192-.232-.493-.408-.992-.408s-.8.176-.992.408c-.154.185-.275.452-.328.792zm4.5 0h2.64c-.053-.34-.174-.607-.328-.792-.192-.232-.493-.408-.992-.408s-.8.176-.992.408c-.154.185-.275.452-.328.792zm-.03 3.5h5.1a.1.1 0 0 0 .1-.1V6.5a.1.1 0 0 0-.1-.1h-5.1v1.7zm-1.8-1.7H7a.1.1 0 0 0-.1.1V8a.1.1 0 0 0 .1.1h4.6V6.4zm8.335 5.147c.743-.107 1.52.135 2.201.817.474.473.695 1.011.708 1.548.012.508-.163.927-.318 1.2-.185.326-.47.607-.634.77l-.049.047-4.414 4.414a1.9 1.9 0 0 1-1.343.557H7.914a.1.1 0 0 0-.07.03l-.5.5a1.9 1.9 0 0 1-2.687 0L2.57 19.342a1.9 1.9 0 0 1 0-2.686l4-4a1.9 1.9 0 0 1 1.343-.557H14.5v0h.041l.065.004a2.73 2.73 0 0 1 .79.185 2.665 2.665 0 0 1 1.46 1.417c.188-.162.375-.324.551-.479.46-.401.815-.722.957-.863.338-.34.882-.719 1.571-.817zM15.088 15.1c.029-.045.057-.093.08-.145.1-.207.113-.38.027-.553a.867.867 0 0 0-.668-.497.628.628 0 0 0-.042-.005h-6.57a.1.1 0 0 0-.071.03l-4 4a.1.1 0 0 0 0 .14l2.085 2.087a.1.1 0 0 0 .142 0l.5-.5a1.9 1.9 0 0 1 1.343-.557h8.172a.1.1 0 0 0 .07-.03l4.415-4.414c.225-.225.334-.335.39-.434a.539.539 0 0 0 .083-.266.283.283 0 0 0-.026-.11.712.712 0 0 0-.154-.21c-.319-.318-.542-.326-.674-.307-.186.026-.392.146-.554.307-.191.192-.595.553-1.043.946-.904.79-2.143 1.838-2.561 2.144l-.238.174H10.5a.9.9 0 0 1 0-1.8h4.588z" clip-rule="evenodd" style="fill: #990ae3;"/></svg>
