<svg xmlns="http://www.w3.org/2000/svg" fill="none" viewBox="0 0 24 24"><path fill="#000" fill-opacity=".84" fill-rule="evenodd" d="M8.105 3.9A.9.9 0 0 1 9 3.1h3a.9.9 0 0 1 .894.8l.911 8.2h.295v-1.6A2.9 2.9 0 0 1 17 7.6h2a.9.9 0 0 1 .9.9v3.6h.1a.9.9 0 0 1 .9.9v3a.9.9 0 0 1-.9.9h-2.6V19a.9.9 0 0 1-1.8 0v-2.1H8.4V19a.9.9 0 1 1-1.8 0v-2.1H4a.9.9 0 0 1-.9-.9v-3a.9.9 0 0 1 .9-.9h1.933l-2.71-4.647a.9.9 0 0 1 1.554-.906l2.549 4.369.78-7.015zm.9 8.2l.3-2.7h2.39l.3 2.7h-2.99zm2.49-4.5l-.3-2.7h-1.39l-.3 2.7h1.99zm6.605 4.5V9.4H17a1.1 1.1 0 0 0-1.1 1.1v1.6h2.2zm1 1.8v1.2H4.9v-1.2h14.2z" clip-rule="evenodd"/><path fill="#1E1E20" fill-rule="evenodd" d="M19.048 21.33a.268.268 0 0 0-.27.015c-.412.254-1.09.626-1.75.72-.572.082-1.155-.036-1.626-.183a7.997 7.997 0 0 1-1.28-.54.355.355 0 0 0-.341.02c-.41.26-1.108.652-1.806.71-.479.04-.947-.074-1.326-.207a6.516 6.516 0 0 1-1.036-.484.38.38 0 0 0-.376.01c-.41.255-1.084.624-1.762.68-.815.069-1.655-.31-2.167-.583a.351.351 0 0 0-.22-.026.909.909 0 0 0-.37.152c-.572.389-1.17.47-1.83.46a.9.9 0 0 1 .024-1.8c.493.008.66-.058.794-.148.617-.42 1.572-.694 2.45-.226.484.259.918.399 1.17.378.216-.018.575-.176.957-.415a2.18 2.18 0 0 1 2.222-.046c.23.131.49.26.744.35.264.093.458.12.576.111.227-.019.602-.188.992-.436a2.154 2.154 0 0 1 2.138-.097c.287.15.636.31.984.419.362.113.646.147.834.12.265-.038.67-.23 1.062-.472a2.066 2.066 0 0 1 2.133-.03c.227.135.475.274.69.376a2.471 2.471 0 0 0 .293.118.9.9 0 0 1-.051 1.799c-.22 0-.423-.058-.56-.104a4.216 4.216 0 0 1-.452-.186c-.289-.137-.592-.308-.84-.456z" clip-rule="evenodd"/></svg>