<?xml version="1.0" encoding="UTF-8"?>
<svg xmlns="http://www.w3.org/2000/svg" fill="none" viewBox="0 0 24 24"><path fill="#1E1E20" fill-rule="evenodd" d="M12 3.9a8.1 8.1 0 1 0 0 16.2 8.1 8.1 0 0 0 0-16.2zM2.1 12c0-5.468 4.432-9.9 9.9-9.9s9.9 4.432 9.9 9.9-4.432 9.9-9.9 9.9-9.9-4.432-9.9-9.9zM12 7.9a4.1 4.1 0 1 0 0 8.2 4.1 4.1 0 0 0 0-8.2zM6.1 12a5.9 5.9 0 1 1 11.8 0 5.9 5.9 0 0 1-11.8 0zm5.9-.1a.1.1 0 1 0 0 .2.1.1 0 0 0 0-.2zm-1.9.1a1.9 1.9 0 1 1 3.8 0 1.9 1.9 0 0 1-3.8 0z" clip-rule="evenodd" style="fill: #990ae3;"/></svg>
