<?xml version="1.0" encoding="UTF-8"?>
<svg xmlns="http://www.w3.org/2000/svg" fill="none" viewBox="0 0 24 24"><path fill="#1E1E20" fill-rule="evenodd" d="M3.6 2.5a.9.9 0 0 1 .9-.9h15a.9.9 0 0 1 .9.9V8a.9.9 0 0 1-.9.9h-6.6v2.2H18a.9.9 0 0 1 .9.9v3.1h2.6a.9.9 0 0 1 .9.9v5.5a.9.9 0 0 1-.9.9h-7a.9.9 0 0 1-.9-.9V16a.9.9 0 0 1 .9-.9h2.6v-2.2H6.9v2.2h2.6a.9.9 0 0 1 .9.9v5.5a.9.9 0 0 1-.9.9h-7a.9.9 0 0 1-.9-.9V16a.9.9 0 0 1 .9-.9h2.6V12a.9.9 0 0 1 .9-.9h5.1V8.9H4.5a.9.9 0 0 1-.9-.9V2.5zm1.8.9v3.7h13.2V3.4H5.4zm-2 13.5v3.7h5.2v-3.7H3.4zm12 0v3.7h5.2v-3.7h-5.2z" clip-rule="evenodd" style="fill: #990ae3;"/></svg>
