<svg xmlns="http://www.w3.org/2000/svg" fill="none" viewBox="0 0 24 24"><path fill="#000" fill-opacity=".84" d="M14.568 14.524c-.227-.07-.466.034-.612.22a1.91 1.91 0 0 1-1.553.767c-1.178 0-2.005-.765-2.296-2.213h2.485a.485.485 0 0 0 0-.97H9.985V12c0-.205 0-.396.015-.574h2.592a.485.485 0 0 0 0-.97h-2.424c.337-1.284 1.133-1.967 2.235-1.967.628 0 1.163.267 1.547.77.15.197.402.305.636.225l.835-.284c.294-.1.428-.444.24-.691C14.908 7.521 13.753 7 12.403 7c-2.158 0-3.765 1.202-4.27 3.456h-.648a.485.485 0 1 0 0 .97h.51c-.015.191-.015.383-.015.574v.328h-.495a.485.485 0 0 0 0 .97h.602C8.515 15.702 10.168 17 12.403 17c1.348 0 2.514-.52 3.27-1.523.19-.252.047-.599-.254-.691l-.851-.262z"/><path fill="#1E1E20" fill-rule="evenodd" d="M3.5 3.4a.1.1 0 0 0-.1.1v17a.1.1 0 0 0 .1.1h17a.1.1 0 0 0 .1-.1v-17a.1.1 0 0 0-.1-.1h-17zm-1.9.1c0-1.05.85-1.9 1.9-1.9h17c1.05 0 1.9.85 1.9 1.9v17a1.9 1.9 0 0 1-1.9 1.9h-17a1.9 1.9 0 0 1-1.9-1.9v-17z" clip-rule="evenodd"/></svg>