<svg xmlns="http://www.w3.org/2000/svg" fill="none" viewBox="0 0 24 24"><path fill="#000" fill-opacity=".84" d="M14.023 14.152c-.137-.043-.284.02-.37.136-.262.36-.627.548-1.051.548-.786 0-1.337-.524-1.53-1.518h1.679a.3.3 0 0 0 .3-.3v-.065a.3.3 0 0 0-.3-.3H10.99v-.225c0-.14 0-.271.01-.393h1.751a.3.3 0 0 0 .3-.3v-.065a.3.3 0 0 0-.3-.3h-1.639c.225-.88.755-1.349 1.49-1.349.428 0 .792.191 1.048.552.088.123.242.188.384.139l.626-.22c.173-.06.253-.263.146-.413C14.306 9.373 13.521 9 12.602 9c-1.439 0-2.51.824-2.847 2.37H9.3a.3.3 0 0 0-.3.3v.065a.3.3 0 0 0 .3.3h.363c-.01.131-.01.262-.01.393v.225H9.3a.3.3 0 0 0-.3.3v.066a.3.3 0 0 0 .3.3h.424c.286 1.648 1.388 2.538 2.878 2.538.918 0 1.71-.372 2.213-1.09.107-.153.022-.357-.156-.413l-.636-.202z"/><path fill="#000" fill-opacity=".84" fill-rule="evenodd" d="M12 3.9A8.1 8.1 0 0 0 3.9 12a.9.9 0 0 1-1.8 0c0-5.468 4.432-9.9 9.9-9.9a9.869 9.869 0 0 1 6.936 2.836v-.435a.9.9 0 1 1 1.8-.002l.002 3.984H17.5a.9.9 0 1 1 0-1.8h.611A8.08 8.08 0 0 0 12 3.9zm9 7.2a.9.9 0 0 1 .9.9c0 5.468-4.432 9.9-9.9 9.9a9.869 9.869 0 0 1-6.954-2.854V20a.9.9 0 0 1-1.8 0v-4.51H7a.9.9 0 0 1 0 1.8H5.865A8.1 8.1 0 0 0 20.1 12a.9.9 0 0 1 .9-.9z" clip-rule="evenodd"/><path fill="#1E1E20" d="M14.023 14.152c-.137-.043-.284.02-.37.136-.262.36-.627.548-1.051.548-.786 0-1.337-.524-1.53-1.518h1.679a.3.3 0 0 0 .3-.3v-.065a.3.3 0 0 0-.3-.3H10.99v-.225c0-.14 0-.271.01-.393h1.751a.3.3 0 0 0 .3-.3v-.065a.3.3 0 0 0-.3-.3h-1.639c.225-.88.755-1.349 1.49-1.349.428 0 .792.191 1.048.552.088.123.242.188.384.139l.626-.22c.173-.06.253-.263.146-.413C14.306 9.373 13.521 9 12.602 9c-1.439 0-2.51.824-2.847 2.37H9.3a.3.3 0 0 0-.3.3v.065a.3.3 0 0 0 .3.3h.363c-.01.131-.01.262-.01.393v.225H9.3a.3.3 0 0 0-.3.3v.066a.3.3 0 0 0 .3.3h.424c.286 1.648 1.388 2.538 2.878 2.538.918 0 1.71-.372 2.213-1.09.107-.153.022-.357-.156-.413l-.636-.202z"/><path fill="#1E1E20" fill-rule="evenodd" d="M10.67 9.49c.52-.425 1.183-.64 1.932-.64 1.09 0 2.012.504 2.52 1.456a.15.15 0 0 1-.083.213l-1.204.421a.15.15 0 0 1-.183-.074c-.233-.461-.603-.695-1.05-.695-.333 0-.613.105-.836.306-.19.17-.345.417-.454.743h1.589a.3.3 0 0 1 .3.3v.365a.3.3 0 0 1-.3.3h-1.759c-.002.076-.002.156-.002.243v.075H12.9a.3.3 0 0 1 .3.3v.365a.3.3 0 0 1-.3.3h-1.642c.1.386.258.676.46.874.23.226.526.344.883.344.438 0 .81-.226 1.051-.68a.15.15 0 0 1 .178-.072l1.214.384a.15.15 0 0 1 .088.213c-.508.972-1.44 1.476-2.531 1.476-.776 0-1.46-.232-1.988-.687-.503-.433-.854-1.058-1.014-1.851h-.45a.3.3 0 0 1-.3-.3v-.366a.3.3 0 0 1 .3-.3h.353v-.077c0-.078 0-.16.002-.24H9.15a.3.3 0 0 1-.3-.3v-.366a.3.3 0 0 1 .3-.3h.486c.184-.744.54-1.328 1.035-1.73zm.19.232c-.46.374-.796.934-.958 1.68l-.026.118h-.543a.183.183 0 1 0 0 .365h.492l-.012.162c-.01.124-.01.25-.01.381v.375h-.47a.183.183 0 1 0 0 .365h.518l.021.125c.138.796.471 1.397.938 1.8.466.401 1.078.614 1.792.614.793 0 1.479-.29 1.952-.848.126-.149.045-.367-.141-.426l-.335-.106a.337.337 0 0 0-.358.12c-.284.35-.67.539-1.118.539-.429 0-.802-.144-1.092-.43-.288-.282-.485-.692-.586-1.209l-.035-.178h1.83a.183.183 0 1 0 0-.366h-1.88v-.378c0-.138 0-.274.011-.402l.012-.138h1.856a.183.183 0 1 0 0-.365H10.92l.048-.187c.117-.46.318-.827.598-1.08a1.508 1.508 0 0 1 1.037-.382c.451 0 .836.192 1.115.541.09.112.236.169.371.122l.328-.115c.182-.064.258-.28.133-.426-.47-.552-1.152-.843-1.947-.843-.69 0-1.283.197-1.742.572z" clip-rule="evenodd"/></svg>