<?xml version="1.0" encoding="UTF-8"?>
<svg xmlns="http://www.w3.org/2000/svg" fill="none" viewBox="0 0 24 24"><path fill="#1E1E20" fill-rule="evenodd" d="M1.6 3.5a.9.9 0 0 1 .9-.9h18a.9.9 0 0 1 .9.9v5a.9.9 0 1 1-1.8 0v-.1H3.4v6.2h5.1a.9.9 0 1 1 0 1.8h-6a.9.9 0 0 1-.9-.9v-12zm1.8 3.1h16.2V4.4H3.4v2.2zM17 11.4a4.1 4.1 0 1 0 0 8.2 4.1 4.1 0 0 0 0-8.2zm-5.9 4.1a5.9 5.9 0 1 1 11.8 0 5.9 5.9 0 0 1-11.8 0zm8.423-2.232a.9.9 0 0 1 .21 1.255l-2.5 3.5a.9.9 0 0 1-1.37.113l-1.5-1.5a.9.9 0 1 1 1.273-1.272l.75.748 1.882-2.635a.9.9 0 0 1 1.255-.21z" clip-rule="evenodd" style="fill: #990ae3;"/></svg>
