<?xml version="1.0" encoding="UTF-8"?>
<svg xmlns="http://www.w3.org/2000/svg" fill="none" viewBox="0 0 24 24"><path fill="#1E1E20" fill-rule="evenodd" d="M14.42 3.67c.674-.248 1.553-.182 2.189.441.466.457.94.86 1.366 1.125.724.45 1.861.85 2.734 1.113 1.02.307 1.654 1.407 1.3 2.47l-.427 1.282a1.9 1.9 0 0 1-1.803 1.299h-.884c.017.267-.021.543-.123.81-.35.914-.738 2.058-.884 2.938-.18 1.082-.141 2.624-.076 3.692.066 1.09-.79 2.06-1.922 2.06h-1.17a1.9 1.9 0 0 1-1.802-1.3l-1.044-3.132a.1.1 0 0 0-.095-.068h-1.446a.1.1 0 0 0-.06.02l-3.333 2.5a.1.1 0 0 0-.04.08A1.9 1.9 0 0 1 5 20.9H3A1.9 1.9 0 0 1 1.1 19v-1.086c0-.504.2-.987.556-1.343l1.415-1.415c.02-.019.029-.044.029-.07v-4.401l-1.427-3.33a.9.9 0 1 1 1.654-.71l1.248 2.912 6.349-.454c1.019-.101 1.525-.22 1.804-.415.164-.114.372-.34.372-1.188V5.502c0-.939.64-1.58 1.32-1.831zM4.9 11.339v3.749c0 .505-.2.987-.557 1.342L2.93 17.844a.1.1 0 0 0-.029.07V19a.1.1 0 0 0 .1.1h2a.1.1 0 0 0 .1-.1 1.9 1.9 0 0 1 .76-1.52l3.333-2.5a1.9 1.9 0 0 1 1.14-.38h1.446a1.9 1.9 0 0 1 1.803 1.3l1.044 3.132a.1.1 0 0 0 .095.068h1.17c.028 0 .058-.011.084-.04a.15.15 0 0 0 .04-.111c-.065-1.073-.12-2.795.097-4.097.179-1.07.623-2.357.979-3.286a.128.128 0 0 0-.016-.12.116.116 0 0 0-.038-.037A.071.071 0 0 0 17 11.4h-.5a.9.9 0 1 1 0-1.8h3.28a.1.1 0 0 0 .094-.068l.427-1.282a.117.117 0 0 0-.011-.096.169.169 0 0 0-.1-.082c-.883-.265-2.221-.72-3.165-1.308-.587-.364-1.168-.87-1.676-1.367-.051-.05-.161-.09-.306-.038a.282.282 0 0 0-.123.082.085.085 0 0 0-.02.06V7.5c0 1.152-.301 2.078-1.142 2.665-.725.506-1.716.636-2.67.73l-.012.002-6.176.441z" clip-rule="evenodd" style="fill: #990ae3;"/></svg>
