<?xml version="1.0" encoding="UTF-8"?>
<svg xmlns="http://www.w3.org/2000/svg" fill="none" viewBox="0 0 24 24"><path fill="#1E1E20" fill-rule="evenodd" d="M12.1 6c0-1.05.85-1.9 1.9-1.9h6c1.05 0 1.9.85 1.9 1.9v13a1.9 1.9 0 0 1-1.9 1.9h-6a1.9 1.9 0 0 1-1.9-1.9v-.397a.9.9 0 0 1 1.8 0V19a.1.1 0 0 0 .1.1h6a.1.1 0 0 0 .1-.1V6a.1.1 0 0 0-.1-.1h-6a.1.1 0 0 0-.1.1v.418a.9.9 0 1 1-1.8 0V6zM7.949 7.609a.092.092 0 0 0-.036.037l-.867 1.502a.9.9 0 1 1-1.559-.9l.867-1.502c.731-1.266 2.56-1.266 3.291 0l1.06 1.836a.9.9 0 0 1 1.717.534l-.491 1.835a.9.9 0 0 1-1.237.83l-1.972-.528a.9.9 0 0 1 .439-1.746l-1.075-1.86a.092.092 0 0 0-.035-.038A.106.106 0 0 0 8 7.596a.106.106 0 0 0-.051.013zM4.61 10.264a.9.9 0 0 1 1.102.636l.549 2.05a.9.9 0 0 1-1.718.532l-.961 1.664-.773-.446.773.446a.092.092 0 0 0-.015.05c0 .014.005.032.015.05.01.018.024.03.036.038.01.006.024.012.05.012h1.353a.9.9 0 1 1 0 1.8H3.67c-1.463 0-2.377-1.583-1.646-2.85l.974-1.687a.9.9 0 0 1-.436-1.746l2.049-.55zm7.339 2.274a.9.9 0 0 1 1.23.33l.795 1.378c.732 1.267-.183 2.85-1.645 2.85h-2.16a.9.9 0 0 1-1.306 1.237l-1.5-1.5a.9.9 0 0 1 0-1.273l1.5-1.5a.9.9 0 0 1 1.307 1.236h2.159a.091.091 0 0 0 .086-.05.107.107 0 0 0 .015-.05.093.093 0 0 0-.015-.05l-.796-1.379a.9.9 0 0 1 .33-1.23zM15.6 17.5a.9.9 0 0 1 .9-.9h1a.9.9 0 1 1 0 1.8h-1a.9.9 0 0 1-.9-.9z" clip-rule="evenodd" style="fill: #990ae3;"/></svg>
