<?xml version="1.0" encoding="UTF-8"?>
<svg xmlns="http://www.w3.org/2000/svg" fill="none" viewBox="0 0 24 24"><path fill="#1E1E20" fill-rule="evenodd" d="M5.341 2.228c.75-.622 1.73-.43 2.305.145l2.783 2.783a1.9 1.9 0 0 1 0 2.687L8.843 9.43a.1.1 0 0 0 0 .142l5.586 5.585a.1.1 0 0 0 .142 0l1.585-1.585a1.9 1.9 0 0 1 2.687 0l3.5 3.5c.343.342.698 1.023.31 1.742-.346.645-1.173 1.615-3.154 2.936-1.75 1.167-3.667 1.269-5.297.903-1.61-.361-3.015-1.192-3.839-2.016a.9.9 0 0 1 1.273-1.272c.573.572 1.669 1.242 2.96 1.532 1.27.285 2.656.188 3.905-.645 1.483-.989 2.137-1.68 2.418-2.06l-3.348-3.347a.1.1 0 0 0-.142 0l-1.586 1.585a1.9 1.9 0 0 1-2.687 0l-5.585-5.585a1.9 1.9 0 0 1 0-2.688l1.585-1.585a.1.1 0 0 0 0-.142L6.41 3.682c-.447.383-1.183 1.102-2.206 2.38-.878 1.097-1.14 2.08-1.127 2.951.013.898.323 1.758.732 2.59.24.488.733 1.079 1.551 1.88.561.549 1.227 1.152 2.002 1.854.344.312.71.644 1.098 1a.9.9 0 0 1-1.215 1.327c-.367-.336-.722-.658-1.061-.965-.79-.716-1.496-1.356-2.083-1.93-.83-.813-1.522-1.586-1.908-2.372-.456-.93-.896-2.07-.916-3.356-.02-1.314.399-2.7 1.521-4.103 1.148-1.435 1.995-2.254 2.544-2.71z" clip-rule="evenodd" style="fill: #990ae3;"/></svg>
