<?xml version="1.0" encoding="UTF-8"?>
<svg xmlns="http://www.w3.org/2000/svg" fill="none" viewBox="0 0 24 24"><path fill="#1E1E20" fill-rule="evenodd" d="M12.121 2.806a.9.9 0 0 1 1.073-.685c2.58.569 4.48 1.335 5.88 2.737 1.395 1.399 2.183 3.319 2.802 5.935a.9.9 0 1 1-1.752.414C19.53 8.695 18.84 7.171 17.8 6.13c-1.036-1.039-2.53-1.708-4.993-2.251a.9.9 0 0 1-.685-1.073zm-.004 3.017a.9.9 0 0 1 1.06-.706c1.637.328 2.888.802 3.826 1.753.926.937 1.436 2.227 1.869 3.905a.9.9 0 0 1-1.744.45c-.415-1.613-.83-2.508-1.405-3.09-.562-.57-1.387-.95-2.9-1.252a.9.9 0 0 1-.706-1.06zM4.311 5.77c.751-.665 1.76-.463 2.336.125l2.028 2.068a1.9 1.9 0 0 1 0 2.66l-1.048 1.07a.1.1 0 0 0 0 .14l4.249 4.332a.1.1 0 0 0 .142 0l.994-1.013a1.9 1.9 0 0 1 2.713 0l2.632 2.684c.334.341.69 1.032.278 1.749-.32.556-1.019 1.345-2.55 2.387-1.464.994-3.066 1.08-4.42.77-1.334-.306-2.497-1.006-3.185-1.708a.9.9 0 0 1 1.285-1.26c.439.448 1.293.982 2.3 1.213.988.225 2.05.147 3.008-.504 1.062-.723 1.584-1.244 1.833-1.555l-2.466-2.515a.1.1 0 0 0-.143 0l-.993 1.012a1.9 1.9 0 0 1-2.714 0l-4.249-4.332a1.9 1.9 0 0 1 0-2.661L7.39 9.362a.1.1 0 0 0 0-.14l-1.98-2.02c-.36.33-.905.894-1.633 1.823-.686.875-.887 1.651-.877 2.333.011.709.25 1.394.577 2.07.17.356.524.8 1.13 1.413a55.73 55.73 0 0 0 1.704 1.615l.599.554a.9.9 0 0 1-1.225 1.32c-.197-.184-.39-.361-.576-.534-.678-.626-1.284-1.187-1.781-1.69-.627-.633-1.164-1.254-1.473-1.897-.372-.773-.738-1.734-.754-2.823-.017-1.116.333-2.29 1.26-3.472.849-1.082 1.498-1.745 1.95-2.145zm1.042 1.378zm6.79 1.575a.9.9 0 0 1 1.135-.578c.645.21 1.213.472 1.668.923.46.456.722 1.022.917 1.676a.9.9 0 1 1-1.726.514c-.152-.511-.3-.754-.458-.911-.164-.162-.422-.316-.957-.49a.9.9 0 0 1-.578-1.134z" clip-rule="evenodd" style="fill: #990ae3;"/></svg>
