<?xml version="1.0" encoding="UTF-8"?>
<svg xmlns="http://www.w3.org/2000/svg" fill="none" viewBox="0 0 24 24"><path fill="#1E1E20" fill-rule="evenodd" d="M7.825 4.904A.9.9 0 0 1 8.5 4.6h2a.9.9 0 0 1 .636.264l3.78 3.779a42.482 42.482 0 0 1 .934.123c.636.092 1.472.226 1.935.38 1.638.546 2.593 1.262 3.731 2.116l.024.018c.784.588 1.316 1.606 1.289 2.567-.015.506-.19 1.05-.633 1.463-.442.412-1.038.59-1.696.59h-6.216l-4.768 3.337A.9.9 0 0 1 9 19.4H5.5a.9.9 0 0 1-.732-1.423l1.546-2.165c-.56-.078-1.209-.228-1.747-.523a45.71 45.71 0 0 1-1.607-.947 115.456 115.456 0 0 1-.864-.533l-.074-.046A.9.9 0 0 1 1.6 13V7a.9.9 0 0 1 .9-.9H4a.9.9 0 0 1 .703.338L6.433 8.6H7.98l-.373-2.988a.9.9 0 0 1 .218-.708zM9.795 8.6h2.532l-2.2-2.2H9.52l.275 2.2zM3.4 12.5l.498.306c.518.316 1.127.681 1.535.905.367.201.958.316 1.547.365.199.016.382.024.536.027l.735-1.102A.9.9 0 0 1 9 12.6h6.5a.9.9 0 0 1 .67 1.5h4.33c.342 0 .45-.09.47-.107.016-.015.056-.06.06-.196.008-.325-.21-.807-.57-1.077-1.14-.854-1.895-1.416-3.245-1.866-.278-.093-.942-.209-1.62-.306a44.64 44.64 0 0 0-1.101-.143l-.046-.005H6a.9.9 0 0 1-.703-.338L3.567 7.9H3.4v4.6zm9.888 1.9H9.482l-.733 1.1a.88.88 0 0 1-.017.023L7.25 17.6h1.467l4.572-3.2z" clip-rule="evenodd" style="fill: #990ae3;"/></svg>
