<?xml version="1.0" encoding="UTF-8"?>
<svg xmlns="http://www.w3.org/2000/svg" fill="none" viewBox="0 0 24 25"><path fill="#1E1E20" fill-rule="evenodd" d="M1.6 7.5a2.9 2.9 0 0 1 2.9-2.9h15a2.9 2.9 0 0 1 2.9 2.9v8a2.9 2.9 0 0 1-2.9 2.9h-8.172a1.1 1.1 0 0 0-.777.322l-2.915 2.914a.9.9 0 1 1-1.272-1.272l2.914-2.915a2.9 2.9 0 0 1 2.05-.849H19.5a1.1 1.1 0 0 0 1.1-1.1v-8a1.1 1.1 0 0 0-1.1-1.1h-15a1.1 1.1 0 0 0-1.1 1.1v8a1.1 1.1 0 0 0 1.1 1.1h2a.9.9 0 1 1 0 1.8h-2a2.9 2.9 0 0 1-2.9-2.9v-8zm3 2.5a.9.9 0 0 1 .9-.9h13a.9.9 0 1 1 0 1.8h-13a.9.9 0 0 1-.9-.9zm0 3.5a.9.9 0 0 1 .9-.9H15a.9.9 0 1 1 0 1.8H5.5a.9.9 0 0 1-.9-.9z" clip-rule="evenodd" style="fill: #990ae3;"/></svg>
