<?xml version="1.0" encoding="UTF-8"?>
<svg xmlns="http://www.w3.org/2000/svg" fill="none" viewBox="0 0 24 24"><path fill="#1E1E20" fill-rule="evenodd" d="M.1 12A6.9 6.9 0 0 1 7 5.1h10a6.9 6.9 0 0 1 0 13.8H7A6.9 6.9 0 0 1 .1 12zM7 6.9a5.1 5.1 0 1 0 0 10.2h10a5.1 5.1 0 0 0 0-10.2H7zm9.5 2.2a.9.9 0 0 1 .9.9v1.1h1.1a.9.9 0 0 1 0 1.8h-1.1V14a.9.9 0 0 1-1.8 0v-1.1h-1.1a.9.9 0 1 1 0-1.8h1.1V10a.9.9 0 0 1 .9-.9zM4.6 12a.9.9 0 0 1 .9-.9h4a.9.9 0 1 1 0 1.8h-4a.9.9 0 0 1-.9-.9z" clip-rule="evenodd" style="fill: #990ae3;"/></svg>
