<?xml version="1.0" encoding="UTF-8"?>
<svg xmlns="http://www.w3.org/2000/svg" fill="none" viewBox="0 0 24 24"><path fill="#1E1E20" fill-rule="evenodd" d="M5.863 2.864a.9.9 0 0 1 .97-.2c1.053.421 2.257.434 3.25.317a10.079 10.079 0 0 0 1.53-.304c.038-.01.066-.02.083-.025l.555-.016-.118.899-.117.9c-.057.015.268-.081.268-.081h-.002l-.004.002-.01.003-.033.01a6.009 6.009 0 0 1-.22.065 11.873 11.873 0 0 1-1.723.335c-.984.116-2.28.14-3.553-.235l-.696.695c.166.604.216 1.332.168 2.196-.067 1.205-.332 2.766-.838 4.793-.177.708-.018 1.537.463 2.459.48.917 1.237 1.841 2.101 2.675.86.831 1.795 1.543 2.594 2.04.4.25.752.438 1.033.56.278.12.412.144.433.147L12 20.1a.9.9 0 1 1 0 1.8c-.382 0-.798-.143-1.153-.297a9.944 9.944 0 0 1-1.269-.683 18.046 18.046 0 0 1-2.89-2.273c-.95-.915-1.848-1.991-2.447-3.136-.596-1.141-.937-2.437-.615-3.73.494-1.972.73-3.41.788-4.456.058-1.059-.07-1.626-.22-1.922a.9.9 0 0 1 .17-1.04l1.5-1.5zM17.37 4.527c-1.147.391-2.475.353-3.469.242a15.047 15.047 0 0 1-1.885-.335m5.354.093l.958.719c-.176.338-.31.649-.396.952-.154.541-.147 1.006-.07 1.501.049.323.117.631.195.984.166.748.377 1.696.548 3.407.133 1.328-.324 2.618-1.127 3.801-.805 1.185-1.923 2.208-2.994 2.96a.9.9 0 0 0 1.034 1.473c1.199-.842 2.491-2.012 3.449-3.422.958-1.411 1.617-3.118 1.43-4.992a30.828 30.828 0 0 0-.62-3.808c-.062-.285-.111-.509-.137-.676-.049-.318-.041-.509.023-.733.075-.263.241-.617.61-1.23a.9.9 0 0 0-.232-1.183l-2-1.5a.9.9 0 0 0-.943-.085c-.752.376-1.9.407-2.998.286a13.25 13.25 0 0 1-1.824-.339l-.024-.006-.004-.001-.232 1.8M12 6.6a.9.9 0 0 1 .836.566l.773 1.934H16a.9.9 0 0 1 .636 1.536l-1.672 1.673.424 2.543a.9.9 0 0 1-1.351.92L12 14.55l-2.037 1.222a.9.9 0 0 1-1.35-.92l.423-2.543-1.672-1.673A.9.9 0 0 1 8 9.1h2.39l.774-1.934A.9.9 0 0 1 12 6.6zm0 3.323l-.164.411A.9.9 0 0 1 11 10.9h-.827l.463.464a.9.9 0 0 1 .252.784l-.18 1.078.829-.498a.9.9 0 0 1 .926 0l.829.498-.18-1.078a.9.9 0 0 1 .252-.784l.463-.464H13a.9.9 0 0 1-.836-.566L12 9.924z" clip-rule="evenodd" style="fill: #990ae3;"/></svg>
