<?xml version="1.0" encoding="UTF-8"?>
<svg xmlns="http://www.w3.org/2000/svg" fill="none" viewBox="0 0 24 24"><path fill="#1E1E20" fill-rule="evenodd" d="M9.615 2.334A.9.9 0 0 1 10.5 1.6h2a.9.9 0 0 1 0 1.8h-1.253l-.528 2.817 3.203 3.417L13 5.5a.9.9 0 1 1 1.77-.332l.35 1.092 3.93 3.027a.9.9 0 0 1 .35.713v1.763a.9.9 0 0 1-.9.9h-1.453l4.007 3.127a.9.9 0 0 1 .346.71v1.579a.9.9 0 0 1-.9.9h-3.023l.414 2.894a.9.9 0 0 1-1.566.722L12 17.69l-4.325 4.906a.9.9 0 0 1-1.566-.722l.413-2.894H3.5a.9.9 0 0 1-.9-.9V16.5a.9.9 0 0 1 .346-.71l4.007-3.127H5.5a.9.9 0 0 1-.9-.9V10a.9.9 0 0 1 .328-.695l3.998-3.292.69-3.679zM8.41 8.771L6.4 10.425v.438h1.616l.393-2.092zm-1.107 5.904l-.47 2.504H4.4v-.24l2.902-2.264zm1.086 3.972l-.071.498 2.483-2.817-1.63-1.85-.782 4.169zm1.202-6.413L12 14.967l2.159-2.448-3.852-4.108-.717 3.823zm5.24 2.245l-1.63 1.85 2.483 2.816-.071-.498-.782-4.168zm2.338 2.7H19.6v-.24l-2.902-2.264.47 2.504zm-1.184-6.316l-.365-1.947 1.981 1.527v.42h-1.616z" clip-rule="evenodd" style="fill: #990ae3;"/></svg>
