<?xml version="1.0" encoding="UTF-8"?>
<svg xmlns="http://www.w3.org/2000/svg" fill="none" viewBox="0 0 24 24"><path fill="#1E1E20" fill-rule="evenodd" d="M2.1 2.5a.9.9 0 0 1 .9-.9h12a.9.9 0 0 1 .9.9v3.6h.1a5.4 5.4 0 1 1-.1 10.8v4.6a.9.9 0 0 1-.9.9H3a.9.9 0 0 1-.9-.9v-19zm12 14.056a5.413 5.413 0 0 1-2.329-1.698.899.899 0 0 1-.271.042h-1a.9.9 0 0 1-.9-.9v-1a.9.9 0 0 1 .9-.9h.133a5.479 5.479 0 0 1-.032-.7H10.5a.9.9 0 0 1-.9-.9v-1a.9.9 0 0 1 .9-.9h.944A5.417 5.417 0 0 1 14.1 6.444V3.4H3.9v17.2h2.2v-3.1a.9.9 0 0 1 .9-.9h4a.9.9 0 0 1 .9.9v3.1h2.2v-4.044zm-4 4.044v-2.2H7.9v2.2h2.2zM5.6 6a.9.9 0 0 1 .9-.9h1a.9.9 0 0 1 .9.9v1a.9.9 0 0 1-.9.9h-1a.9.9 0 0 1-.9-.9V6zm4 0a.9.9 0 0 1 .9-.9h1a.9.9 0 0 1 .9.9v1a.9.9 0 0 1-.9.9h-1a.9.9 0 0 1-.9-.9V6zM16 7.9a3.6 3.6 0 1 0 0 7.2 3.6 3.6 0 0 0 0-7.2zM5.6 9.5a.9.9 0 0 1 .9-.9h1a.9.9 0 0 1 .9.9v1a.9.9 0 0 1-.9.9h-1a.9.9 0 0 1-.9-.9v-1zm0 3.5a.9.9 0 0 1 .9-.9h1a.9.9 0 0 1 .9.9v1a.9.9 0 0 1-.9.9h-1a.9.9 0 0 1-.9-.9v-1z" clip-rule="evenodd" style="fill: #990ae3;"/><path fill="#1E1E20" d="M15.652 9.5h-.675V13h2.255v-.57h-1.58V9.5z" style="fill: #990ae3;"/><path fill="#1E1E20" fill-rule="evenodd" d="M15.802 9.35v2.93h1.58v.87h-2.556v-3.8h.976zm1.43 3.08V13h-2.255V9.5h.675v2.93h1.58z" clip-rule="evenodd" style="fill: #990ae3;"/></svg>
