<?xml version="1.0" encoding="UTF-8"?>
<svg xmlns="http://www.w3.org/2000/svg" fill="none" viewBox="0 0 24 24"><path fill="#1E1E20" fill-rule="evenodd" d="M2.1 2.5a.9.9 0 0 1 .9-.9h12a.9.9 0 0 1 .9.9v3.6h.1a5.4 5.4 0 1 1-.1 10.8v4.6a.9.9 0 0 1-.9.9H3a.9.9 0 0 1-.9-.9v-19zm12 14.056a5.416 5.416 0 0 1-2.483-1.9.897.897 0 0 1-.617.244h-1a.9.9 0 0 1-.9-.9v-1a.9.9 0 0 1 .9-.9h.633a5.479 5.479 0 0 1-.032-.7H10a.9.9 0 0 1-.9-.9v-1a.9.9 0 0 1 .9-.9h1c.14 0 .271.032.389.088A5.418 5.418 0 0 1 14.1 6.444V3.4H3.9v17.2h2.2v-3.1a.9.9 0 0 1 .9-.9h4a.9.9 0 0 1 .9.9v3.1h2.2v-4.044zm-4 4.044v-2.2H7.9v2.2h2.2zM5.1 6a.9.9 0 0 1 .9-.9h1a.9.9 0 0 1 .9.9v1a.9.9 0 0 1-.9.9H6a.9.9 0 0 1-.9-.9V6zm4 0a.9.9 0 0 1 .9-.9h1a.9.9 0 0 1 .9.9v1a.9.9 0 0 1-.9.9h-1a.9.9 0 0 1-.9-.9V6zM16 7.9a3.6 3.6 0 1 0 0 7.2 3.6 3.6 0 0 0 0-7.2zM5.1 9.5a.9.9 0 0 1 .9-.9h1a.9.9 0 0 1 .9.9v1a.9.9 0 0 1-.9.9H6a.9.9 0 0 1-.9-.9v-1zm0 3.5a.9.9 0 0 1 .9-.9h1a.9.9 0 0 1 .9.9v1a.9.9 0 0 1-.9.9H6a.9.9 0 0 1-.9-.9v-1z" clip-rule="evenodd" style="fill: #990ae3;"/><path fill="#1E1E20" d="M16.003 11.605L14.998 9.7h-.82v3.5h.655v-2.6l.91 1.725h.515l.91-1.73V13.2h.655V9.7h-.82l-1 1.905z" style="fill: #990ae3;"/><path fill="#1E1E20" fill-rule="evenodd" d="M14.998 9.7l1.005 1.905 1-1.905h.82v3.5h-.655v-2.605l-.91 1.73h-.515l-.91-1.725v2.6h-.655V9.7h.82zm-.015 1.506v2.144h-.955v-3.8h1.06l.915 1.733.91-1.733h1.06v3.8h-.955v-2.148l-.67 1.273h-.695l-.67-1.27z" clip-rule="evenodd" style="fill: #990ae3;"/></svg>
