<?xml version="1.0" encoding="UTF-8"?>
<svg xmlns="http://www.w3.org/2000/svg" fill="none" viewBox="0 0 24 24"><path fill="#1E1E20" fill-rule="evenodd" d="M5.1 2.5a.9.9 0 0 1 .9-.9h12a.9.9 0 0 1 .9.9v19a.9.9 0 0 1-.9.9H6a.9.9 0 0 1-.9-.9v-19zm1.8.9v17.2h2.2v-3.1a.9.9 0 0 1 .9-.9h4a.9.9 0 0 1 .9.9v3.1h2.2V3.4H6.9zm6.2 17.2v-2.2h-2.2v2.2h2.2zM8.6 6a.9.9 0 0 1 .9-.9h1a.9.9 0 0 1 .9.9v1a.9.9 0 0 1-.9.9h-1a.9.9 0 0 1-.9-.9V6zm4 0a.9.9 0 0 1 .9-.9h1a.9.9 0 0 1 .9.9v1a.9.9 0 0 1-.9.9h-1a.9.9 0 0 1-.9-.9V6zm-4 3.5a.9.9 0 0 1 .9-.9h1a.9.9 0 0 1 .9.9v1a.9.9 0 0 1-.9.9h-1a.9.9 0 0 1-.9-.9v-1zm4 0a.9.9 0 0 1 .9-.9h1a.9.9 0 0 1 .9.9v1a.9.9 0 0 1-.9.9h-1a.9.9 0 0 1-.9-.9v-1zm-4 3.5a.9.9 0 0 1 .9-.9h1a.9.9 0 0 1 .9.9v1a.9.9 0 0 1-.9.9h-1a.9.9 0 0 1-.9-.9v-1zm4 0a.9.9 0 0 1 .9-.9h1a.9.9 0 0 1 .9.9v1a.9.9 0 0 1-.9.9h-1a.9.9 0 0 1-.9-.9v-1z" clip-rule="evenodd" style="fill: #990ae3;"/></svg>
