<?xml version="1.0" encoding="UTF-8"?>
<svg xmlns="http://www.w3.org/2000/svg" fill="none" viewBox="0 0 24 24"><path fill="#1E1E20" fill-rule="evenodd" d="M6.114 6.1H3A1.9 1.9 0 0 0 1.1 8v2a1.9 1.9 0 0 0 1 1.674V20c0 1.05.85 1.9 1.9 1.9h16a1.9 1.9 0 0 0 1.9-1.9v-6a.9.9 0 0 0-1.8 0v6a.1.1 0 0 1-.1.1h-7.1v-8.2H21a1.9 1.9 0 0 0 1.9-1.9V8A1.9 1.9 0 0 0 21 6.1h-3.114c-.06-.83-.31-1.631-.802-2.27-.591-.77-1.482-1.23-2.584-1.23-1.05 0-1.91.419-2.5 1.124C11.41 3.02 10.55 2.6 9.5 2.6c-1.102 0-1.993.46-2.585 1.23-.491.639-.741 1.44-.8 2.27zm1.807 0h3.158c-.054-.5-.21-.898-.42-1.172-.245-.317-.604-.528-1.159-.528s-.914.21-1.158.528c-.212.274-.367.673-.421 1.172zm5 0h3.158c-.054-.5-.21-.898-.42-1.172-.245-.317-.604-.528-1.159-.528s-.914.21-1.158.528c-.212.274-.367.673-.421 1.172zM11.1 7.9H3a.1.1 0 0 0-.1.1v2a.1.1 0 0 0 .1.1h8.1V7.9zm1.8 2.2V7.9H21a.1.1 0 0 1 .1.1v2a.1.1 0 0 1-.1.1h-8.1zm-1.8 1.8H3.9V20a.1.1 0 0 0 .1.1h7.1v-8.2z" clip-rule="evenodd" style="fill: #990ae3;"/></svg>
