<?xml version="1.0" encoding="UTF-8"?>
<svg xmlns="http://www.w3.org/2000/svg" fill="none" viewBox="0 0 24 24"><path fill="#1E1E20" fill-rule="evenodd" d="M13.944 12.164a.898.898 0 0 1-.313.1l-.001.04a3 3 0 0 1 .688-.014 2.907 2.907 0 0 1 1.912.935l.08-.003c.323-.012.78-.015 1.166.042.375.055.79.183 1.097.289.774.266 1.227.995 1.227 1.748V20.9a1.9 1.9 0 0 1-1.9 1.9H9.647a1.9 1.9 0 0 1-1.675-1.003l-3.865-7.218a.9.9 0 0 1 .11-1.01c.69-.806 1.53-1.137 2.4-1.026.794.101 1.477.552 1.984.992l.145.13c.017-.438.036-.908.058-1.386l.006-.14a5.4 5.4 0 1 1 5.134.025zm-2.295 1.355l-.006.156-.003.054a.9.9 0 0 0 .524.86c.329.15.664 0 .664 0s.334-.167.352-.18a1.214 1.214 0 0 1 .83-.227c.357.034.565.174.684.286a.88.88 0 0 1 .146.178c.163.337.52.54.894.504h.006l.026-.002a8.6 8.6 0 0 1 .469-.027c.304-.011.625-.008.84.024.204.03.49.113.773.21l.002.002a.08.08 0 0 1 .011.044V21a.1.1 0 0 1-.1.1H9.508a.1.1 0 0 1-.088-.053L5.9 14.475a.657.657 0 0 1 .352-.046c.276.035.63.219 1.031.566.385.334.73.747.985 1.09a8.699 8.699 0 0 1 .366.533l.018.028.003.005a.9.9 0 0 0 1.673-.437l.002-.08.006-.233a253.388 253.388 0 0 1 .127-3.44c.045-.967.099-1.956.162-2.756.031-.4.064-.746.098-1.013.017-.134.033-.241.048-.322.015-.078.024-.108.024-.108v.002c.067-.19.155-.27.214-.308a.404.404 0 0 1 .25-.054c.239.019.38.171.408.281l.005.027.011.073c.008.063.016.143.023.242.013.197.023.445.028.73.01.568.003 1.254-.01 1.92a113.631 113.631 0 0 1-.075 2.344zm3.188 1.121l.003.005.001.003v-.002l-.004-.006zm0 0l-.001-.002-.002-.006-.002-.002.005.01zM7.8 7.4a3.6 3.6 0 1 1 5.875 2.79c.003-.373.003-.737-.003-1.068-.01-.556-.035-1.143-.122-1.483-.252-.988-1.148-1.562-2.007-1.632-.933-.075-1.903.422-2.306 1.551-.078.22-.126.528-.161.807-.04.308-.075.685-.108 1.099-.014.177-.027.362-.04.553A3.59 3.59 0 0 1 7.8 7.4z" clip-rule="evenodd" style="fill: #990ae3;"/></svg>
