<?xml version="1.0" encoding="UTF-8"?>
<svg xmlns="http://www.w3.org/2000/svg" fill="none" viewBox="0 0 24 24"><path fill="#1E1E20" fill-rule="evenodd" d="M4.6 3.5c0-1.05.85-1.9 1.9-1.9h11c1.05 0 1.9.85 1.9 1.9v.6h1.186c1.693 0 2.54 2.047 1.343 3.244l-3.14 3.14c-.086.22-.184.444-.297.668-.46.92-1.163 1.866-2.235 2.581-.556.37-1.197.67-1.932.872a4.753 4.753 0 0 0-.022.515c.003.25.033.439.074.552l.003.007c2.362.84 3.348 3.166 3.733 4.46.37 1.242-.637 2.261-1.746 2.261H7.5c-1.014 0-2.002-.867-1.77-2.062.26-1.346 1.117-3.811 3.905-4.669.037-.109.064-.29.067-.531.002-.185-.01-.37-.025-.533a6.632 6.632 0 0 1-1.934-.872c-1.072-.715-1.776-1.661-2.236-2.58a8.038 8.038 0 0 1-.296-.67l-3.14-3.14C.874 6.147 1.72 4.1 3.414 4.1H4.6v-.6zm0 2.4H3.414c-.035 0-.049.009-.056.014a.11.11 0 0 0-.036.048.11.11 0 0 0-.009.059c.002.009.006.025.03.05L4.6 7.327V5.9zm1.8 1.599zm0 0v.005l.001.039a7.077 7.077 0 0 0 .088.825c.092.55.274 1.27.628 1.98.353.705.868 1.384 1.624 1.887.75.5 1.792.865 3.259.865 1.467 0 2.508-.364 3.259-.864.756-.504 1.27-1.183 1.623-1.889.708-1.414.718-2.848.718-2.848V7.5v-4a.1.1 0 0 0-.1-.1h-11a.1.1 0 0 0-.1.1v3.999zm-.9.001h-.727.727zm5.999 7.388c.003.089.004.18.003.273-.004.338-.041.76-.183 1.146-.144.392-.454.882-1.072 1.058-1.845.527-2.5 2.1-2.734 3.235h8.859c-.367-1.202-1.142-2.741-2.657-3.246-.593-.198-.89-.68-1.03-1.068-.14-.384-.177-.802-.182-1.138-.002-.088 0-.176.002-.26a10.273 10.273 0 0 1-1.006 0zm7.901-7.56l1.257-1.257c.024-.025.028-.041.03-.05a.11.11 0 0 0-.009-.06.11.11 0 0 0-.036-.047c-.007-.005-.021-.014-.056-.014H19.4v1.427z" clip-rule="evenodd" style="fill: #990ae3;"/></svg>
