<?xml version="1.0" encoding="UTF-8"?>
<svg xmlns="http://www.w3.org/2000/svg" fill="none" viewBox="0 0 24 24"><path fill="#1E1E20" fill-rule="evenodd" d="M4.6 4a2.9 2.9 0 0 1 2.9-2.9H14a.9.9 0 0 1 .602.231l5 4.5a.9.9 0 0 1 .298.669v2.6h.6c1.05 0 1.9.85 1.9 1.9v6a1.9 1.9 0 0 1-1.9 1.9h-1.1v.6a2.9 2.9 0 0 1-2.9 2.9h-10a1.9 1.9 0 0 1-1.9-1.9v-1.6H3.5A1.9 1.9 0 0 1 1.6 17v-6c0-1.05.85-1.9 1.9-1.9h1.1V4zm1.8 5.1h11.7V7.4H15a1.9 1.9 0 0 1-1.9-1.9V2.9H7.5A1.1 1.1 0 0 0 6.4 4v5.1zm8.5-5.08l1.755 1.58H15a.1.1 0 0 1-.1-.1V4.02zM4.6 17.1v-5h14.8v5h1.1a.1.1 0 0 0 .1-.1v-6a.1.1 0 0 0-.1-.1h-17a.1.1 0 0 0-.1.1v6a.1.1 0 0 0 .1.1h1.1zm1.8-3.2v6.6a.1.1 0 0 0 .1.1h10a1.1 1.1 0 0 0 1.1-1.1v-5.6H6.4zM8.1 16a.9.9 0 0 1 .9-.9h6a.9.9 0 1 1 0 1.8H9a.9.9 0 0 1-.9-.9zm0 2.5a.9.9 0 0 1 .9-.9h6a.9.9 0 1 1 0 1.8H9a.9.9 0 0 1-.9-.9z" clip-rule="evenodd" style="fill: #990ae3;"/></svg>
