<?xml version="1.0" encoding="UTF-8"?>
<svg xmlns="http://www.w3.org/2000/svg" fill="none" viewBox="0 0 24 24"><path fill="#1E1E20" d="M13.672 12.056c-.635.547-1.242 1.07-1.164 2.062h-1.385c-.309-1.553.504-2.214 1.23-2.805.514-.419.986-.802.986-1.442 0-.593-.489-1.068-1.267-1.068-.764 0-1.345.422-1.872 1.187L9 9.067C9.712 7.92 10.807 7.3 12.086 7.3 13.906 7.3 15 8.42 15 9.78c0 1.133-.678 1.717-1.328 2.277zM12.85 15.819c0 .54-.487 1.028-1.041 1.028-.554 0-1.042-.488-1.042-1.028 0-.528.488-1.029 1.042-1.029s1.042.501 1.042 1.029z" style="fill: #990ae3;"/><path fill="#1E1E20" fill-rule="evenodd" d="M22 12c0 5.523-4.477 10-10 10S2 17.523 2 12 6.477 2 12 2s10 4.477 10 10zm-1.75 0a8.25 8.25 0 1 1-16.5 0 8.25 8.25 0 0 1 16.5 0z" clip-rule="evenodd" style="fill: #990ae3;"/></svg>
