<?xml version="1.0" encoding="UTF-8"?>
<svg xmlns="http://www.w3.org/2000/svg" fill="none" viewBox="0 0 24 24"><path fill="#1E1E20" fill-rule="evenodd" d="M12 22c5.523 0 10-4.477 10-10S17.523 2 12 2 2 6.477 2 12s4.477 10 10 10zm1.633-9.896c-.665.573-1.302 1.121-1.22 2.16H10.96c-.323-1.627.528-2.32 1.29-2.94.538-.438 1.032-.84 1.032-1.51 0-.622-.511-1.12-1.327-1.12-.801 0-1.41.442-1.962 1.244l-1.258-.967c.747-1.203 1.894-1.852 3.234-1.852 1.907 0 3.054 1.174 3.054 2.598 0 1.188-.71 1.8-1.391 2.387zm-.861 3.942c0 .567-.512 1.078-1.092 1.078-.58 0-1.092-.51-1.092-1.078 0-.552.512-1.077 1.092-1.077.58 0 1.092.525 1.092 1.077z" clip-rule="evenodd" style="fill: #990ae3;"/></svg>
