<?xml version="1.0" encoding="UTF-8"?>
<svg xmlns="http://www.w3.org/2000/svg" fill="none" viewBox="0 0 24 24"><path fill="#1E1E20" fill-rule="evenodd" d="M4.1 4c0-1.05.85-1.9 1.9-1.9h12c1.05 0 1.9.85 1.9 1.9v17.5a.9.9 0 0 1-.9.9H5a.9.9 0 0 1-.9-.9V4zM6 3.9a.1.1 0 0 0-.1.1v4.1h12.2V4a.1.1 0 0 0-.1-.1H6zm12.1 6H5.9v4.2h12.2V9.9zm0 6H5.9v4.2h12.2v-4.2zM7.1 6a.9.9 0 0 1 .9-.9h5a.9.9 0 0 1 0 1.8H8a.9.9 0 0 1-.9-.9zm7.5 0a.9.9 0 0 1 .9-.9h.5a.9.9 0 0 1 0 1.8h-.5a.9.9 0 0 1-.9-.9zm-7.5 6a.9.9 0 0 1 .9-.9h5a.9.9 0 0 1 0 1.8H8a.9.9 0 0 1-.9-.9zm7.5 0a.9.9 0 0 1 .9-.9h.5a.9.9 0 0 1 0 1.8h-.5a.9.9 0 0 1-.9-.9zm-7.5 6a.9.9 0 0 1 .9-.9h5a.9.9 0 0 1 0 1.8H8a.9.9 0 0 1-.9-.9zm7.5 0a.9.9 0 0 1 .9-.9h.5a.9.9 0 0 1 0 1.8h-.5a.9.9 0 0 1-.9-.9z" clip-rule="evenodd" style="fill: #990ae3;"/></svg>
