<?xml version="1.0" encoding="UTF-8"?>
<svg xmlns="http://www.w3.org/2000/svg" fill="none" viewBox="0 0 24 24"><path fill="#1E1E20" fill-rule="evenodd" d="M6 3.1a.9.9 0 0 1 .9.9v.6h1.2V4a.9.9 0 1 1 1.8 0v.6h1.2V4a.9.9 0 1 1 1.8 0v.6h6.6c1.05 0 1.9.85 1.9 1.9v11a1.9 1.9 0 0 1-1.9 1.9h-16a1.9 1.9 0 0 1-1.9-1.9v-11c0-1.05.85-1.9 1.9-1.9h1.6V4a.9.9 0 0 1 .9-.9zM3.5 6.4a.1.1 0 0 0-.1.1v11a.1.1 0 0 0 .1.1h16a.1.1 0 0 0 .1-.1v-11a.1.1 0 0 0-.1-.1h-16zM9 9.9a2.1 2.1 0 1 0 0 4.2 2.1 2.1 0 0 0 0-4.2zM5.1 12a3.9 3.9 0 1 1 7.8 0 3.9 3.9 0 0 1-7.8 0zm9-3a.9.9 0 0 1 .9-.9h2.5a.9.9 0 0 1 0 1.8H15a.9.9 0 0 1-.9-.9zm0 3a.9.9 0 0 1 .9-.9h2.5a.9.9 0 0 1 0 1.8H15a.9.9 0 0 1-.9-.9zm0 3a.9.9 0 0 1 .9-.9h2.5a.9.9 0 0 1 0 1.8H15a.9.9 0 0 1-.9-.9z" clip-rule="evenodd" style="fill: #990ae3;"/></svg>
