<?xml version="1.0" encoding="UTF-8"?>
<svg xmlns="http://www.w3.org/2000/svg" fill="none" viewBox="0 0 24 24"><path fill="#1E1E20" fill-rule="evenodd" d="M11.93 3.672c-.09.022-.21.07-.388.227l.002-.002s-.016.016-.052.057a5.279 5.279 0 0 0-.149.178c-.12.15-.27.347-.442.578-.341.46-.75 1.035-1.145 1.599A177.009 177.009 0 0 0 8.37 8.32l-.124.183L7.5 8l-.745-.504.127-.187a190.362 190.362 0 0 1 1.4-2.032c.398-.57.817-1.159 1.173-1.639.178-.24.343-.457.485-.634a3.94 3.94 0 0 1 .41-.454c.367-.324.743-.527 1.154-.627.39-.095.756-.083 1.051-.065a3.382 3.382 0 0 1 2.39 1.178c.14.158.283.392.402.6.133.232.284.516.444.83.321.626.692 1.394 1.042 2.136.188.4.372.793.539 1.154l.32-.653a.9.9 0 1 1 1.616.794l-1.159 2.359a.9.9 0 0 1-1.068.464l-2.841-.859a.9.9 0 0 1 .52-1.722l.936.282c-.154-.332-.32-.69-.491-1.051a75.404 75.404 0 0 0-1.016-2.084 19.183 19.183 0 0 0-.404-.755 5.007 5.007 0 0 0-.14-.233c-.034-.052-.05-.072-.05-.072-.379-.427-.781-.548-1.15-.57-.266-.017-.404-.011-.515.016zM6.996 8.746a.9.9 0 0 1-.241-1.25L7.5 8l.746.503a.9.9 0 0 1-1.25.243zm-.685.88a.9.9 0 0 1 1.056.7l.515 2.492a.9.9 0 1 1-1.763.364l-.06-.287c-.151.247-.31.506-.469.769-.42.695-.845 1.41-1.176 1.998-.166.294-.304.55-.406.753-.051.101-.09.183-.117.246-.025.057-.033.081-.033.081l.001-.003c-.217.81-.163 1.166-.08 1.311.124.213.381.434.94.584h.005c.02.003.097.015.259.025.178.012.407.02.675.024.535.008 1.19.003 1.832-.009a127.23 127.23 0 0 0 2.27-.062l.152-.006.052-.002.036.9.035.899-.056.002-.155.005a143.153 143.153 0 0 1-2.301.064c-.65.012-1.329.018-1.894.009a16.244 16.244 0 0 1-.762-.027 3.386 3.386 0 0 1-.614-.083c-.845-.227-1.593-.663-2.032-1.423-.478-.828-.326-1.834-.1-2.677a3.88 3.88 0 0 1 .278-.666c.12-.238.274-.522.446-.828.345-.614.781-1.347 1.206-2.048.196-.323.39-.64.573-.937l-.449.089a.9.9 0 0 1-.35-1.766l2.486-.492zM10 19.502l.035.9a.9.9 0 1 0-.071-1.799l.036.9zm8.506-8.255a.9.9 0 0 1 1.247.258l.03.046.085.13a146.133 146.133 0 0 1 1.235 1.93c.342.548.696 1.125.977 1.613.14.243.267.472.367.668.088.174.191.39.242.58.227.845.223 1.71-.215 2.47-.478.829-1.426 1.2-2.269 1.426a3.873 3.873 0 0 1-.716.092c-.266.015-.589.024-.94.028a77.386 77.386 0 0 1-2.377-.02c-.322-.008-.64-.015-.942-.024l.415.428a.9.9 0 1 1-1.291 1.254l-1.97-2.029a.9.9 0 0 1 .01-1.263l1.969-1.971a.9.9 0 1 1 1.273 1.272l-.505.506c.343.01.709.019 1.08.027.812.017 1.643.027 2.318.02.338-.004.63-.012.855-.025.114-.007.204-.014.272-.022.06-.007.085-.012.087-.012h-.004c.81-.216 1.092-.44 1.176-.586.123-.213.185-.547.036-1.106 0 .004 0 .002-.003-.005-.01-.021-.038-.09-.105-.223-.08-.157-.19-.356-.323-.587a52.68 52.68 0 0 0-.943-1.556 120.192 120.192 0 0 0-1.217-1.902l-.083-.127-.028-.043a.9.9 0 0 1 .257-1.247z" clip-rule="evenodd" style="fill: #990ae3;"/></svg>
