<?xml version="1.0" encoding="UTF-8"?>
<svg xmlns="http://www.w3.org/2000/svg" fill="none" viewBox="0 0 24 24"><path fill="#1E1E20" fill-rule="evenodd" d="M6.5 3.4a.1.1 0 0 0-.1.1v17a.1.1 0 0 0 .1.1h11a.1.1 0 0 0 .1-.1V7.914a.1.1 0 0 0-.03-.07l-4.414-4.415a.1.1 0 0 0-.07-.029H6.5zm-1.9.1c0-1.05.85-1.9 1.9-1.9h6.586c.504 0 .987.2 1.343.556l4.414 4.415a1.9 1.9 0 0 1 .557 1.343V20.5a1.9 1.9 0 0 1-1.9 1.9h-11a1.9 1.9 0 0 1-1.9-1.9v-17zm6.764 3.864a.9.9 0 0 1 1.272 0l2.5 2.5a.9.9 0 0 1 0 1.272l-2.5 2.5a.9.9 0 1 1-1.272-1.272l.963-.964H12a2.6 2.6 0 1 0 2.6 2.6.9.9 0 1 1 1.8 0A4.4 4.4 0 1 1 12 9.6h.327l-.963-.964a.9.9 0 0 1 0-1.272z" clip-rule="evenodd" style="fill: #990ae3;"/></svg>
