<?xml version="1.0" encoding="UTF-8"?>
<svg xmlns="http://www.w3.org/2000/svg" fill="none" viewBox="0 0 24 24"><path fill="#1E1E20" fill-rule="evenodd" d="M6.5 3.9A1.1 1.1 0 0 0 5.4 5v16.1H17a.6.6 0 0 0 .6-.6h1.8a2.4 2.4 0 0 1-2.4 2.4H4.5a.9.9 0 0 1-.9-.9V5a2.9 2.9 0 0 1 2.9-2.9h12a.9.9 0 0 1 .9.9v5.5a.9.9 0 0 1-1.8 0V3.9H6.5zm5 3a1.17 1.17 0 0 0-1.157 1.181c0 .318.122.603.32.814a1.14 1.14 0 0 0 1.675 0c.197-.211.319-.496.319-.814A1.17 1.17 0 0 0 11.5 6.9zM8.543 8.081C8.543 6.445 9.857 5.1 11.5 5.1c1.643 0 2.957 1.345 2.957 2.981a3 3 0 0 1-.145.923c.255.127.529.302.754.54.681.721 1.016 1.826.732 3.383a1.189 1.189 0 0 1-1.171.973H8.373a1.19 1.19 0 0 1-1.172-.975c-.164-.905-.124-1.664.089-2.295a2.875 2.875 0 0 1 1.39-1.652 3 3 0 0 1-.137-.897zm1.195 2.394c-.12.04-.249.1-.367.19a1.077 1.077 0 0 0-.375.539c-.068.201-.116.49-.088.896h5.184c.054-.786-.172-1.148-.334-1.32-.078-.082-.262-.188-.52-.277-.004 0-.007-.002-.01-.003a2.93 2.93 0 0 1-1.728.562 2.93 2.93 0 0 1-1.762-.587zm3.103-.08zm6.633-.295a.9.9 0 0 1 .662.264l2.5 2.5a.9.9 0 0 1 .037 1.234l-4 4.5a.9.9 0 0 1-.546.293l-3.5.5a.9.9 0 0 1-.98-1.176l1-3a.899.899 0 0 1 .18-.313l4-4.5a.9.9 0 0 1 .646-.302zm.064 2.211l-3.243 3.649-.48 1.443 1.731-.247 3.218-3.62-1.226-1.225zM7.1 17a.9.9 0 0 1 .9-.9h3.5a.9.9 0 0 1 0 1.8H8a.9.9 0 0 1-.9-.9z" clip-rule="evenodd" style="fill: #990ae3;"/></svg>
