<?xml version="1.0" encoding="UTF-8"?>
<svg xmlns="http://www.w3.org/2000/svg" fill="none" viewBox="0 0 24 24"><path fill="#1E1E20" fill-rule="evenodd" d="M15.613 2.349a.9.9 0 0 1 1.038-.736c1.564.267 2.98.707 4.022 1.643 1.079.97 1.631 2.347 1.726 4.198a.9.9 0 0 1-1.798.092c-.078-1.53-.51-2.393-1.13-2.95-.657-.59-1.655-.958-3.122-1.209a.9.9 0 0 1-.736-1.038zm.024 2.397a.9.9 0 0 1 1.117-.61c.808.238 1.495.535 2.034 1.071.541.538.841 1.225 1.077 2.044a.9.9 0 0 1-1.73.498c-.203-.705-.396-1.046-.616-1.266-.223-.22-.566-.412-1.273-.62a.9.9 0 0 1-.61-1.117zm-4.48 1.825a1.9 1.9 0 0 1 2.686 0l3.586 3.585a1.9 1.9 0 0 1 0 2.688l-7.793 7.792L9 20l.636.636-.001.002-.002.001-.003.004-.011.01-.02.02-.015.014-.12.11c-.103.09-.248.213-.43.35-.359.272-.88.616-1.504.873-.624.256-1.39.443-2.216.351-.845-.094-1.688-.472-2.45-1.235-.764-.763-1.141-1.606-1.235-2.45-.092-.827.094-1.592.351-2.216.257-.625.6-1.145.872-1.505a7.118 7.118 0 0 1 .494-.584l.01-.01.005-.005.001-.001s.001-.001.638.635l-.637-.636 7.793-7.793zM8.363 19.363l.001-.002 7.791-7.79a.1.1 0 0 0 0-.142L12.57 7.843a.1.1 0 0 0-.141 0l-7.79 7.791-.002.001v.001l-.017.017c-.015.016-.04.042-.071.078-.064.072-.156.18-.261.32a5.094 5.094 0 0 0-.643 1.104c-.181.439-.276.893-.227 1.332.047.42.231.89.718 1.377.487.486.956.671 1.377.718.439.049.893-.046 1.331-.227.438-.18.824-.43 1.105-.643a5.35 5.35 0 0 0 .398-.333l.016-.015.001-.001zm2.939-8.56a1.4 1.4 0 1 1 1.98 1.98 1.4 1.4 0 0 1-1.98-1.98zm-1.94 2.06a.9.9 0 0 1 1.273 0l.5.5a.9.9 0 1 1-1.272 1.273l-.5-.5a.9.9 0 0 1 0-1.272z" clip-rule="evenodd" style="fill: #990ae3;"/></svg>
