<?xml version="1.0" encoding="UTF-8"?>
<svg xmlns="http://www.w3.org/2000/svg" fill="none" viewBox="0 0 24 24"><path fill="#1E1E20" fill-rule="evenodd" d="M19.482 2.024c.247.218.574.68.368 1.271a.9.9 0 0 1-.213.341L16.144 7.13a.84.84 0 0 0-.165.28.345.345 0 0 0-.018.18c.008.041.037.136.176.275.138.138.233.167.274.175.048.01.105.007.18-.018a.842.842 0 0 0 .28-.165l3.49-3.489c.196-.2.487-.33.818-.297.284.028.485.168.593.258.214.18.362.425.46.619.214.421.395 1.008.498 1.664.243 1.548.091 3.828-1.591 5.523-1.52 1.532-3.305 1.823-4.661 1.737a7.428 7.428 0 0 1-1.749-.327l-1.593 1.592a.9.9 0 0 1-1.272-1.272l2.445-2.446.568.265s.001 0 0 0l.018.007a4.805 4.805 0 0 0 .44.157c.313.094.752.196 1.256.228 1 .063 2.216-.146 3.27-1.209 1.12-1.128 1.287-2.726 1.09-3.977a5.32 5.32 0 0 0-.095-.472l-2.72 2.72c-.032.032-.402.4-.976.592-.301.1-.681.16-1.102.075-.428-.085-.833-.306-1.194-.668-.362-.36-.583-.766-.668-1.194a2.14 2.14 0 0 1 .075-1.102c.192-.574.56-.944.593-.976l2.696-2.697a6.526 6.526 0 0 0-.964-.081c-1.328-.02-2.719.31-3.46 1.05-.74.741-.986 1.934-.986 3.114a9.73 9.73 0 0 0 .217 2.003l.006.025v.004c0 .001 0 .001 0 0l.124.494-8.84 8.84a1.907 1.907 0 0 0-.357.671c-.08.296-.084.656.337 1.076.42.422.78.417 1.076.337.34-.092.609-.304.671-.357l3.98-3.98a.9.9 0 0 1 1.272 1.273L6.65 21.623a1.495 1.495 0 0 1-.069.065 3.69 3.69 0 0 1-1.396.75c-.818.221-1.875.144-2.821-.801-.946-.946-1.023-2.003-.801-2.821a3.69 3.69 0 0 1 .75-1.397c.026-.03.05-.054.064-.069l8.146-8.145a11.776 11.776 0 0 1-.173-1.955c0-1.32.255-3.127 1.514-4.386 1.259-1.26 3.263-1.6 4.758-1.578.769.01 1.501.118 2.055.305.265.09.567.223.805.433zm2.168 3.598a2.976 2.976 0 0 1-.01.012l.01-.012z" clip-rule="evenodd" style="fill: #990ae3;"/></svg>
