<?xml version="1.0" encoding="UTF-8"?>
<svg xmlns="http://www.w3.org/2000/svg" fill="none" viewBox="0 0 24 24"><path fill="#1E1E20" fill-rule="evenodd" d="M4.1 2.5a.9.9 0 0 1 .9-.9h9a.9.9 0 0 1 .666.295l5 5.5A.9.9 0 0 1 19.9 8v13.5a.9.9 0 0 1-.9.9H5a.9.9 0 0 1-.9-.9v-19zm1.8.9v17.2h12.2V8.9H14a.9.9 0 0 1-.9-.9V3.4H5.9zm9 1.428L16.965 7.1H14.9V4.828zM8.5 8.6a.9.9 0 0 1 .9.9v7.6h6.1a.9.9 0 0 1 0 1.8h-7a.9.9 0 0 1-.9-.9V9.5a.9.9 0 0 1 .9-.9zm7.463 2.128a.9.9 0 0 1 .309 1.235l-1.5 2.5a.9.9 0 0 1-1.408.173l-.767-.766-.877 1.17a.9.9 0 0 1-1.44-1.08l1.5-2a.9.9 0 0 1 1.356-.096l.685.684.907-1.511a.9.9 0 0 1 1.235-.309z" clip-rule="evenodd" style="fill: #990ae3;"/></svg>
