<?xml version="1.0" encoding="UTF-8"?>
<svg xmlns="http://www.w3.org/2000/svg" fill="none" viewBox="0 0 24 24"><path fill="#1E1E20" d="M5.5 5a.5.5 0 1 1-1 0 .5.5 0 0 1 1 0zM3 11.5a.5.5 0 1 1-1 0 .5.5 0 0 1 1 0zM5.5 18.5a.5.5 0 1 1-1 0 .5.5 0 0 1 1 0zM12.5 21.5a.5.5 0 1 1-1 0 .5.5 0 0 1 1 0zM19 18.5a.5.5 0 1 1-1 0 .5.5 0 0 1 1 0z" style="fill: #990ae3;"/><path fill="#1E1E20" fill-rule="evenodd" d="M12.1 2a.9.9 0 0 1 .9-.9c5.468 0 9.9 4.432 9.9 9.9a.9.9 0 0 1-1.8 0A8.1 8.1 0 0 0 13 2.9a.9.9 0 0 1-.9-.9zM5 5.4a.4.4 0 1 0 0-.8.4.4 0 0 0 0 .8zM3.6 5a1.4 1.4 0 1 1 2.8 0 1.4 1.4 0 0 1-2.8 0zM12 8.1a.9.9 0 0 1 .9.9v2.6h5.6a.9.9 0 0 1 0 1.8H12a.9.9 0 0 1-.9-.9V9a.9.9 0 0 1 .9-.9zm-9.5 3.8a.4.4 0 1 0 0-.8.4.4 0 0 0 0 .8zm-1.4-.4a1.4 1.4 0 1 1 2.8 0 1.4 1.4 0 0 1-2.8 0zM5 18.9a.4.4 0 1 0 0-.8.4.4 0 0 0 0 .8zm-1.4-.4a1.4 1.4 0 1 1 2.8 0 1.4 1.4 0 0 1-2.8 0zm14.9.4a.4.4 0 1 0 0-.8.4.4 0 0 0 0 .8zm-1.4-.4a1.4 1.4 0 1 1 2.8 0 1.4 1.4 0 0 1-2.8 0zM12 21.9a.4.4 0 1 0 0-.8.4.4 0 0 0 0 .8zm-1.4-.4a1.4 1.4 0 1 1 2.8 0 1.4 1.4 0 0 1-2.8 0z" clip-rule="evenodd" style="fill: #990ae3;"/></svg>
