<?xml version="1.0" encoding="UTF-8"?>
<svg xmlns="http://www.w3.org/2000/svg" fill="none" viewBox="0 0 24 24"><path fill="#1E1E20" fill-rule="evenodd" d="M12.864 3.864a.9.9 0 0 1 1.272 0l3 3a.9.9 0 0 1 0 1.272l-3 3a.9.9 0 0 1-1.272-1.272L14.327 8.4H7c-1.361 0-2.217.34-2.739.861C3.74 9.783 3.4 10.64 3.4 12a.9.9 0 0 1-1.8 0c0-1.639.41-3.033 1.389-4.011C3.967 7.01 5.36 6.6 7 6.6h7.327l-1.463-1.464a.9.9 0 0 1 0-1.272zM21.5 11.1a.9.9 0 0 1 .9.9c0 1.639-.41 3.033-1.389 4.011C20.033 16.99 18.64 17.4 17 17.4H9.673l1.463 1.464a.9.9 0 0 1-1.272 1.272l-3-3a.9.9 0 0 1 0-1.272l3-3a.9.9 0 1 1 1.272 1.272L9.673 15.6H17c1.361 0 2.217-.34 2.739-.861.521-.522.861-1.378.861-2.739a.9.9 0 0 1 .9-.9z" clip-rule="evenodd" style="fill: #990ae3;"/></svg>
