<?xml version="1.0" encoding="UTF-8"?>
<svg xmlns="http://www.w3.org/2000/svg" fill="none" viewBox="0 0 24 24"><path fill="#1E1E20" fill-rule="evenodd" d="M15.424 4.468c-.32.33-.524.828-.524 1.48 0 .658.361 1.447.96 2.296.36.51.762.983 1.14 1.41.378-.427.78-.9 1.14-1.41.599-.849.96-1.638.96-2.297 0-.651-.205-1.15-.524-1.48C18.263 4.145 17.76 3.9 17 3.9c-.76 0-1.263.244-1.576.568zM14.13 3.216C14.834 2.488 15.832 2.1 17 2.1c1.168 0 2.166.388 2.87 1.116.7.723 1.03 1.699 1.03 2.731 0 1.237-.639 2.412-1.29 3.335-.552.784-1.2 1.5-1.676 2.026l-.262.29a.9.9 0 0 1-1.344 0l-.262-.29c-.475-.526-1.124-1.242-1.676-2.026-.651-.923-1.29-2.098-1.29-3.335 0-1.032.33-2.008 1.03-2.73zM17 4.6a.9.9 0 0 1 .9.9V6a.9.9 0 0 1-1.8 0v-.5a.9.9 0 0 1 .9-.9zM5.424 11.468c-.32.33-.524.828-.524 1.48 0 .658.361 1.447.96 2.296.36.51.762.983 1.14 1.41.378-.427.78-.9 1.14-1.41.599-.849.96-1.638.96-2.297 0-.651-.205-1.15-.524-1.48C8.263 11.145 7.76 10.9 7 10.9c-.76 0-1.263.244-1.576.568zM4.13 10.216C4.834 9.489 5.832 9.1 7 9.1c1.168 0 2.166.388 2.87 1.117.7.722 1.03 1.698 1.03 2.73 0 1.237-.639 2.412-1.29 3.335-.552.784-1.2 1.5-1.676 2.026l-.262.29a.9.9 0 0 1-1.344 0l-.262-.29c-.475-.526-1.124-1.242-1.676-2.026-.651-.923-1.29-2.098-1.29-3.335 0-1.032.33-2.008 1.03-2.73zM7 11.6a.9.9 0 0 1 .9.9v.5a.9.9 0 0 1-1.8 0v-.5a.9.9 0 0 1 .9-.9zm7.874 3.8a1.1 1.1 0 0 0-1.027.705l-1.514 3.936A2.9 2.9 0 0 1 9.626 21.9H4a.9.9 0 0 1 0-1.8h5.626a1.1 1.1 0 0 0 1.027-.705l1.514-3.936a2.9 2.9 0 0 1 2.707-1.859H20a.9.9 0 0 1 0 1.8h-5.126z" clip-rule="evenodd" style="fill: #990ae3;"/></svg>
