<?xml version="1.0" encoding="UTF-8"?>
<svg xmlns="http://www.w3.org/2000/svg" fill="none" viewBox="0 0 24 24"><path fill="#1E1E20" fill-rule="evenodd" d="M18.506 6.707a9.1 9.1 0 0 0-12.87 0 .9.9 0 0 1-1.272-1.272c4.256-4.257 11.158-4.257 15.415 0a.9.9 0 1 1-1.273 1.272zM15.435 9.78a4.757 4.757 0 0 0-6.727 0 .9.9 0 0 1-1.273-1.273 6.557 6.557 0 0 1 9.273 0 .9.9 0 0 1-1.273 1.273zM4.5 13.9A1.1 1.1 0 0 0 3.4 15v3a1.1 1.1 0 0 0 1.1 1.1h15a1.1 1.1 0 0 0 1.1-1.1v-3a1.1 1.1 0 0 0-1.1-1.1h-15zM1.6 15a2.9 2.9 0 0 1 2.9-2.9h15a2.9 2.9 0 0 1 2.9 2.9v3a2.9 2.9 0 0 1-2.9 2.9h-15A2.9 2.9 0 0 1 1.6 18v-3zm3.5 1.5a.9.9 0 0 1 .9-.9h6a.9.9 0 0 1 0 1.8H6a.9.9 0 0 1-.9-.9zm10.5 0a.9.9 0 0 1 .9-.9H18a.9.9 0 0 1 0 1.8h-1.5a.9.9 0 0 1-.9-.9z" clip-rule="evenodd" style="fill: #990ae3;"/></svg>
