<?xml version="1.0" encoding="UTF-8"?>
<svg xmlns="http://www.w3.org/2000/svg" fill="none" viewBox="0 0 24 24"><path fill="#1E1E20" fill-rule="evenodd" d="M7.157 2.07a1.9 1.9 0 0 1 2.687 0L8.57 3.345m0 0a.1.1 0 0 0-.142 0L6.343 5.429a.1.1 0 0 0 0 .142l1.293 1.293a.9.9 0 1 1-1.272 1.272L5.07 6.844a1.9 1.9 0 0 1 0-2.687L7.157 2.07m2.687 0l1.292 1.293a.9.9 0 1 1-1.272 1.272L8.57 3.344m4.085.227a1.9 1.9 0 0 1 2.688 0l5.085 5.085a1.9 1.9 0 0 1 0 2.688l-4.336 4.335a1.9 1.9 0 0 1-2.686.001l-.09-.09c-.015.151-.036.296-.06.435a7.978 7.978 0 0 1-.703 2.13l-.006.011-.002.004-.001.002s-.001.001-.795-.422l.794.423a.9.9 0 0 1-1.43.213L9 16.273l-.364.363a.9.9 0 1 1-1.273-1.272L7.727 15l-2.114-2.114a.9.9 0 0 1 .282-1.463l.355.827-.355-.827h.001l.002-.001.004-.002.011-.005.038-.015a9.123 9.123 0 0 1 .6-.214c.387-.124.93-.271 1.54-.358.132-.02.271-.036.415-.048l-.186-.187a1.9 1.9 0 0 1 0-2.687l4.336-4.335zM7.95 12.678l3.446 3.445a5.54 5.54 0 0 0 .087-.408c.164-.936.073-1.886-.62-2.579-.56-.56-1.493-.673-2.517-.526-.136.02-.268.042-.396.068zm6.12-7.835a.1.1 0 0 0-.14 0L9.592 9.18a.1.1 0 0 0 0 .141l5.087 5.087c.038.038.1.04.14 0l4.337-4.336a.1.1 0 0 0 0-.142L14.07 4.843zm5.794 7.52a.9.9 0 0 1 1.272 0l1.293 1.293a1.9 1.9 0 0 1 0 2.687l-2.085 2.086a1.9 1.9 0 0 1-2.688 0l-1.292-1.293a.9.9 0 1 1 1.272-1.272l1.293 1.293a.1.1 0 0 0 .142 0l2.085-2.086a.1.1 0 0 0 0-.142l-1.292-1.293a.9.9 0 0 1 0-1.272zM4.715 15.147a.9.9 0 0 1 1.139.57c.235.706.431 1.046.657 1.273.227.226.567.422 1.274.657a.9.9 0 0 1-.57 1.708c-.793-.265-1.453-.569-1.976-1.093-.524-.523-.828-1.183-1.093-1.976a.9.9 0 0 1 .57-1.139zm-2.265.955a.9.9 0 0 1 .949.849c.055.987.538 1.898 1.25 2.575.718.683 1.6 1.063 2.365 1.075a.9.9 0 0 1-.028 1.8c-1.3-.02-2.598-.638-3.578-1.571-.988-.94-1.722-2.263-1.807-3.779a.9.9 0 0 1 .849-.949z" clip-rule="evenodd" style="fill: #990ae3;"/></svg>
