<?xml version="1.0" encoding="UTF-8"?>
<svg xmlns="http://www.w3.org/2000/svg" fill="none" viewBox="0 0 24 24"><path fill="#1E1E20" fill-rule="evenodd" d="M12 3.9a2.6 2.6 0 1 0 0 5.2 2.6 2.6 0 0 0 0-5.2zm3.549 5.201c.2-.273.37-.57.504-.885l2.282-1.427-.226 1.584a.9.9 0 0 0 .1.557c.455.836.669 1.302.918 2.29.101.4.46.68.873.68h1.1v1.7H20a.9.9 0 0 0-.798.484c-.42.807-.775 1.34-1.215 1.786-.441.447-1.01.85-1.914 1.338A.9.9 0 0 0 15.6 18v1.6h-1.2v-1.1a.9.9 0 0 0-1.04-.889c-1.052.166-1.65.17-2.718 0A.9.9 0 0 0 9.6 18.5v1.1H8.4V18a.9.9 0 0 0-1.257-.826 1.09 1.09 0 0 1-.227-.11c-.293-.178-.67-.517-1.055-1.002-.772-.975-1.407-2.332-1.462-3.6a.901.901 0 0 0-.011-.11c-.13-.779.21-1.771.974-2.686.673-.807 1.58-1.433 2.487-1.702.145.41.35.793.602 1.137A.9.9 0 0 0 8.5 10.9h7a.9.9 0 0 0 .049-1.799zM7.613 6.164a4.4 4.4 0 0 1 8.747-.263l2.663-1.664a.9.9 0 0 1 1.368.89l-.458 3.207c.32.604.544 1.096.75 1.766H22a.9.9 0 0 1 .9.9v3.5a.9.9 0 0 1-.9.9h-1.464c-.376.665-.767 1.226-1.267 1.733-.513.521-1.113.957-1.869 1.395V20.5a.9.9 0 0 1-.9.9h-3a.9.9 0 0 1-.9-.9v-.985c-.407.03-.789.03-1.2 0v.985a.9.9 0 0 1-.9.9h-3a.9.9 0 0 1-.9-.9v-1.612a2.911 2.911 0 0 1-.614-.284c-.534-.322-1.067-.832-1.536-1.424-.78-.985-1.494-2.34-1.753-3.78H2a.9.9 0 0 1 0-1.8h.58c.112-1.127.67-2.213 1.4-3.088.92-1.1 2.224-2.007 3.633-2.348zm-.429 11.019l-.01-.001h.01z" clip-rule="evenodd" style="fill: #990ae3;"/></svg>
