<?xml version="1.0" encoding="UTF-8"?>
<svg xmlns="http://www.w3.org/2000/svg" fill="none" viewBox="0 0 24 24"><path fill="#1E1E20" fill-rule="evenodd" d="M5.733 2.528a.9.9 0 0 1 1.18-.328l15.08 7.769a1.9 1.9 0 0 1 .27 3.209l-.19.143c.056.206.108.45.135.715.08.807-.077 1.958-1.209 2.713-1.167.778-2.269.61-3.034.231a3.577 3.577 0 0 1-.518-.315l-.881.66a1.9 1.9 0 0 1-2.083.13l-6.437-3.678-6-3.5a.9.9 0 0 1-.313-1.249l4-6.5zm13.345 12.95c.256.052.558.016.923-.227.279-.186.4-.432.422-.733l-1.345.96zm1.39-3.204l.715-.536a.1.1 0 0 0-.014-.169L6.829 4.182 3.75 9.187 8.95 12.22l6.426 3.672a.1.1 0 0 0 .11-.007l1.482-1.112 3.5-2.5zm-2.27 2.657zM2.5 14.6a.9.9 0 0 1 .9.9v2.1h4.2V16a.9.9 0 0 1 1.8 0v2.5a.9.9 0 0 1-.9.9H3.4v2.1a.9.9 0 1 1-1.8 0v-6a.9.9 0 0 1 .9-.9z" clip-rule="evenodd" style="fill: #990ae3;"/></svg>
