<?xml version="1.0" encoding="UTF-8"?>
<svg xmlns="http://www.w3.org/2000/svg" fill="none" viewBox="0 0 24 24"><path fill="#1E1E20" fill-rule="evenodd" d="M11.598 1.695a.9.9 0 0 1 .805 0c2.95 1.476 5.355 2.433 8.724 2.914a.9.9 0 0 1 .773.891c0 4.068-.177 7.277-1.078 9.808-.928 2.61-2.604 4.451-5.426 5.834a.9.9 0 1 1-.792-1.616c2.443-1.198 3.767-2.697 4.522-4.821.734-2.062.947-4.75.972-8.435-3.08-.525-5.438-1.457-8.096-2.765-2.622 1.308-4.628 2.254-8.1 2.78.03 4.338.325 7.281 1.403 9.438 1.098 2.194 3.085 3.706 6.963 4.918a.9.9 0 1 1-.536 1.718c-4.122-1.288-6.634-3.026-8.037-5.832C2.337 13.811 2.1 10.227 2.1 5.5a.9.9 0 0 1 .788-.893c3.843-.48 5.731-1.423 8.71-2.912zm4.925 6.573a.9.9 0 0 1 .21 1.255l-5 7a.9.9 0 0 1-1.37.113l-3-3a.9.9 0 0 1 1.273-1.272l2.25 2.248 4.382-6.135a.9.9 0 0 1 1.255-.21z" clip-rule="evenodd" style="fill: #990ae3;"/></svg>
