<?xml version="1.0" encoding="UTF-8"?>
<svg xmlns="http://www.w3.org/2000/svg" fill="none" viewBox="0 0 24 24"><path fill="#1E1E20" fill-rule="evenodd" d="M11.598 1.695a.9.9 0 0 1 .804 0c2.952 1.476 5.356 2.433 8.725 2.914a.9.9 0 0 1 .773.891c0 4.068-.178 7.277-1.078 9.808-.929 2.61-2.605 4.451-5.426 5.834a.9.9 0 1 1-.792-1.616c2.442-1.198 3.766-2.697 4.522-4.821.734-2.062.947-4.75.972-8.435-3.08-.525-5.438-1.457-8.097-2.765C9.38 4.813 7.374 5.76 3.903 6.285c.03 4.338.324 7.281 1.402 9.438 1.097 2.194 3.085 3.706 6.963 4.918a.9.9 0 1 1-.537 1.718c-4.12-1.288-6.633-3.026-8.036-5.832C2.337 13.811 2.1 10.227 2.1 5.5a.9.9 0 0 1 .788-.893c3.843-.48 5.731-1.423 8.71-2.912zM12 6.1a.9.9 0 0 1 .9.9v4.1H17a.9.9 0 0 1 0 1.8h-4.1V17a.9.9 0 0 1-1.8 0v-4.1H7a.9.9 0 1 1 0-1.8h4.1V7a.9.9 0 0 1 .9-.9z" clip-rule="evenodd" style="fill: #990ae3;"/></svg>
