<?xml version="1.0" encoding="UTF-8"?>
<svg xmlns="http://www.w3.org/2000/svg" fill="none" viewBox="0 0 24 24"><path fill="#1E1E20" fill-rule="evenodd" d="M6 2.9a.1.1 0 0 0-.1.1v17.5a.1.1 0 0 0 .1.1h9a.1.1 0 0 0 .1-.1v-4.16a.9.9 0 1 1 1.8 0v4.16a1.9 1.9 0 0 1-1.9 1.9H6a1.9 1.9 0 0 1-1.9-1.9V3c0-1.05.85-1.9 1.9-1.9h4.5a.9.9 0 0 1 0 1.8H6zm6.83 1.43c-.25.254-.43.65-.43 1.214v1.59a.9.9 0 0 1-.9.9h-.6V12.1h6.2V8.033h-2.798a.9.9 0 0 1 0-1.8h1.304v-.69c0-.562-.181-.96-.43-1.212-.248-.252-.631-.431-1.173-.431s-.926.18-1.173.43zm4.576 1.903v-.69c0-.963-.32-1.837-.947-2.475-.629-.639-1.496-.968-2.456-.968s-1.828.33-2.456.968c-.628.638-.947 1.512-.947 2.476v.69H10a.9.9 0 0 0-.9.9V13a.9.9 0 0 0 .9.9h8a.9.9 0 0 0 .9-.9V7.133a.9.9 0 0 0-.9-.9h-.594zm-3.4 2.367a.9.9 0 0 1 .897.902l-.003 1a.9.9 0 0 1-1.8-.004l.003-1a.9.9 0 0 1 .902-.898zM9.1 19a.9.9 0 0 1 .9-.9h1a.9.9 0 0 1 0 1.8h-1a.9.9 0 0 1-.9-.9z" clip-rule="evenodd" style="fill: #990ae3;"/></svg>
