<?xml version="1.0" encoding="UTF-8"?>
<svg xmlns="http://www.w3.org/2000/svg" fill="none" viewBox="0 0 24 24"><path fill="#1E1E20" fill-rule="evenodd" d="M16.913 4.458c-.827-.484-1.956-.676-3.858-.56a.9.9 0 1 1-.11-1.796c2.018-.124 3.585.046 4.877.803 1.293.757 2.16 2.015 2.986 3.699a.9.9 0 1 1-1.616.792c-.78-1.592-1.454-2.454-2.28-2.938zm-1.286 1.01c.661.323 1.153.848 1.616 1.524a.9.9 0 0 1-1.486 1.016c-.378-.552-.655-.793-.919-.922-.27-.132-.64-.201-1.318-.186a.9.9 0 0 1-.04-1.8c.783-.017 1.493.05 2.147.368zM6.659 10.9a.1.1 0 0 0-.092.06l-.98 2.288A1.9 1.9 0 0 1 3.841 14.4H3a.1.1 0 0 0-.1.1V17c0 .087.022.135.093.198.096.087.267.178.516.253a3.777 3.777 0 0 0 .77.137 2.4 2.4 0 0 1 4.447.012h6.548a2.4 2.4 0 0 1 4.452 0h.774a.1.1 0 0 0 .1-.1v-1.71a1.1 1.1 0 0 0-.979-1.093l-2.372-.264a1.9 1.9 0 0 1-1.133-.545l-2.96-2.959a.1.1 0 0 0-.07-.029H6.659zm13.067 8.5h.774a1.9 1.9 0 0 0 1.9-1.9v-1.71a2.9 2.9 0 0 0-2.58-2.882l-2.372-.264a.1.1 0 0 1-.06-.028l-2.959-2.96a1.9 1.9 0 0 0-1.343-.556H6.659a1.9 1.9 0 0 0-1.746 1.152l-.98 2.287a.1.1 0 0 1-.092.061H3a1.9 1.9 0 0 0-1.9 1.9V17c0 .663.29 1.177.689 1.536.372.336.826.526 1.202.639a5.577 5.577 0 0 0 1.28.217 2.4 2.4 0 0 0 4.455.008h6.548a2.4 2.4 0 0 0 4.452 0zM6.5 17.9a.6.6 0 1 0 0 1.2.6.6 0 0 0 0-1.2zm11 0a.6.6 0 1 0 0 1.2.6.6 0 0 0 0-1.2z" clip-rule="evenodd" style="fill: #990ae3;"/></svg>
