<?xml version="1.0" encoding="UTF-8"?>
<svg xmlns="http://www.w3.org/2000/svg" fill="none" viewBox="0 0 24 24"><path fill="#1E1E20" fill-rule="evenodd" d="M3.1 3c0-1.05.85-1.9 1.9-1.9h9c1.05 0 1.9.85 1.9 1.9v1a.9.9 0 0 1-1.8 0V3a.1.1 0 0 0-.1-.1H5a.1.1 0 0 0-.1.1v17.5a.1.1 0 0 0 .1.1h9a.1.1 0 0 0 .1-.1V20a.9.9 0 1 1 1.8 0v.5a1.9 1.9 0 0 1-1.9 1.9H5a1.9 1.9 0 0 1-1.9-1.9V3zm7.566 2.132c1.191-.122 2.837.071 4.09 1.309 1.228 1.212 1.46 2.638 1.393 3.714a5.844 5.844 0 0 1-.222 1.253l5.191 5.159m.07.073c.093.106.454.541.618 1.162.181.685.103 1.563-.674 2.336-.776.772-1.656.848-2.34.669a3.035 3.035 0 0 1-1.164-.614 1.375 1.375 0 0 1-.072-.068l-5.258-5.224a9.078 9.078 0 0 1-1.424.116c-1.025 0-2.479-.194-3.503-1.213-1.025-1.02-1.287-2.618-1.27-3.776.008-.6.092-1.182.245-1.63a2.01 2.01 0 0 1 .374-.686c.197-.223.633-.535 1.197-.34l.195.067 2.812 2.796a.432.432 0 0 0 .137.08.113.113 0 0 0 .032.008.313.313 0 0 0 .102-.077.401.401 0 0 0 .074-.096.424.424 0 0 0-.085-.16L8.522 7.343a.977.977 0 0 1-.28-.88c.051-.277.206-.462.291-.55.179-.185.41-.31.592-.393.397-.18.941-.327 1.541-.388m.428 5.19zm1.284 2.731l.491-.122 5.946 5.909c.05.04.224.17.433.225.101.027.19.03.272.011.075-.018.193-.065.343-.214.15-.15.196-.265.213-.337a.536.536 0 0 0-.01-.264 1.228 1.228 0 0 0-.225-.427l-6.036-5.997.267-.57.004-.009.024-.058a4.042 4.042 0 0 0 .253-1.16c.045-.715-.105-1.571-.861-2.318-.731-.722-1.753-.89-2.642-.8a4.24 4.24 0 0 0-.176.022l1.792 1.783.004.004.007.007.017.017.046.051a2.218 2.218 0 0 1 .43.747c.086.256.138.585.065.95a1.988 1.988 0 0 1-.57 1.02c-.304.3-.65.491-1.021.565-.365.073-.693.02-.95-.064a2.231 2.231 0 0 1-.798-.472l-.018-.017-.007-.007a.046.046 0 0 1-.003-.003l-.003-.002-1.753-1.745c-.006.088-.01.18-.011.276-.015.989.235 1.973.74 2.474.505.503 1.346.689 2.233.689a7.27 7.27 0 0 0 1.485-.16l.018-.004h.001zM8.1 19a.9.9 0 0 1 .9-.9h1a.9.9 0 1 1 0 1.8H9a.9.9 0 0 1-.9-.9z" clip-rule="evenodd" style="fill: #990ae3;"/></svg>
