<?xml version="1.0" encoding="UTF-8"?>
<svg xmlns="http://www.w3.org/2000/svg" fill="none" viewBox="0 0 24 24"><path fill="#1E1E20" fill-rule="evenodd" d="M2.6 4c0-1.05.85-1.9 1.9-1.9h15c1.05 0 1.9.85 1.9 1.9v16a1.9 1.9 0 0 1-1.9 1.9h-15A1.9 1.9 0 0 1 2.6 20V4zm1.9-.1a.1.1 0 0 0-.1.1v4.1h15.2V4a.1.1 0 0 0-.1-.1h-15zm15.1 6H4.4v4.2h15.2V9.9zm0 6H4.4V20a.1.1 0 0 0 .1.1h15a.1.1 0 0 0 .1-.1v-4.1zM6.1 6a.9.9 0 0 1 .9-.9h2.5a.9.9 0 0 1 0 1.8H7a.9.9 0 0 1-.9-.9zm0 6a.9.9 0 0 1 .9-.9h2.5a.9.9 0 1 1 0 1.8H7a.9.9 0 0 1-.9-.9zm0 6a.9.9 0 0 1 .9-.9h2.5a.9.9 0 1 1 0 1.8H7a.9.9 0 0 1-.9-.9z" clip-rule="evenodd" style="fill: #990ae3;"/></svg>
