<?xml version="1.0" encoding="UTF-8"?>
<svg xmlns="http://www.w3.org/2000/svg" fill="none" viewBox="0 0 24 24"><path fill="#1E1E20" fill-rule="evenodd" d="M3.6 3.5c0-1.05.85-1.9 1.9-1.9h9c1.05 0 1.9.85 1.9 1.9v1a.9.9 0 0 1-1.8 0v-1a.1.1 0 0 0-.1-.1h-9a.1.1 0 0 0-.1.1V21a.1.1 0 0 0 .1.1h9a.1.1 0 0 0 .1-.1v-4.16a.9.9 0 1 1 1.8 0V21a1.9 1.9 0 0 1-1.9 1.9h-9A1.9 1.9 0 0 1 3.6 21V3.5zm5.373 6.576a5.817 5.817 0 0 1 .913-1.19c.75-.748 1.907-1.486 3.614-1.486 1.707 0 2.865.738 3.614 1.486a5.82 5.82 0 0 1 .913 1.19 5.136 5.136 0 0 1-.788 1.357c-.67.824-1.801 1.667-3.739 1.667s-3.07-.843-3.739-1.668a5.136 5.136 0 0 1-.788-1.356zM19 10c.873.218.873.219.873.22l-.001.003-.002.005-.004.017a2.671 2.671 0 0 1-.063.21 6.935 6.935 0 0 1-1.167 2.113C17.68 13.743 16.062 14.9 13.5 14.9c-2.562 0-4.18-1.157-5.136-2.332a6.933 6.933 0 0 1-1.167-2.114 4.357 4.357 0 0 1-.063-.21l-.005-.015-.001-.006v-.003c-.001-.001-.001-.002.872-.22l-.827-.355.001-.003.003-.005.006-.014a2.815 2.815 0 0 1 .088-.182 6.47 6.47 0 0 1 .26-.462 7.617 7.617 0 0 1 1.083-1.365c1-1.002 2.593-2.014 4.886-2.014s3.885 1.012 4.886 2.014c.497.497.851.992 1.082 1.365a6.474 6.474 0 0 1 .35.644l.005.014.003.005v.002s.001.001-.826.356zm0 0l.827-.355c.078.181.094.383.046.574L19 10zm-5.75-.1a.35.35 0 1 0 0 .7.35.35 0 0 0 0-.7zm4.924.457v.001zM11.1 10.25a2.15 2.15 0 1 1 4.3 0 2.15 2.15 0 0 1-4.3 0zm-3.927-.605L8 10l-.873.22a.905.905 0 0 1 .046-.575zM8.6 19.5a.9.9 0 0 1 .9-.9h1a.9.9 0 1 1 0 1.8h-1a.9.9 0 0 1-.9-.9z" clip-rule="evenodd" style="fill: #990ae3;"/></svg>
