<?xml version="1.0" encoding="UTF-8"?>
<svg xmlns="http://www.w3.org/2000/svg" fill="none" viewBox="0 0 24 24"><path fill="#1E1E20" fill-rule="evenodd" d="M8.846 3.245c0-1.05.85-1.9 1.9-1.9h2.509c1.049 0 1.9.85 1.9 1.9v1.011c.712.29 1.374.676 1.972 1.14l.877-.506a1.9 1.9 0 0 1 2.595.696l1.255 2.172a1.9 1.9 0 0 1-.696 2.596l-.877.506a8.43 8.43 0 0 1 0 2.278l.877.506a1.9 1.9 0 0 1 .695 2.596L20.6 18.412a1.9 1.9 0 0 1-2.596.696l-.877-.507c-.597.465-1.26.85-1.971 1.14v1.012a1.9 1.9 0 0 1-1.9 1.9h-2.51a1.9 1.9 0 0 1-1.9-1.9v-1.01A8.352 8.352 0 0 1 6.874 18.6l-.877.507a1.9 1.9 0 0 1-2.595-.696L2.146 16.24a1.9 1.9 0 0 1 .696-2.596l.876-.506a8.425 8.425 0 0 1 0-2.278l-.877-.506a1.9 1.9 0 0 1-.695-2.596L3.4 5.586a1.9 1.9 0 0 1 2.596-.696l.877.507a8.351 8.351 0 0 1 1.973-1.141V3.245zm1.9-.1a.1.1 0 0 0-.1.1v2.3l-.629.2a6.551 6.551 0 0 0-2.44 1.41L7.09 7.6 5.096 6.45a.1.1 0 0 0-.137.037L3.705 8.658a.1.1 0 0 0 .036.137l1.992 1.15-.14.643a6.586 6.586 0 0 0 0 2.822l.14.643-1.991 1.15a.1.1 0 0 0-.037.136l1.254 2.173a.1.1 0 0 0 .137.037l1.994-1.151.487.444a6.552 6.552 0 0 0 2.44 1.411l.629.2v2.3a.1.1 0 0 0 .1.1h2.509a.1.1 0 0 0 .1-.1v-2.301l.628-.2a6.551 6.551 0 0 0 2.44-1.41l.486-.445 1.995 1.152a.1.1 0 0 0 .136-.037l1.255-2.172a.1.1 0 0 0-.037-.137l-1.992-1.15.14-.643a6.585 6.585 0 0 0 0-2.822l-.14-.643 1.992-1.15a.1.1 0 0 0 .037-.137l-1.254-2.172a.1.1 0 0 0-.137-.037l-1.995 1.152-.486-.445a6.551 6.551 0 0 0-2.44-1.411l-.628-.2v-2.3a.1.1 0 0 0-.1-.1h-2.51zM12 9.9a2.1 2.1 0 1 0 0 4.2 2.1 2.1 0 0 0 0-4.2zM8.1 12a3.9 3.9 0 1 1 7.8 0 3.9 3.9 0 0 1-7.8 0z" clip-rule="evenodd" style="fill: #990ae3;"/></svg>
