<?xml version="1.0" encoding="UTF-8"?>
<svg xmlns="http://www.w3.org/2000/svg" fill="none" viewBox="0 0 24 24"><path fill="#1E1E20" fill-rule="evenodd" d="M8.9 5.506V8.5a.9.9 0 0 1-1.8 0V7.4H5.9v12.7h12.2V7.4h-1.2v1.1a.9.9 0 0 1-1.8 0V7.4H12a.9.9 0 1 1 0-1.8h3.1v-.105a2.87 2.87 0 0 0-.046-.373 3.025 3.025 0 0 0-.335-.925C14.377 3.599 13.674 2.9 12 2.9s-2.377.7-2.719 1.297a3.025 3.025 0 0 0-.38 1.298l-.001.01zM16 5.5l.9-.001V5.473c0-.012 0-.028-.002-.047a4.711 4.711 0 0 0-.077-.642 4.823 4.823 0 0 0-.54-1.48C15.623 2.15 14.326 1.1 12 1.1c-2.326 0-3.623 1.05-4.281 2.203a4.823 4.823 0 0 0-.619 2.17V5.5L8 5.5h-.9v.1H5a.9.9 0 0 0-.9.9V21a.9.9 0 0 0 .9.9h14a.9.9 0 0 0 .9-.9V6.5a.9.9 0 0 0-.9-.9h-2.1v-.1H16z" clip-rule="evenodd" style="fill: #990ae3;"/></svg>
