<?xml version="1.0" encoding="UTF-8"?>
<svg xmlns="http://www.w3.org/2000/svg" fill="none" viewBox="0 0 24 24"><path fill="#1E1E20" fill-rule="evenodd" d="M18.844 4.625a.9.9 0 0 1 1.273 0l2.235 2.235a.9.9 0 0 1 0 1.273l-2.235 2.235a.9.9 0 1 1-1.273-1.272l.7-.7h-3.057l-1.98 1.98a.9.9 0 1 1-1.273-1.272l2.244-2.244a.9.9 0 0 1 .636-.263h3.43l-.7-.7a.9.9 0 0 1 0-1.272zM1.47 7.502a.9.9 0 0 1 .9-.9h4.77a.9.9 0 0 1 .637.264L12.2 11.29a.914.914 0 0 1 .12.12l4.167 4.167h3.056l-.699-.7a.9.9 0 1 1 1.273-1.272l2.235 2.235a.9.9 0 0 1 0 1.273l-2.235 2.235a.9.9 0 1 1-1.273-1.272l.7-.7h-3.43a.9.9 0 0 1-.636-.263l-3.854-3.854-3.848 3.849a.9.9 0 0 1-.636.263H2.37a.9.9 0 0 1 0-1.8h4.397l3.584-3.584-3.584-3.585H2.369a.9.9 0 0 1-.9-.9z" clip-rule="evenodd" style="fill: #990ae3;"/></svg>
