<?xml version="1.0" encoding="UTF-8"?>
<svg xmlns="http://www.w3.org/2000/svg" fill="none" viewBox="0 0 24 24"><path fill="#1E1E20" fill-rule="evenodd" d="M12.08 3.259a.1.1 0 0 0-.14-.027l-2.632 1.78a.1.1 0 0 0-.027.138l.728 1.077 1.4-.945a.9.9 0 0 1 1.007 1.491l-1.4.946 5.383 7.965 2.799-1.892L12.08 3.26zm7.692 12.318l-1.93 1.305 2.338 1.38-.408-2.685zm-6.2-13.326l7.621 11.28c.075.11.124.236.144.368l.907 5.966a.9.9 0 0 1-1.347.91L15.7 17.708a.9.9 0 0 1-.288-.271L7.79 6.157A1.9 1.9 0 0 1 8.3 3.52l2.633-1.78a1.9 1.9 0 0 1 2.638.51zm-6.19 10.698c-.73.021-1.715.64-1.823 2.35-.084 1.335.12 2.497.51 3.384.731-.293 1.415-.653 1.945-1.126.663-.59 1.097-1.362 1.054-2.503-.03-.826-.298-1.352-.6-1.662a1.442 1.442 0 0 0-1.085-.443zm-.197 7.216c.706-.316 1.419-.722 2.027-1.264 1.014-.904 1.72-2.175 1.655-3.915-.045-1.194-.447-2.171-1.112-2.852a3.24 3.24 0 0 0-2.426-.985c-1.818.055-3.41 1.566-3.566 4.037-.095 1.495.113 2.902.595 4.075l-.138.042-.014.004c-.347.104-.692.208-.98.313a.9.9 0 1 0 .615 1.691c.233-.085.529-.174.896-.284l.012-.004c.175-.052.362-.109.558-.17.503.595 1.126 1.058 1.86 1.32.962.341 2.03.307 3.125-.116.774-.299 1.225-.387 1.496-.398a.805.805 0 0 1 .468.102c.062.033.11.061.175.1l.144.087c.138.08.312.176.525.258.445.173.969.253 1.667.19 1.4-.126 2.283-.407 2.847-.71a2.62 2.62 0 0 0 .636-.462 1.633 1.633 0 0 0 .23-.297l.023-.04.009-.018.004-.008.002-.004.001-.002c0-.001.001-.002-.811-.39l.812.388a.9.9 0 0 0-1.566-.88c-.023.02-.08.067-.193.128-.286.154-.913.39-2.155.502-.466.042-.707-.018-.856-.075a1.81 1.81 0 0 1-.266-.134 6.178 6.178 0 0 1-.077-.046c-.087-.052-.204-.123-.31-.179a2.593 2.593 0 0 0-1.38-.308c-.555.022-1.218.187-2.074.517-.747.289-1.368.278-1.872.099a2.311 2.311 0 0 1-.586-.312z" clip-rule="evenodd" style="fill: #990ae3;"/></svg>
