<?xml version="1.0" encoding="UTF-8"?>
<svg xmlns="http://www.w3.org/2000/svg" fill="none" viewBox="0 0 24 24"><path fill="#1E1E20" fill-rule="evenodd" d="M6.5 3.4a.1.1 0 0 0-.1.1v17a.1.1 0 0 0 .1.1h11a.1.1 0 0 0 .1-.1V7.914a.1.1 0 0 0-.03-.07l-4.414-4.415a.1.1 0 0 0-.07-.029H6.5zm-1.9.1c0-1.05.85-1.9 1.9-1.9h6.586c.504 0 .987.2 1.343.556l4.414 4.415a1.9 1.9 0 0 1 .557 1.343V20.5a1.9 1.9 0 0 1-1.9 1.9h-11a1.9 1.9 0 0 1-1.9-1.9v-17zm3 9.5a.9.9 0 0 1 .9-.9h7a.9.9 0 0 1 .9.9v5.5a.9.9 0 0 1-.9.9h-7a.9.9 0 0 1-.9-.9V13zm1.8.9v3.7h1.7v-3.7H9.4zm3.5 0v.95h1.7v-.95h-1.7zm1.7 2.75h-1.7v.95h1.7v-.95z" clip-rule="evenodd" style="fill: #990ae3;"/></svg>
