<?xml version="1.0" encoding="UTF-8"?>
<svg xmlns="http://www.w3.org/2000/svg" fill="none" viewBox="0 0 24 24"><path fill="#1E1E20" fill-rule="evenodd" d="M15.364 1.864a.9.9 0 0 1 1.272 0l2.5 2.5a.9.9 0 0 1 0 1.272l-2.5 2.5a.9.9 0 0 1-1.272-1.272l.963-.964H12a7.1 7.1 0 1 0 7.1 7.1.9.9 0 1 1 1.8 0A8.9 8.9 0 1 1 12 4.1h4.327l-.963-.964a.9.9 0 0 1 0-1.272z" clip-rule="evenodd" style="fill: #990ae3;"/><path fill="#1E1E20" d="M10.494 12.96c.44-.288.696-.696.696-1.192 0-.856-.784-1.488-1.816-1.488-.816 0-1.504.352-1.912.96l.712.536c.28-.392.688-.592 1.136-.592.52 0 .864.304.864.704 0 .48-.36.8-.88.8h-.608v.8h.648c.6 0 1.024.312 1.024.816 0 .528-.456.912-1 .912-.568 0-1-.272-1.368-.736l-.744.584c.512.64 1.16 1.056 2.104 1.056 1.064 0 2.04-.808 2.04-1.84 0-.6-.344-1.072-.896-1.32zM14.38 16.096c1.24 0 2.152-1 2.152-2.896s-.912-2.896-2.152-2.896c-1.248 0-2.16 1-2.16 2.896s.912 2.896 2.16 2.896zm0-.872c-.688 0-1.104-.696-1.104-2.024s.416-2.024 1.104-2.024c.68 0 1.104.688 1.104 2.024s-.424 2.024-1.104 2.024z" style="fill: #990ae3;"/><path fill="#1E1E20" fill-rule="evenodd" d="M7.462 11.24c.408-.608 1.096-.96 1.912-.96 1.032 0 1.816.632 1.816 1.488 0 .423-.186.782-.514 1.058a1.897 1.897 0 0 1-.182.134c.07.031.137.067.2.105.434.265.696.691.696 1.215 0 1.032-.976 1.84-2.04 1.84-.866 0-1.483-.35-1.975-.903-.044-.05-.087-.1-.129-.153l.744-.584c.368.464.8.736 1.368.736.544 0 1-.384 1-.912 0-.504-.424-.816-1.024-.816h-.648v-.8h.608c.52 0 .88-.32.88-.8 0-.4-.344-.704-.864-.704a1.36 1.36 0 0 0-1.136.592l-.712-.536zm3.396 1.692c.452.3.732.771.732 1.348 0 1.166-1.09 2.04-2.24 2.04-1.017 0-1.718-.454-2.26-1.131l-.126-.158 1.06-.831.123.156c.342.43.72.66 1.211.66.456 0 .8-.316.8-.712a.532.532 0 0 0-.21-.44c-.137-.106-.346-.176-.614-.176h-.848v-1.2h.808c.22 0 .389-.067.501-.168a.56.56 0 0 0 .18-.432c0-.257-.22-.504-.665-.504-.384 0-.73.17-.973.508l-.12.167-1.027-.773.106-.157c.449-.67 1.202-1.049 2.078-1.049 1.102 0 2.016.685 2.016 1.688 0 .467-.198.862-.532 1.164zm5.22 2.55a2.097 2.097 0 0 1-1.698.814c-.682 0-1.281-.276-1.705-.813-.42-.533-.655-1.305-.655-2.283s.235-1.75.655-2.283c.424-.537 1.023-.813 1.705-.813.679 0 1.276.276 1.698.813.419.533.654 1.305.654 2.283s-.235 1.75-.654 2.283zm-2.333-.87c.16.287.374.412.635.412.258 0 .472-.124.633-.41.167-.296.27-.762.27-1.414 0-.652-.103-1.118-.27-1.415-.161-.285-.375-.409-.633-.409-.261 0-.476.125-.636.412-.166.297-.268.764-.268 1.412 0 .648.102 1.115.268 1.413zm2.787-1.412c0 1.896-.912 2.896-2.152 2.896-1.248 0-2.16-1-2.16-2.896s.912-2.896 2.16-2.896c1.24 0 2.152 1 2.152 2.896zm-3.256 0c0 1.328.416 2.024 1.104 2.024.68 0 1.104-.688 1.104-2.024s-.424-2.024-1.104-2.024c-.688 0-1.104.696-1.104 2.024z" clip-rule="evenodd" style="fill: #990ae3;"/></svg>
