<?xml version="1.0" encoding="UTF-8"?>
<svg xmlns="http://www.w3.org/2000/svg" fill="none" viewBox="0 0 24 24"><path fill="#1E1E20" fill-rule="evenodd" d="M8.636 1.864a.9.9 0 0 0-1.272 0l-2.5 2.5a.9.9 0 0 0 0 1.272l2.5 2.5a.9.9 0 0 0 1.272-1.272L7.673 5.9H12A7.1 7.1 0 1 1 4.9 13a.9.9 0 1 0-1.8 0A8.9 8.9 0 1 0 12 4.1H7.673l.963-.964a.9.9 0 0 0 0-1.272z" clip-rule="evenodd" style="fill: #990ae3;"/><path fill="#1E1E20" d="M10.838 16v-5.6h-.736l-1.656.984v.928l1.36-.752V16h1.032zM14.38 16.096c1.24 0 2.152-1 2.152-2.896s-.912-2.896-2.152-2.896c-1.248 0-2.16 1-2.16 2.896s.912 2.896 2.16 2.896zm0-.872c-.688 0-1.104-.696-1.104-2.024s.416-2.024 1.104-2.024c.68 0 1.104.688 1.104 2.024s-.424 2.024-1.104 2.024z" style="fill: #990ae3;"/><path fill="#1E1E20" fill-rule="evenodd" d="M11.038 16.2H9.606v-4.3l-1.36.751v-1.38l1.801-1.071h.991v6zm-1.232-4.64V16h1.032v-5.6h-.736l-1.656.984v.928l1.36-.752zm6.272 3.923a2.097 2.097 0 0 1-1.698.813c-.682 0-1.281-.276-1.705-.813-.42-.533-.655-1.305-.655-2.283s.235-1.75.655-2.283c.424-.537 1.023-.813 1.705-.813.678 0 1.275.276 1.698.813.419.533.654 1.305.654 2.283s-.235 1.75-.654 2.283zm-2.333-.87c.16.286.374.411.635.411.257 0 .472-.124.633-.41.167-.296.27-.762.27-1.414 0-.652-.103-1.118-.27-1.415-.161-.285-.376-.409-.633-.409-.261 0-.476.125-.636.412-.166.297-.268.764-.268 1.412 0 .648.102 1.115.268 1.412zm2.787-1.413c0 1.896-.912 2.896-2.152 2.896-1.248 0-2.16-1-2.16-2.896s.912-2.896 2.16-2.896c1.24 0 2.152 1 2.152 2.896zm-3.256 0c0 1.328.416 2.024 1.104 2.024.68 0 1.104-.688 1.104-2.024s-.424-2.024-1.104-2.024c-.688 0-1.104.696-1.104 2.024z" clip-rule="evenodd" style="fill: #990ae3;"/></svg>
