<?xml version="1.0" encoding="UTF-8"?>
<svg xmlns="http://www.w3.org/2000/svg" fill="none" viewBox="0 0 24 24"><path fill="#1E1E20" fill-rule="evenodd" d="M7.271 7.933l1.25 2.167h2.442l1.086-2.008C11.352 7.665 10.517 7.4 9.5 7.4c-.89 0-1.62.203-2.229.533zm6.161 1.385l-.92 1.702 1.265 2.58h1.632c-.144-.6-.379-1.404-.747-2.236-.317-.716-.72-1.429-1.23-2.046zm2.016 6.082c-.026.084-.056.17-.091.254-.118.283-.275.515-.474.674-.185.149-.453.272-.883.272s-.64-.123-.757-.23c-.134-.124-.24-.318-.307-.588a2.531 2.531 0 0 1-.063-.382h2.575zm-3.675-1.8l-.834-1.7H8.522l-.971 1.7h4.222zm-6.295 0l1.484-2.598-1.09-1.892c-.732.889-1.21 2.008-1.516 3.05a13.125 13.125 0 0 0-.333 1.44h1.455zm-3.278 0a14.96 14.96 0 0 1 .429-1.946c.44-1.503 1.277-3.427 2.882-4.705C6.54 6.13 7.857 5.6 9.5 5.6c1.776 0 3.192.618 4.292 1.533.819.68 1.452 1.516 1.94 2.362l.133-.133c.023-.023.07-.087.155-.318.013-.038.03-.084.047-.137.068-.196.166-.481.292-.732.18-.356.45-.732.895-1.03.438-.294.984-.471 1.653-.54 1.619-.168 2.704.787 3.373 1.945.726 1.26.81 2.688-.031 3.95-.99 1.484-2.644 1.524-3.374 1.464-.143-.012-.213.021-.233.035l-1.264.883a5.14 5.14 0 0 1-.36 1.464c-.194.468-.506.985-1.01 1.388-.519.414-1.188.666-2.008.666-.82 0-1.485-.252-1.978-.707-.475-.44-.713-.995-.833-1.475a4.452 4.452 0 0 1-.121-.818H8.301c-.055.281-.143.61-.283.946-.194.468-.506.985-1.01 1.388-.519.414-1.188.666-2.008.666-.82 0-1.485-.252-1.978-.707-.475-.44-.713-.995-.833-1.475a4.46 4.46 0 0 1-.121-.818H2a.9.9 0 1 1 0-1.8h.2zm1.673 1.8c.011.126.031.256.063.382.067.27.173.464.307.588.117.107.326.23.757.23.43 0 .698-.123.883-.272.2-.159.356-.391.474-.674.035-.084.065-.17.091-.254H3.873zm13.214-2.51l.524-.367c.455-.318.979-.39 1.413-.353.568.047 1.31-.043 1.727-.67.4-.598.414-1.28-.03-2.05-.47-.814-.982-1.122-1.628-1.055-.46.048-.704.156-.838.245a.832.832 0 0 0-.288.344c-.067.133-.108.253-.166.42-.025.074-.054.158-.09.256-.097.265-.253.656-.576.978-.238.237-.433.429-.586.58.236.608.41 1.183.538 1.671z" clip-rule="evenodd" style="fill: #990ae3;"/></svg>
