<?xml version="1.0" encoding="UTF-8"?>
<svg xmlns="http://www.w3.org/2000/svg" fill="none" viewBox="0 0 24 24"><path fill="#1E1E20" fill-rule="evenodd" d="M11.364 1.864a.9.9 0 0 1 1.272 0l9.5 9.5A.9.9 0 0 1 22.4 12v1.5a.9.9 0 0 1-.9.9h-1.6V21a.9.9 0 0 1-.9.9H5a.9.9 0 0 1-.9-.9v-7.5a.9.9 0 1 1 1.8 0v6.6h12.2v-6.6a.9.9 0 0 1 .9-.9h1.6v-.227l-8.6-8.6-8.864 8.863a.9.9 0 1 1-1.272-1.272l9.5-9.5zm4.5 11.117a5.464 5.464 0 0 0-7.728 0 .9.9 0 1 1-1.272-1.273 7.264 7.264 0 0 1 10.272 0 .9.9 0 1 1-1.273 1.273zm-1.955 1.955a2.7 2.7 0 0 0-3.819 0 .9.9 0 0 1-1.272-1.273 4.5 4.5 0 0 1 6.364 0 .9.9 0 1 1-1.273 1.273zM10.6 16.5a.9.9 0 0 1 .9-.9h1a.9.9 0 1 1 0 1.8h-1a.9.9 0 0 1-.9-.9z" clip-rule="evenodd" style="fill: #990ae3;"/></svg>
