<?xml version="1.0" encoding="UTF-8"?>
<svg xmlns="http://www.w3.org/2000/svg" fill="none" viewBox="0 0 24 24"><path fill="#1E1E20" fill-rule="evenodd" d="M5.418 3.4a1.9 1.9 0 0 1 1.803-1.3h3.558a1.9 1.9 0 0 1 1.803 1.3l.6 1.798A2.401 2.401 0 0 1 14.9 7.5v9a2.401 2.401 0 0 1-1.719 2.302l-.6 1.799A1.9 1.9 0 0 1 10.78 21.9H7.221a1.9 1.9 0 0 1-1.803-1.3l-.6-1.798A2.401 2.401 0 0 1 3.1 16.5v-9c0-1.089.725-2.008 1.719-2.302l.6-1.799.853.285-.854-.285zm1.33 1.7h4.503l-.377-1.132a.1.1 0 0 0-.095-.068H7.221a.1.1 0 0 0-.095.068L6.749 5.1zm0 13.8l.378 1.132a.1.1 0 0 0 .095.068h3.558a.1.1 0 0 0 .095-.068l.377-1.132H6.75zM5.5 6.9a.6.6 0 0 0-.6.6v9a.6.6 0 0 0 .6.6h7a.6.6 0 0 0 .6-.6v-9a.6.6 0 0 0-.6-.6h-7zm13.582 1.268a.9.9 0 0 1 1.172.497 8.928 8.928 0 0 1 0 6.67.9.9 0 0 1-1.67-.674 7.128 7.128 0 0 0 0-5.322.9.9 0 0 1 .498-1.171zm-2.78 1.127a.9.9 0 0 1 1.171.498c.57 1.413.57 3 0 4.414a.9.9 0 0 1-1.67-.673 4.118 4.118 0 0 0 0-3.068.9.9 0 0 1 .5-1.171z" clip-rule="evenodd" style="fill: #990ae3;"/></svg>
