<?xml version="1.0" encoding="UTF-8"?>
<svg xmlns="http://www.w3.org/2000/svg" fill="none" viewBox="0 0 24 25"><path fill="#1E1E20" fill-rule="evenodd" d="M12 4.9a8.1 8.1 0 1 0 0 16.2 8.1 8.1 0 0 0 0-16.2zM2.1 13c0-5.468 4.432-9.9 9.9-9.9s9.9 4.432 9.9 9.9-4.432 9.9-9.9 9.9-9.9-4.432-9.9-9.9zm7.4-4.4a.9.9 0 0 1 .9.9v1a.9.9 0 1 1-1.8 0v-1a.9.9 0 0 1 .9-.9zm5 0a.9.9 0 0 1 .9.9v1a.9.9 0 1 1-1.8 0v-1a.9.9 0 0 1 .9-.9zm-7.785 5.546a.9.9 0 0 1 1.139.57L7 15l.854-.286-.001-.002-.001-.002v-.002l.002.008.024.058c.024.057.066.147.127.258.124.223.327.527.631.832.593.592 1.618 1.236 3.364 1.236 1.746 0 2.771-.644 3.364-1.236.304-.305.506-.61.63-.832a2.868 2.868 0 0 0 .152-.316l.003-.008a.9.9 0 0 1 1.705.577L17 15l.854.286-.002.003-.002.006-.005.015a2.07 2.07 0 0 1-.069.173 4.657 4.657 0 0 1-.208.423c-.189.34-.487.785-.932 1.23-.907.908-2.382 1.764-4.636 1.764s-3.729-.856-4.636-1.764a5.591 5.591 0 0 1-.932-1.23 4.633 4.633 0 0 1-.277-.596l-.005-.015-.002-.006-.001-.002v-.001L7 15l-.854.285a.9.9 0 0 1 .57-1.139z" clip-rule="evenodd" style="fill: #990ae3;"/></svg>
