<?xml version="1.0" encoding="UTF-8"?>
<svg xmlns="http://www.w3.org/2000/svg" fill="none" viewBox="0 0 24 24"><path fill="#1E1E20" fill-rule="evenodd" d="M9.5 4.4a1.1 1.1 0 0 0-1.1 1.1v5a1.1 1.1 0 0 0 1.1 1.1h1a.9.9 0 1 1 0 1.8h-1a2.9 2.9 0 0 1-2.9-2.9v-5a2.9 2.9 0 0 1 2.9-2.9h10a2.9 2.9 0 0 1 2.9 2.9v5a2.9 2.9 0 0 1-2.9 2.9h-4.627l-2.237 2.236a.9.9 0 1 1-1.272-1.272l2.5-2.5a.9.9 0 0 1 .636-.264h5a1.1 1.1 0 0 0 1.1-1.1v-5a1.1 1.1 0 0 0-1.1-1.1h-10zM11 6.6a.9.9 0 0 1 .9.9V8a.9.9 0 1 1-1.8 0v-.5a.9.9 0 0 1 .9-.9zm3.5 0a.9.9 0 0 1 .9.9V8a.9.9 0 1 1-1.8 0v-.5a.9.9 0 0 1 .9-.9zm3.5 0a.9.9 0 0 1 .9.9V8a.9.9 0 1 1-1.8 0v-.5a.9.9 0 0 1 .9-.9zM1.6 11.5a2.9 2.9 0 0 1 2.9-2.9.9.9 0 0 1 0 1.8 1.1 1.1 0 0 0-1.1 1.1v5a1.1 1.1 0 0 0 1.1 1.1h3a.9.9 0 0 1 .636.264l2.5 2.5a.9.9 0 1 1-1.272 1.272L7.127 19.4H4.5a2.9 2.9 0 0 1-2.9-2.9v-5zm15.9 3.1a.9.9 0 0 1 .9.9v1a2.9 2.9 0 0 1-2.9 2.9h-4a.9.9 0 1 1 0-1.8h4a1.1 1.1 0 0 0 1.1-1.1v-1a.9.9 0 0 1 .9-.9z" clip-rule="evenodd" style="fill: #990ae3;"/></svg>
