<?xml version="1.0" encoding="UTF-8"?>
<svg xmlns="http://www.w3.org/2000/svg" fill="none" viewBox="0 0 24 24"><path fill="#1E1E20" fill-rule="evenodd" d="M12 .796a.9.9 0 0 1 .9.9V3.47l1.374-1.079a.9.9 0 0 1 1.112 1.416L12.9 5.757v1.935a4.391 4.391 0 0 1 2.216 1.202L16.662 8l.447-3.128a.9.9 0 1 1 1.782.254l-.247 1.73 1.535-.886a.9.9 0 1 1 .9 1.558l-1.516.876 1.792.768a.9.9 0 1 1-.71 1.654L17.616 9.53l-1.515.874A4.39 4.39 0 0 1 16.4 12a4.39 4.39 0 0 1-.299 1.597l1.515.874 3.03-1.298a.9.9 0 1 1 .709 1.654l-1.792.768 1.516.876a.9.9 0 1 1-.9 1.558l-1.535-.886.247 1.73a.9.9 0 1 1-1.782.254L16.662 16l-1.546-.893a4.392 4.392 0 0 1-2.216 1.202v2.13l2.486 1.952a.9.9 0 1 1-1.112 1.416L12.9 20.727V22.5a.9.9 0 0 1-1.8 0v-1.75l-1.56 1.167a.9.9 0 1 1-1.08-1.442l2.64-1.974v-2.193a4.392 4.392 0 0 1-2.216-1.202L7.338 16l-.447 3.128a.9.9 0 0 1-1.782-.254l.247-1.73-1.535.886a.9.9 0 1 1-.9-1.558l1.516-.876-1.792-.768a.9.9 0 1 1 .71-1.654l3.029 1.298 1.515-.874A4.389 4.389 0 0 1 7.6 12c0-.563.106-1.102.299-1.597L6.384 9.53l-3.03 1.298a.9.9 0 1 1-.708-1.654l1.791-.768-1.516-.876a.9.9 0 1 1 .9-1.558l1.535.886-.247-1.73a.9.9 0 1 1 1.782-.254L7.338 8l1.546.893A4.391 4.391 0 0 1 11.1 7.692V5.695L8.46 3.721a.9.9 0 1 1 1.08-1.442l1.56 1.168v-1.75a.9.9 0 0 1 .9-.9zM12 9.4a2.6 2.6 0 1 0 0 5.2 2.6 2.6 0 0 0 0-5.2z" clip-rule="evenodd" style="fill: #990ae3;"/></svg>
