<?xml version="1.0" encoding="UTF-8"?>
<svg xmlns="http://www.w3.org/2000/svg" fill="none" viewBox="0 0 24 24"><path fill="#1E1E20" fill-rule="evenodd" d="M17 3.1a.9.9 0 0 1 .636.264l4.5 4.5a.9.9 0 1 1-1.272 1.272L17.9 6.173V20a.9.9 0 0 1-1.8 0V6.173l-2.964 2.963a.9.9 0 0 1-1.272-1.272l4.5-4.5A.9.9 0 0 1 17 3.1zm-10 0a.9.9 0 0 1 .9.9v13.827l2.964-2.963a.9.9 0 1 1 1.272 1.272l-4.5 4.5a.9.9 0 0 1-1.272 0l-4.5-4.5a.9.9 0 0 1 1.272-1.272L6.1 17.827V4a.9.9 0 0 1 .9-.9z" clip-rule="evenodd" style="fill: #990ae3;"/></svg>
