<?xml version="1.0" encoding="UTF-8"?>
<svg xmlns="http://www.w3.org/2000/svg" fill="none" viewBox="0 0 24 24"><path fill="#1E1E20" fill-rule="evenodd" d="M1.62 11.81a.903.903 0 0 0-.014.294 10.304 10.304 0 0 0 2.884 7.52.9.9 0 0 0 1.182.101l1.36-1a.9.9 0 0 0-1.065-1.45l-.697.512A8.49 8.49 0 0 1 3.411 12.9H4.5a.9.9 0 1 0 0-1.8h-.992a8.511 8.511 0 0 1 2.03-4.29l.74.74A.9.9 0 0 0 7.55 6.279l-.686-.686A8.577 8.577 0 0 1 11.1 3.946V5a.9.9 0 1 0 1.8 0V3.946a8.576 8.576 0 0 1 2.187.522.9.9 0 0 0 .644-1.681A10.415 10.415 0 0 0 12 2.1c-2.63 0-5.033.973-6.865 2.577a.898.898 0 0 0-.428.396A10.306 10.306 0 0 0 1.62 11.81zm17.516-6.946a.9.9 0 0 1 0 1.272l-7 7a.9.9 0 1 1-1.272-1.272l7-7a.9.9 0 0 1 1.272 0zm.894 2.458a.9.9 0 0 1 1.213.384 10.285 10.285 0 0 1 1.157 4.752c0 2.78-1.101 5.307-2.89 7.166a.9.9 0 0 1-1.182.101l-1.36-1a.9.9 0 0 1 1.065-1.45l.697.512a8.49 8.49 0 0 0 1.859-4.887H19a.9.9 0 1 1 0-1.8h1.492a8.462 8.462 0 0 0-.846-2.564.9.9 0 0 1 .384-1.214z" clip-rule="evenodd" style="fill: #990ae3;"/></svg>
