<?xml version="1.0" encoding="UTF-8"?>
<svg xmlns="http://www.w3.org/2000/svg" fill="none" viewBox="0 0 24 24"><path fill="#1E1E20" fill-rule="evenodd" d="M20.348 10.46c.073.696-.133 1.42-.628 2.08a.928.928 0 0 1-.018.022L12.4 21.69a1.9 1.9 0 0 1-2.827.156l-3.705-3.705c-.607-.589-.94-1.273-.96-1.98a2.387 2.387 0 0 1 .712-1.755c.842-.844 2.389-1.147 3.51-.049l.006.007 1.289 1.289 5.372-6.715a.906.906 0 0 1 .066-.074c1.14-1.14 2.69-.928 3.614-.095.463.417.799 1.007.871 1.692zm-3.181-.353l-6.593 8.24-2.707-2.707c-.28-.272-.688-.248-.973.037a.589.589 0 0 0-.186.434c.004.147.071.407.417.742l.011.01 3.71 3.71a.1.1 0 0 0 .149-.008l7.292-9.115c.248-.335.291-.608.27-.801a.852.852 0 0 0-.284-.542c-.317-.285-.751-.329-1.106 0z" clip-rule="evenodd" style="fill: #990ae3;"/><path fill="#1E1E20" d="M8.865 9.847l-2.47-6.694H5.018L2.5 9.847h1.244l.555-1.52h2.68l.536 1.52h1.35zm-3.216-5.26l.957 2.707H4.673l.976-2.707zM13.6 6.27c.506-.296.832-.774.832-1.357 0-1.024-.91-1.76-2.01-1.76H9.704v6.694h2.871c1.196 0 2.22-.803 2.22-1.913 0-.755-.497-1.367-1.196-1.664zm-1.303-2.046c.536 0 .881.335.881.803 0 .46-.345.794-.88.794h-1.35V4.224h1.35zm-1.35 4.552V6.883h1.494c.641 0 1.062.392 1.062.937 0 .554-.411.956-1.052.956h-1.503zM18.973 10c1.043 0 1.953-.44 2.527-1.1l-.871-.793a2.121 2.121 0 0 1-1.656.803c-1.225 0-2.144-.995-2.144-2.41s.919-2.41 2.144-2.41a2.13 2.13 0 0 1 1.58.708l.851-.803C20.83 3.402 19.96 3 18.974 3c-1.867 0-3.437 1.463-3.437 3.5s1.57 3.5 3.436 3.5z" style="fill: #990ae3;"/><path fill="#1E1E20" fill-rule="evenodd" d="M9.08 9.997H7.41l-.537-1.52H4.404l-.555 1.52H2.283l2.63-6.994H6.5l2.58 6.994zM4.3 8.327h2.68l.535 1.52h1.35l-2.47-6.694H5.018L2.5 9.847h1.244l.555-1.52zm5.404 1.52V3.153h2.718c1.1 0 2.01.736 2.01 1.76 0 .523-.262.962-.683 1.26a2.026 2.026 0 0 1-.15.097c.056.024.11.05.162.077.613.318 1.035.892 1.035 1.587 0 1.11-1.025 1.913-2.221 1.913H9.704zm4.194-3.597c.616.346 1.048.948 1.048 1.684 0 1.216-1.118 2.063-2.371 2.063H9.554V3.003h2.868c1.16 0 2.16.782 2.16 1.91 0 .553-.266 1.016-.684 1.337zm7.811 2.638l-.096.11c-.604.694-1.555 1.152-2.64 1.152-1.948 0-3.586-1.53-3.586-3.65s1.638-3.65 3.586-3.65c1.027 0 1.936.418 2.539 1.04l.106.11-1.074 1.012-.102-.113a1.98 1.98 0 0 0-1.469-.659c-1.128 0-1.994.912-1.994 2.26 0 1.348.866 2.26 1.994 2.26.64 0 1.191-.31 1.539-.747l.1-.125 1.097 1zm-16.06-4.3l-.976 2.706h1.933L5.65 4.587zm-.001.445l.746 2.11H4.886l.762-2.11zm7.189-.473c-.121-.112-.303-.186-.54-.186h-1.2v1.297h1.2c.237 0 .419-.073.54-.185.12-.11.191-.268.191-.459a.62.62 0 0 0-.191-.467zm-1.74 2.473v1.593h1.354c.289 0 .513-.09.665-.23a.765.765 0 0 0 .237-.576.733.733 0 0 0-.24-.562c-.154-.137-.382-.225-.672-.225h-1.343zM21.41 8.998c.031-.032.061-.064.09-.098l-.871-.793a2.117 2.117 0 0 1-1.656.803c-1.225 0-2.144-.995-2.144-2.41s.919-2.41 2.144-2.41a2.124 2.124 0 0 1 1.58.708l.851-.803A3.41 3.41 0 0 0 18.973 3c-1.866 0-3.436 1.463-3.436 3.5s1.57 3.5 3.436 3.5c.984 0 1.849-.391 2.426-.99.004-.003.008-.007.011-.012zm-9.113-4.774c.536 0 .881.335.881.803 0 .46-.345.794-.88.794h-1.35V4.224h1.35zm-1.35 2.659h1.494c.641 0 1.062.392 1.062.937 0 .554-.411.956-1.052.956h-1.503V6.883z" clip-rule="evenodd" style="fill: #990ae3;"/></svg>
