<?xml version="1.0" encoding="UTF-8"?>
<svg xmlns="http://www.w3.org/2000/svg" fill="none" viewBox="0 0 24 24"><path fill="#1E1E20" fill-rule="evenodd" d="M18.864 4.864a.9.9 0 0 1 1.272 0l2 2a.9.9 0 0 1 0 1.272l-2 2a.9.9 0 0 1-1.272-1.272l.463-.464h-5.454l-4.237 4.236A.9.9 0 0 1 9 12.9H2.5a.9.9 0 0 1 0-1.8h6.127l4.237-4.236A.9.9 0 0 1 13.5 6.6h5.827l-.463-.464a.9.9 0 0 1 0-1.272zm-8.5 8.5a.9.9 0 0 1 1.272 0l2.237 2.236h5.454l-.463-.464a.9.9 0 1 1 1.272-1.272l2 2a.9.9 0 0 1 0 1.272l-2 2a.9.9 0 0 1-1.272-1.272l.463-.464H13.5a.9.9 0 0 1-.636-.264l-2.5-2.5a.9.9 0 0 1 0-1.272z" clip-rule="evenodd" style="fill: #990ae3;"/></svg>
