<?xml version="1.0" encoding="UTF-8"?>
<svg xmlns="http://www.w3.org/2000/svg" fill="none" viewBox="0 0 24 24"><path fill="#1E1E20" fill-rule="evenodd" d="M11.598 1.695a.9.9 0 0 1 .804 0c2.952 1.476 5.356 2.433 8.725 2.914a.9.9 0 0 1 .773.89c0 4.728-.237 8.312-1.595 11.029-1.403 2.805-3.915 4.543-8.037 5.831a.9.9 0 0 1-.537 0c-4.12-1.288-6.633-3.026-8.036-5.832C2.337 13.811 2.1 10.227 2.1 5.5a.9.9 0 0 1 .788-.893c3.843-.48 5.731-1.423 8.71-2.912zm-7.695 4.59c.03 4.338.324 7.281 1.402 9.438 1.072 2.143 2.992 3.635 6.695 4.833 3.703-1.198 5.623-2.69 6.695-4.834 1.08-2.158 1.374-5.105 1.402-9.452-3.08-.525-5.437-1.457-8.096-2.765C9.38 4.813 7.374 5.76 3.903 6.285z" clip-rule="evenodd" style="fill: #990ae3;"/><path fill="#1E1E20" d="M12.523 14.422l.416-6.75a.94.94 0 1 0-1.876.001l.425 6.749h1.035zM12 17.02c.44 0 .826-.387.826-.815 0-.418-.387-.816-.826-.816-.428 0-.825.397-.825.816 0 .428.397.815.825.815z" style="fill: #990ae3;"/><path fill="#1E1E20" fill-rule="evenodd" d="M12.691 14.596h-1.37l-.436-7.034a1 1 0 0 1 .998-1.062h.236a1 1 0 0 1 .998 1.06l-.426 7.036zm.248-6.924a.94.94 0 1 0-1.876.001l.425 6.749h1.035l.416-6.75zM13 16.206c0 .526-.466.99-1 .99-.522 0-1-.463-1-.99 0-.264.125-.51.304-.689.18-.178.429-.3.696-.3.536 0 1 .474 1 .989zm-.174 0c0 .428-.387.815-.826.815-.428 0-.825-.387-.825-.815 0-.418.397-.816.825-.816.44 0 .826.397.826.816z" clip-rule="evenodd" style="fill: #990ae3;"/></svg>
