<?xml version="1.0" encoding="UTF-8"?>
<svg xmlns="http://www.w3.org/2000/svg" fill="none" viewBox="0 0 24 24"><path fill="#1E1E20" fill-rule="evenodd" d="M3.78 2.96a.9.9 0 0 1 .72-.36H19a.9.9 0 0 1 .805.497L19 3.5l.805-.403V3.1l.563 1.123.937 1.876a2.574 2.574 0 0 1-.105 2.504c-.087.14-.188.27-.3.39V20.5a.9.9 0 0 1-.9.9H3.5a.9.9 0 0 1-.9-.9V9.404a2.54 2.54 0 0 1-.8-.802 2.573 2.573 0 0 1-.105-2.505C1.98 5.53 2.516 4.73 2.95 4.11a49.952 49.952 0 0 1 .761-1.057l.05-.067.014-.018.005-.007zM4.955 4.4c-.143.196-.33.455-.53.741-.441.63-.904 1.33-1.12 1.762a.774.774 0 0 0 .02.745c.112.179.41.452 1.175.452.552 0 .934-.324 1.228-.813a3.495 3.495 0 0 0 .388-.958l.002-.01v.003M4.955 4.4h13.489l.314.628.937 1.874a.775.775 0 0 1-.021.746c-.112.18-.41.452-1.174.452-.552 0-.934-.324-1.228-.813a3.504 3.504 0 0 1-.388-.958l-.002-.01a.9.9 0 0 0-1.765.357l.007.046c.006.045.013.114.015.199.006.175-.007.383-.063.57a.763.763 0 0 1-.258.405c-.115.089-.347.204-.818.204-.678 0-1.008-.238-1.198-.467-.209-.25-.316-.574-.366-.84a3.88 3.88 0 0 0-.05-.449l-.002-.012v-.005l-.001-.002v-.001L11.5 6.5l.883-.176A.9.9 0 0 0 10.6 6.5h.9-.9v.022a5.337 5.337 0 0 0 .007.15c.006.078.016.18.034.3.002.269-.043.555-.17.756-.09.142-.296.372-.971.372-.468 0-.759-.114-.946-.24a1.296 1.296 0 0 1-.437-.512 2.173 2.173 0 0 1-.217-.854.9.9 0 0 0-1.782-.174m.772 2.43c-.504.6-1.275 1.15-2.39 1.15l-.1-.001V19.6h1.7v-6.1a.9.9 0 0 1 .9-.9h9.5a.9.9 0 0 1 .9.9v6.1h1.7V9.86c-.192.026-.392.04-.6.04-.985 0-1.701-.429-2.203-.943-.108.13-.234.253-.381.366-.494.38-1.137.577-1.916.577-1.011 0-1.77-.331-2.307-.826-.489.513-1.217.826-2.193.826-.783 0-1.43-.198-1.945-.542a2.976 2.976 0 0 1-.665-.608zM15.6 19.6v-5.2h-2.7v5.2h2.7zm-4.5 0v-5.2H7.9v5.2h3.2z" clip-rule="evenodd" style="fill: #990ae3;"/></svg>
