<?xml version="1.0" encoding="UTF-8"?>
<svg xmlns="http://www.w3.org/2000/svg" fill="none" viewBox="0 0 24 24"><path fill="#1E1E20" fill-rule="evenodd" d="M12 3.375a4.625 4.625 0 1 0 0 9.25 4.625 4.625 0 0 0 0-9.25zM5.625 8a6.375 6.375 0 1 1 11.905 3.173 6.815 6.815 0 0 1 2.103 1.031c.86.634 1.665 1.57 2.146 2.928.477 1.35.616 3.063.24 5.23-.158.905-.952 1.513-1.821 1.513H3.802c-.868 0-1.663-.607-1.82-1.512-.424-2.44-.195-4.303.433-5.718a.875.875 0 1 1 1.6.71c-.455 1.024-.69 2.52-.31 4.708a.06.06 0 0 0 .024.038.115.115 0 0 0 .073.024h16.396c.03 0 .055-.01.072-.024a.061.061 0 0 0 .024-.039c.338-1.945.19-3.343-.165-4.346-.353-.996-.927-1.655-1.534-2.102a5.155 5.155 0 0 0-1.8-.828 5.443 5.443 0 0 0-.476-.097A6.355 6.355 0 0 1 12 14.375a6.36 6.36 0 0 1-4.636-2A6.356 6.356 0 0 1 5.625 8zM2.857 6.637a.875.875 0 0 1 1.006.72c.45 2.715 1.055 4.41 2.094 5.605.97 1.116 2.415 1.902 4.8 2.567a1.75 1.75 0 1 1-.606 1.647c-2.463-.7-4.244-1.606-5.514-3.066-1.368-1.572-2.036-3.67-2.5-6.467a.875.875 0 0 1 .72-1.006z" clip-rule="evenodd" style="fill: #990ae3;"/></svg>
