<?xml version="1.0" encoding="UTF-8"?>
<svg xmlns="http://www.w3.org/2000/svg" fill="none" viewBox="0 0 24 24"><path fill="#1E1E20" fill-rule="evenodd" d="M19.421 12.524c.743-.106 1.52.135 2.201.817.361.361.583.767.668 1.194.084.421.025.801-.075 1.102-.192.575-.56.944-.593.977l-4.707 4.707a1.9 1.9 0 0 1-1.343.556H7.4a.1.1 0 0 0-.07.03l-.5.5a1.9 1.9 0 0 1-2.688 0L2.056 20.32a1.9 1.9 0 0 1 0-2.687l4-4a1.9 1.9 0 0 1 1.344-.557h6.586v0H14.004l.026.001a2.06 2.06 0 0 1 .288.03 2.667 2.667 0 0 1 2.024 1.575l.551-.478c.459-.402.815-.723.956-.864.34-.339.883-.719 1.572-.817zm-4.847 3.553a1.32 1.32 0 0 0 .08-.144c.1-.208.113-.38.027-.553a.868.868 0 0 0-.659-.496.637.637 0 0 0-.052-.007H7.4a.1.1 0 0 0-.07.03l-4 4a.1.1 0 0 0 0 .141l2.085 2.086a.1.1 0 0 0 .141 0l.5-.5a1.9 1.9 0 0 1 1.344-.557h8.172a.1.1 0 0 0 .07-.029l4.7-4.7a.843.843 0 0 0 .165-.28.345.345 0 0 0 .018-.18c-.008-.041-.037-.136-.176-.274-.318-.318-.541-.327-.673-.308-.186.027-.393.147-.554.308a26.97 26.97 0 0 1-1.044.946c-.903.79-2.142 1.837-2.56 2.144l-.238.173H9.986a.9.9 0 1 1 0-1.8h4.588z" clip-rule="evenodd" style="fill: #990ae3;"/><path fill="#1E1E20" fill-rule="evenodd" d="M5.863 9.25h3.075c.078-1.81.619-3.414 1.164-4.6.098-.215.197-.417.294-.605A6.357 6.357 0 0 0 5.863 9.25zm6.501-5.042c-.188.315-.409.719-.626 1.192-.477 1.038-.922 2.377-.998 3.85h3.89a6.689 6.689 0 0 0-1.35-4.032 7.243 7.243 0 0 0-.916-1.01zm2.072 6.842c-.039.18-.084.363-.135.55a.9.9 0 0 0 1.735.478c.097-.351.174-.694.234-1.028h2.72a5.887 5.887 0 0 1-.011.184.9.9 0 1 0 1.795.136c.026-.348.026-.738.026-1.192v-.028C20.8 5.574 16.572 2 12.15 2a8.15 8.15 0 0 0-7.858 10.318.9.9 0 0 0 1.735-.478 6.308 6.308 0 0 1-.164-.79h3.158c.046.332.11.669.196 1.008a.9.9 0 1 0 1.746-.438 7.638 7.638 0 0 1-.12-.57h3.593zm4.49-1.8H16.43a8.482 8.482 0 0 0-1.538-4.874c2.067.892 3.674 2.732 4.033 4.874z" clip-rule="evenodd" style="fill: #990ae3;"/></svg>
