<?xml version="1.0" encoding="UTF-8"?>
<svg xmlns="http://www.w3.org/2000/svg" fill="none" viewBox="0 0 24 24"><path fill="#1E1E20" fill-rule="evenodd" d="M7.956 1.65c.54-.36 1.221-.55 2.045-.55.823 0 1.505.19 2.044.55.54.36.87.846 1.064 1.32.332.802.304 1.67.295 1.956L13.403 5l-.002 7.553C14.65 13.607 15.4 15.35 15.4 17a5.4 5.4 0 0 1-10.8 0c0-1.68.67-3.416 2-4.467l.001-3.346a2669.958 2669.958 0 0 0-.003-4.255c-.01-.287-.04-1.156.293-1.963a2.877 2.877 0 0 1 1.065-1.32zM8.4 13v.503l-.427.263C7.016 14.356 6.4 15.61 6.4 17a3.6 3.6 0 0 0 7.2 0c0-1.302-.677-2.634-1.6-3.252l-.4-.268V13l.003-8 .001-.15c.005-.332.013-.78-.159-1.194a1.08 1.08 0 0 0-.4-.509c-.185-.124-.5-.247-1.044-.247-.545 0-.86.123-1.046.247a1.08 1.08 0 0 0-.4.509c-.172.418-.164.872-.158 1.202l.003.137.001 4.193V13zm6.7-7a.9.9 0 0 1 .9-.9h3a.9.9 0 0 1 0 1.8h-3a.9.9 0 0 1-.9-.9zM10 5.1a.9.9 0 0 1 .9.9v8.765c.225.085.446.205.65.368.514.412.85 1.048.85 1.867a2.3 2.3 0 0 1-.918 1.881c-.474.36-1.04.519-1.482.519-.487 0-1.055-.216-1.5-.572-.473-.379-.9-.993-.9-1.828 0-1.17.728-1.894 1.5-2.212V6a.9.9 0 0 1 .9-.9zM15.1 9a.9.9 0 0 1 .9-.9h1a.9.9 0 0 1 0 1.8h-1a.9.9 0 0 1-.9-.9zm0 3a.9.9 0 0 1 .9-.9h3a.9.9 0 0 1 0 1.8h-3a.9.9 0 0 1-.9-.9zm-5.506 4.563A.533.533 0 0 0 9.4 17c0 .165.073.3.225.422a.952.952 0 0 0 .25.143.56.56 0 0 0 .125.035c.002 0 .002 0 0 0a.78.78 0 0 0 .394-.153.507.507 0 0 0 .146-.166.584.584 0 0 0 .06-.281c0-.286-.098-.4-.175-.462A.713.713 0 0 0 10 16.4a.692.692 0 0 0-.406.163z" clip-rule="evenodd" style="fill: #990ae3;"/></svg>
