<?xml version="1.0" encoding="UTF-8"?>
<svg xmlns="http://www.w3.org/2000/svg" fill="none" viewBox="0 0 24 24"><path fill="#1E1E20" fill-rule="evenodd" d="M3.6 3.5c0-1.05.85-1.9 1.9-1.9h13c1.05 0 1.9.85 1.9 1.9v13a1.9 1.9 0 0 1-1.9 1.9h-.517l2.194 2.507a.9.9 0 0 1-1.354 1.186l-.94-1.075H6.117l-.94 1.075a.9.9 0 1 1-1.354-1.186L6.017 18.4H5.5a1.9 1.9 0 0 1-1.9-1.9v-13zm4.808 14.9l-.716.818h8.616l-.716-.818H8.408zM5.5 3.4a.1.1 0 0 0-.1.1v1.1h13.2V3.5a.1.1 0 0 0-.1-.1h-13zm13.1 3h-5.7v4.7h5.7V6.4zm0 6.5H5.4v3.6a.1.1 0 0 0 .1.1h13a.1.1 0 0 0 .1-.1v-3.6zM5.4 11.1h5.7V6.4H5.4v4.7zM8.1 15a.9.9 0 0 1 .9-.9h.5a.9.9 0 1 1 0 1.8H9a.9.9 0 0 1-.9-.9zm5.5 0a.9.9 0 0 1 .9-.9h.5a.9.9 0 0 1 0 1.8h-.5a.9.9 0 0 1-.9-.9z" clip-rule="evenodd" style="fill: #990ae3;"/></svg>
