<?xml version="1.0" encoding="UTF-8"?>
<svg xmlns="http://www.w3.org/2000/svg" fill="none" viewBox="0 0 24 25"><path fill="#1E1E20" fill-rule="evenodd" d="M7 3.9a2.1 2.1 0 1 0 0 4.2 2.1 2.1 0 0 0 0-4.2zM3.1 6a3.9 3.9 0 0 1 7.4-1.722A3.9 3.9 0 1 1 16.367 9.1H17a.9.9 0 0 1 .9.9v.615l3.235-1.437A.9.9 0 0 1 22.4 10v8a.9.9 0 0 1-1.337.787L17.9 17.03v.47a.9.9 0 0 1-.9.9h-5.627l-4.737 4.736a.9.9 0 1 1-1.272-1.272L8.827 18.4H3.5a.9.9 0 0 1-.9-.9V10a.9.9 0 0 1 .9-.9h1.133A3.894 3.894 0 0 1 3.1 6zm6.267 3.1h2.266A3.917 3.917 0 0 1 10.5 7.722 3.916 3.916 0 0 1 9.367 9.1zm8.533 5.87l2.7 1.5v-5.085l-2.7 1.2v2.385zM14 3.9a2.1 2.1 0 1 0 0 4.2 2.1 2.1 0 0 0 0-4.2zm-9.6 7v5.7h11.7v-5.7H4.4zm7.964 8.464a.9.9 0 0 1 1.272 0l2.5 2.5a.9.9 0 1 1-1.272 1.272l-2.5-2.5a.9.9 0 0 1 0-1.272z" clip-rule="evenodd" style="fill: #990ae3;"/></svg>
