<?xml version="1.0" encoding="UTF-8"?>
<svg xmlns="http://www.w3.org/2000/svg" fill="none" viewBox="0 0 24 24"><path fill="#1E1E20" fill-rule="evenodd" d="M8 14.1a.9.9 0 0 1 .9.9v.5a.9.9 0 1 1-1.8 0V15a.9.9 0 0 1 .9-.9zm8 0a.9.9 0 0 1 .9.9v.5a.9.9 0 1 1-1.8 0V15a.9.9 0 0 1 .9-.9z" clip-rule="evenodd" style="fill: #990ae3;"/><path fill="#1E1E20" fill-rule="evenodd" d="M7 2.1h10c.954 0 1.82.322 2.448.951a3.078 3.078 0 0 1 .41.504c.343.516.542 1.163.542 1.945v.826c.595.321 1 .95 1 1.674v2a1.9 1.9 0 0 1-1 1.674v5.329c0 .915-.645 1.672-1.5 1.855V20a1.9 1.9 0 0 1-1.9 1.9h-1a1.9 1.9 0 0 1-1.9-1.9v-1.1H9.9V20A1.9 1.9 0 0 1 8 21.9H7A1.9 1.9 0 0 1 5.1 20v-1.142a1.897 1.897 0 0 1-1.5-1.855v-5.33A1.9 1.9 0 0 1 2.6 10V8a1.9 1.9 0 0 1 1-1.674V5.5c0-.782.198-1.43.541-1.945.34-.51.787-.838 1.206-1.047a3.971 3.971 0 0 1 1.63-.408H6.999S7 2.1 7 3v-.9zm.005 1.8h-.003l-.046.003a2.174 2.174 0 0 0-.804.215 1.296 1.296 0 0 0-.513.436 1.399 1.399 0 0 0-.207.546h13.132a1.546 1.546 0 0 0-.235-.59 1.316 1.316 0 0 0-.482-.393 2.174 2.174 0 0 0-.85-.217H7.006zm11.595 3h-5.7v4.7h5.7V6.9zm0 6.5H5.4v3.603c0 .052.04.097.1.097h13c.058 0 .1-.045.1-.097V13.4zm-1.5 5.5h-1.2V20a.1.1 0 0 0 .1.1h1a.1.1 0 0 0 .1-.1v-1.1zm-9 0H6.9V20a.1.1 0 0 0 .1.1h1a.1.1 0 0 0 .1-.1v-1.1zm-2.7-7.3h5.7V6.9H5.4v4.7z" clip-rule="evenodd" style="fill: #990ae3;"/></svg>
