<?xml version="1.0" encoding="UTF-8"?>
<svg xmlns="http://www.w3.org/2000/svg" fill="none" viewBox="0 0 24 24"><path fill="#1E1E20" d="M19 20h-3V4h3v16zM8 20H5V4h3v16z" style="fill: #990ae3;"/><path fill="#1E1E20" fill-rule="evenodd" d="M4.1 4a.9.9 0 0 1 .9-.9h3a.9.9 0 0 1 .9.9v16a.9.9 0 0 1-.9.9H5a.9.9 0 0 1-.9-.9V4zm1.8.9v14.2h1.2V4.9H5.9zm9.2-.9a.9.9 0 0 1 .9-.9h3a.9.9 0 0 1 .9.9v16a.9.9 0 0 1-.9.9h-3a.9.9 0 0 1-.9-.9V4zm1.8.9v14.2h1.2V4.9h-1.2z" clip-rule="evenodd" style="fill: #990ae3;"/></svg>
