<?xml version="1.0" encoding="UTF-8"?>
<svg xmlns="http://www.w3.org/2000/svg" fill="none" viewBox="0 0 24 24"><path fill="#1E1E20" fill-rule="evenodd" d="M13 4.9a1.1 1.1 0 1 0 0 2.2 1.1 1.1 0 0 0 0-2.2zm-.963 3.836A2.9 2.9 0 1 0 10.6 7.628L7.127 11.1h-.37A2.901 2.901 0 0 0 1.1 12a2.9 2.9 0 0 0 5.658.9h2.87l2.972 2.973V18.5c0 1.05.85 1.9 1.9 1.9h2a1.9 1.9 0 0 0 1.9-1.9v-2a1.9 1.9 0 0 0-1.9-1.9h-2.627l-1.7-1.7h7.154l-.963.964a.9.9 0 1 0 1.272 1.272l2.5-2.5a.9.9 0 0 0 0-1.272l-2.5-2.5a.9.9 0 0 0-1.272 1.272l.963.964H9.673l2.364-2.364zM14.4 16.4v2.1a.1.1 0 0 0 .1.1h2a.1.1 0 0 0 .1-.1v-2a.1.1 0 0 0-.1-.1h-2.1zM4 10.9a1.1 1.1 0 1 0 0 2.2 1.1 1.1 0 0 0 0-2.2z" clip-rule="evenodd" style="fill: #990ae3;"/></svg>
