<?xml version="1.0" encoding="UTF-8"?>
<svg xmlns="http://www.w3.org/2000/svg" fill="none" viewBox="0 0 24 24"><path fill="#1E1E20" fill-rule="evenodd" d="M1.6 6.5c0-1.05.85-1.9 1.9-1.9h17c1.05 0 1.9.85 1.9 1.9v11a1.9 1.9 0 0 1-1.9 1.9h-17a1.9 1.9 0 0 1-1.9-1.9v-11zm1.9-.1a.1.1 0 0 0-.1.1v11a.1.1 0 0 0 .1.1h17a.1.1 0 0 0 .1-.1v-11a.1.1 0 0 0-.1-.1h-17zM9 8.9c-.791 0-1.45.652-1.45 1.478 0 .397.151.754.399 1.019a1.431 1.431 0 0 0 2.103 0c.247-.265.399-.622.399-1.019C10.45 9.552 9.79 8.9 9 8.9zm-3.25 1.478C5.75 8.578 7.194 7.1 9 7.1s3.25 1.478 3.25 3.278c0 .394-.068.771-.195 1.122.31.143.653.348.927.639.75.793 1.128 2.023.797 3.792a1.19 1.19 0 0 1-1.172.969H5.393a1.193 1.193 0 0 1-1.172-.972c-.192-1.025-.149-1.876.083-2.577a3.16 3.16 0 0 1 1.63-1.884 3.299 3.299 0 0 1-.185-1.089zm1.262 2.594c-.166.049-.355.13-.526.259-.183.14-.362.348-.473.684-.089.269-.144.65-.094 1.185h6.162c.096-1.01-.184-1.489-.407-1.725-.111-.118-.346-.246-.646-.35a3.347 3.347 0 0 0-.076-.025A3.22 3.22 0 0 1 9 13.657c-.75 0-1.44-.257-1.988-.685zM14.1 8.5a.9.9 0 0 1 .9-.9h3.5a.9.9 0 1 1 0 1.8H15a.9.9 0 0 1-.9-.9zm0 2.5a.9.9 0 0 1 .9-.9h3.5a.9.9 0 1 1 0 1.8H15a.9.9 0 0 1-.9-.9z" clip-rule="evenodd" style="fill: #990ae3;"/></svg>
