<?xml version="1.0" encoding="UTF-8"?>
<svg xmlns="http://www.w3.org/2000/svg" fill="none" viewBox="0 0 24 25"><path fill="#1E1E20" fill-rule="evenodd" d="M1.6 5.5a.9.9 0 0 1 .9-.9h19a.9.9 0 0 1 .9.9v12a.9.9 0 0 1-.9.9h-6.75a.9.9 0 1 1 0-1.8h1.707c-.259-.852-.912-1.848-2.29-2.357A3.882 3.882 0 0 1 12 14.9a3.882 3.882 0 0 1-2.167-.657c-1.378.509-2.031 1.505-2.29 2.357H12a.9.9 0 0 1 .9.9v2.6H16a.9.9 0 1 1 0 1.8H8a.9.9 0 1 1 0-1.8h3.1v-1.7H2.5a.9.9 0 0 1-.9-.9v-12zm4.093 11.1c.252-1.272 1.056-2.853 2.865-3.764a3.9 3.9 0 1 1 6.884 0c1.81.911 2.613 2.492 2.865 3.764H20.6V6.4H3.4v10.2h2.293zM12 8.9a2.1 2.1 0 1 0 0 4.2 2.1 2.1 0 0 0 0-4.2z" clip-rule="evenodd" style="fill: #990ae3;"/></svg>
