<?xml version="1.0" encoding="UTF-8"?>
<svg xmlns="http://www.w3.org/2000/svg" fill="none" viewBox="0 0 24 24"><path fill="#1E1E20" fill-rule="evenodd" d="M8.874 4.261c-.488-.02-1.271-.007-2.442.135-1.105.133-1.796.54-2.27 1.03-.494.508-.809 1.162-1.057 1.87-.125.358-.19.892-.199 1.703-.007.682.025 1.486.063 2.452l.02.514a.9.9 0 0 1-1.799.07l-.02-.505c-.037-.961-.071-1.819-.063-2.55.009-.848.072-1.63.299-2.278.283-.81.705-1.748 1.463-2.53.777-.8 1.855-1.383 3.347-1.563 1.365-.165 2.293-.175 2.895-.138 1 .06 1.571.916 1.563 1.74l-.028 2.896a1.9 1.9 0 0 1-1.881 1.881l-1.497.015a.1.1 0 0 0-.1.099L7.11 15.17a.1.1 0 0 0 .101.101l1.419-.014a1.9 1.9 0 0 1 1.918 1.919l-.037 3.759c-.004.477-.24 1.218-1.04 1.433-.62.167-1.67.23-3.49-.116-1.738-.33-2.931-1.404-3.67-2.58-.727-1.16-1.055-2.477-1.045-3.46a.9.9 0 0 1 1.8.018c-.006.627.22 1.608.77 2.484.538.858 1.344 1.553 2.482 1.77 1.262.24 2 .24 2.396.197l.034-3.523a.1.1 0 0 0-.1-.1l-1.42.013a1.9 1.9 0 0 1-1.918-1.918l.06-6.069a1.9 1.9 0 0 1 1.881-1.88l1.497-.016a.1.1 0 0 0 .1-.099l.027-2.828zm0-.079zm6.762 1.182a.9.9 0 0 1 0 1.272l-.963.964H18a.9.9 0 0 1 0 1.8h-3.327l.963.964a.9.9 0 1 1-1.272 1.272l-2.5-2.5a.9.9 0 0 1 0-1.272l2.5-2.5a.9.9 0 0 1 1.272 0zm1.728 8.272a.9.9 0 1 1 1.272-1.272l2.5 2.5a.9.9 0 0 1 0 1.272l-2.5 2.5a.9.9 0 1 1-1.272-1.272l.963-.964H15a.9.9 0 1 1 0-1.8h3.327l-.963-.964z" clip-rule="evenodd" style="fill: #990ae3;"/></svg>
