<?xml version="1.0" encoding="UTF-8"?>
<svg xmlns="http://www.w3.org/2000/svg" fill="none" viewBox="0 0 24 24"><path fill="#1E1E20" fill-rule="evenodd" d="M18.636 1.364a.9.9 0 0 1 0 1.272L15.273 6 18 8.727l3.364-3.363a.9.9 0 0 1 1.272 1.272L19.273 10l.656.656a1.9 1.9 0 0 1 0 2.688l-4.466 4.466a4.9 4.9 0 0 1-6.231.578l-3.576 3.575a2.56 2.56 0 1 1-3.62-3.62l3.576-3.575a4.899 4.899 0 0 1 .578-6.231l4.466-4.466a1.9 1.9 0 0 1 2.688 0l.656.656 3.364-3.363a.9.9 0 0 1 1.272 0zM6.826 16.1L3.31 19.615a.76.76 0 0 0 1.074 1.074L7.9 17.173 6.827 16.1zm5.245-10.756a.1.1 0 0 0-.142 0L7.463 9.81a3.098 3.098 0 0 0 0 4.38l2.347 2.347a3.098 3.098 0 0 0 4.38 0l4.466-4.466a.1.1 0 0 0 0-.142l-6.585-6.585z" clip-rule="evenodd" style="fill: #990ae3;"/></svg>
