<?xml version="1.0" encoding="UTF-8"?>
<svg xmlns="http://www.w3.org/2000/svg" fill="none" viewBox="0 0 24 24"><path fill="#1E1E20" d="M16.9 4a.9.9 0 0 0-1.8 0v.707a.9.9 0 1 0 1.8 0V4zM12.636 4.864a.9.9 0 0 0-1.273 1.272l.5.5a.9.9 0 0 0 1.273-1.272l-.5-.5zM21.136 4.864a.9.9 0 0 1 0 1.272l-.5.5a.9.9 0 0 1-1.273-1.272l.5-.5a.9.9 0 0 1 1.273 0z" style="fill: #990ae3;"/><path fill="#1E1E20" fill-rule="evenodd" d="M16.5 6.1a3.4 3.4 0 0 0-3.4 3.4l.056 1.056a5.29 5.29 0 0 0-.49.115c-.2-.311-.478-.69-.843-1.06-.864-.876-2.258-1.739-4.2-1.457-1.99.288-2.99 1.618-3.46 2.777a6.472 6.472 0 0 0-.397 1.482 6.834 6.834 0 0 0-1.334.512c-1.029.53-2.254 1.56-2.328 3.386-.075 1.84.851 3.332 2.57 4.444a.9.9 0 0 0 .489.145H13.6a.9.9 0 0 0 0-1.8H3.438c-1.152-.813-1.577-1.712-1.536-2.715.037-.91.612-1.478 1.355-1.86a5.074 5.074 0 0 1 1.446-.477l.018-.003a.9.9 0 0 0 .781-.889v-.019l.005-.087a4.688 4.688 0 0 1 .323-1.441c.317-.781.892-1.506 2.05-1.674 1.208-.175 2.063.333 2.661.94a4.767 4.767 0 0 1 .876 1.247l.006.014c.502.558.682.632 1.447.362.153-.058.368-.127.613-.172.51-.094 1.018-.065 1.413.203.374.253.523.637.565 1.055a2.597 2.597 0 0 1-.029.693l-.003.015-.002.013-.002.005v.003a.898.898 0 0 0 .796 1.106l.01.001.06.008a3.497 3.497 0 0 1 .978.282c.523.243.83.57.83 1.095 0 .729-.308 1.19-.62 1.487a2.33 2.33 0 0 1-.608.414.9.9 0 0 0 .65 1.678c.307.806.001 0 .001 0l.002-.001.005-.002.01-.004.03-.012.086-.038a4.13 4.13 0 0 0 1.065-.731 3.759 3.759 0 0 0 1.18-2.791c0-1.527-1.042-2.342-1.87-2.727a5.06 5.06 0 0 0-.758-.278 3.768 3.768 0 0 0-.12-.962A3.401 3.401 0 0 0 16.5 6.1zm-1.6 3.4a1.6 1.6 0 1 1 3.2 0 1.6 1.6 0 0 1-3.2 0z" clip-rule="evenodd" style="fill: #990ae3;"/><path fill="#1E1E20" d="M20.6 10.354a.9.9 0 0 1 .9-.9h.707a.9.9 0 0 1 0 1.8H21.5a.9.9 0 0 1-.9-.9zM20.636 13.364a.9.9 0 1 0-1.273 1.272l.5.5a.9.9 0 1 0 1.273-1.272l-.5-.5z" style="fill: #990ae3;"/></svg>
