<?xml version="1.0" encoding="UTF-8"?>
<svg xmlns="http://www.w3.org/2000/svg" fill="none" viewBox="0 0 24 24"><path fill="#1E1E20" fill-rule="evenodd" d="M20.61 9.847a12.421 12.421 0 0 0-11.425-3.36.875.875 0 1 1-.37-1.711c4.55-.982 9.493.295 13.032 3.834a.875.875 0 1 1-1.238 1.237zM7.301 6.151a.875.875 0 0 1-.453 1.151l-.183.08c-.527.228-.973.422-1.406.691a12.471 12.471 0 0 0-2.232 1.774A.875.875 0 1 1 1.79 8.61c.785-.785 1.64-1.46 2.546-2.023.55-.342 1.118-.588 1.63-.81.063-.026.124-.053.185-.08a.875.875 0 0 1 1.151.454zm4.825 3.284a.875.875 0 0 1 .938-.808c2.383.178 4.12 1.303 5.805 2.988a.875.875 0 1 1-1.237 1.237c-1.521-1.52-2.889-2.344-4.698-2.48a.875.875 0 0 1-.808-.937zm-1.518.172c.109.471-.184.941-.655 1.05a8.179 8.179 0 0 0-3.949 2.195.875.875 0 0 1-1.237-1.237 9.929 9.929 0 0 1 4.79-2.663c.472-.109.942.184 1.05.655zm4.024 6.248a3.97 3.97 0 0 0-5.624 0 .875.875 0 0 1-1.237-1.238 5.72 5.72 0 0 1 8.098 0 .875.875 0 1 1-1.237 1.238z" clip-rule="evenodd" style="fill: #990ae3;"/><path fill="#1E1E20" fill-rule="evenodd" d="M2.364 2.364a.9.9 0 0 1 1.272 0l16.5 16.5a.9.9 0 1 1-1.272 1.272l-16.5-16.5a.9.9 0 0 1 0-1.272zM10.6 18a.9.9 0 0 1 .9-.9h1a.9.9 0 0 1 0 1.8h-1a.9.9 0 0 1-.9-.9z" clip-rule="evenodd" style="fill: #990ae3;"/></svg>
