<?xml version="1.0" encoding="UTF-8"?>
<svg xmlns="http://www.w3.org/2000/svg" fill="none" viewBox="0 0 24 24"><path fill="#1E1E20" fill-rule="evenodd" d="M20.592 9.865c-4.845-4.845-12.7-4.845-17.546 0a.9.9 0 0 1-1.273-1.273c5.548-5.548 14.544-5.548 20.092 0a.9.9 0 1 1-1.273 1.273zm-2.977 3.005a8.197 8.197 0 0 0-11.592 0 .9.9 0 0 1-1.273-1.273c3.904-3.904 10.234-3.904 14.138 0a.9.9 0 1 1-1.273 1.273zm-3 3.003a3.951 3.951 0 0 0-5.588 0A.9.9 0 0 1 7.754 14.6a5.752 5.752 0 0 1 8.134 0 .9.9 0 1 1-1.273 1.273zM10.6 18a.9.9 0 0 1 .9-.9h1a.9.9 0 1 1 0 1.8h-1a.9.9 0 0 1-.9-.9z" clip-rule="evenodd" style="fill: #990ae3;"/></svg>
