<?xml version="1.0" encoding="UTF-8"?>
<svg xmlns="http://www.w3.org/2000/svg" fill="none" viewBox="0 0 24 24"><path fill="#1E1E20" fill-rule="evenodd" d="M4.03 10.543c-.085.473-.13.96-.13 1.457a8.085 8.085 0 0 0 3.15 6.412.9.9 0 0 1-1.1 1.425A9.885 9.885 0 0 1 2.1 12c0-5.468 4.432-9.9 9.9-9.9s9.9 4.432 9.9 9.9c0 .561-.047 1.112-.137 1.649a.9.9 0 0 1-1.775-.298 8.163 8.163 0 0 0-.628-4.738l-.61.61a.9.9 0 0 1-1.273-1.273l.92-.92a8.11 8.11 0 0 0-4.147-2.813v1.56a1.8 1.8 0 0 1-.527 1.273l-.823.823v.077a.9.9 0 1 1 0 1.8 1.8 1.8 0 0 1-1.8-1.8v-.077c0-.478.19-.935.527-1.273l.823-.823V3.912a8.066 8.066 0 0 0-4.05.83v3.386a1.8 1.8 0 0 1-1.41 1.757l-2.96.658zm.636-1.985l1.934-.43V5.963a8.125 8.125 0 0 0-1.934 2.595zm9.189 1.492c.73-1.267 2.56-1.267 3.29 0l5.63 9.75c.73 1.267-.183 2.85-1.646 2.85H9.871c-1.463 0-2.377-1.583-1.646-2.85l.978-1.692-1.053-.527a1.892 1.892 0 0 1-1.048-1.708c.005-.51.021-.972.12-1.374.11-.455.318-.812.642-1.135.339-.34.804-.641 1.235-.857.402-.2.934-.407 1.401-.407a.9.9 0 1 1-.001 1.8c-.011.002-.068.008-.178.043a3.01 3.01 0 0 0-.418.175c-.32.16-.606.358-.767.518a.53.53 0 0 0-.166.29c-.043.174-.063.44-.068.964 0 .029.016.063.053.081l1.15.575 3.75-6.496zm1.594.862a.091.091 0 0 0-.036.038L9.784 20.7a.092.092 0 0 0-.015.05c0 .014.005.032.015.05.01.018.024.03.036.038.01.006.025.012.05.012h11.26a.091.091 0 0 0 .086-.05.107.107 0 0 0 .015-.05.093.093 0 0 0-.015-.05l-5.63-9.75a.091.091 0 0 0-.035-.038.105.105 0 0 0-.051-.012.106.106 0 0 0-.05.012z" clip-rule="evenodd" style="fill: #990ae3;"/><path fill="#1E1E20" d="M16.082 18.532l.264-4.288a.597.597 0 1 0-1.191.001l.27 4.287h.657zm-.332 1.65a.538.538 0 0 0 .525-.517.543.543 0 0 0-.525-.518.547.547 0 0 0-.524.518c0 .272.252.517.524.517z" style="fill: #990ae3;"/><path fill="#1E1E20" fill-rule="evenodd" d="M16.189 18.642h-.87l-.273-4.393a.706.706 0 1 1 1.409 0l-.266 4.393zm.157-4.398a.597.597 0 1 0-1.191.001l.27 4.287h.657l.264-4.288zm.04 5.42a.648.648 0 0 1-.636.63.653.653 0 0 1-.635-.63c0-.167.079-.324.193-.437a.638.638 0 0 1 .442-.19c.34 0 .635.3.635.628zm-.111 0a.538.538 0 0 1-.525.518.542.542 0 0 1-.524-.517c0-.266.252-.518.524-.518.279 0 .525.252.525.518z" clip-rule="evenodd" style="fill: #990ae3;"/></svg>
