<?xml version="1.0" encoding="UTF-8"?>
<svg xmlns="http://www.w3.org/2000/svg" fill="none" viewBox="0 0 24 24"><path fill="#1E1E20" fill-rule="evenodd" d="M2.364 2.364a.9.9 0 0 1 1.272 0l5 5 9.693 9.692A8.063 8.063 0 0 0 20.1 12c0-1.21-.265-2.357-.74-3.387l-.61.61v.977a1.8 1.8 0 0 1-1.8 1.8h-.74a1.8 1.8 0 0 1-1.672-1.132l-.447-1.118H12.9a1.8 1.8 0 0 1-1.8-1.8v-.077c0-.478.19-.935.527-1.273l.823-.823.636.637-.636-.637V3.912a8.062 8.062 0 0 0-4.094.852.9.9 0 1 1-.812-1.607A9.862 9.862 0 0 1 12 2.1c5.468 0 9.9 4.432 9.9 9.9 0 2.41-.862 4.619-2.292 6.335l2.028 2.029a.9.9 0 1 1-1.272 1.272l-6.114-6.113v1.427a1.8 1.8 0 0 1-1.8 1.8h-.527a1.8 1.8 0 0 1-1.273-.527L9.377 16.95H8.85a1.8 1.8 0 0 1 0-3.6h3.227L8.082 9.355c-.32.238-.731.45-1.092.53l-2.96.658A8.1 8.1 0 0 0 15.6 19.259a.9.9 0 1 1 .801 1.611A9.862 9.862 0 0 1 12 21.9c-5.468 0-9.9-4.432-9.9-9.9 0-2.41.862-4.619 2.292-6.335L2.364 3.636a.9.9 0 0 1 0-1.272zm3.307 4.58a8.1 8.1 0 0 0-1.006 1.614l1.935-.43.012-.003a1.216 1.216 0 0 0 .168-.072L5.67 6.943zm8.579-2.727v1.56a1.8 1.8 0 0 1-.527 1.273l-.823.823v.077h1.19a1.8 1.8 0 0 1 1.672 1.131l.447 1.119h.741v-.977c0-.478.19-.935.527-1.273l.92-.92a8.11 8.11 0 0 0-4.147-2.813zm-1.8 10.933H9.377a1.8 1.8 0 0 1 1.273.527l1.273 1.273h.527v-1.8z" clip-rule="evenodd" style="fill: #990ae3;"/></svg>
