<?xml version="1.0" encoding="UTF-8"?>
<svg xmlns="http://www.w3.org/2000/svg" fill="none" viewBox="0 0 24 24"><path fill="#1E1E20" d="M15.838 17.045c-.105-1.336 1.662-1.398 1.662-2.892 0-.906-.73-1.653-1.943-1.653-.853 0-1.582.413-2.057 1.178l.8.615c.352-.51.739-.79 1.248-.79.519 0 .844.316.844.711 0 1.029-1.828 1.064-1.477 2.831h.924zm-.465 1.82c.369 0 .694-.325.694-.686 0-.351-.325-.686-.694-.686-.37 0-.695.335-.695.686 0 .36.325.686.694.686z" style="fill: #990ae3;"/><path fill="#1E1E20" fill-rule="evenodd" d="M4.03 10.543c-.085.473-.13.96-.13 1.457a8.085 8.085 0 0 0 3.15 6.412c1.04.804 1.583 1.086 1.822 1.178l.04.014a.9.9 0 0 1 .618 1.623L9 20.5c.53.727.528.729.526.73l-.004.003-.008.006-.017.011a1.042 1.042 0 0 1-.107.061.993.993 0 0 1-.158.061c-.108.032-.219.045-.328.044a1.933 1.933 0 0 1-.679-.147c-.48-.184-1.185-.59-2.275-1.432A9.885 9.885 0 0 1 2.1 12c0-5.468 4.432-9.9 9.9-9.9s9.9 4.432 9.9 9.9c0 .561-.047 1.112-.137 1.649a.9.9 0 0 1-.07.229 6.4 6.4 0 1 1-1.655-2.892 8.048 8.048 0 0 0-.678-2.373l-.61.61a.9.9 0 0 1-1.273-1.273l.92-.92a8.11 8.11 0 0 0-4.147-2.813v1.56a1.8 1.8 0 0 1-.527 1.273l-.014.014c.217-.04.507-.091.722-.091a.9.9 0 0 1 0 1.8h-.001c-.009 0-.044.003-.115.014-.084.012-.187.03-.311.053l-.149.028c-.21.039-.458.085-.693.12-.278.041-.626.082-.928.056a1.428 1.428 0 0 1-.608-.18 1.054 1.054 0 0 1-.526-.914v-.077c0-.478.19-.935.527-1.273l.823-.823V3.912a8.066 8.066 0 0 0-4.05.83v3.386a1.8 1.8 0 0 1-1.41 1.757l-2.96.658zm.636-1.985l1.934-.43V5.963a8.125 8.125 0 0 0-1.934 2.595zM15.5 10.9a4.6 4.6 0 1 0 0 9.2 4.6 4.6 0 0 0 0-9.2zm-6.864 1.964a.9.9 0 0 1 0 1.272c-.41.41-.708.714-.734 1.305a2.447 2.447 0 0 0 .214.382c.083.123.17.233.245.314.037.039.064.064.08.078a.9.9 0 0 1-.843 1.59 2.05 2.05 0 0 1-.559-.447 4.555 4.555 0 0 1-.412-.524 4.234 4.234 0 0 1-.337-.586c-.077-.168-.193-.451-.19-.757.013-1.382.786-2.151 1.22-2.583l.044-.044a.9.9 0 0 1 1.272 0z" clip-rule="evenodd" style="fill: #990ae3;"/></svg>
