<?xml version="1.0" encoding="UTF-8"?>
<svg xmlns="http://www.w3.org/2000/svg" fill="none" viewBox="0 0 24 24"><path fill="#1E1E20" fill-rule="evenodd" d="M4.03 10.543a8.1 8.1 0 1 0 15.33-1.93l-.61.61v.977a1.8 1.8 0 0 1-1.8 1.8h-.74a1.8 1.8 0 0 1-1.672-1.132l-.447-1.118H12.9a1.8 1.8 0 0 1-1.8-1.8v-.077c0-.478.19-.935.527-1.273l.637.636-.637-.636.823-.823V3.912a8.067 8.067 0 0 0-4.05.83v3.386a1.8 1.8 0 0 1-1.41 1.757l-2.96.658zm.636-1.985l1.934-.43V5.963a8.125 8.125 0 0 0-1.934 2.595zm9.584-4.341v1.56a1.8 1.8 0 0 1-.527 1.273l-.823.823v.077h1.19a1.8 1.8 0 0 1 1.672 1.131l.447 1.119h.741v-.977c0-.478.19-.935.527-1.273l.92-.92a8.11 8.11 0 0 0-4.147-2.813zM2.1 12c0-5.468 4.432-9.9 9.9-9.9s9.9 4.432 9.9 9.9-4.432 9.9-9.9 9.9-9.9-4.432-9.9-9.9zm4.95 3.15a1.8 1.8 0 0 1 1.8-1.8h3.6a1.8 1.8 0 0 1 1.8 1.8v1.8a1.8 1.8 0 0 1-1.8 1.8h-.527a1.8 1.8 0 0 1-1.273-.527L9.377 16.95H8.85a1.8 1.8 0 0 1-1.8-1.8zm5.4 0H9.377a1.8 1.8 0 0 1 1.273.527l1.273 1.273h.527v-1.8z" clip-rule="evenodd" style="fill: #990ae3;"/></svg>
