<?xml version="1.0" encoding="UTF-8"?>
<svg xmlns="http://www.w3.org/2000/svg" fill="none" viewBox="0 0 24 24"><path fill="#1E1E20" fill-rule="evenodd" d="M11 3.9a7.1 7.1 0 0 0-7.1 7.105 7.096 7.096 0 0 0 7.105 7.095c.776 0 1.52-.123 2.217-.349a.9.9 0 1 1 .556 1.712 8.953 8.953 0 0 1-2.773.437c-4.917 0-8.905-3.975-8.905-8.895C2.1 6.088 6.081 2.1 11 2.1c4.919 0 8.9 3.988 8.9 8.905 0 2.13-.742 4.09-1.991 5.624l4.228 4.235a.9.9 0 0 1-1.274 1.272l-4.83-4.838a.9.9 0 0 1 0-1.272 7.071 7.071 0 0 0 2.067-5.021A7.1 7.1 0 0 0 11 3.9zM6.1 11a.9.9 0 0 1 .9-.9h8a.9.9 0 0 1 0 1.8H7a.9.9 0 0 1-.9-.9z" clip-rule="evenodd" style="fill: #990ae3;"/></svg>
